<svg width="48" height="47" viewBox="0 0 48 47" fill="none" xmlns="http://www.w3.org/2000/svg">
<path d="M47.0936 23.0992C47.0936 35.8509 36.7562 46.1882 24.0042 46.1882C11.2519 46.1882 0.913513 35.8509 0.913513 23.0992C0.913513 10.3479 11.2519 0.00952148 24.0042 0.00952148C36.7566 0.00952148 47.0936 10.3479 47.0936 23.0992Z" fill="#F58220"/>
<path d="M18.4529 16.8385H17.1111V27.035H18.4529V16.8385Z" fill="white"/>
<path d="M9.59529 20.2025H8.24225V27.0185H9.59529V20.2025Z" fill="white"/>
<path d="M10.9762 26.5291V25.0719C11.3563 25.34 11.7453 25.5554 12.144 25.7228C12.5409 25.8885 12.8753 25.9716 13.1468 25.9716C13.428 25.9716 13.6706 25.9019 13.8734 25.763C14.0761 25.6255 14.1768 25.4589 14.1768 25.2678C14.1768 25.0709 14.1115 24.9052 13.9792 24.775C13.8493 24.644 13.5647 24.455 13.1307 24.2086C12.2605 23.7237 11.689 23.3106 11.4202 22.9676C11.1501 22.6236 11.0164 22.249 11.0164 21.8427C11.0164 21.3197 11.2202 20.8925 11.6278 20.5615C12.0354 20.2302 12.5588 20.0649 13.2022 20.0649C13.8685 20.0649 14.5525 20.2529 15.2539 20.6278V21.962C14.4531 21.4802 13.8002 21.241 13.2922 21.241C13.03 21.241 12.819 21.2959 12.6581 21.4076C12.4987 21.5166 12.4186 21.6651 12.4186 21.8472C12.4186 22.0049 12.4911 22.1558 12.6368 22.2995C12.7822 22.4411 13.0372 22.6143 13.4039 22.8167L13.8857 23.092C15.0216 23.7326 15.5904 24.4454 15.5904 25.2259C15.5904 25.784 15.3711 26.2421 14.9357 26.6009C14.4975 26.9569 13.9356 27.136 13.2496 27.136C12.8451 27.136 12.4846 27.093 12.1691 27.0075C11.8529 26.9195 11.4549 26.7593 10.9762 26.5291Z" fill="white"/>
<path d="M27.6238 20.1828C28.6613 20.1828 29.5219 20.5189 30.2092 21.187C30.8972 21.8568 31.2402 22.6988 31.2402 23.7116C31.2402 24.6956 30.8921 25.5118 30.1958 26.1617C29.4981 26.8136 28.6214 27.1363 27.5643 27.1363C26.5405 27.1363 25.6875 26.8074 25.0008 26.1462C24.3135 25.4877 23.9712 24.6622 23.9712 23.6756C23.9712 22.6779 24.3169 21.8441 25.0111 21.1808C25.7057 20.5162 26.5766 20.1828 27.6238 20.1828ZM27.5492 21.3984C26.901 21.3984 26.37 21.6097 25.9566 22.0366C25.5418 22.4596 25.3339 23.0009 25.3339 23.6587C25.3339 24.3103 25.5459 24.8423 25.9693 25.2544C26.3958 25.6668 26.9402 25.8734 27.6076 25.8734C28.2706 25.8734 28.8125 25.6658 29.2349 25.2468C29.6562 24.8276 29.8679 24.2949 29.8679 23.6422C29.8679 22.9961 29.6476 22.4596 29.2081 22.0366C28.7699 21.6097 28.2149 21.3984 27.5492 21.3984Z" fill="white"/>
<path d="M34.0814 20.2024V21.0622C34.6828 20.3969 35.364 20.0652 36.128 20.0652C36.552 20.0652 36.9466 20.1752 37.3105 20.3941C37.6752 20.6148 37.9525 20.9169 38.1422 21.2994C38.3323 21.6822 38.4271 22.2888 38.4271 23.1198V27.0185H37.0727V23.1346C37.0727 22.4366 36.9689 21.9396 36.7569 21.6396C36.5452 21.3413 36.1926 21.1904 35.6956 21.1904C35.0608 21.1904 34.523 21.5104 34.0814 22.1486V27.0185H32.6995V20.2024H34.0814Z" fill="white"/>
<path d="M40.7538 25.3689C41.0054 25.3689 41.2219 25.4548 41.3982 25.6287C41.5755 25.8005 41.6652 26.0129 41.6652 26.2638C41.6652 26.5109 41.5759 26.7171 41.402 26.8865C41.2264 27.0536 41.0099 27.136 40.7535 27.136C40.5012 27.136 40.2909 27.0536 40.1167 26.8865C39.9441 26.7171 39.8572 26.5109 39.8572 26.2638C39.8572 26.0129 39.9441 25.8005 40.1167 25.6287C40.2912 25.4548 40.5012 25.3689 40.7538 25.3689Z" fill="white"/>
<path fill-rule="evenodd" clip-rule="evenodd" d="M22.0267 20.2107H23.5303L20.6465 23.4601L24.2221 27.0346H22.3522L18.98 23.622L22.0267 20.2107Z" fill="white"/>
</svg>
