<svg width="127" height="47" viewBox="0 0 127 47" fill="none" xmlns="http://www.w3.org/2000/svg">
<g clip-path="url(#clip0_1_2812)">
<path d="M0.696442 6.10352e-05V46.1802H46.8766V6.10352e-05H0.696442Z" fill="#00A184"/>
<path d="M34.5535 22.763C33.0977 21.5339 30.0213 20.1401 25.1421 18.4896C21.4883 17.3003 18.8554 16.0681 17.3122 14.8297C15.5163 13.3999 14.7543 11.7564 14.9809 9.80732C15.2245 7.77481 16.2683 6.358 18.1845 5.47958C19.5201 4.84392 21.0441 4.54909 22.7198 4.60115C22.7198 4.60115 23.0116 4.58816 23.1058 4.58816C23.2811 4.58507 23.7544 4.46487 23.7866 4.02677C23.8127 3.62552 23.4266 3.45622 23.239 3.41411C23.0575 3.37887 22.7657 3.35896 22.7657 3.35896C19.6916 3.07408 16.871 3.88739 14.3882 5.76834C11.5676 7.90498 9.97239 10.3947 9.64461 13.1694C9.26859 16.3277 10.3936 19.1774 12.9094 21.4144C14.4433 22.747 17.2892 24.1829 21.3711 25.6809C25.3788 27.1559 28.1833 28.4785 29.7035 29.6035C31.8854 31.2279 32.8059 33.1861 32.521 35.5916C32.2874 37.5368 31.2306 39.0999 29.3795 40.241C27.7904 41.2006 26.1109 41.6218 24.3732 41.4893C24.3732 41.4893 24.0784 41.4633 23.975 41.4602C23.7093 41.4434 23.0506 41.4273 22.9893 41.9979C22.9243 42.5814 23.6924 42.7078 23.975 42.7277C24.0623 42.7338 24.3219 42.7499 24.3219 42.7499C24.6749 42.7759 25.028 42.789 25.3719 42.789C27.9397 42.789 30.2801 42.1051 32.3265 40.7625C35.6625 38.6098 37.4844 35.8482 37.8995 32.3207C38.3567 28.4624 37.1375 24.9771 34.5535 22.763Z" fill="#FEFEFE"/>
<path d="M58.2334 25.671L59.579 23.2946C59.8057 22.9216 60.351 22.9806 60.5516 23.123C60.665 23.1812 62.7274 24.6983 64.6175 24.6983C65.7616 24.6983 66.5918 23.9823 66.5918 22.9806C66.5918 21.7774 65.5901 20.863 63.6449 20.088C61.1804 19.1154 58.0879 17.1961 58.0879 13.7629C58.0879 10.9263 60.292 8.06354 64.7048 8.06354C67.6808 8.06354 69.973 9.58071 70.8323 10.2094C71.1723 10.4108 71.1179 10.9263 71.0007 11.1269L69.5418 13.3318C69.3442 13.6465 68.8258 13.9023 68.5692 13.7017C68.3095 13.5622 66.2189 11.9831 64.4742 11.9831C63.4434 11.9831 62.6684 12.6739 62.6684 13.4451C62.6684 14.5058 63.5277 15.3061 65.7907 16.2236C68.0247 17.1119 71.5744 18.8565 71.5744 22.7532C71.5744 25.7001 69.0264 28.6799 64.8181 28.6799C61.0962 28.6799 59.0345 27.133 58.3767 26.4751C58.0879 26.1864 58.0037 26.0731 58.2334 25.671ZM84.9743 21.5217L82.7985 16.7941H82.7694L80.6197 21.5217H84.9743ZM73.2056 27.6491L82.1698 8.37828C82.254 8.20594 82.4547 8.06354 82.6561 8.06354H82.941C83.1424 8.06354 83.3399 8.20594 83.4273 8.37828L92.3883 27.6491C92.5607 28.0213 92.3332 28.3912 91.9021 28.3912H88.7254C88.2099 28.3912 87.9794 28.2197 87.7236 27.6744L86.6921 25.4151H78.905L77.8742 27.7035C77.7317 28.0474 77.4139 28.3912 76.8433 28.3912H73.6919C73.2638 28.3912 73.0333 28.0213 73.2056 27.6491ZM90.1261 9.09438C89.9538 8.7214 90.1843 8.34847 90.6124 8.34847H94.4217C94.6514 8.34847 94.8529 8.5208 94.908 8.66321L99.6347 19.1154H99.8032L104.53 8.66321C104.585 8.5208 104.787 8.34847 105.016 8.34847H108.826C109.254 8.34847 109.481 8.7214 109.312 9.09438L100.322 28.3652C100.234 28.5336 100.063 28.6799 99.8323 28.6799H99.5474C99.3169 28.6799 99.1454 28.5336 99.0611 28.3652L90.1261 9.09438ZM118.961 21.5217L116.782 16.7941H116.756L114.606 21.5217H118.961ZM107.192 27.6491L116.153 8.37828C116.237 8.20594 116.438 8.06354 116.639 8.06354H116.928C117.129 8.06354 117.326 8.20594 117.414 8.37828L126.375 27.6491C126.414 27.7295 126.43 27.8107 126.434 27.8888V27.9049C126.427 28.1737 126.216 28.3912 125.889 28.3912H122.712C122.196 28.3912 121.966 28.2197 121.706 27.6744L120.679 25.4151H112.888L111.858 27.7035C111.714 28.0474 111.4 28.3912 110.83 28.3912H107.678C107.247 28.3912 107.02 28.0213 107.192 27.6491ZM58.2366 35.4617C58.2366 37.191 59.6112 38.5656 61.3405 38.5656C63.0697 38.5656 64.4531 37.191 64.4531 35.4617C64.4531 33.7325 63.0697 32.3405 61.3405 32.3405C59.6112 32.3405 58.2366 33.7325 58.2366 35.4617ZM59.1011 35.4617C59.1011 34.234 60.1127 33.1792 61.3405 33.1792C62.5769 33.1792 63.5884 34.234 63.5884 35.4617C63.5884 36.6981 62.5769 37.727 61.3405 37.727C60.1127 37.727 59.1011 36.6981 59.1011 35.4617ZM67.1049 37.8826C67.2433 38.0123 67.909 38.5656 68.9639 38.5656C70.0878 38.5656 70.8919 37.8308 70.8919 36.9316C70.8919 35.8767 70.036 35.4012 69.033 34.9948C68.3154 34.7009 67.9349 34.3981 67.9349 33.9053C67.9349 33.5854 68.1856 33.1272 68.9119 33.1272C69.4134 33.1272 69.742 33.3434 70.0792 33.5595C70.2003 33.6373 70.3126 33.5854 70.3818 33.4731L70.5979 33.1446C70.6845 33.0149 70.6153 32.8938 70.5461 32.8505C70.4597 32.79 69.8112 32.3405 68.9466 32.3405C67.5718 32.3405 67.053 33.2656 67.053 33.94C67.053 34.9429 67.7448 35.4012 68.6266 35.773C69.4826 36.1274 69.9323 36.456 69.9323 36.9748C69.9323 37.4158 69.5518 37.7789 68.9552 37.7789C68.2895 37.7789 67.9782 37.5195 67.5718 37.1823C67.4767 37.1045 67.347 37.1391 67.2778 37.2514L67.053 37.6059C66.9579 37.7529 67.0271 37.8134 67.1049 37.8826ZM73.7685 38.3149C73.7685 38.4014 73.8464 38.4792 73.9328 38.4792H74.5035C74.5899 38.4792 74.6677 38.4014 74.6677 38.3149V32.5912C74.6677 32.5047 74.5899 32.4268 74.5035 32.4268H73.9328C73.8464 32.4268 73.7685 32.5047 73.7685 32.5912V38.3149ZM77.5962 35.4617C77.5962 37.191 78.9882 38.5656 80.7087 38.5656C81.9624 38.5656 82.8531 37.9951 82.8531 37.9951C82.8876 37.9691 82.9221 37.9 82.9221 37.8567V35.7643C82.9221 35.6779 82.8531 35.6 82.7666 35.6H81.1843C81.0892 35.6 81.0201 35.6692 81.0201 35.7643V36.2658C81.0201 36.3522 81.0892 36.4214 81.1843 36.4214H82.0317V37.3899C81.9451 37.4244 81.4524 37.6838 80.7347 37.6838C79.5069 37.6838 78.5646 36.6463 78.5646 35.4444C78.5646 34.234 79.5069 33.1964 80.7347 33.1964C81.2622 33.1964 81.7983 33.4299 82.2046 33.7843C82.2911 33.8621 82.3602 33.8707 82.4294 33.793C82.5591 33.6546 82.6887 33.525 82.8185 33.3866C82.8876 33.3175 82.879 33.2138 82.8098 33.1446C82.2218 32.6431 81.5388 32.3405 80.7087 32.3405C78.9882 32.3405 77.5962 33.7325 77.5962 35.4617ZM85.9112 36.2917C85.9112 37.6059 86.8968 38.5656 88.2542 38.5656C89.6204 38.5656 90.6147 37.6059 90.6147 36.2917V32.5912C90.6147 32.5047 90.5368 32.4268 90.4504 32.4268H89.8712C89.776 32.4268 89.7068 32.5047 89.7068 32.5912V36.2485C89.7068 37.1045 89.1449 37.7011 88.2542 37.7011C87.3723 37.7011 86.819 37.0958 86.819 36.2312V32.5912C86.819 32.5047 86.7498 32.4268 86.6547 32.4268H86.0755C85.9889 32.4268 85.9112 32.5047 85.9112 32.5912V36.2917ZM93.8544 38.3149C93.8544 38.4014 93.9235 38.4792 94.0187 38.4792H94.5807C94.6671 38.4792 94.745 38.4014 94.745 38.3149V36.1102H96.0505L97.1832 38.3669C97.2178 38.436 97.2696 38.4792 97.3647 38.4792H98.0131C98.1602 38.4792 98.2207 38.3408 98.1602 38.2285L96.9757 36.0324C97.7279 35.7298 98.2553 35.0726 98.2553 34.2772C98.2553 33.2483 97.408 32.4268 96.3704 32.4268H94.0187C93.9235 32.4268 93.8544 32.5047 93.8544 32.5912V38.3149ZM94.7622 35.3666V33.2656H96.3012C96.8632 33.2656 97.356 33.7325 97.356 34.2945C97.356 34.891 96.8632 35.3666 96.3012 35.3666H94.7622ZM100.648 38.4792H101.192C101.296 38.4792 101.365 38.41 101.391 38.3495L101.919 37.1651H104.746L105.282 38.3495C105.317 38.4274 105.377 38.4792 105.481 38.4792H106.026C106.155 38.4792 106.224 38.3669 106.173 38.2544L103.535 32.4356C103.51 32.3836 103.432 32.3405 103.388 32.3405H103.302C103.259 32.3405 103.181 32.3836 103.155 32.4356L100.501 38.2544C100.449 38.3669 100.518 38.4792 100.648 38.4792ZM102.256 36.4214L103.311 34.0524H103.354L104.417 36.4214H102.256ZM108.738 38.3149C108.738 38.4014 108.816 38.4792 108.902 38.4792H109.447C109.542 38.4792 109.611 38.4014 109.611 38.3149V34.1042H109.628L113.268 38.4447C113.372 38.5656 113.433 38.5656 113.519 38.5656H113.597C113.683 38.5656 113.761 38.4965 113.761 38.41V32.5912C113.761 32.5047 113.683 32.4268 113.597 32.4268H113.044C112.948 32.4268 112.879 32.5047 112.879 32.5912V36.6808H112.862L109.231 32.4702C109.118 32.3405 109.058 32.3405 108.971 32.3405H108.902C108.816 32.3405 108.738 32.4096 108.738 32.4961V38.3149ZM116.439 37.9345C116.586 38.1161 117.001 38.5656 117.753 38.5656C118.765 38.5656 119.526 37.9605 119.526 36.7586V32.5912C119.526 32.5047 119.457 32.4268 119.361 32.4268H118.791C118.696 32.4268 118.627 32.5047 118.627 32.5912V36.7673C118.627 37.5281 118.177 37.7702 117.753 37.7702C117.416 37.7702 117.174 37.5454 117.044 37.3985C116.966 37.3119 116.889 37.2774 116.768 37.3812L116.456 37.7184C116.404 37.7789 116.396 37.8654 116.439 37.9345ZM122.783 38.3149C122.783 38.4014 122.852 38.4792 122.947 38.4792H126.405C126.501 38.4792 126.57 38.4014 126.57 38.3149V37.8393C126.57 37.7529 126.501 37.6751 126.405 37.6751H123.673V35.8162H125.982C126.068 35.8162 126.146 35.747 126.146 35.652V35.1677C126.146 35.0813 126.068 35.0035 125.982 35.0035H123.673V33.2397H126.405C126.501 33.2397 126.57 33.1618 126.57 33.0754V32.5912C126.57 32.5047 126.501 32.4268 126.405 32.4268H122.947C122.852 32.4268 122.783 32.5047 122.783 32.5912V38.3149Z" fill="#494D4E"/>
</g>
<defs>
<clipPath id="clip0_1_2812">
<rect width="126.171" height="46.1801" fill="white" transform="translate(0.696411 6.10352e-05)"/>
</clipPath>
</defs>
</svg>
