<svg width="149" height="45" viewBox="0 0 149 45" fill="none" xmlns="http://www.w3.org/2000/svg">
<g clip-path="url(#clip0_1_2814)">
<path d="M148.799 23.6265C148.459 23.2777 146.129 21.2734 145.858 21.0839C145.588 20.8942 145.393 20.938 145.17 21.1651C144.066 22.292 140.44 25.6324 135.457 26.5861C134.608 24.1025 134.105 21.724 133.953 20.9143C133.57 18.8706 134.047 17.2902 134.185 16.5568C139.682 15.9647 144.494 12.4713 146.665 7.37779C146.742 7.19775 146.815 6.82925 146.357 6.62991C145.899 6.43079 143.58 5.55437 143.147 5.40403C142.715 5.25389 142.555 5.54199 142.487 5.69716C140.75 9.67358 136.71 12.2447 132.258 12.1352C127.074 12.0119 122.681 8.24943 121.813 3.29079C121.782 3.10759 121.685 2.72864 121.204 2.79982C120.723 2.871 118.143 3.15894 117.69 3.22192C117.236 3.28495 117.27 3.48135 117.347 3.87332C118.244 9.4282 122.224 13.9534 127.422 15.7775C127.03 17.6372 126.602 21.654 128.387 27.0251C121.916 27.9579 117.779 31.7398 116.496 33.075C116.252 33.329 116.125 33.5561 116.418 33.8235C116.711 34.0911 118.595 35.6342 119.264 36.2302C119.933 36.8265 120.021 36.4351 120.347 36.1214C121.76 34.7605 125.847 31.4593 132.027 31.7136C140.956 32.092 147.378 25.9353 148.883 24.343C149.069 24.1468 149.026 23.8391 148.799 23.6265Z" fill="#5AC134"/>
<path d="M136.698 5.00686C136.698 2.44853 134.627 0.374433 132.072 0.374433C129.518 0.374433 127.447 2.44853 127.447 5.00686C127.447 7.56523 129.518 9.63928 132.072 9.63928C134.627 9.63928 136.698 7.56523 136.698 5.00686Z" fill="#5AC134"/>
<path d="M28.8485 19.7148V30.9023H23.9366V20.4072C23.9366 18.2572 22.6633 16.9088 20.735 16.9088C18.7702 16.9088 17.424 18.2938 17.424 20.2979V30.9023H12.5122V20.4072C12.5122 18.2572 11.2388 16.9088 9.31041 16.9088C7.34587 16.9088 5.99968 18.2572 5.99968 20.4072V30.9023H1.08794V12.8637H5.59939V14.4673C6.79987 13.2282 8.54661 12.463 10.693 12.463C13.1308 12.463 14.9134 13.4103 16.0415 15.0504C17.3879 13.4832 19.4978 12.463 22.0448 12.463C26.338 12.463 28.8485 15.3783 28.8485 19.7148Z" fill="#48565A"/>
<path d="M36.2342 20.0791H44.4205C44.3841 17.7833 42.6013 16.4349 40.5274 16.4349C38.4533 16.4349 36.7798 17.8198 36.2342 20.0791ZM48.8592 23.5411H36.2342C36.8161 25.8369 38.6718 27.1126 41.2914 27.1126C43.2564 27.1126 44.857 26.42 46.3125 25.2907L48.3498 28.6432C46.3125 30.3559 43.9109 31.3399 41.146 31.3399C35.4336 31.3399 31.2861 27.2221 31.2861 21.9013C31.2861 16.5809 35.3974 12.4629 40.7095 12.4629C45.7665 12.4629 49.1866 16.1801 49.1866 20.8444C49.1866 21.8649 49.0045 22.9218 48.8592 23.5411Z" fill="#48565A"/>
<path d="M62.7569 12.8637V17.2002H61.4468C58.609 17.2002 56.6082 18.6581 56.6082 21.9013V30.9023H51.6966V12.8637H56.2079V15.0139C57.4087 13.4832 59.1918 12.6451 61.1563 12.6451C61.8107 12.6451 62.2838 12.7181 62.7569 12.8637Z" fill="#48565A"/>
<path d="M77.6737 30.9023L70.4328 20.9175V30.9023H65.5213V7.92916H70.4328V20.5532L76.9096 12.8637H82.7308L75.9634 20.8444L83.2761 30.9023H77.6737Z" fill="#48565A"/>
<path d="M84.5498 22.958V12.8636H89.4618V23.359C89.4618 25.4726 90.9532 26.821 92.8818 26.821C94.7371 26.821 96.2291 25.4726 96.2291 23.359V12.8636H101.141V22.958C101.141 28.0601 97.575 31.3399 92.8818 31.3399C88.1154 31.3399 84.5498 28.0601 84.5498 22.958Z" fill="#48565A"/>
<path d="M115.731 12.8637V17.2002H114.421C111.582 17.2002 109.581 18.6581 109.581 21.9013V30.9023H104.67V12.8637H109.182V15.0139C110.382 13.4832 112.165 12.6451 114.129 12.6451C114.784 12.6451 115.257 12.7181 115.731 12.8637Z" fill="#48565A"/>
<path d="M6.75663 43.5277C7.27651 43.2167 7.68434 42.7927 7.97947 42.2536C8.27422 41.7155 8.42224 41.1146 8.42224 40.4488C8.42224 39.7924 8.27422 39.1957 7.97947 38.6572C7.68434 38.1189 7.27651 37.6966 6.75663 37.3902C6.2361 37.0841 5.65916 36.9307 5.0262 36.9307C4.38424 36.9307 3.80312 37.0841 3.28282 37.3902C2.76253 37.6966 2.35491 38.1168 2.05995 38.6507C1.765 39.1842 1.61763 39.784 1.61763 40.4488C1.61763 41.1146 1.765 41.7155 2.05995 42.2536C2.35491 42.7927 2.76253 43.2167 3.28282 43.5277C3.80312 43.8375 4.38424 43.9935 5.0262 43.9935C5.65916 43.9935 6.2361 43.8375 6.75663 43.5277ZM2.76901 44.3191C2.08797 43.9286 1.55032 43.3916 1.15566 42.71C0.761205 42.0275 0.563873 41.279 0.563873 40.4624C0.563873 39.6364 0.761205 38.8852 1.15566 38.2081C1.55032 37.5301 2.08797 36.9962 2.76901 36.6051C3.44985 36.2142 4.19799 36.0188 5.01323 36.0188C5.8197 36.0188 6.56574 36.2142 7.25099 36.6051C7.93623 36.9962 8.47805 37.5301 8.87689 38.2081C9.27615 38.8852 9.47555 39.6364 9.47555 40.4624C9.47555 41.2873 9.27615 42.039 8.87689 42.7163C8.47805 43.3937 7.93623 43.9286 7.25099 44.3191C6.56574 44.7096 5.8197 44.9053 5.01323 44.9053C4.19799 44.9053 3.44985 44.7096 2.76901 44.3191Z" fill="#48565A"/>
<path d="M12.6174 44.4132C12.0666 44.0845 11.6224 43.6354 11.2838 43.0649L12.0386 42.5079C12.6801 43.4983 13.4782 43.9934 14.4319 43.9934C14.9442 43.9934 15.36 43.8615 15.6809 43.5988C16.0017 43.336 16.1627 42.9853 16.1627 42.5477C16.1627 42.2933 16.1063 42.0787 15.9934 41.9028C15.8807 41.728 15.7271 41.5794 15.5314 41.4558C15.3366 41.3333 15.0695 41.1889 14.7321 41.0224L13.7688 40.566C13.1787 40.2886 12.7083 39.9776 12.3574 39.6343C12.006 39.2913 11.8304 38.8334 11.8304 38.2602C11.8304 37.8169 11.9477 37.4258 12.1818 37.0872C12.4159 36.7484 12.7303 36.4857 13.125 36.2989C13.5197 36.1119 13.9511 36.0188 14.4193 36.0188C14.9917 36.0188 15.5143 36.1523 15.9873 36.4198C16.4595 36.6873 16.835 37.037 17.1123 37.4689L16.3709 38.0252C16.1368 37.6739 15.8481 37.4034 15.5055 37.2143C15.1627 37.0254 14.7969 36.9306 14.4064 36.9306C13.9814 36.9306 13.6208 37.0406 13.326 37.2593C13.0313 37.4781 12.8842 37.789 12.8842 38.1923C12.8842 38.437 12.9404 38.6454 13.0535 38.8161C13.1661 38.9873 13.3116 39.1269 13.4891 39.2364C13.6668 39.3464 13.9252 39.484 14.2632 39.65L15.2126 40.1106C15.8895 40.4404 16.3926 40.7837 16.7219 41.1397C17.0513 41.4956 17.2165 41.952 17.2165 42.5079C17.2165 42.9769 17.0971 43.3936 16.859 43.7589C16.6201 44.1233 16.2904 44.4059 15.87 44.6059C15.4488 44.8058 14.9743 44.9053 14.4454 44.9053C13.7778 44.9053 13.1682 44.7409 12.6174 44.4132Z" fill="#48565A"/>
<path d="M19.8445 36.1618H20.8587V44.7619H19.8445V36.1618Z" fill="#48565A"/>
<path d="M25.5098 44.319C24.829 43.9285 24.2913 43.3936 23.8966 42.7163C23.5022 42.0389 23.3044 41.2873 23.3044 40.4623C23.3044 39.6364 23.5022 38.8851 23.8966 38.208C24.2913 37.53 24.829 36.9961 25.5098 36.6051C26.1908 36.2141 26.9427 36.0188 27.7676 36.0188C28.4961 36.0188 29.1613 36.1722 29.7637 36.479C30.367 36.7857 30.8674 37.2153 31.2666 37.7681L30.4995 38.3644C30.1692 37.9084 29.7752 37.5558 29.3153 37.3054C28.8556 37.0558 28.3391 36.9306 27.7676 36.9306C27.1165 36.9306 26.5309 37.0834 26.0106 37.3887C25.4905 37.6938 25.085 38.1146 24.7944 38.6506C24.5033 39.1872 24.3586 39.7819 24.3586 40.4362C24.3586 41.0988 24.506 41.7029 24.8013 42.2473C25.0961 42.7927 25.5077 43.2198 26.0368 43.5286C26.5656 43.8385 27.1603 43.9934 27.8192 43.9934C28.4436 43.9934 29.003 43.8542 29.4974 43.5768C29.9915 43.2983 30.3868 42.9246 30.6816 42.4556V41.2957H27.754V40.3838H31.6965V42.6775C31.3143 43.3549 30.7746 43.895 30.0762 44.2991C29.378 44.7032 28.6084 44.9053 27.7676 44.9053C26.9427 44.9053 26.1908 44.7095 25.5098 44.319Z" fill="#48565A"/>
<path d="M35.7484 44.4886C35.2324 44.2101 34.8289 43.804 34.5388 43.2701C34.2476 42.7361 34.1029 42.0955 34.1029 41.348V36.1618H35.1171V41.4307C35.1171 42.2671 35.3408 42.9036 35.7874 43.3402C36.2345 43.7757 36.8131 43.9934 37.5245 43.9934C38.2268 43.9934 38.7996 43.7757 39.2417 43.3402C39.6836 42.9036 39.9054 42.2671 39.9054 41.4307V36.1618H40.9203V41.348C40.9203 42.0955 40.775 42.7361 40.4842 43.2701C40.1939 43.804 39.7904 44.2101 39.2739 44.4886C38.7582 44.766 38.175 44.9053 37.5245 44.9053C36.8563 44.9053 36.265 44.766 35.7484 44.4886Z" fill="#48565A"/>
<path d="M44.8491 40.2405H46.8135C47.3678 40.2405 47.7953 40.097 48.0949 39.8102C48.3944 39.5238 48.5439 39.1417 48.5439 38.6639C48.5439 38.1949 48.3923 37.8128 48.0879 37.5175C47.7848 37.2217 47.3597 37.0741 46.8135 37.0741H44.8491V40.2405ZM49.3508 44.7619L46.6832 41.1523H44.8491V44.7619H43.8343V36.1618H46.8525C47.4075 36.1618 47.8911 36.2686 48.3035 36.4811C48.7153 36.6941 49.0341 36.9893 49.2592 37.3672C49.4845 37.7451 49.5972 38.1733 49.5972 38.6507C49.5972 39.2327 49.4369 39.7348 49.116 40.1557C48.7951 40.5775 48.3526 40.8707 47.789 41.035L50.5337 44.7619H49.3508Z" fill="#48565A"/>
<path d="M55.6989 37.8693L53.982 42.1039H57.4162L55.6989 37.8693ZM57.8063 43.0157H53.5908L52.8626 44.7619H51.7958L55.5165 36.0188H55.8943L59.6151 44.7619H58.5346L57.8063 43.0157Z" fill="#48565A"/>
<path d="M68.6958 36.1618V44.9053H68.3314L62.8671 38.312V44.7619H61.8525V36.0188H62.2169L67.6812 42.6252V36.1618H68.6958Z" fill="#48565A"/>
<path d="M70.8422 44.7619V43.9149C71.198 43.9673 71.51 43.9934 71.7792 43.9934C72.2389 43.9934 72.5899 43.8992 72.8329 43.7118C73.0753 43.5255 73.1973 43.1874 73.1973 42.6985V36.1618H74.2114V42.7686C74.2114 43.4899 74.0118 44.0259 73.6136 44.3776C73.2144 44.7294 72.6675 44.9053 71.974 44.9053C71.6363 44.9053 71.2585 44.8571 70.8422 44.7619Z" fill="#48565A"/>
<path d="M77.2168 36.1618H82.7201V37.0741H78.2314V39.7066H81.6664V40.6184H78.2314V43.8501H82.8758V44.7619H77.2168V36.1618Z" fill="#48565A"/>
</g>
<defs>
<clipPath id="clip0_1_2814">
<rect width="148.436" height="44.5309" fill="white" transform="translate(0.563873 0.374451)"/>
</clipPath>
</defs>
</svg>
