<svg width="149" height="39" viewBox="0 0 149 39" fill="none" xmlns="http://www.w3.org/2000/svg">
<g clip-path="url(#clip0_1_2815)">
<path d="M17.2457 17.8482C17.0697 17.6723 16.8937 17.4085 16.7177 17.1447C16.5418 16.793 16.3658 16.2653 16.1898 15.5618L11.3505 0.260681H8.44686L2.55166 15.386C2.1997 16.2653 1.84775 16.9688 1.4958 17.4085C1.14385 17.8482 0.879881 18.0241 0.439941 18.112L0 18.2V19.6949H6.86307V18.2L6.51112 18.112C5.98319 18.0241 5.63124 17.9362 5.45526 17.7603C5.27929 17.5844 5.1913 17.3206 5.1913 16.8809C5.1913 16.6171 5.1913 16.3533 5.27929 16.0895C5.36728 15.7377 5.54325 15.298 5.71923 14.6825L6.07118 13.7151H11.8784L12.3183 15.1221C12.4943 15.5618 12.5823 15.9136 12.5823 16.2653C12.6703 16.6171 12.6703 16.8809 12.6703 17.1447C12.6703 17.4085 12.6703 17.5844 12.5823 17.6723C12.4943 17.7603 12.4063 17.8482 12.3183 17.9362C12.2304 18.0241 11.8784 18.112 11.4385 18.2L11.0865 18.2879V19.7828H18.4775V18.2879L18.1256 18.2C17.6856 18.112 17.4216 17.9362 17.2457 17.8482ZM11.3505 11.5167H6.86307L9.32674 4.83344L11.3505 11.5167Z" fill="#023F88"/>
<path d="M37.307 2.81084C36.5152 2.0194 35.4593 1.49178 34.3154 1.05209C33.1716 0.700336 31.6758 0.436523 29.8281 0.436523H23.2289V1.93146L23.5809 2.0194C24.1088 2.19528 24.2848 2.28321 24.3728 2.28321C24.4608 2.37115 24.5488 2.45909 24.6368 2.54703C24.7247 2.63496 24.7247 2.7229 24.8127 2.98672C24.9007 3.25053 24.9007 3.69022 24.9007 4.30578V15.9136C24.9007 16.5291 24.9007 16.9688 24.8127 17.2326C24.7247 17.4964 24.7247 17.6723 24.6368 17.6723C24.5488 17.7602 24.4608 17.8482 24.3728 17.9361C24.2848 18.0241 24.0208 18.112 23.5809 18.1999L23.2289 18.2879V19.7828H28.7722C30.356 19.7828 31.5878 19.6949 32.5557 19.519C33.5236 19.3431 34.4034 19.0793 35.1953 18.7276C36.0752 18.2879 36.8671 17.6723 37.483 16.9688C38.1869 16.1774 38.8028 15.1221 39.1548 13.891C39.5067 12.6599 39.6827 11.3408 39.6827 9.75792C39.6827 8.17504 39.5067 6.85597 39.0668 5.71278C38.7149 4.56959 38.0989 3.60228 37.307 2.81084ZM29.6521 17.5844C29.2121 17.5844 28.7722 17.5844 28.5082 17.5844V2.54703C28.9482 2.54703 29.3881 2.54703 29.8281 2.54703C31.1479 2.54703 32.2037 2.81084 33.1716 3.25053C34.0515 3.77815 34.7554 4.56959 35.2833 5.62485C35.8112 6.76803 36.0752 8.17504 36.0752 9.93379C36.0752 10.8132 35.9872 11.6046 35.8992 12.396C35.8112 13.0995 35.6353 13.803 35.3713 14.3307C35.1073 14.9462 34.8434 15.3859 34.4914 15.8256C34.1395 16.2653 33.6995 16.6171 33.2596 16.7929C32.8197 17.0567 32.2917 17.2326 31.7638 17.3206C31.0599 17.5844 30.356 17.5844 29.6521 17.5844Z" fill="#023F88"/>
<path d="M61.6797 17.8482C61.4158 17.6723 61.2398 17.4964 60.9758 17.1447C60.7119 16.7929 60.4479 16.3532 60.096 15.7377L58.8641 13.5392C58.3362 12.6599 57.8963 11.9564 57.4563 11.5167C57.1923 11.2529 56.9284 11.077 56.6644 10.9011C57.7203 10.4614 58.6002 9.84585 59.2161 9.05441C60.008 8.0871 60.3599 6.94391 60.3599 5.62485C60.3599 3.86609 59.744 2.54703 58.5122 1.66765C57.3683 0.876211 55.6086 0.436523 53.4089 0.436523H46.0179V1.93146L46.3698 2.0194C46.8977 2.19528 47.0737 2.28321 47.1617 2.28321C47.2497 2.37115 47.3377 2.37115 47.4257 2.54703C47.5137 2.63496 47.5136 2.7229 47.6016 2.98672C47.6016 3.25053 47.6896 3.69022 47.6896 4.30578V15.9136C47.6896 16.5291 47.6896 17.0567 47.6016 17.3206C47.6016 17.5844 47.5137 17.6723 47.3377 17.8482C47.2497 17.9361 47.0737 18.0241 46.3698 18.1999L46.0179 18.2879V19.7828H52.7929V18.2879L52.441 18.1999C52.001 18.0241 51.7371 17.9361 51.6491 17.9361C51.5611 17.8482 51.4731 17.8482 51.3851 17.7602C51.3851 17.6723 51.2971 17.5844 51.2092 17.3206C51.1212 17.0567 51.1212 16.6171 51.1212 16.0015V11.8684H52.265C52.7929 11.8684 53.0569 11.8684 53.1449 11.9564C53.3209 11.9564 53.4968 12.0443 53.5848 12.1322C53.6728 12.2202 53.8488 12.3081 54.1128 12.6599C54.3767 12.9237 54.6407 13.4513 54.9926 14.1548L56.2245 16.3532C56.4884 16.8809 56.8404 17.4964 57.1923 18.0241C57.5443 18.5517 57.8963 19.0793 58.2482 19.6069L58.4242 19.7828H62.9996V18.2879L62.5596 18.1999C62.2077 18.112 61.9437 18.0241 61.6797 17.8482ZM51.2092 2.63496C51.6491 2.63496 52.177 2.63496 52.7929 2.63496C53.7608 2.63496 54.5527 2.81084 55.0806 3.07465C55.6086 3.33847 55.9605 3.69022 56.2245 4.1299C56.4884 4.65753 56.6644 5.27309 56.6644 6.06453C56.6644 6.85597 56.5764 7.47154 56.3125 7.91122C56.0485 8.43885 55.7845 8.7906 55.4326 9.05441C55.0806 9.31823 54.6407 9.4941 54.2007 9.58204C53.7608 9.66998 53.1449 9.75792 52.353 9.75792H51.2971V2.63496H51.2092Z" fill="#023F88"/>
<path d="M67.5749 1.93146L67.9269 2.0194C68.4548 2.19528 68.6308 2.28321 68.7188 2.28321C68.8068 2.37115 68.8947 2.37115 68.9827 2.54703C69.0707 2.63496 69.0707 2.7229 69.1587 2.98672C69.1587 3.25053 69.2467 3.69022 69.2467 4.30578V15.9136C69.2467 16.5291 69.2467 17.0567 69.1587 17.3206C69.1587 17.5844 69.0707 17.6723 68.8947 17.8482C68.8068 17.9361 68.6308 18.0241 67.9269 18.1999L67.5749 18.2879V19.7828H74.438V18.2879L74.086 18.1999C73.6461 18.112 73.3821 18.0241 73.2942 17.9361C73.2062 17.8482 73.1182 17.7602 73.0302 17.6723C73.0302 17.5844 72.9422 17.4085 72.8542 17.1447C72.8542 16.8809 72.7662 16.4412 72.7662 15.9136V4.30578C72.7662 3.69022 72.7662 3.25053 72.8542 2.98672C72.9422 2.7229 72.9422 2.54703 73.0302 2.54703C73.1182 2.45909 73.2062 2.37115 73.2942 2.28321C73.3821 2.19528 73.6461 2.10734 74.086 2.0194L74.438 1.93146V0.436523H67.5749V1.93146Z" fill="#023F88"/>
<path d="M96.3469 17.8482C96.171 17.6723 95.995 17.4085 95.819 17.1447C95.643 16.793 95.4671 16.2653 95.2911 15.5618L90.4517 0.260681H87.5481L81.6529 15.386C81.301 16.2653 80.949 16.9688 80.5971 17.4085C80.2451 17.8482 79.9811 18.0241 79.5412 18.112L79.1013 18.2V19.6949H85.9643V18.2L85.5244 18.112C85.0845 18.0241 84.6445 17.9362 84.4685 17.7603C84.2926 17.5844 84.2046 17.3206 84.2046 16.8809C84.2046 16.6171 84.2046 16.3533 84.2926 16.0895C84.3805 15.7377 84.5565 15.298 84.7325 14.6825L85.0845 13.7151H90.8917L91.3316 15.1221C91.5076 15.5618 91.5956 15.9136 91.6836 16.2653C91.7716 16.6171 91.7716 16.8809 91.7716 17.1447C91.7716 17.4085 91.7716 17.5844 91.6836 17.6723C91.5956 17.7603 91.5076 17.8482 91.4196 17.9362C91.3316 18.0241 90.9797 18.112 90.5397 18.2L90.1878 18.2879V19.7828H97.5788V18.2879L97.2268 18.2C96.7869 18.112 96.5229 17.9362 96.3469 17.8482ZM90.4517 11.5167H85.9643L88.428 4.83344L90.4517 11.5167Z" fill="#023F88"/>
<path d="M99.9544 6.06452H102.154L102.242 5.71277C102.418 5.00927 102.594 4.48164 102.77 4.04195C102.946 3.60227 103.122 3.33845 103.298 3.07464C103.474 2.89876 103.65 2.72289 103.826 2.72289C104.09 2.63495 104.354 2.63495 104.794 2.63495H106.026V15.9135C106.026 16.4412 106.026 16.7929 105.938 17.0567C105.85 17.3205 105.85 17.4964 105.762 17.5844C105.674 17.6723 105.674 17.7602 105.586 17.8482C105.498 17.9361 105.41 18.024 105.234 18.024C105.058 18.112 104.794 18.112 104.53 18.1999L104.178 18.2879V19.7828H111.481V18.2879L111.129 18.1999C110.601 18.112 110.337 18.024 110.249 17.9361C110.073 17.8482 109.985 17.7602 109.897 17.6723C109.809 17.4964 109.721 17.3205 109.721 17.0567C109.633 16.7929 109.633 16.3532 109.633 15.9135V2.54701H110.953C111.481 2.54701 111.745 2.63495 111.921 2.63495C112.097 2.72289 112.273 2.81083 112.449 2.9867C112.625 3.16258 112.801 3.51433 112.977 3.86608C113.153 4.30577 113.329 4.92133 113.593 5.62483L113.681 5.97658H115.88V0.348572H99.8665V6.06452H99.9544Z" fill="#023F88"/>
<path d="M121.512 1.93146L121.864 2.0194C122.392 2.19528 122.567 2.28321 122.655 2.28321C122.743 2.37115 122.831 2.37115 122.919 2.54703C123.007 2.63496 123.007 2.7229 123.095 2.98672C123.095 3.25053 123.183 3.69022 123.183 4.30578V15.9136C123.183 16.5291 123.183 17.0567 123.095 17.3206C123.095 17.5844 123.007 17.6723 122.831 17.8482C122.743 17.9361 122.567 18.0241 121.864 18.1999L121.512 18.2879V19.7828H128.287V18.2879L127.935 18.1999C127.495 18.112 127.231 18.0241 127.143 17.9361C127.055 17.8482 126.967 17.7602 126.879 17.6723C126.791 17.5844 126.791 17.4085 126.703 17.1447C126.703 16.8809 126.615 16.4412 126.615 15.9136V4.30578C126.615 3.69022 126.615 3.25053 126.703 2.98672C126.791 2.7229 126.791 2.54703 126.879 2.54703C126.967 2.45909 127.055 2.37115 127.143 2.28321C127.231 2.19528 127.495 2.10734 127.935 2.0194L128.287 1.93146V0.436523H121.512V1.93146Z" fill="#023F88"/>
<path d="M140.605 3.16262C141.309 2.635 142.013 2.37119 142.805 2.37119C143.333 2.37119 143.861 2.45912 144.213 2.635C144.565 2.81087 144.917 3.07469 145.18 3.51438C145.532 3.95406 145.708 4.48169 145.972 5.18519L146.06 5.53694H148.26V0.964183L147.908 0.876245C146.94 0.612432 146.148 0.436557 145.444 0.348619C144.741 0.260681 143.949 0.260681 143.069 0.260681C141.309 0.260681 139.725 0.70037 138.493 1.49181C137.174 2.37119 136.206 3.51437 135.59 5.00931C134.974 6.50426 134.622 8.26301 134.622 10.1976C134.622 13.3634 135.238 15.7377 136.558 17.4085C137.877 19.0793 139.813 19.8708 142.277 19.8708C143.421 19.8708 144.389 19.7828 145.356 19.6949C146.324 19.607 147.204 19.4311 148.084 19.1673L148.436 19.0793V14.4186H146.236L146.148 14.7704C145.884 15.6498 145.532 16.2653 145.268 16.705C145.004 17.0568 144.653 17.4085 144.213 17.5844C143.773 17.7603 143.245 17.8482 142.541 17.8482C141.661 17.8482 140.957 17.5844 140.341 17.0568C139.725 16.4412 139.285 15.6498 138.933 14.4186C138.581 13.1875 138.405 11.7805 138.405 10.0218C138.405 8.35095 138.581 6.85601 139.021 5.71282C139.373 4.56963 139.901 3.69025 140.605 3.16262Z" fill="#023F88"/>
<path d="M1.31986 34.5564C1.67181 34.9082 2.02376 35.172 2.4637 35.4358C2.90365 35.6117 3.43157 35.6996 3.9595 35.6996C4.7514 35.6996 5.4553 35.5237 5.98323 35.172C6.59915 34.8202 7.03909 34.2926 7.39104 33.5891C7.74299 32.8856 7.83098 32.0062 7.83098 30.951C7.83098 29.9837 7.65501 29.1922 7.39104 28.4887C7.12708 27.7852 6.68714 27.2576 6.15921 26.9058C5.63128 26.4662 5.01536 26.2903 4.13548 26.2903C3.34359 26.2903 2.72767 26.4662 2.11175 26.8179C1.49584 27.1697 1.05589 27.7852 0.79193 28.4887C0.527966 29.1922 0.35199 30.0716 0.35199 31.0389C0.35199 31.8304 0.439978 32.5339 0.615954 33.0615C0.791931 33.677 1.0559 34.2047 1.31986 34.5564ZM3.16761 27.4335C3.43158 27.2576 3.78353 27.1697 4.13548 27.1697C4.57542 27.1697 4.92737 27.2576 5.19134 27.5214C5.54329 27.7852 5.71927 28.2249 5.98323 28.7525C6.15921 29.3681 6.2472 30.1595 6.2472 31.0389C6.2472 31.8304 6.15921 32.4459 5.98323 32.9735C5.80725 33.5012 5.54329 33.9409 5.27933 34.2047C4.92737 34.4685 4.57542 34.6444 4.13548 34.6444C3.43157 34.6444 2.90365 34.2926 2.55169 33.677C2.19974 33.0615 2.02376 32.0062 2.02376 30.7751C2.02376 30.1595 2.02376 29.7199 2.11175 29.1922C2.19974 28.7525 2.28773 28.3128 2.4637 28.049C2.72767 27.8732 2.90365 27.6093 3.16761 27.4335Z" fill="#58595B"/>
<path d="M19.8853 35.6117C20.3253 35.6117 20.7652 35.5237 21.1172 35.4358C21.4691 35.3479 21.8211 35.172 22.085 34.9961C22.349 34.8202 22.613 34.4685 22.701 34.2047C22.8769 33.8529 22.9649 33.5012 22.9649 32.9735C22.9649 32.5339 22.8769 32.1821 22.701 31.8304C22.525 31.4786 22.261 31.2148 21.9091 30.951C21.5571 30.6872 21.1172 30.4234 20.5892 30.1595C20.1493 29.9837 19.7973 29.7199 19.5334 29.544C19.2694 29.3681 19.1814 29.1922 19.0934 29.0164C19.0055 28.8405 18.9175 28.5767 18.9175 28.3129C18.9175 28.049 19.0055 27.8732 19.0934 27.6094C19.1814 27.4335 19.3574 27.2576 19.5334 27.1697C19.7094 27.0817 19.9733 26.9938 20.2373 26.9938C20.5013 26.9938 20.7652 26.9938 20.9412 27.0817C21.1172 27.1697 21.2931 27.2576 21.3811 27.4335C21.5571 27.6094 21.6451 27.8732 21.7331 28.2249V28.3129H22.701V26.2903H22.613C22.085 26.2024 21.7331 26.1144 21.3811 26.0265C21.0292 26.0265 20.7652 25.9385 20.4133 25.9385C19.7973 25.9385 19.2694 26.0265 18.8295 26.2024C18.3895 26.3782 17.9496 26.73 17.7736 27.0817C17.5097 27.4335 17.4217 27.8732 17.4217 28.4008C17.4217 28.7525 17.5097 29.1043 17.6856 29.3681C17.8616 29.6319 18.1256 29.9837 18.3895 30.1595C18.6535 30.4234 19.0934 30.6872 19.6214 30.951C20.1493 31.2148 20.5013 31.3907 20.7652 31.6545C21.0292 31.8304 21.2052 32.0062 21.2931 32.1821C21.3811 32.358 21.4691 32.6218 21.4691 32.8856C21.4691 33.3253 21.3811 33.6771 21.1172 33.9409C20.8532 34.2047 20.5013 34.2926 20.0613 34.2926C19.7094 34.2926 19.4454 34.2047 19.1814 34.1167C19.0055 34.0288 18.8295 33.8529 18.6535 33.6771C18.4775 33.5012 18.3895 33.1494 18.3016 32.7977V32.7097H17.3337V34.7323H17.4217C18.3895 35.5237 19.1814 35.6117 19.8853 35.6117Z" fill="#58595B"/>
<path d="M35.4591 34.9081H35.3711C35.1952 34.8202 35.0192 34.8202 34.9312 34.7323C34.8432 34.7323 34.8432 34.6443 34.7552 34.5564C34.7552 34.4685 34.6672 34.3805 34.6672 34.2926C34.6672 34.2046 34.6672 33.9408 34.6672 33.677V28.1369C34.6672 27.8731 34.6672 27.6093 34.6672 27.5214C34.6672 27.3455 34.7552 27.3455 34.7552 27.2576C34.7552 27.1696 34.8432 27.1696 34.9312 27.1696C35.0192 27.1696 35.1072 27.0817 35.2832 27.0817H35.3711V26.4661H32.2916V27.0817H32.3796C32.6435 27.1696 32.7315 27.1696 32.8195 27.2576C32.9075 27.2576 32.9075 27.3455 32.9955 27.3455C32.9955 27.4334 33.0835 27.5214 33.0835 27.6093C33.0835 27.6973 33.0835 27.9611 33.0835 28.2249V33.765C33.0835 34.0288 33.0835 34.2926 33.0835 34.4685C33.0835 34.5564 32.9955 34.6443 32.9075 34.7323C32.9075 34.7323 32.7315 34.8202 32.4675 34.9081H32.3796V35.5237H35.4591V34.9081Z" fill="#58595B"/>
<path d="M48.4815 35.6116C48.9215 35.6116 49.2734 35.6116 49.6254 35.5237C49.8893 35.4358 50.1533 35.3478 50.4173 35.1719L50.8572 35.6116L51.5611 35.4358V33.0614C51.5611 32.7976 51.5611 32.6218 51.5611 32.4459C51.5611 32.27 51.5611 32.1821 51.6491 32.0941C51.6491 32.0062 51.7371 31.9183 51.8251 31.9183C51.8251 31.9183 51.9131 31.8303 52.089 31.7424H52.177V31.1268H49.1854V31.7424H49.2734C49.5374 31.8303 49.7133 31.9183 49.7133 31.9183C49.8013 32.0062 49.8893 32.0941 49.8893 32.27C49.8893 32.4459 49.9773 32.7097 49.9773 33.0614V33.4132C49.9773 33.8529 49.8893 34.1167 49.6254 34.2926C49.3614 34.4684 49.0094 34.5564 48.5695 34.5564C48.1296 34.5564 47.7776 34.3805 47.4257 34.1167C47.0737 33.8529 46.8977 33.4132 46.7217 32.7976C46.5458 32.1821 46.4578 31.4786 46.4578 30.6871C46.4578 29.8957 46.5458 29.1922 46.7217 28.5766C46.8977 28.049 47.1617 27.6093 47.5136 27.3455C47.8656 27.0817 48.2176 26.9058 48.6575 26.9058C49.0094 26.9058 49.2734 26.9058 49.4494 26.9937C49.6254 27.0817 49.8013 27.1696 49.9773 27.4334C50.1533 27.6093 50.2413 27.9611 50.4173 28.3128V28.4007H51.3851V26.3782H51.2971C50.8572 26.2902 50.4173 26.2023 49.9773 26.1144C49.6254 26.0264 49.1854 26.0264 48.7455 26.0264C47.9536 26.0264 47.2497 26.2023 46.6338 26.642C46.0178 26.9937 45.5779 27.6093 45.226 28.3128C44.874 29.0163 44.786 29.8957 44.786 30.7751C44.786 32.27 45.05 33.4132 45.6659 34.2046C46.4578 35.2599 47.3377 35.6116 48.4815 35.6116Z" fill="#58595B"/>
<path d="M61.7677 27.1696C61.8557 27.1696 61.8557 27.2576 61.9437 27.2576C61.9437 27.3455 62.0316 27.3455 62.0316 27.5214C62.0316 27.6093 62.0316 27.8731 62.0316 28.1369V32.4459C62.0316 32.9735 62.1196 33.5011 62.2076 33.8529C62.2956 34.2046 62.5596 34.5564 62.8235 34.8202C63.0875 35.084 63.4395 35.3478 63.8794 35.4358C64.2313 35.5237 64.7593 35.6116 65.2872 35.6116C65.7272 35.6116 66.1671 35.5237 66.519 35.4358C66.871 35.3478 67.135 35.172 67.3989 35.084C67.6629 34.9081 67.8389 34.7323 68.0148 34.4685C68.1908 34.2046 68.3668 33.9408 68.4548 33.5891C68.5428 33.2373 68.6308 32.7976 68.6308 32.358V28.2249C68.6308 27.8731 68.6308 27.6093 68.7187 27.5214C68.7187 27.4334 68.8067 27.3455 68.8947 27.2576C68.8947 27.2576 69.0707 27.1696 69.3347 27.0817H69.4227V26.4661H66.4311V27.0817H66.519C66.871 27.1696 66.959 27.2576 66.959 27.2576C67.047 27.3455 67.047 27.4334 67.135 27.5214C67.135 27.6093 67.2229 27.7852 67.2229 28.2249V32.27C67.2229 32.7976 67.2229 33.2373 67.135 33.5011C67.047 33.765 66.959 34.0288 66.871 34.2046C66.695 34.3805 66.519 34.5564 66.3431 34.6443C66.1671 34.7323 65.9031 34.8202 65.6392 34.8202C65.2872 34.8202 65.0232 34.8202 64.8473 34.7323C64.6713 34.6443 64.4953 34.5564 64.3193 34.4685C64.1434 34.2926 64.0554 34.1167 63.9674 33.8529C63.8794 33.5891 63.8794 33.2373 63.8794 32.8856V28.3128C63.8794 27.9611 63.8794 27.6973 63.9674 27.6093C63.9674 27.5214 64.0554 27.4334 64.1434 27.3455C64.2314 27.3455 64.3193 27.2576 64.5833 27.1696H64.6713V26.5541H61.5917V27.1696H61.6797C61.6797 27.0817 61.7677 27.1696 61.7677 27.1696Z" fill="#58595B"/>
<path d="M81.6529 34.9081H81.565C81.389 34.8202 81.213 34.8202 81.125 34.7323C81.037 34.7323 81.037 34.6443 80.949 34.6443C80.949 34.6443 80.8611 34.5564 80.8611 34.3805C80.8611 34.2046 80.8611 34.0288 80.8611 33.7649V31.7424H81.389C81.565 31.7424 81.7409 31.7424 81.8289 31.7424C81.9169 31.7424 82.0049 31.8303 82.0929 31.8303C82.1809 31.9182 82.2689 32.0062 82.3568 32.0941C82.4448 32.27 82.6208 32.4459 82.7968 32.7976L83.4127 33.8529C83.5887 34.1167 83.6767 34.3805 83.8527 34.6443C84.0286 34.9081 84.2046 35.1719 84.3806 35.4358L84.4686 35.5237H86.5803V34.9081H86.4043C86.2283 34.9081 86.0524 34.8202 85.9644 34.7323C85.8764 34.6443 85.7004 34.5564 85.6124 34.3805C85.5244 34.2046 85.3485 34.0288 85.1725 33.677L84.5566 32.6217C84.2926 32.1821 84.1166 31.8303 83.8527 31.6544C83.6767 31.4786 83.5887 31.3906 83.4127 31.3027C83.9406 31.0389 84.3806 30.7751 84.7325 30.4233C85.0845 29.9836 85.2605 29.456 85.2605 28.8404C85.2605 28.049 84.9965 27.4334 84.4686 26.9937C83.9406 26.642 83.1487 26.3782 82.0929 26.3782H78.6613V26.9937H78.7493C79.0133 27.0817 79.1013 27.0817 79.1893 27.1696C79.2773 27.1696 79.2773 27.2576 79.3653 27.2576C79.3653 27.3455 79.4532 27.4334 79.4532 27.5214C79.4532 27.6093 79.4532 27.8731 79.4532 28.1369V33.677C79.4532 33.9408 79.4532 34.2046 79.4532 34.3805C79.4532 34.4684 79.3652 34.5564 79.2773 34.6443C79.2773 34.6443 79.1013 34.7323 78.8373 34.8202H78.7493V35.4358H81.8289V34.9081H81.6529ZM83.4127 29.8957C83.3247 30.1595 83.1487 30.3354 82.9728 30.4233C82.7968 30.5992 82.6208 30.6871 82.3568 30.6871C82.0929 30.7751 81.8289 30.7751 81.477 30.7751H80.8611V27.2576C81.125 27.2576 81.389 27.2576 81.6529 27.2576C82.0929 27.2576 82.5328 27.3455 82.7968 27.4334C83.0608 27.5214 83.2367 27.7852 83.4127 27.9611C83.5007 28.2249 83.5887 28.4887 83.5887 28.9284C83.5007 29.3681 83.5007 29.7198 83.4127 29.8957Z" fill="#58595B"/>
<path d="M97.5788 34.9082H97.4029C97.1389 34.9082 96.9629 34.8202 96.8749 34.7323C96.7869 34.6444 96.699 34.4685 96.699 34.2926C96.699 34.2047 96.699 34.0288 96.7869 33.8529C96.7869 33.677 96.8749 33.5012 96.9629 33.1494L97.1389 32.6218H99.9545L100.13 33.3253C100.218 33.5891 100.218 33.765 100.306 33.8529C100.306 34.0288 100.394 34.2047 100.394 34.2926C100.394 34.3806 100.394 34.5564 100.306 34.5564C100.306 34.6444 100.218 34.6444 100.13 34.7323C100.043 34.7323 99.9545 34.8202 99.6906 34.8202H99.6026V35.4358H102.946V34.8202H102.858C102.682 34.8202 102.594 34.7323 102.418 34.6444C102.33 34.5564 102.242 34.4685 102.154 34.2926C102.066 34.1167 101.978 33.8529 101.89 33.5891L99.6026 26.3782V26.2903H98.2827L95.4671 33.5012C95.2911 33.9409 95.1152 34.2926 94.9392 34.4685C94.7632 34.6444 94.5872 34.8202 94.4113 34.8202H94.2353V35.4358H97.4029V34.9082H97.5788ZM97.4909 31.7424L98.7227 28.2249L99.7785 31.7424H97.4909Z" fill="#58595B"/>
<path d="M114.561 34.9081H114.473C114.297 34.8202 114.121 34.8202 114.033 34.7323C113.945 34.7323 113.945 34.6443 113.857 34.5564C113.857 34.4684 113.769 34.3805 113.769 34.2926C113.769 34.2046 113.769 33.9408 113.769 33.677V32.4459C113.769 31.5665 113.769 30.6871 113.769 29.8957C113.769 29.3681 113.769 28.9284 113.769 28.5766C113.769 28.5766 113.769 28.6646 113.857 28.6646C113.945 28.8404 114.121 29.1042 114.385 29.456L118.08 35.5237H119.136V28.1369C119.136 27.7852 119.136 27.6093 119.136 27.5214C119.136 27.3455 119.224 27.3455 119.224 27.2576C119.224 27.1696 119.312 27.1696 119.4 27.1696C119.488 27.1696 119.576 27.0817 119.752 27.0817H119.84V26.4661H117.112V27.0817H117.2C117.464 27.1696 117.552 27.1696 117.552 27.2576C117.64 27.2576 117.64 27.3455 117.728 27.3455C117.728 27.3455 117.816 27.4334 117.816 27.6093C117.816 27.7852 117.816 27.9611 117.816 28.2249V29.5439C117.816 30.1595 117.816 30.863 117.816 31.6544C117.816 32.0941 117.816 32.3579 117.816 32.6217C117.816 32.5338 117.728 32.5338 117.728 32.4459C117.64 32.27 117.464 32.0062 117.288 31.7424L113.945 26.3782H111.657V26.9937H111.745C112.009 27.0817 112.097 27.0817 112.097 27.1696C112.185 27.1696 112.185 27.2576 112.273 27.2576C112.273 27.3455 112.361 27.4334 112.361 27.5214C112.361 27.6093 112.361 27.8731 112.361 28.1369V33.677C112.361 34.0288 112.361 34.2046 112.361 34.3805C112.361 34.4684 112.273 34.5564 112.273 34.6443C112.273 34.6443 112.097 34.7323 111.833 34.8202H111.745V35.4358H114.473V34.9081H114.561Z" fill="#58595B"/>
<path d="M131.542 34.9081V28.1369C131.542 27.8731 131.542 27.6093 131.542 27.5214C131.542 27.3455 131.63 27.3455 131.63 27.2576C131.63 27.1696 131.718 27.1696 131.806 27.1696C131.894 27.1696 131.982 27.0817 132.158 27.0817H132.246V26.4661H129.167V27.0817H129.255C129.607 27.1696 129.695 27.2576 129.695 27.2576C129.783 27.3455 129.783 27.4334 129.871 27.5214C129.871 27.6093 129.959 27.7852 129.959 28.2249V35.4358C129.959 35.7875 129.959 36.0513 129.871 36.3151C129.783 36.491 129.695 36.6669 129.607 36.8428C129.431 37.0186 129.167 37.1066 128.815 37.2825L128.639 37.3704L128.991 38.2498H129.167C129.783 38.0739 130.223 37.8101 130.574 37.5463C130.926 37.2825 131.19 36.9307 131.366 36.579C131.454 36.0513 131.542 35.5237 131.542 34.9081Z" fill="#58595B"/>
<path d="M148.26 32.9735H147.292V33.0615C147.204 33.3253 147.116 33.5891 147.116 33.765C147.116 33.9408 147.028 34.0288 146.94 34.2047C146.852 34.2926 146.764 34.4685 146.676 34.4685C146.588 34.5564 146.5 34.5564 146.412 34.6443C146.324 34.6443 146.148 34.7323 145.972 34.7323H144.037V31.3027H145.269C145.532 31.3027 145.62 31.3027 145.62 31.3907C145.708 31.3907 145.796 31.4786 145.796 31.6545C145.884 31.7424 145.972 31.9183 145.972 32.1821V32.27H146.852V29.456H145.972V29.544C145.884 29.8078 145.884 29.9837 145.796 30.0716C145.708 30.1595 145.708 30.2475 145.62 30.2475C145.532 30.2475 145.444 30.3354 145.269 30.3354H144.037V27.2576H145.972C146.148 27.2576 146.236 27.2576 146.412 27.2576C146.5 27.2576 146.588 27.3455 146.676 27.3455C146.764 27.4335 146.852 27.4335 146.852 27.5214C146.94 27.6093 147.028 27.6973 147.028 27.8731C147.116 28.049 147.204 28.2249 147.204 28.4008V28.4887H148.172V26.2023H141.661V26.8179H141.749C142.013 26.9058 142.101 26.9058 142.101 26.9938C142.189 26.9938 142.189 27.0817 142.277 27.0817C142.277 27.1696 142.365 27.2576 142.365 27.3455C142.365 27.4335 142.365 27.6973 142.365 27.9611V33.5012C142.365 33.8529 142.365 34.0288 142.365 34.2047C142.365 34.2926 142.277 34.3805 142.189 34.4685C142.189 34.4685 142.013 34.5564 141.749 34.6443H141.661V35.2599H148.084L148.26 32.9735Z" fill="#58595B"/>
</g>
<defs>
<clipPath id="clip0_1_2815">
<rect width="148.436" height="38.346" fill="white" transform="translate(0 0.260681)"/>
</clipPath>
</defs>
</svg>
