<svg width="150" height="28" viewBox="0 0 150 28" fill="none" xmlns="http://www.w3.org/2000/svg">
<g clip-path="url(#clip0_1_2810)">
<path d="M14.1104 3.65779C15.9949 3.65779 17.7488 4.22734 19.2609 5.06085C17.069 7.38378 15.7101 10.5176 15.7101 13.9159C15.7101 17.3345 17.069 20.4266 19.2609 22.771C17.7703 23.5818 15.9734 24.174 14.1104 24.174C8.35485 24.174 3.83025 19.5055 3.83025 13.9159C3.83025 8.30487 8.2789 3.65779 14.1104 3.65779ZM26.6033 9.81695C26.0117 8.04031 24.9381 6.37573 23.6881 5.03819C25.1574 4.13976 26.9983 3.65779 28.8613 3.65779C33.0919 3.65779 36.6648 6.17792 38.2865 9.81695H26.6033ZM38.2865 18.0369C36.6213 21.7415 33.0485 24.174 28.8613 24.174C26.9542 24.174 25.2229 23.6921 23.7102 22.7924C24.9601 21.4334 25.9896 19.8117 26.6033 18.0363H38.2865V18.0369ZM41.9256 12.3812C41.2023 5.95928 35.7229 0.895752 28.8613 0.895752C26.1213 0.895752 23.5791 1.72865 21.4748 3.13172C19.3705 1.72865 16.8278 0.895752 14.1104 0.895752C6.83297 0.895752 0.91449 6.72604 0.91449 13.9159C0.91449 21.1272 6.83297 26.9361 14.1104 26.9361C16.8278 26.9361 19.3705 26.1026 21.4748 24.7007C23.5791 26.1026 26.1213 26.9361 28.8613 26.9361C35.6782 26.9361 41.1802 21.8499 41.9256 15.4721H24.2804C23.9294 17.686 22.9869 19.4841 21.4307 21.0617C19.6333 19.2636 18.6252 16.678 18.6252 13.9159C18.6252 11.1753 19.6333 8.58965 21.4307 6.77013C22.9434 8.28221 23.9521 10.1458 24.2804 12.3597V12.3812H41.9256ZM123.306 4.93775C123.306 6.08483 122.374 7.01878 121.227 7.01878C120.079 7.01878 119.146 6.08483 119.146 4.93775C119.146 3.79191 120.08 2.85857 121.227 2.85857C122.374 2.85857 123.306 3.79191 123.306 4.93775ZM123.705 4.93775C123.705 3.57266 122.592 2.46172 121.227 2.46172C119.86 2.46172 118.749 3.57266 118.749 4.93775C118.749 6.30346 119.86 7.41624 121.227 7.41624C122.592 7.41624 123.705 6.30346 123.705 4.93775ZM143.874 23.0294V20.6942H147.652V18.9396H143.874V17.3835H149.251V15.4874H141.469V24.9249H149.35V23.0288H143.874V23.0294ZM133.516 24.4576C134.252 24.9396 135.228 25.1656 135.893 25.1656C137.833 25.1656 139.304 24.204 139.304 22.1383V15.488H136.885V21.7139C136.885 22.6754 136.757 23.1997 135.766 23.1997C135.3 23.1997 134.718 22.9449 134.082 22.4929L133.516 24.4576ZM130.715 24.9255H132.513V15.488H130.405V21.0072L125.381 15.488H123.344V24.9255H125.438V19.1528L130.715 24.9255ZM117.981 21.6717H115.406L116.678 18.699L117.981 21.6717ZM114.018 24.9255L114.654 23.4257H118.744L119.409 24.9255H122.013L117.726 15.488H115.957L111.797 24.9255H114.018ZM107.113 17.3418C107.935 17.3418 108.415 17.6382 108.415 18.2617C108.415 19.0964 107.524 19.3934 106.675 19.478L104.452 19.7039V17.3418H107.113ZM106.448 21.3452L108.259 24.9255H110.834L108.728 20.8933C110.098 20.3697 110.821 19.4639 110.821 18.19C110.821 16.5346 109.718 15.488 107.835 15.488H102.033V24.9255H104.452V21.5584L106.448 21.3452ZM93.4587 15.488H91.039V21.0482C91.039 23.836 92.526 25.1662 95.5244 25.1662C98.382 25.1662 99.7275 23.6663 99.7275 21.4451V15.488H97.6189V20.9784C97.6189 22.4782 97.0959 23.1997 95.4828 23.1997C94.0393 23.1997 93.4587 22.4354 93.4587 20.9784V15.488ZM79.098 20.1994C79.098 23.4538 81.1771 25.1656 84.4603 25.1656C86.2713 25.1656 87.6578 24.7136 88.6334 24.1606L88.7038 24.1477V24.1189C88.7038 24.1189 88.7038 24.1048 88.7179 24.1048L88.7038 24.0632V19.5907H84.0212V21.3599H86.4685V22.9302C85.8463 23.1145 85.1959 23.1991 84.6 23.1991C82.7486 23.1991 81.6585 21.9956 81.6585 20.0855C81.6585 18.345 82.8044 17.2138 84.728 17.2138C85.8322 17.2138 86.9217 17.539 87.9836 18.2745L88.5336 16.294C87.8685 15.8548 86.5812 15.2461 84.7849 15.2461C81.4748 15.2461 79.098 17.0295 79.098 20.1994ZM76.8614 15.488H74.4564V24.9249H76.8614V15.488ZM63.5325 24.2187C64.6925 24.7987 65.8671 25.1662 67.5788 25.1662C70.268 25.1662 72.0789 24.092 72.0789 21.9834C72.0789 19.846 70.7065 19.3934 67.6076 18.9274C66.1647 18.7002 65.9234 18.4319 65.9234 17.9787C65.9234 17.5684 66.2921 17.2144 67.7209 17.2144C69.1497 17.2144 70.2962 17.6388 71.145 18.2752L71.7109 16.2799C71.0182 15.8279 69.7303 15.2461 67.7779 15.2461C64.962 15.2461 63.5607 16.5628 63.5607 18.2188C63.5607 20.1002 64.8627 20.908 68.0039 21.3452C69.4333 21.5437 69.7015 21.8131 69.7015 22.251C69.7015 22.8598 69.0793 23.1997 67.5372 23.1997C66.3338 23.1997 65.4004 22.9449 64.0843 22.2235L63.5325 24.2187ZM56.3016 15.2461C53.4581 15.2461 50.9392 16.9303 50.9392 20.1994C50.9392 23.4538 53.4863 25.1656 56.3016 25.1656C59.1323 25.1656 61.6934 23.4826 61.6934 20.1994C61.6934 16.9174 59.1604 15.2461 56.3016 15.2461ZM53.5004 20.1994C53.5004 18.318 54.5611 17.1011 56.3016 17.1011C58.0709 17.1011 59.1323 18.3033 59.1323 20.1994C59.1323 22.1096 58.085 23.2989 56.3163 23.2989C54.5336 23.2989 53.5004 22.1242 53.5004 20.1994ZM113.838 6.14913L112.564 9.12062H115.14L113.838 6.14913ZM108.956 12.375L113.118 2.93635H114.886L119.173 12.375H116.569L115.905 10.8752H111.815L111.177 12.375H108.956ZM107.257 12.375H104.853V2.93635H107.257V12.375ZM94.1275 4.792V2.93635H102.844V4.792H99.6883V12.375H97.2827V4.792H94.1275ZM89.1883 6.14913L87.9156 9.12062H90.4909L89.1883 6.14913ZM84.3072 12.375L88.4687 2.93635H90.2367L94.5237 12.375H91.9197L91.2546 10.8752H87.166L86.5297 12.375H84.3072ZM83.5729 7.64958C83.5729 10.9328 81.0106 12.6157 78.1818 12.6157C75.3652 12.6157 72.8175 10.904 72.8175 7.64958C72.8175 4.38045 75.3358 2.69627 78.1818 2.69627C81.0393 2.69689 83.5729 4.36575 83.5729 7.64958ZM78.1946 10.7485C79.9639 10.7485 81.0106 9.55973 81.0106 7.64958C81.0106 5.75351 79.9498 4.55132 78.1818 4.55132C76.44 4.55132 75.3793 5.7676 75.3793 7.64958C75.3793 9.57443 76.4112 10.7485 78.1946 10.7485ZM64.894 4.792V7.15412L67.1152 6.92814C67.9647 6.84301 68.8558 6.54538 68.8558 5.71064C68.8558 5.08842 68.3744 4.792 67.5537 4.792H64.894ZM64.894 9.00793V12.375H62.4743V2.93635H68.2758C70.1578 2.93635 71.2614 3.98421 71.2614 5.63959C71.2614 6.91344 70.5399 7.81921 69.1675 8.34284L71.2754 12.375H68.7002L66.8892 8.79604L64.894 9.00793ZM56.6017 2.69689C58.3992 2.69689 59.6871 3.30564 60.3522 3.74475L59.7998 5.72533C58.7391 4.98981 57.6355 4.66461 56.546 4.66461C54.6493 4.66461 53.4753 5.79576 53.4753 7.53627C53.4753 9.51686 54.5642 10.6498 56.4186 10.6498C57.6214 10.6498 58.725 10.2671 59.7998 9.43357L60.3522 11.4289C59.7153 11.8949 58.145 12.6164 56.2765 12.6164C52.9945 12.6164 50.9141 10.9187 50.9141 7.66427C50.9141 4.49374 53.2775 2.69689 56.6017 2.69689ZM121.27 4.05708C121.562 4.05708 121.707 4.18998 121.707 4.43189C121.707 4.68421 121.559 4.8563 121.239 4.8563H120.829V4.05708H121.27ZM120.384 3.70923V6.14485H120.829V5.20906H121.254C121.349 5.26173 121.434 5.37196 121.536 5.57651L121.638 5.77861C121.756 6.00827 121.805 6.07871 121.884 6.14485H122.391C122.286 6.02971 122.192 5.90294 122.082 5.68676L121.946 5.41606C121.857 5.2403 121.765 5.1074 121.632 5.03697C121.972 4.93163 122.161 4.66278 122.161 4.37065C122.161 4.0081 121.896 3.70923 121.402 3.70923H120.384Z" fill="#174275"/>
</g>
<defs>
<clipPath id="clip0_1_2810">
<rect width="148.436" height="26.3886" fill="white" transform="translate(0.91449 0.895752)"/>
</clipPath>
</defs>
</svg>
