<svg width="150" height="40" viewBox="0 0 150 40" fill="none" xmlns="http://www.w3.org/2000/svg">
<g clip-path="url(#clip0_1_2819)">
<path d="M15.2428 13.8555H13.1042L13.0112 14.134C12.8252 14.7219 12.6702 15.186 12.5462 15.4954C12.4533 15.8048 12.3293 16.0832 12.1743 16.3308C12.0193 16.5783 11.8644 16.7949 11.7094 16.9186C11.5544 17.0733 11.3374 17.1662 11.0895 17.228C10.8415 17.2899 10.4696 17.3209 10.0356 17.3209H5.97526V10.514H8.64085C9.10578 10.514 9.35374 10.5758 9.47772 10.6377C9.6327 10.7305 9.75668 10.8543 9.88066 11.0709C10.0356 11.2875 10.1596 11.6588 10.2836 12.1538L10.3456 12.4632H12.4223V6.58452H10.3456L10.2836 6.89393C10.1596 7.41991 10.0046 7.82214 9.84966 8.03872C9.72568 8.22437 9.6017 8.37907 9.41573 8.44095C9.29175 8.50283 9.04379 8.56471 8.57886 8.56471H5.91327V2.40756H10.0666C10.4076 2.40756 10.6865 2.4385 10.9655 2.46944C11.1825 2.50038 11.3684 2.56226 11.5234 2.68603C11.6784 2.80979 11.8334 2.93355 11.9573 3.11919C12.1123 3.30483 12.2673 3.5833 12.3913 3.86176C12.5462 4.17117 12.6702 4.54245 12.8252 4.94468L12.9182 5.22314H15.0259V0.458313H0.768066V1.81969L1.07802 1.91251C1.60494 2.03628 1.8219 2.1291 1.94588 2.19098C2.06986 2.25286 2.16285 2.34568 2.25584 2.4385C2.31783 2.50038 2.37982 2.65508 2.41081 2.93355C2.44181 3.18107 2.4728 3.61424 2.4728 4.20211V15.6501C2.4728 16.2689 2.44181 16.733 2.37982 17.0115C2.34882 17.259 2.25584 17.4137 2.10086 17.5374C2.00787 17.5993 1.79091 17.754 1.07802 17.9087L0.768066 18.0015V19.3629H14.8709L15.2428 13.8555Z" fill="#8B0304"/>
<path d="M33.3129 17.1352C33.6849 16.5783 33.9948 15.9595 34.1808 15.2478C34.3668 14.5053 34.4907 13.6389 34.4907 12.6488V4.14023C34.4907 3.30483 34.5527 2.90261 34.5837 2.71697C34.6457 2.50038 34.7387 2.34568 34.8627 2.25286C34.9557 2.19098 35.2036 2.03628 35.8545 1.88157L36.1645 1.81969V0.458313H29.6245V1.81969L29.9345 1.88157C30.6473 2.06722 30.8643 2.19098 30.9263 2.25286C31.0503 2.34568 31.1433 2.50038 31.2053 2.68603C31.2672 2.84073 31.3292 3.24295 31.3292 4.14023V12.4323C31.3292 13.4842 31.2672 14.3196 31.1433 14.9384C31.0503 15.5263 30.8333 16.0214 30.5234 16.3926C30.2134 16.7639 29.8415 17.0424 29.4075 17.259C28.9426 17.4446 28.4157 17.5684 27.7958 17.5684C27.1139 17.5684 26.525 17.5065 26.0601 17.3518C25.6261 17.228 25.2852 17.0115 24.9442 16.733C24.6343 16.4545 24.3863 16.0523 24.2313 15.5573C24.0454 15.0313 23.9524 14.3506 23.9524 13.5461V4.14023C23.9524 3.45954 23.9834 2.96449 24.0454 2.68603C24.1074 2.46944 24.2003 2.31474 24.3243 2.22192C24.4483 2.1291 24.6963 2.00534 25.2852 1.88157L25.5951 1.81969V0.458313H18.7452V1.81969L19.0551 1.88157C19.613 2.03628 19.83 2.1291 19.923 2.16004C20.047 2.22192 20.14 2.31474 20.171 2.40756C20.233 2.50038 20.2949 2.65508 20.3259 2.84073C20.3569 3.02637 20.3879 3.49048 20.3879 4.14023V12.8345C20.3879 14.0102 20.5119 15.0003 20.7599 15.7738C21.0388 16.5783 21.4418 17.259 22.0307 17.8468C22.6196 18.4347 23.3635 18.8679 24.2623 19.1154C25.1302 19.3629 26.153 19.4867 27.3618 19.4867C28.3537 19.4867 29.2216 19.3939 29.9654 19.2082C30.7093 19.0226 31.3602 18.7441 31.8872 18.4038C32.5071 18.0634 32.941 17.6303 33.3129 17.1352Z" fill="#8B0304"/>
<path d="M55.5676 17.5375C55.3196 17.3828 55.0717 17.1662 54.8547 16.8568C54.6068 16.5474 54.2968 16.0524 53.9249 15.4335L52.6231 13.2677C52.0961 12.3704 51.6312 11.7207 51.1663 11.2875C50.9183 11.04 50.6084 10.7925 50.2674 10.6068C51.4142 10.1427 52.2821 9.52392 52.933 8.78135C53.7389 7.85313 54.1108 6.73928 54.1108 5.43978C54.1108 3.73806 53.4909 2.43856 52.2511 1.63411C51.0423 0.829654 49.3376 0.427429 46.9819 0.427429H39.4501V1.78881L39.76 1.88163C40.256 2.00539 40.5039 2.09821 40.6279 2.16009C40.7519 2.22197 40.8449 2.3148 40.9069 2.40762C40.9689 2.4695 41.0308 2.6242 41.0618 2.87172C41.0928 3.11925 41.1238 3.55241 41.1238 4.14028V15.5882C41.1238 16.2071 41.0928 16.6712 41.0308 16.9806C40.9999 17.1971 40.9069 17.3828 40.7519 17.4756C40.6589 17.5375 40.4419 17.6922 39.7291 17.8469L39.4191 17.9397V19.3011H46.362V17.9397L46.0521 17.8469C45.6491 17.7541 45.3702 17.6613 45.2152 17.5684C45.0912 17.5066 44.9982 17.4137 44.9052 17.3209C44.8743 17.259 44.7813 17.1353 44.7503 16.8259C44.6883 16.5783 44.6883 16.1452 44.6883 15.5264V11.4732H45.8661C46.3 11.4732 46.641 11.5041 46.827 11.535C47.0129 11.566 47.1989 11.6279 47.3539 11.7516C47.5089 11.8445 47.6948 12.0301 47.9118 12.3086C48.1597 12.618 48.4697 13.144 48.8106 13.7628L50.0815 15.9595C50.3914 16.5165 50.7324 17.0734 51.0423 17.5994C51.3833 18.1563 51.7552 18.6823 52.1271 19.1464L52.2511 19.3011H56.8384V17.9088L56.4975 17.8469C56.1255 17.785 55.7846 17.6922 55.5676 17.5375ZM44.6573 2.43856C45.1222 2.40762 45.7111 2.40762 46.362 2.40762C47.3849 2.40762 48.1907 2.53138 48.7487 2.80984C49.3066 3.05737 49.7095 3.42865 49.9885 3.9237C50.2674 4.41875 50.3914 5.03755 50.3914 5.81107C50.3914 6.55364 50.2674 7.17245 50.0505 7.66749C49.8335 8.16254 49.5235 8.53383 49.1206 8.81229C48.7177 9.09075 48.2837 9.27639 47.8188 9.36922C47.3539 9.46204 46.672 9.52392 45.8661 9.52392H44.6573V2.43856Z" fill="#8B0304"/>
<path d="M60.1549 17.228C60.8678 18.0015 61.7356 18.5894 62.7585 18.9607C63.7503 19.332 64.8352 19.5176 66.044 19.5176C67.7177 19.5176 69.2365 19.1463 70.5383 18.4037C71.8401 17.6612 72.8319 16.5164 73.5448 15.0312C74.2267 13.577 74.5987 11.7515 74.5987 9.64759C74.5987 7.66741 74.2887 5.96568 73.6688 4.57336C73.0489 3.1501 72.088 2.06719 70.8792 1.32461C69.6704 0.582044 68.1517 0.241699 66.3539 0.241699C64.6802 0.241699 63.1924 0.643925 61.9216 1.3865C60.6508 2.16001 59.659 3.3048 58.9771 4.78994C58.2952 6.24415 57.9542 8.00775 57.9542 10.0189C57.9542 11.6587 58.1402 13.082 58.5121 14.2577C58.8841 15.4644 59.442 16.4545 60.1549 17.228ZM64.2153 2.71693C64.7732 2.37659 65.4551 2.22189 66.2299 2.22189C67.1288 2.22189 67.8727 2.46941 68.5546 2.9954C69.2365 3.52139 69.7634 4.38772 70.1663 5.56346C70.5693 6.77013 70.7862 8.3481 70.7862 10.2045C70.7862 11.7515 70.6003 13.082 70.2593 14.2268C69.9184 15.3097 69.3915 16.176 68.7406 16.733C68.0897 17.2899 67.2838 17.5683 66.3229 17.5683C64.8042 17.5683 63.6883 16.9186 62.8825 15.65C62.0766 14.3196 61.6427 12.3085 61.6427 9.67853C61.6427 8.53374 61.7356 7.45082 61.9216 6.52261C62.1076 5.62534 62.3865 4.82089 62.7585 4.17114C63.1614 3.52139 63.6264 3.02634 64.2153 2.71693Z" fill="#8B0304"/>
<path d="M88.6705 1.81969L88.9805 1.91251C89.6314 2.06722 89.8794 2.22192 89.9723 2.2838C90.0963 2.37662 90.1893 2.53132 90.2513 2.71696C90.3133 2.87167 90.3443 3.27389 90.3443 4.17117V8.44095H83.1534V4.14023C83.1534 3.55236 83.1844 3.11919 83.2154 2.87167C83.2774 2.5932 83.3394 2.4385 83.4014 2.37662C83.4634 2.2838 83.5873 2.19098 83.7113 2.1291C83.8663 2.03628 84.1453 1.9744 84.5482 1.88157L84.8581 1.81969V0.458313H78.0082V1.81969L78.2872 1.91251C78.8141 2.03628 79.031 2.1291 79.155 2.19098C79.279 2.25286 79.372 2.34568 79.465 2.4385C79.527 2.50038 79.5889 2.65508 79.6199 2.90261C79.6509 3.08825 79.6819 3.49048 79.6819 4.17117V15.6191C79.6819 16.2379 79.6509 16.702 79.589 16.9805C79.527 17.228 79.434 17.3827 79.31 17.5065C79.217 17.5684 78.969 17.7231 78.2872 17.8778L77.9772 17.9706V19.332H84.7961V17.9706L84.4862 17.8778C83.9903 17.754 83.7423 17.6612 83.6183 17.5993C83.4634 17.5374 83.3704 17.4446 83.3084 17.3518C83.2464 17.228 83.1844 17.0733 83.1534 16.8567C83.1224 16.6092 83.0914 16.207 83.0914 15.6191V10.4521H90.2823V15.5882C90.2823 16.4545 90.2203 16.8567 90.1893 17.0424C90.1273 17.259 90.0343 17.4137 89.9104 17.5065C89.7864 17.5993 89.5384 17.7231 88.9495 17.8468L88.6396 17.9397V19.301H95.4585V17.9397L95.1485 17.8468C94.8076 17.785 94.5596 17.6921 94.4047 17.6303C94.2497 17.5684 94.1567 17.5065 94.1257 17.4446C94.0637 17.3827 94.0017 17.2899 93.9707 17.1971C93.9087 17.0733 93.8777 16.9186 93.8777 16.702C93.8467 16.4545 93.8467 16.0832 93.8467 15.5882V4.14023C93.8467 3.30483 93.9087 2.90261 93.9397 2.68602C94.0017 2.46944 94.0947 2.31474 94.2187 2.22192C94.3117 2.16004 94.5596 2.00534 95.1795 1.88157L95.4895 1.81969V0.458313H88.6705V1.81969Z" fill="#8B0304"/>
<path d="M111.142 14.134C110.956 14.7219 110.801 15.186 110.677 15.4954C110.584 15.7738 110.46 16.0523 110.305 16.3308C110.15 16.5783 109.995 16.7949 109.84 16.9186C109.654 17.0733 109.468 17.1662 109.251 17.228C109.003 17.2899 108.631 17.3209 108.197 17.3209H104.106V10.514H106.803C107.268 10.514 107.516 10.5758 107.639 10.6377C107.794 10.7305 107.949 10.8543 108.073 11.0709C108.228 11.3184 108.352 11.6897 108.476 12.1538L108.538 12.4632H110.615V6.58452H108.538L108.476 6.89393C108.321 7.54367 108.166 7.88402 108.073 8.03872C107.98 8.22437 107.825 8.37907 107.639 8.44095C107.516 8.50283 107.268 8.56471 106.834 8.56471H104.137V2.40756H108.29C108.631 2.40756 108.941 2.4385 109.189 2.46944C109.406 2.50038 109.592 2.56226 109.747 2.68603C109.902 2.80979 110.057 2.93355 110.181 3.11919C110.336 3.30483 110.46 3.5833 110.615 3.86176C110.77 4.20211 110.925 4.57339 111.049 4.94468L111.142 5.22314H113.25V0.458313H98.9918V1.81969L99.3018 1.91251C99.7977 2.03628 100.046 2.1291 100.17 2.19098C100.294 2.25286 100.387 2.34568 100.48 2.4385C100.511 2.50038 100.604 2.65508 100.635 2.93355C100.666 3.18107 100.697 3.61424 100.697 4.17117V15.6191C100.697 16.2379 100.666 16.702 100.604 16.9805C100.573 17.228 100.48 17.3827 100.356 17.4756C100.263 17.5374 100.015 17.6921 99.3328 17.8468L99.0228 17.9397V19.301H113.126L113.436 13.8555H111.297L111.142 14.134Z" fill="#8B0304"/>
<path d="M133.986 17.9088L133.645 17.8469C133.242 17.785 132.901 17.6922 132.684 17.5375C132.436 17.3828 132.219 17.1353 131.971 16.8568C131.723 16.5474 131.413 16.0833 131.041 15.4335L129.739 13.2677C129.212 12.4014 128.747 11.7207 128.282 11.2875C128.003 11.04 127.724 10.7925 127.384 10.6068C128.53 10.1427 129.429 9.52392 130.049 8.78135C130.824 7.85314 131.227 6.73928 131.227 5.43978C131.227 3.73806 130.607 2.43856 129.398 1.63411C128.22 0.829654 126.454 0.427429 124.129 0.427429H116.597V1.78881L116.907 1.88163C117.434 2.00539 117.651 2.09821 117.775 2.16009C117.899 2.22197 117.992 2.28386 118.085 2.40762C118.147 2.4695 118.209 2.6242 118.24 2.90266C118.302 3.15019 118.302 3.55241 118.302 4.17122V15.6192C118.302 16.238 118.271 16.7021 118.209 16.9806C118.178 17.2281 118.085 17.3828 117.961 17.5066C117.868 17.5684 117.62 17.7231 116.938 17.8778L116.628 17.9707V19.332H123.509V17.9707L123.199 17.8778C122.796 17.785 122.486 17.6922 122.331 17.5994C122.207 17.5375 122.114 17.4447 122.052 17.3828C122.021 17.3209 121.959 17.1662 121.897 16.8877C121.835 16.6402 121.835 16.2071 121.835 15.5882V11.4732H123.013C123.447 11.4732 123.788 11.5041 124.005 11.535C124.191 11.566 124.377 11.6279 124.532 11.7516C124.687 11.8445 124.873 12.0301 125.09 12.3086C125.338 12.618 125.648 13.113 125.989 13.7628L127.26 15.9595C127.57 16.5165 127.91 17.0734 128.22 17.6303C128.592 18.2182 128.933 18.7132 129.274 19.1773L129.398 19.332H133.986V17.9088ZM121.835 2.43856C122.3 2.40762 122.889 2.40762 123.54 2.40762C124.563 2.40762 125.338 2.53138 125.927 2.80984C126.485 3.05737 126.888 3.42865 127.167 3.9237C127.446 4.41875 127.57 5.03756 127.57 5.81107C127.57 6.55364 127.446 7.17245 127.229 7.66749C126.981 8.16254 126.671 8.53383 126.299 8.81229C125.927 9.09075 125.462 9.2764 124.997 9.36922C124.532 9.46204 123.881 9.52392 123.044 9.52392H121.804V2.43856H121.835Z" fill="#8B0304"/>
<path d="M149.142 18.775V14.2577H147.034L146.941 14.5362C146.631 15.3716 146.322 15.9904 146.012 16.4236C145.702 16.8258 145.361 17.1042 144.927 17.2899C144.462 17.4755 143.873 17.5684 143.16 17.5684C142.199 17.5684 141.455 17.2899 140.804 16.733C140.153 16.176 139.658 15.3097 139.317 14.1649C138.945 12.9892 138.79 11.535 138.79 9.86418C138.79 8.1934 139.007 6.77014 139.441 5.5944C139.844 4.4496 140.432 3.61421 141.114 3.05728C141.827 2.50036 142.602 2.22189 143.532 2.22189C144.121 2.22189 144.648 2.31471 145.082 2.46941C145.485 2.65506 145.857 2.93352 146.167 3.33575C146.477 3.73797 146.755 4.2949 146.972 5.03747L147.065 5.31594H149.204V0.922393L148.894 0.860512C147.933 0.643929 147.065 0.458286 146.322 0.396405C145.578 0.303584 144.741 0.272644 143.842 0.272644C142.013 0.272644 140.432 0.67487 139.131 1.51026C137.798 2.31471 136.806 3.49045 136.124 4.97559C135.473 6.42979 135.101 8.16246 135.101 10.1117C135.101 13.2057 135.752 15.5572 137.054 17.1352C138.387 18.7441 140.339 19.5485 142.881 19.5485C144.028 19.5485 145.113 19.4867 146.043 19.3938C147.003 19.301 147.933 19.1154 148.863 18.8988L149.142 18.775Z" fill="#8B0304"/>
<path d="M6.93608 27.6859C6.37816 27.3146 5.66527 27.129 4.8284 27.129C4.05352 27.129 3.34063 27.3146 2.75172 27.7168C2.16281 28.1191 1.69788 28.676 1.38793 29.4186C1.07798 30.1611 0.923004 31.0584 0.923004 32.0794C0.923004 32.9148 1.01599 33.6265 1.20196 34.2143C1.38793 34.8022 1.63589 35.3282 1.97684 35.6995C2.31779 36.1017 2.72072 36.3802 3.18565 36.5658C3.65058 36.7514 4.14651 36.8443 4.70442 36.8443C5.4793 36.8443 6.19219 36.6586 6.7811 36.2873C7.37001 35.9161 7.83494 35.3591 8.17588 34.5856C8.48584 33.843 8.6718 32.9148 8.6718 31.8629C8.6718 30.8728 8.51683 30.0064 8.23787 29.2948C7.92792 28.5832 7.49399 28.0262 6.93608 27.6859ZM4.8284 36.0089C4.08452 36.0089 3.5266 35.6685 3.15466 34.9878C2.75172 34.2762 2.56575 33.2242 2.56575 31.8629C2.56575 31.275 2.59674 30.7181 2.68973 30.223C2.78272 29.728 2.9067 29.3257 3.09267 28.9854C3.27864 28.645 3.49561 28.3975 3.77456 28.2119C4.05352 28.0262 4.39447 27.9334 4.76641 27.9334C5.20034 27.9334 5.57229 28.0881 5.91323 28.3356C6.25418 28.6141 6.50214 29.0782 6.71911 29.697C6.90508 30.3468 7.02906 31.1512 7.02906 32.1104C7.02906 32.9148 6.93608 33.6265 6.7811 34.2143C6.62612 34.8022 6.37816 35.2354 6.03721 35.5448C5.69626 35.8851 5.29333 36.0089 4.8284 36.0089Z" fill="#58595B"/>
<path d="M22.4644 32.0794C22.1545 31.8319 21.6896 31.5534 21.1007 31.244C20.6358 31.0275 20.2639 30.8109 20.0159 30.6252C19.799 30.4396 19.613 30.2539 19.52 30.0374C19.4271 29.8208 19.3651 29.5733 19.3651 29.2639C19.3651 28.9854 19.4271 28.7379 19.551 28.5522C19.675 28.3666 19.83 28.2119 20.0469 28.0881C20.2639 27.9953 20.5118 27.9334 20.7908 27.9334C21.1007 27.9334 21.3796 27.9644 21.5656 28.0572C21.7516 28.15 21.9375 28.2738 22.0615 28.4903C22.2165 28.7069 22.3404 28.9854 22.4334 29.3876L22.4644 29.4804H23.3322V27.4384L23.2392 27.4074C22.7434 27.2837 22.3094 27.1908 21.9995 27.1599C21.6586 27.129 21.3177 27.098 20.9767 27.098C20.3569 27.098 19.83 27.1908 19.3341 27.4074C18.8692 27.624 18.4973 27.9334 18.2493 28.3047C18.0014 28.7069 17.8774 29.171 17.8774 29.697C17.8774 30.0683 17.9704 30.4087 18.1253 30.7181C18.2803 31.0275 18.5283 31.3059 18.8382 31.5844C19.1481 31.8319 19.582 32.1104 20.1089 32.3579C20.6358 32.6364 21.0697 32.8529 21.3177 33.0695C21.5656 33.2552 21.7516 33.4718 21.8755 33.6883C21.9995 33.9049 22.0305 34.1834 22.0305 34.4928C22.0305 34.9878 21.9065 35.3591 21.6276 35.6066C21.3796 35.8542 20.9767 35.9779 20.4808 35.9779C20.1089 35.9779 19.799 35.916 19.582 35.8232C19.3651 35.7304 19.1791 35.5757 19.0241 35.3591C18.8692 35.1425 18.7452 34.8331 18.6832 34.4618L18.6522 34.369H17.7534V36.442L17.8464 36.473C18.7762 36.7205 19.613 36.8443 20.3259 36.8443C20.7598 36.8443 21.1937 36.7824 21.5656 36.6896C21.9375 36.5967 22.2785 36.442 22.5574 36.2254C22.8363 36.0089 23.0533 35.7304 23.2083 35.3901C23.3632 35.0497 23.4562 34.6165 23.4562 34.1215C23.4562 33.6883 23.3632 33.2861 23.1773 32.9458C23.0843 32.6364 22.8053 32.327 22.4644 32.0794Z" fill="#58595B"/>
<path d="M32.693 27.7787L32.786 27.8097C32.972 27.8716 33.1269 27.9025 33.1889 27.9644C33.2509 27.9953 33.3129 28.0572 33.3439 28.1191C33.3749 28.181 33.4059 28.2738 33.4369 28.3975C33.4679 28.5213 33.4679 28.7688 33.4679 29.0473V34.926C33.4679 35.2663 33.4679 35.4829 33.4369 35.6376C33.4059 35.7614 33.3749 35.8851 33.2819 35.947C33.2199 36.0089 33.096 36.0708 32.755 36.1636L32.662 36.1945V36.7205H35.7614V36.1945L35.6684 36.1636C35.4824 36.1017 35.3275 36.0708 35.2345 36.0089C35.1725 35.9779 35.1105 35.9161 35.0795 35.8542C35.0485 35.7923 35.0175 35.6995 34.9866 35.5757C34.9556 35.452 34.9556 35.2354 34.9556 34.926V29.0473C34.9556 28.7379 34.9556 28.5213 34.9866 28.3666C35.0175 28.2119 35.0485 28.1191 35.0795 28.0881C35.1105 28.0263 35.1725 27.9644 35.2655 27.9334C35.3585 27.9025 35.4824 27.8406 35.6684 27.8097L35.7614 27.7787V27.2527H32.662V27.7787H32.693Z" fill="#58595B"/>
<path d="M49.3375 32.8529L49.4305 32.8838C49.6474 32.9457 49.8334 33.0076 49.9264 33.1004C50.0194 33.1932 50.0814 33.317 50.1124 33.4717C50.1434 33.6574 50.1743 33.9358 50.1743 34.338V34.7403C50.1743 35.2044 50.0504 35.5138 49.8334 35.7304C49.5854 35.9469 49.2135 36.0398 48.7176 36.0398C48.2527 36.0398 47.8497 35.8851 47.5088 35.6066C47.1678 35.2972 46.9199 34.8331 46.7649 34.2452C46.5789 33.6264 46.5169 32.8838 46.5169 31.9866C46.5169 31.1202 46.6099 30.3777 46.8269 29.7898C47.0128 29.2019 47.2918 28.7378 47.6637 28.4284C48.0047 28.119 48.4386 27.9952 48.9036 27.9952C49.2445 27.9952 49.5235 28.0262 49.7404 28.119C49.9574 28.2118 50.1434 28.3665 50.2983 28.5831C50.4533 28.7997 50.6083 29.1091 50.7013 29.5113L50.7323 29.6042H51.6001V27.5311L51.5071 27.5002C51.0422 27.3764 50.5773 27.2836 50.2053 27.2527C49.8024 27.1908 49.3995 27.1908 48.9655 27.1908C48.1287 27.1908 47.4158 27.4074 46.7959 27.8096C46.176 28.2118 45.711 28.7997 45.3701 29.5423C45.0601 30.2848 44.8742 31.1512 44.8742 32.1413C44.8742 33.7192 45.1841 34.9259 45.773 35.6994C46.3619 36.5039 47.2918 36.937 48.4696 36.937C48.9035 36.937 49.2755 36.9061 49.6164 36.8133C49.9264 36.7205 50.2053 36.5967 50.4843 36.442L50.9802 36.968L51.6621 36.7823V34.338C51.6621 34.0596 51.6621 33.843 51.6931 33.6883C51.6931 33.5336 51.7241 33.4408 51.7861 33.3479C51.8171 33.2551 51.8791 33.1932 51.9411 33.1314C52.0031 33.0695 52.1271 33.0076 52.282 32.9767L52.375 32.9457V32.4197H49.3995V32.8529H49.3375Z" fill="#58595B"/>
<path d="M66.137 27.7787L66.23 27.8097C66.5399 27.9025 66.6949 27.9644 66.7259 27.9953C66.7879 28.0572 66.8499 28.15 66.8809 28.2738C66.9119 28.3975 66.9429 28.676 66.9429 29.0473V33.2861C66.9429 33.8431 66.9119 34.2762 66.8499 34.5856C66.7879 34.895 66.6949 35.1735 66.5399 35.3901C66.3849 35.6067 66.199 35.7614 65.982 35.8542C65.765 35.947 65.4861 36.0089 65.2071 36.0089C64.8662 36.0089 64.5872 35.9779 64.3703 35.9161C64.1533 35.8542 63.9673 35.7304 63.8123 35.5757C63.6574 35.421 63.5334 35.2044 63.4404 34.926C63.3474 34.6475 63.3164 34.2762 63.3164 33.8431V29.0163C63.3164 28.6451 63.3474 28.3975 63.3784 28.2428C63.4094 28.1191 63.4714 28.0263 63.5334 27.9644C63.5954 27.9025 63.7194 27.8406 64.0293 27.7787L64.1223 27.7478V27.2218H61.0228V27.7478L61.1158 27.7787C61.3637 27.8406 61.4877 27.9025 61.5497 27.9334C61.6117 27.9644 61.6737 28.0263 61.7047 28.0881C61.7357 28.15 61.7667 28.2428 61.7976 28.3357C61.8286 28.4594 61.8286 28.676 61.8286 29.0473V33.5336C61.8286 34.1215 61.8906 34.6166 62.0146 35.0188C62.1386 35.421 62.3246 35.7614 62.6035 36.0398C62.8825 36.3183 63.2234 36.5349 63.6264 36.6586C64.0293 36.7824 64.5252 36.8443 65.0831 36.8443C65.5481 36.8443 65.951 36.7824 66.2919 36.6896C66.6329 36.5968 66.9429 36.4421 67.1908 36.2873C67.4388 36.1017 67.6557 35.9161 67.8107 35.6685C67.9967 35.3901 68.1207 35.0807 68.2137 34.7403C68.3066 34.369 68.3686 33.9359 68.3686 33.4408V29.0782C68.3686 28.7069 68.3996 28.4594 68.4306 28.3047C68.4616 28.181 68.5236 28.0881 68.5856 28.0263C68.6476 27.9644 68.7716 27.9025 69.0815 27.8406L69.1745 27.8097V27.2837H66.23V27.7787H66.137Z" fill="#58595B"/>
<path d="M85.7569 36.0088C85.6329 35.916 85.5089 35.7922 85.3849 35.6375C85.261 35.4828 85.106 35.2353 84.951 34.895L84.3311 33.7811C84.0831 33.317 83.8662 33.0076 83.6492 32.7601C83.4942 32.5744 83.3083 32.4507 83.0913 32.3269C83.7112 32.0794 84.1761 31.739 84.4861 31.3368C84.858 30.8727 85.013 30.3158 85.013 29.666C85.013 28.8306 84.734 28.1809 84.1761 27.7787C83.6182 27.3764 82.8123 27.1908 81.7275 27.1908H78.287V27.7168L78.38 27.7477C78.566 27.8096 78.721 27.8405 78.783 27.9024C78.845 27.9334 78.9069 27.9952 78.9379 28.0571C78.9689 28.119 78.9999 28.2118 79.0309 28.3356C79.0619 28.4594 79.0619 28.7069 79.0619 28.9853V34.864C79.0619 35.2044 79.0619 35.421 79.0309 35.5757C78.9999 35.6994 78.9689 35.8232 78.8759 35.8851C78.814 35.9469 78.69 36.0088 78.349 36.1016L78.256 36.1326V36.6586H81.3556V36.1326L81.2626 36.1016C81.0146 36.0398 80.8906 35.9779 80.8596 35.9469C80.7977 35.916 80.7357 35.8541 80.7047 35.7922C80.6737 35.7613 80.6427 35.6685 80.6117 35.5138C80.5807 35.3591 80.5807 35.1425 80.5807 34.8331V32.6363H81.2006C81.4176 32.6363 81.5725 32.6363 81.6655 32.6673C81.7585 32.6982 81.8515 32.7291 81.9445 32.791C82.0375 32.8529 82.1305 32.9457 82.2234 33.1004C82.3474 33.2551 82.4714 33.5026 82.6574 33.843L83.2463 34.9878C83.4013 35.2663 83.5562 35.5447 83.7112 35.8232C83.8662 36.1016 84.0212 36.3801 84.2071 36.5967L84.2381 36.6586H86.3148V36.1016L86.2218 36.0707C86.0359 36.1326 85.8809 36.1016 85.7569 36.0088ZM80.5807 28.0881C80.8286 28.0881 81.1076 28.0571 81.4486 28.0571C81.9445 28.0571 82.3164 28.119 82.5954 28.2737C82.8743 28.3975 83.0913 28.6141 83.2153 28.8616C83.3393 29.14 83.4323 29.4804 83.4323 29.8826C83.4323 30.2848 83.3703 30.6252 83.2463 30.8727C83.1223 31.1512 82.9673 31.3368 82.7813 31.4915C82.5954 31.6462 82.3784 31.739 82.1304 31.8009C81.8825 31.8628 81.5725 31.8937 81.2006 31.8937H80.5497V28.0881H80.5807Z" fill="#58595B"/>
<path d="M103.145 35.9779C103.052 35.8851 102.959 35.7613 102.866 35.5757C102.773 35.3901 102.68 35.1425 102.587 34.7713L100.232 27.098H98.9918L96.1093 34.7094C95.9233 35.1735 95.7683 35.5138 95.5823 35.7613C95.3964 35.9779 95.2104 36.1326 94.9934 36.1636L94.9005 36.1945V36.7514H98.031V36.1945H97.938C97.69 36.1636 97.4731 36.0708 97.3491 35.9779C97.2251 35.8851 97.1941 35.6995 97.1941 35.4519C97.1941 35.3282 97.2251 35.1735 97.2561 35.0188C97.2871 34.8641 97.3801 34.5856 97.4731 34.2762L97.69 33.6883H100.697L100.914 34.4928C100.976 34.7094 101.038 34.895 101.068 35.0807C101.099 35.2663 101.13 35.421 101.13 35.5448C101.13 35.6995 101.099 35.7923 101.068 35.8851C101.038 35.947 100.976 36.0089 100.883 36.0707C100.79 36.1326 100.635 36.1636 100.418 36.2254L100.325 36.2564V36.8133H103.703V36.2873L103.61 36.2564C103.393 36.1326 103.238 36.0708 103.145 35.9779ZM100.48 32.8529H97.938L99.3018 28.9544L100.48 32.8529Z" fill="#58595B"/>
<path d="M118.116 27.7787L118.209 27.8096C118.395 27.8715 118.55 27.9024 118.612 27.9643C118.674 27.9952 118.736 28.0571 118.767 28.119C118.798 28.1809 118.829 28.2737 118.86 28.3975C118.891 28.5522 118.891 28.7688 118.891 29.0782V30.5014C118.891 31.1821 118.891 31.9247 118.922 32.7291C118.922 33.2551 118.953 33.6883 118.953 33.9977C118.891 33.8739 118.829 33.7502 118.767 33.6264C118.643 33.4098 118.519 33.1932 118.364 32.9148L114.986 27.2836L114.955 27.2217H112.63V27.7477L112.723 27.7787C112.909 27.8405 113.064 27.8715 113.126 27.9334C113.188 27.9643 113.25 28.0262 113.281 28.0881C113.312 28.15 113.343 28.2428 113.374 28.3665C113.405 28.4903 113.405 28.7378 113.405 29.0163V34.895C113.405 35.2353 113.405 35.4519 113.374 35.6066C113.343 35.7304 113.312 35.8541 113.219 35.916C113.157 35.9779 113.033 36.0398 112.692 36.1326L112.599 36.1635V36.6895H115.326V36.1635L115.233 36.1326C115.048 36.0707 114.893 36.0398 114.8 35.9779C114.738 35.9469 114.676 35.8851 114.645 35.8232C114.614 35.7613 114.583 35.6685 114.552 35.5447C114.521 35.421 114.521 35.2044 114.521 34.895V33.5027C114.521 32.6054 114.521 31.6772 114.49 30.7799C114.49 30.0992 114.459 29.5732 114.428 29.2019C114.49 29.2947 114.521 29.3876 114.583 29.4804C114.676 29.666 114.862 29.9445 115.079 30.3467L118.891 36.7514H119.914V29.0163C119.914 28.7069 119.914 28.4594 119.945 28.3356C119.976 28.2118 120.007 28.119 120.038 28.0571C120.069 27.9952 120.131 27.9643 120.193 27.9024C120.255 27.8715 120.41 27.8096 120.596 27.7477L120.689 27.7168V27.1908H117.992V27.7787H118.116Z" fill="#58595B"/>
<path d="M130.018 27.7787L130.111 27.8097C130.421 27.9025 130.576 27.9644 130.607 27.9953C130.669 28.0572 130.731 28.15 130.762 28.2738C130.793 28.3975 130.824 28.676 130.824 29.0473V36.6896C130.824 37.0609 130.793 37.3703 130.731 37.6178C130.669 37.8344 130.576 38.02 130.421 38.1438C130.266 38.2985 129.987 38.4532 129.615 38.5769L129.522 38.6079L129.832 39.4123L129.925 39.3814C130.545 39.1958 131.041 38.9482 131.382 38.7007C131.723 38.4222 132.002 38.0819 132.157 37.6797C132.312 37.2775 132.374 36.7824 132.374 36.1636V29.0473C132.374 28.7379 132.374 28.5213 132.405 28.3666C132.436 28.2119 132.467 28.1191 132.498 28.0881C132.529 28.0263 132.59 27.9644 132.683 27.9334C132.776 27.9025 132.9 27.8406 133.086 27.8097L133.179 27.7787V27.2527H130.08V27.7787H130.018Z" fill="#58595B"/>
<path d="M148.181 34.1215L148.15 34.2143C148.057 34.5237 147.995 34.7403 147.933 34.926C147.871 35.0807 147.809 35.2354 147.747 35.3591C147.685 35.4829 147.592 35.6067 147.499 35.6995C147.406 35.7923 147.313 35.8232 147.189 35.8851C147.065 35.9161 146.879 35.947 146.693 35.947H144.679V32.2342H146.011C146.197 32.2342 146.352 32.2651 146.445 32.296C146.538 32.3579 146.6 32.4198 146.662 32.5436C146.724 32.6673 146.786 32.853 146.848 33.1314L146.879 33.2243H147.716V30.3777H146.879L146.848 30.4706C146.786 30.749 146.724 30.9656 146.631 31.0894C146.569 31.2131 146.476 31.275 146.383 31.3369C146.29 31.3988 146.135 31.3988 145.98 31.3988H144.648V28.0572H146.693C146.848 28.0572 147.003 28.0572 147.127 28.0881C147.251 28.1191 147.344 28.15 147.406 28.2119C147.499 28.2738 147.561 28.3666 147.623 28.4594C147.685 28.5522 147.778 28.7069 147.84 28.8617C147.902 29.0164 147.995 29.2329 148.057 29.4495L148.088 29.5423H148.956V27.2527H142.354V27.7787L142.447 27.8097C142.633 27.8716 142.788 27.9025 142.85 27.9644C142.912 27.9953 142.974 28.0572 143.005 28.1191C143.036 28.181 143.067 28.2738 143.098 28.3975C143.129 28.5213 143.129 28.7688 143.129 29.0473V34.926C143.129 35.2663 143.129 35.4829 143.098 35.6376C143.067 35.7614 143.036 35.8851 142.943 35.947C142.881 36.0089 142.757 36.0708 142.416 36.1636L142.323 36.1945V36.7205H148.863L149.018 34.0906H148.181V34.1215Z" fill="#58595B"/>
</g>
<defs>
<clipPath id="clip0_1_2819">
<rect width="148.436" height="39.1706" fill="white" transform="translate(0.768066 0.241699)"/>
</clipPath>
</defs>
</svg>
