<svg width="126" height="24" viewBox="0 0 126 24" fill="none" xmlns="http://www.w3.org/2000/svg">
<path d="M10.1239 10.1079H15.1612L15.8432 5.04197H10.8059L11.4191 0.142212C9.17263 0.176596 8.55945 0.107826 5.63105 0.709552V1.84996C5.25855 3.82706 3.68834 5.47178 2.29577 5.47178H1.6482L0.966248 10.1022H3.0465L1.85451 18.492C1.41324 21.5808 3.08088 23.6611 5.97489 23.6611H6.41616C8.83452 23.6611 12.2042 22.8874 13.7687 21.8845L14.1412 17.6209C12.9836 17.724 11.9635 17.7527 10.8059 17.7527H10.2271C9.06948 17.7527 9.10386 17.151 9.40759 15.0994L10.1239 10.1079Z" fill="#99BC39"/>
<path d="M27.6943 4.60071H26.6055C19.2816 4.60071 17.0352 6.61219 16.0151 13.7641L15.912 14.4346C14.995 21.3802 16.932 23.6611 24.1527 23.6611H25.276C32.1872 23.6611 34.3993 21.7126 35.4594 14.767L35.5626 14.1309C36.5827 7.01907 34.7431 4.63509 27.6943 4.60071ZM28.8519 11.5807L28.1356 16.5149C27.8949 18.0278 27.0811 18.7327 25.5109 18.7327H24.3533C22.9206 18.7327 22.445 18.194 22.6169 16.853L23.3332 11.9532C23.5739 10.2741 24.3533 9.53485 25.9235 9.53485H27.0811C28.5768 9.53485 29.0869 10.1079 28.8519 11.5807Z" fill="#99BC39"/>
<path d="M66.6804 17.151L67.838 9.76981C68.2792 6.64657 66.5772 4.60071 63.6488 4.60071H63.2075C60.8236 4.60071 58.3708 6.01046 56.4969 7.42022C56.1588 5.74112 54.6917 4.60071 52.5828 4.60071H52.1072C50.0957 4.60071 48.0555 5.60931 46.3191 6.74973L46.6572 5.04197H37.8033L37.2589 9.87297C37.8721 10.0048 38.4509 10.1767 38.9953 10.2741L36.7832 23.1912H43.8664L45.9409 11.1108C46.5541 10.744 47.1673 10.5091 47.7117 10.5091H48.3593C49.62 10.5091 49.5169 10.979 49.2131 13.2598L47.8148 23.1912H54.5599L56.7032 11.1796C57.3851 10.7784 58.2046 10.5091 58.7834 10.5091H59.431C60.6918 10.5091 60.5886 10.979 60.2849 13.2598L59.431 19.5693C59.0929 22.4863 61.3737 23.6324 63.2477 23.6324C64.6116 23.6324 65.9698 23.5006 68.0844 22.7613L68.6976 18.2627H67.8781C67.0872 18.257 66.5084 18.1252 66.6804 17.151Z" fill="#99BC39"/>
<path d="M90.0044 5.04194H82.8868L82.5487 6.54912C81.053 5.64366 79.5516 4.83563 77.3739 4.83563H76.8639C73.9355 4.83563 71.3452 6.27977 70.7664 10.2397L69.8495 16.3143C69.0987 21.2828 71.2478 23.4605 74.1761 23.4605H74.6862C76.8639 23.4605 78.9097 22.3544 80.6117 20.4748C80.6117 22.9218 82.6519 23.6266 84.5258 23.6266C85.8554 23.6266 87.2135 23.4948 89.3625 22.555L89.9757 18.2627H89.0588C88.2794 18.2627 87.6949 18.1309 87.8668 17.1567L90.0044 5.04194ZM80.841 16.9504C80.0903 17.2885 79.4083 17.5521 78.8008 17.5521H78.3596C76.7951 17.5521 76.7951 17.2827 77.202 14.6982L77.3395 13.5578C77.712 11.042 78.2908 10.4689 79.6203 10.4689H80.0616C80.9155 10.4689 81.3224 10.5033 81.9699 10.8414L80.841 16.9504Z" fill="#99BC39"/>
<path d="M99.9473 10.1079H104.985L105.667 5.04197H100.629L101.242 0.142212C98.996 0.176596 98.3828 0.107826 95.4544 0.709552V1.84996C95.0819 3.82706 93.5117 5.47178 92.1191 5.47178H91.4716L90.7896 10.1022H92.8641L91.6721 18.492C91.2309 21.5808 92.8985 23.6611 95.7925 23.6611H96.2338C98.6522 23.6611 102.022 22.8874 103.592 21.8845L103.965 17.6209C102.807 17.724 101.787 17.7527 100.629 17.7527H100.05C98.8928 17.7527 98.9272 17.151 99.231 15.0994L99.9473 10.1079Z" fill="#99BC39"/>
<path d="M117.512 4.60071H116.423C109.099 4.60071 106.853 6.61219 105.833 13.7641L105.73 14.4346C104.807 21.3802 106.75 23.6611 113.97 23.6611H115.094C122.005 23.6611 124.217 21.7126 125.277 14.767L125.38 14.1309C126.4 7.01907 124.561 4.63509 117.512 4.60071ZM118.67 11.5807L117.953 16.5149C117.713 18.0278 116.899 18.7327 115.329 18.7327H114.171C112.738 18.7327 112.263 18.194 112.435 16.853L113.151 11.9532C113.392 10.2741 114.171 9.53485 115.741 9.53485H116.899C118.4 9.53485 118.91 10.1079 118.67 11.5807Z" fill="#99BC39"/>
</svg>
