<svg width="149" height="40" viewBox="0 0 149 40" fill="none" xmlns="http://www.w3.org/2000/svg">
<g clip-path="url(#clip0_1_2820)">
<path d="M11.7767 19.8207V19.1215C12.2429 19.0438 12.5925 18.9272 12.8256 18.8107C13.0587 18.6942 13.2141 18.5388 13.3306 18.3445C13.4472 18.1503 13.486 17.8784 13.486 17.5287C13.486 17.218 13.4472 16.8683 13.3695 16.4799C13.2918 16.0914 13.1752 15.7029 13.0587 15.2367L12.5148 13.4109H5.91075L5.44458 14.8094C5.2115 15.5087 5.05611 16.0525 4.97841 16.4022C4.90072 16.7518 4.86187 17.1014 4.86187 17.3734C4.86187 17.9561 5.01726 18.3445 5.28919 18.6165C5.56112 18.8884 6.02729 19.0438 6.61 19.1603V19.8596H0.549805V19.1603C1.09367 19.0826 1.52099 18.7719 1.94831 18.228C2.33679 17.6841 2.72526 16.946 3.07489 15.9748L8.9797 0.241638H11.2328L16.0499 16.0914C16.283 16.8295 16.4773 17.4122 16.6715 17.8007C16.8657 18.1891 17.06 18.4999 17.293 18.6942C17.5261 18.9272 17.8758 19.0826 18.3031 19.1603V19.8596H11.7767V19.8207ZM6.29922 12.1678H12.2429L9.56241 2.99981L6.29922 12.1678Z" fill="#006641"/>
<path d="M33.0263 19.8208L32.0551 20.0538L31.0839 19.1992C30.5012 19.51 29.9573 19.7042 29.4523 19.8596C28.9084 20.015 28.2869 20.0538 27.5099 20.0538C25.3733 20.0538 23.7806 19.4323 22.7317 18.1503C21.6828 16.8683 21.1389 15.0037 21.1389 12.4786C21.1389 10.9247 21.4109 9.56503 21.9936 8.36076C22.5763 7.19534 23.3921 6.263 24.4798 5.64144C25.5676 5.01989 26.8107 4.70911 28.2869 4.70911C29.0638 4.70911 29.7631 4.74795 30.5012 4.82565C31.2004 4.90334 32.0162 5.05873 32.8709 5.33067V8.71039H31.5501C31.2781 7.97229 31.0062 7.38958 30.6566 7.0011C30.3069 6.57378 29.9185 6.30185 29.53 6.10761C29.1027 5.95222 28.5977 5.87453 27.9761 5.87453C27.1603 5.87453 26.4222 6.10761 25.8006 6.61263C25.1791 7.0788 24.7129 7.8169 24.3633 8.78809C24.0137 9.75927 23.8583 10.9247 23.8583 12.2844C23.8583 13.2555 23.936 14.149 24.0914 14.9648C24.2467 15.7806 24.4798 16.4799 24.7906 17.0626C25.1014 17.6453 25.5287 18.1115 26.0337 18.4222C26.5387 18.733 27.1214 18.8884 27.8207 18.8884C28.753 18.8884 29.4134 18.733 29.8408 18.3834C30.2681 18.0338 30.5012 17.4899 30.5012 16.713V16.1691C30.5012 15.5864 30.4623 15.1591 30.3846 14.8483C30.3069 14.5375 30.1904 14.3044 29.9962 14.149C29.8019 13.9936 29.4523 13.8383 28.9473 13.7217V13.0225H34.3082V13.7217C33.9198 13.8383 33.609 13.9936 33.4536 14.149C33.2982 14.3044 33.1816 14.5375 33.104 14.8483C33.0263 15.1591 32.9874 15.5864 32.9874 16.1691V19.8208H33.0263Z" fill="#006641"/>
<path d="M44.02 19.8208H38.1152V19.1215C38.6203 19.005 38.9699 18.8496 39.1641 18.6942C39.3584 18.5 39.5137 18.2669 39.5914 17.9561C39.6691 17.6453 39.708 17.218 39.708 16.6742V8.08887C39.708 7.54501 39.6691 7.11768 39.5914 6.80691C39.5137 6.49613 39.3972 6.26304 39.1641 6.0688C38.9699 5.87457 38.6203 5.71918 38.1152 5.60263V4.90338H45.0301C46.4286 4.90338 47.5552 5.05877 48.4098 5.36955C49.2644 5.68033 49.8472 6.1465 50.2356 6.72921C50.6241 7.31192 50.7795 8.05002 50.7795 8.90467C50.7795 9.33199 50.7406 9.72046 50.6241 10.0312C50.5076 10.3809 50.3522 10.6916 50.1579 10.9636C49.9637 11.2355 49.6918 11.5074 49.4198 11.7405C49.1091 11.9736 48.7983 12.2067 48.4487 12.3621C48.099 12.5563 47.594 12.7506 47.0113 12.9836V13.1002C47.4386 13.2944 47.8271 13.5275 48.1767 13.8771C48.5263 14.1879 48.876 14.6541 49.2644 15.2756L50.4299 17.1403C50.7018 17.5676 50.9349 17.9173 51.1291 18.1892C51.3234 18.4223 51.5564 18.6165 51.7895 18.7719C52.0226 18.9273 52.3334 19.005 52.683 19.0827V19.7819H49.0702C48.6429 19.2381 48.1767 18.4611 47.594 17.4511L46.4674 15.4699C46.1178 14.8872 45.807 14.4598 45.5739 14.1879C45.302 13.916 45.0689 13.7606 44.7581 13.6441C44.4862 13.5275 44.0589 13.4887 43.4762 13.4887H42.1942V16.208C42.1942 16.9461 42.2331 17.5288 42.3108 17.8784C42.3885 18.228 42.5438 18.5 42.7769 18.6942C43.01 18.8885 43.3985 19.0438 43.9812 19.1215V19.8208H44.02ZM42.1942 6.18535V12.3621H44.2531C45.5351 12.3621 46.5063 12.0902 47.1278 11.5851C47.7494 11.0413 48.0602 10.2643 48.0602 9.1766C48.0602 8.39965 47.9048 7.81694 47.594 7.35077C47.2832 6.8846 46.8559 6.57382 46.312 6.41843C45.7682 6.22419 45.1078 6.1465 44.292 6.1465C43.5539 6.1465 42.8158 6.1465 42.1942 6.18535Z" fill="#006641"/>
<path d="M63.7935 19.8207V19.1215C64.2596 19.0049 64.5704 18.8884 64.7258 18.8107C64.92 18.733 65.0366 18.6165 65.1143 18.4611C65.192 18.3057 65.2308 18.1114 65.2308 17.8395C65.2308 17.5676 65.192 17.3345 65.1143 17.0626C65.0366 16.7906 64.9589 16.4798 64.8423 16.0914L64.5316 15.0813H58.5491L58.2771 15.7806C58.0829 16.3245 57.9275 16.7129 57.8498 16.9849C57.7721 17.2568 57.7333 17.4899 57.7333 17.723C57.7333 18.1114 57.8498 18.4222 58.0829 18.6553C58.316 18.8495 58.7044 19.0049 59.2483 19.1603V19.8596H53.8485V19.1603C54.1981 19.1215 54.4701 19.0049 54.7032 18.8107C54.9362 18.6553 55.1693 18.3834 55.3636 18.0337C55.5578 17.6841 55.8686 17.1403 56.1794 16.3633L61.3461 4.74792H63.3661L67.5617 16.7518C67.7947 17.3733 67.9501 17.8395 68.1055 18.1114C68.2609 18.3834 68.4163 18.6165 68.6105 18.7718C68.8048 18.9272 69.0767 19.0438 69.4652 19.1603V19.8596H63.7935V19.8207ZM59.0929 13.9159H64.2208L61.8899 7.23416L59.0929 13.9159Z" fill="#006641"/>
<path d="M80.3036 17.2957L75.9527 7.42841H75.7973C75.8361 7.97227 75.875 8.47729 75.875 8.94346C75.875 9.40962 75.875 9.87579 75.875 10.342V16.7129C75.875 17.2568 75.9138 17.6841 75.9915 17.9949C76.0692 18.3057 76.2246 18.5388 76.4188 18.733C76.6131 18.9272 76.9627 19.0438 77.4677 19.1603V19.8596H72.5729V19.1603C73.0779 19.0438 73.4276 18.8884 73.6218 18.733C73.816 18.5388 73.9714 18.3057 74.0491 17.9949C74.1268 17.6841 74.1657 17.2568 74.1657 16.7129V8.12766C74.1657 7.58379 74.1268 7.15647 74.0491 6.84569C73.9714 6.53491 73.8549 6.30183 73.6218 6.14644C73.4276 5.9522 73.0779 5.79681 72.5729 5.68027V4.98102H77.4677L81.5078 14.5375L86.0141 4.98102H90.4816V5.68027C89.9766 5.79681 89.6269 5.9522 89.4327 6.14644C89.2385 6.34068 89.1219 6.57376 89.0442 6.88454C88.9665 7.19532 88.9277 7.62264 88.9277 8.12766V16.7129C88.9277 17.2957 88.9665 17.723 89.0442 18.0338C89.1219 18.3445 89.2773 18.5776 89.4715 18.733C89.6658 18.9272 90.0154 19.0438 90.4816 19.1603V19.8596H84.8876V19.1603C85.3926 19.0438 85.7422 18.8884 85.9364 18.6942C86.1307 18.4999 86.2861 18.2668 86.3638 17.9561C86.4415 17.6453 86.4803 17.218 86.4803 16.6741V9.91464C86.4803 9.25423 86.5191 8.47729 86.558 7.5838H86.4026L81.8186 17.2957H80.3036Z" fill="#006641"/>
<path d="M99.3388 18.5388H103.068C103.495 18.5388 103.806 18.4999 104.078 18.4611C104.35 18.4222 104.583 18.3445 104.777 18.228C104.972 18.1114 105.166 17.9949 105.321 17.8007C105.477 17.6453 105.632 17.4122 105.787 17.1014C105.943 16.8295 106.059 16.441 106.176 16.0137C106.293 15.5863 106.448 14.9259 106.642 14.0713H108.079L107.808 19.7819H95.0268V19.0826C95.6095 18.9272 95.998 18.7718 96.1922 18.5776C96.3864 18.3834 96.503 18.1114 96.5807 17.8007C96.6584 17.451 96.6583 16.946 96.6583 16.2468V4.00982C96.6583 3.34941 96.6195 2.88324 96.5807 2.57246C96.5418 2.26168 96.4641 2.0286 96.3476 1.87321C96.231 1.71782 96.0756 1.56243 95.9203 1.48473C95.726 1.36819 95.4152 1.2905 94.9879 1.13511V0.435852H100.97V1.13511C100.543 1.25165 100.271 1.36819 100.077 1.44589C99.8827 1.52358 99.7661 1.64012 99.6496 1.79551C99.5331 1.9509 99.4554 2.18399 99.3777 2.49477C99.3388 2.80554 99.3 3.31056 99.3 3.97097V18.5388H99.3388Z" fill="#006641"/>
<path d="M117.403 19.8207H111.692V19.1215C112.197 19.0049 112.547 18.8495 112.741 18.6942C112.935 18.4999 113.091 18.2668 113.168 17.9561C113.246 17.6453 113.285 17.218 113.285 16.6741V8.12766C113.285 7.58379 113.246 7.15647 113.168 6.84569C113.091 6.53491 112.974 6.30183 112.741 6.14644C112.547 5.9522 112.197 5.79681 111.692 5.68027V4.98102H117.403V5.68027C116.898 5.79681 116.509 5.9522 116.315 6.14644C116.121 6.34068 116.004 6.57376 115.927 6.88454C115.849 7.19532 115.81 7.62264 115.81 8.16651V16.7518C115.81 17.2957 115.849 17.723 115.927 18.0338C116.004 18.3445 116.16 18.5776 116.354 18.7719C116.548 18.9661 116.898 19.0826 117.403 19.1992V19.8207Z" fill="#006641"/>
<path d="M127.581 19.8207H121.676V19.1215C122.181 19.0049 122.531 18.8495 122.725 18.6942C122.919 18.4999 123.075 18.2668 123.152 17.9561C123.23 17.6453 123.269 17.218 123.269 16.6741V8.12766C123.269 7.58379 123.23 7.15647 123.152 6.84569C123.075 6.53491 122.919 6.30183 122.725 6.14644C122.531 5.9522 122.181 5.79681 121.676 5.68027V4.98102H133.291V8.43844H131.971C131.776 7.85573 131.543 7.4284 131.349 7.07878C131.155 6.768 130.922 6.49607 130.65 6.34068C130.378 6.18529 129.951 6.10759 129.407 6.10759H125.794V11.9736H128.086C128.435 11.9736 128.707 11.9347 128.902 11.8182C129.096 11.7016 129.29 11.5462 129.407 11.2743C129.562 11.0412 129.679 10.6139 129.834 10.07H131.077V15.0037H129.834C129.679 14.4598 129.523 14.0713 129.407 13.7994C129.251 13.5663 129.096 13.3721 128.902 13.2555C128.707 13.139 128.435 13.1001 128.086 13.1001H125.794V16.1691C125.794 16.9072 125.833 17.4899 125.91 17.8395C125.988 18.1891 126.143 18.4611 126.377 18.6553C126.61 18.8495 126.998 19.0049 127.581 19.0826V19.8207Z" fill="#006641"/>
<path d="M141.022 6.14644V11.5462H143.275C143.664 11.5462 143.936 11.5074 144.13 11.3908C144.324 11.3131 144.518 11.1578 144.635 10.9247C144.751 10.6916 144.907 10.3808 145.023 9.91464H146.266V14.3044H145.023C144.907 13.9159 144.79 13.6051 144.674 13.3721C144.557 13.139 144.363 12.9447 144.169 12.867C143.974 12.7505 143.664 12.7117 143.236 12.7117H140.983V18.6942H144.518C144.985 18.6942 145.334 18.6553 145.606 18.6165C145.878 18.5388 146.111 18.4611 146.305 18.2668C146.5 18.1114 146.694 17.8784 146.849 17.5287C147.005 17.218 147.238 16.6352 147.51 15.8583H148.83L148.597 19.8596H136.904V19.1603C137.409 19.0438 137.759 18.8884 137.953 18.733C138.147 18.5388 138.303 18.3057 138.38 17.9949C138.458 17.6841 138.497 17.2568 138.497 16.7129V8.12766C138.497 7.58379 138.458 7.15647 138.38 6.84569C138.303 6.53491 138.147 6.30183 137.953 6.14644C137.759 5.9522 137.409 5.79681 136.904 5.68027V4.98102H148.636V8.43844H147.315C147.082 7.81688 146.849 7.31186 146.655 7.00108C146.422 6.6903 146.189 6.45722 145.917 6.34068C145.645 6.22414 145.256 6.14644 144.751 6.14644H141.022Z" fill="#006641"/>
<path d="M6.45461 27.901C5.91075 27.5514 5.2115 27.3571 4.3957 27.3571C3.61875 27.3571 2.95835 27.5514 2.37563 27.9398C1.79292 28.3283 1.32675 28.8722 1.01597 29.5714C0.705194 30.2707 0.549805 31.1253 0.549805 32.0965C0.549805 32.8734 0.627499 33.5727 0.821737 34.1554C1.01597 34.7381 1.24906 35.2043 1.55984 35.5928C1.87062 35.9812 2.29794 36.2532 2.72526 36.4474C3.19143 36.6416 3.69645 36.7193 4.24031 36.7193C5.01726 36.7193 5.71651 36.5251 6.29922 36.1755C6.88193 35.8259 7.3481 35.282 7.65888 34.5439C7.96966 33.8446 8.12505 32.9511 8.12505 31.9411C8.12505 30.9699 7.96966 30.1541 7.69773 29.4937C7.46465 28.7945 7.03732 28.2506 6.45461 27.901ZM4.3957 35.8259C3.69645 35.8259 3.15258 35.5151 2.80296 34.8547C2.41448 34.1943 2.22024 33.1842 2.22024 31.9023C2.22024 31.3196 2.25909 30.8145 2.33679 30.3484C2.41448 29.8822 2.56987 29.4937 2.72526 29.1829C2.88065 28.8722 3.11373 28.6391 3.38567 28.4837C3.6576 28.3283 3.96838 28.2506 4.31801 28.2506C4.74533 28.2506 5.09495 28.3671 5.40573 28.6391C5.71651 28.911 5.98844 29.3383 6.18268 29.921C6.37692 30.5038 6.45461 31.2807 6.45461 32.213C6.45461 32.9511 6.37692 33.6504 6.22153 34.1943C6.06614 34.7381 5.83305 35.1654 5.52227 35.4374C5.2115 35.7093 4.86187 35.8259 4.3957 35.8259Z" fill="black"/>
<path d="M22.2267 32.0965C21.9159 31.8634 21.4497 31.5915 20.867 31.3196C20.4008 31.0865 20.0512 30.8923 19.8181 30.7369C19.585 30.5815 19.4297 30.3872 19.352 30.193C19.2354 29.9988 19.1966 29.7657 19.1966 29.4938C19.1966 29.2218 19.2354 29.0276 19.3908 28.8333C19.5073 28.6391 19.6627 28.5226 19.857 28.406C20.0512 28.3283 20.2843 28.2506 20.5562 28.2506C20.867 28.2506 21.1001 28.2895 21.2943 28.3672C21.4886 28.4449 21.644 28.5614 21.7605 28.7557C21.9159 28.9499 22.0324 29.2218 22.1101 29.6103L22.149 29.7268H23.0813V27.7068L22.9648 27.6679C22.4597 27.5514 22.0713 27.4737 21.7216 27.4348C21.372 27.396 21.0612 27.396 20.7116 27.396C20.1289 27.396 19.585 27.5125 19.1189 27.7068C18.6527 27.901 18.2642 28.2118 18.0311 28.6003C17.7981 28.9887 17.6427 29.4161 17.6427 29.9211C17.6427 30.2707 17.7204 30.6203 17.8758 30.8923C18.0311 31.203 18.2642 31.475 18.575 31.7081C18.8858 31.9411 19.3131 32.2131 19.8181 32.4462C20.3231 32.6792 20.7505 32.9123 20.9835 33.1066C21.2166 33.3008 21.4109 33.495 21.4886 33.6893C21.6051 33.8835 21.644 34.1554 21.644 34.4274C21.644 34.8935 21.5274 35.2432 21.2943 35.4763C21.0612 35.7093 20.6728 35.8259 20.2066 35.8259C19.857 35.8259 19.585 35.787 19.352 35.6705C19.1577 35.5928 18.9635 35.4374 18.8469 35.2432C18.6915 35.0489 18.6139 34.7382 18.4973 34.3885L18.4585 34.272H17.6427V36.3309L17.7592 36.3698C18.6915 36.6028 19.5073 36.7194 20.2066 36.7194C20.6339 36.7194 21.0612 36.6805 21.4497 36.564C21.8382 36.4863 22.149 36.3309 22.4209 36.0978C22.6928 35.9036 22.9259 35.5928 23.0813 35.282C23.2367 34.9324 23.3144 34.5439 23.3144 34.0778C23.3144 33.6504 23.2367 33.262 23.0425 32.9512C22.8094 32.6404 22.5763 32.3296 22.2267 32.0965Z" fill="black"/>
<path d="M32.6766 28.0564L32.7931 28.0952C33.0262 28.1729 33.1428 28.2118 33.1816 28.2506C33.2593 28.2895 33.2982 28.3283 33.337 28.3672C33.3759 28.406 33.4147 28.5225 33.4147 28.6391C33.4536 28.7556 33.4536 28.9887 33.4536 29.2606V34.8547C33.4536 35.1655 33.4536 35.3985 33.4147 35.5539C33.3759 35.6705 33.337 35.787 33.2593 35.8259C33.2205 35.8647 33.1039 35.9424 32.7931 36.0201L32.6766 36.0589V36.6417H35.7844V36.0589L35.6679 36.0201C35.4736 35.9813 35.3571 35.9424 35.2794 35.8647C35.2017 35.8259 35.1628 35.787 35.124 35.7093C35.0851 35.6705 35.0463 35.5539 35.0463 35.4374C35.0075 35.3208 35.0075 35.1266 35.0075 34.8158V29.2606C35.0075 28.9887 35.0075 28.7556 35.0463 28.6391C35.0851 28.4837 35.124 28.406 35.124 28.3672C35.1628 28.3283 35.2017 28.2895 35.2794 28.2506C35.3182 28.2118 35.4348 28.1729 35.6679 28.1341L35.7844 28.0952V27.5125H32.6766V28.0564Z" fill="black"/>
<path d="M49.653 32.8734L49.7696 32.9123C50.0415 32.99 50.158 33.0677 50.2357 33.1065C50.3134 33.1842 50.3911 33.3008 50.3911 33.4173C50.43 33.5727 50.4688 33.8446 50.4688 34.2331V34.6216C50.4688 35.0489 50.3523 35.3597 50.158 35.5151C49.9249 35.7093 49.5753 35.8259 49.1091 35.8259C48.643 35.8259 48.2934 35.7093 47.9826 35.3985C47.6718 35.1266 47.4387 34.6993 47.2833 34.1166C47.1279 33.5339 47.0502 32.8346 47.0502 31.98C47.0502 31.1642 47.1668 30.4649 47.361 29.8822C47.5552 29.3383 47.8272 28.911 48.1768 28.6002C48.5264 28.3283 48.8761 28.1729 49.3422 28.1729C49.653 28.1729 49.9249 28.2118 50.158 28.2895C50.3523 28.3671 50.5465 28.5225 50.663 28.7168C50.8184 28.911 50.935 29.2218 51.0515 29.5714L51.0904 29.688H52.0227V27.629L51.9062 27.5902C51.44 27.4737 51.0127 27.396 50.6242 27.3571C50.2357 27.3183 49.8472 27.2794 49.4199 27.2794C48.6041 27.2794 47.9049 27.4737 47.2833 27.8621C46.6618 28.2506 46.1956 28.7945 45.8848 29.5326C45.574 30.2318 45.4186 31.0865 45.4186 32.0188C45.4186 33.5339 45.7294 34.6604 46.3121 35.4374C46.8948 36.2143 47.7883 36.6416 48.9538 36.6416C49.3811 36.6416 49.7307 36.6028 50.0803 36.5251C50.3523 36.4474 50.663 36.3309 50.8961 36.1755L51.3623 36.6416L52.1004 36.4474V34.0777C52.1004 33.8058 52.1004 33.6115 52.1392 33.495C52.1392 33.3785 52.1781 33.2619 52.2169 33.1842C52.2558 33.1065 52.2946 33.0288 52.3723 32.99C52.4112 32.9511 52.4889 32.9123 52.6831 32.8346L52.7997 32.7958V32.2907H49.8084V32.8734H49.653Z" fill="black"/>
<path d="M66.7069 28.0564L66.8235 28.0953C67.1343 28.1729 67.2508 28.2506 67.2896 28.2895C67.3673 28.3283 67.4062 28.406 67.445 28.5226C67.4839 28.6003 67.4839 28.7945 67.4839 29.2607V33.3008C67.4839 33.8058 67.445 34.2331 67.4062 34.5439C67.3673 34.8547 67.2508 35.0878 67.0954 35.282C66.94 35.4763 66.7846 35.6317 66.5904 35.7093C66.3962 35.787 66.1242 35.8647 65.8523 35.8647C65.5415 35.8647 65.2696 35.8259 65.0753 35.7482C64.8811 35.6705 64.6869 35.5928 64.5703 35.4374C64.4149 35.282 64.2984 35.0878 64.2207 34.8547C64.143 34.5828 64.1042 34.2331 64.1042 33.8447V29.2607C64.1042 28.911 64.1042 28.678 64.143 28.5226C64.1819 28.406 64.2207 28.3283 64.2984 28.2506C64.3372 28.2118 64.4926 28.1341 64.7646 28.0953L64.8811 28.0564V27.4737H61.7733V28.0564L61.8899 28.0953C62.1618 28.1729 62.2395 28.2118 62.2783 28.2506C62.356 28.2895 62.3949 28.3283 62.3949 28.3672C62.4337 28.406 62.4337 28.4837 62.4726 28.6003C62.5114 28.7168 62.5114 28.911 62.5114 29.2607V33.5339C62.5114 34.1166 62.5891 34.5828 62.6668 34.9712C62.7833 35.3597 62.9776 35.6705 63.2495 35.9813C63.5214 36.2532 63.8711 36.4863 64.2595 36.6028C64.648 36.7194 65.153 36.7971 65.6969 36.7971C66.1631 36.7971 66.5515 36.7582 66.9012 36.6417C67.2508 36.564 67.5227 36.4086 67.7947 36.2532C68.0278 36.0978 68.2608 35.8647 68.4162 35.6317C68.6105 35.3597 68.727 35.0489 68.8047 34.7382C68.8824 34.3885 68.9601 33.9612 68.9601 33.495V29.2607C68.9601 28.911 68.9601 28.678 68.9989 28.5614C69.0378 28.4449 69.0766 28.3672 69.1543 28.2895C69.1932 28.2506 69.3097 28.1729 69.6205 28.0953L69.737 28.0564V27.4737H66.7846V28.0564H66.7069Z" fill="black"/>
<path d="M86.3638 35.8259C86.2472 35.7482 86.1307 35.6317 86.0141 35.4763C85.8976 35.3209 85.7422 35.0878 85.5868 34.777L85.0041 33.7282C84.771 33.3008 84.5379 32.9901 84.3437 32.757C84.1883 32.6016 84.0329 32.485 83.8775 32.3685C84.4214 32.1354 84.8876 31.8246 85.1595 31.4362C85.5091 31.0088 85.7033 30.465 85.7033 29.8434C85.7033 29.0276 85.4314 28.4061 84.8876 28.0176C84.3437 27.6291 83.5279 27.4349 82.479 27.4349H79.0216V28.0176L79.1381 28.0564C79.3712 28.1341 79.4878 28.173 79.5266 28.2118C79.6043 28.2507 79.6431 28.2895 79.682 28.3284C79.7208 28.3672 79.7597 28.4838 79.7597 28.6003C79.7985 28.7168 79.7985 28.9499 79.7985 29.2219V34.8159C79.7985 35.1267 79.7985 35.3598 79.7597 35.5151C79.7208 35.6317 79.682 35.7482 79.6043 35.7871C79.5655 35.8259 79.4489 35.9036 79.1381 35.9813L79.0216 36.0202V36.6029H82.1294V36.0202L82.0128 35.9813C81.8186 35.9425 81.7021 35.8648 81.6244 35.8259C81.5467 35.7871 81.5078 35.7482 81.469 35.7094C81.4301 35.6705 81.3913 35.5928 81.3913 35.4374C81.3524 35.3209 81.3524 35.0878 81.3524 34.777V32.7181H81.9351C82.1294 32.7181 82.2848 32.7181 82.4013 32.757C82.479 32.757 82.5567 32.7958 82.6344 32.8735C82.7121 32.9124 82.7898 33.0289 82.9063 33.1454C83.0229 33.3008 83.1394 33.5339 83.3337 33.8447L83.9164 34.9324C84.0718 35.2044 84.2271 35.4763 84.3437 35.7482C84.4991 36.0202 84.6545 36.2532 84.8487 36.4863L84.8876 36.564H86.9853V35.9813L86.8688 35.9425C86.5968 35.9425 86.4414 35.9036 86.3638 35.8259ZM81.3136 28.3672C81.5467 28.3672 81.8186 28.3672 82.1294 28.3672C82.5956 28.3672 82.984 28.4449 83.256 28.5615C83.5279 28.678 83.7221 28.8722 83.8387 29.1053C83.9552 29.3384 84.0329 29.688 84.0329 30.0377C84.0329 30.3873 83.9552 30.7369 83.8775 30.97C83.761 31.2031 83.6056 31.3973 83.4502 31.5527C83.256 31.6692 83.0617 31.7858 82.8286 31.8246C82.5956 31.8635 82.2848 31.9023 81.9351 31.9023H81.3524V28.3672H81.3136Z" fill="black"/>
<path d="M102.99 35.787C102.913 35.7093 102.796 35.5928 102.719 35.4374C102.641 35.2431 102.563 35.0101 102.447 34.6993L100.193 27.4737L100.155 27.3571H98.8726L96.0756 34.6216C95.9202 35.0489 95.726 35.3985 95.5706 35.6316C95.4152 35.8259 95.221 35.9424 95.0267 35.9812L94.9102 36.0201V36.6028H98.0568V35.9812L97.9014 35.9424C97.6684 35.9036 97.4741 35.8259 97.3576 35.7482C97.241 35.6705 97.2022 35.5151 97.2022 35.282C97.2022 35.1654 97.2022 35.0101 97.241 34.8547C97.2799 34.6993 97.3576 34.4662 97.4741 34.1554L97.6684 33.6116H100.543L100.776 34.3497C100.854 34.5827 100.893 34.7381 100.932 34.8935C100.97 35.0489 100.97 35.2043 100.97 35.3208C100.97 35.4374 100.932 35.5539 100.893 35.6316C100.854 35.7093 100.815 35.7482 100.737 35.787C100.66 35.8259 100.543 35.8647 100.271 35.9036L100.155 35.9424V36.5251H103.534V35.9424L103.418 35.9036C103.224 35.9424 103.107 35.8647 102.99 35.787ZM100.31 32.7958H97.9791L99.2611 29.2995L100.31 32.7958Z" fill="black"/>
<path d="M117.714 28.0564L117.83 28.0952C118.063 28.1729 118.18 28.2118 118.219 28.2506C118.296 28.2895 118.335 28.3283 118.374 28.3672C118.413 28.406 118.413 28.4837 118.452 28.6391C118.452 28.7556 118.491 28.9887 118.491 29.2606V30.6203C118.491 31.2419 118.491 31.9411 118.529 32.7569C118.529 33.1454 118.529 33.495 118.568 33.767C118.529 33.6893 118.491 33.6504 118.491 33.6116C118.374 33.4173 118.257 33.1842 118.102 32.9123L114.761 27.5125H112.43V28.0952L112.547 28.1341C112.78 28.2118 112.897 28.2506 112.935 28.2895C113.013 28.3283 113.052 28.3672 113.091 28.406C113.13 28.4449 113.168 28.5614 113.168 28.6779C113.168 28.7945 113.207 29.0276 113.207 29.2995V34.8935C113.207 35.2043 113.207 35.4374 113.168 35.5928C113.13 35.7093 113.091 35.787 113.052 35.8647C113.013 35.9036 112.897 35.9813 112.586 36.0589L112.469 36.0978V36.6805H115.227V36.0978L115.111 36.0589C114.917 36.0201 114.8 35.9813 114.722 35.9036C114.645 35.8647 114.606 35.8259 114.567 35.7482C114.528 35.7093 114.489 35.5928 114.489 35.4762C114.489 35.3597 114.45 35.1266 114.45 34.8547V33.5339C114.45 32.6792 114.45 31.7857 114.45 30.9311C114.45 30.3872 114.45 29.9599 114.412 29.6103C114.412 29.6491 114.45 29.688 114.45 29.688C114.567 29.8434 114.722 30.1541 114.955 30.5038L118.685 36.6028H119.773V29.2606C119.773 28.8722 119.811 28.7168 119.811 28.6002C119.85 28.4449 119.889 28.3672 119.889 28.3672C119.928 28.3283 119.967 28.2895 120.044 28.2506C120.083 28.2118 120.2 28.1729 120.433 28.1341L120.549 28.0952V27.5125H117.83V28.0564H117.714Z" fill="black"/>
<path d="M129.756 28.0564L129.873 28.0952C130.184 28.1729 130.3 28.2506 130.339 28.2895C130.417 28.3283 130.456 28.406 130.494 28.5225C130.533 28.6002 130.533 28.7945 130.533 29.2606V36.5251C130.533 36.8747 130.494 37.1855 130.456 37.3798C130.417 37.574 130.3 37.7294 130.145 37.8848C129.989 38.0013 129.717 38.1567 129.368 38.3121L129.212 38.3509L129.523 39.2056L129.679 39.1667C130.3 38.9725 130.766 38.7783 131.116 38.5063C131.466 38.2344 131.738 37.9236 131.854 37.5351C132.009 37.1467 132.087 36.6805 132.087 36.0589V29.2606C132.087 28.9887 132.087 28.7556 132.126 28.6391C132.165 28.4837 132.204 28.406 132.204 28.3672C132.243 28.3283 132.281 28.2895 132.359 28.2506C132.437 28.2118 132.553 28.1729 132.748 28.1341L132.864 28.0952V27.5125H129.756V28.0564Z" fill="black"/>
<path d="M147.976 34.0388L147.937 34.1554C147.859 34.4273 147.781 34.6604 147.743 34.8158C147.704 34.9323 147.626 35.0877 147.548 35.2431C147.471 35.3597 147.393 35.4762 147.315 35.5539C147.238 35.6316 147.16 35.6704 147.043 35.7093C146.927 35.7481 146.771 35.7481 146.577 35.7481H144.674V32.2907H145.917C146.15 32.2907 146.266 32.3296 146.305 32.3684C146.383 32.4073 146.461 32.485 146.5 32.6015C146.577 32.718 146.616 32.9123 146.694 33.1454L146.733 33.2619H147.626V30.4649H146.733L146.694 30.5814C146.616 30.8534 146.577 31.0476 146.5 31.1641C146.422 31.2807 146.383 31.3195 146.305 31.3584C146.228 31.3972 146.072 31.4361 145.917 31.4361H144.674V28.3671H146.616C146.771 28.3671 146.927 28.3671 147.043 28.406C147.16 28.4448 147.238 28.4448 147.315 28.5225C147.393 28.5614 147.471 28.6391 147.51 28.7556C147.587 28.8721 147.665 28.9887 147.704 29.1441C147.781 29.2995 147.82 29.4549 147.898 29.6879L147.937 29.8045H148.869V27.5513H142.343V28.134L142.459 28.1729C142.692 28.2506 142.809 28.2894 142.848 28.3283C142.926 28.3671 142.964 28.406 143.003 28.4448C143.042 28.4837 143.081 28.6002 143.081 28.7168C143.081 28.8333 143.12 29.0664 143.12 29.3383V34.9323C143.12 35.2431 143.12 35.4762 143.081 35.6316C143.042 35.7481 143.003 35.8258 142.964 35.9035C142.926 35.9424 142.809 36.0201 142.498 36.0978L142.382 36.1366V36.7193H148.83L148.986 34.1554H147.976V34.0388Z" fill="black"/>
</g>
<defs>
<clipPath id="clip0_1_2820">
<rect width="148.436" height="39.1706" fill="white" transform="translate(0.549805 0.241638)"/>
</clipPath>
</defs>
</svg>
