<svg width="150" height="47" viewBox="0 0 150 47" fill="none" xmlns="http://www.w3.org/2000/svg">
<g clip-path="url(#clip0_1_2823)">
<path fill-rule="evenodd" clip-rule="evenodd" d="M66.2783 34.523V30.1858C65.7126 30.4498 64.9584 30.6009 64.3172 30.6009C62.9974 30.6009 62.5827 30.0357 62.5827 28.2252V21.5123H66.2783V17.4772H62.5447V10.9153L57.2273 12.3483V17.4772H54.625V21.5123H57.2273V29.5451C57.2273 33.8068 58.5471 35.1266 62.5447 35.1266C63.7891 35.1266 65.147 34.9001 66.2783 34.523Z" fill="black"/>
<path fill-rule="evenodd" clip-rule="evenodd" d="M78.6477 22.191V17.0245C76.0455 16.949 74.537 18.4579 73.7453 20.2304H73.7073C73.8583 19.2876 73.8583 18.0808 73.8583 17.4776H68.9179V34.7124H74.1979V27.4339C74.1979 23.0207 75.8569 21.5498 78.6477 22.191Z" fill="black"/>
<path fill-rule="evenodd" clip-rule="evenodd" d="M85.8506 34.7115V17.4772H80.5712V34.712H85.8506V34.7115ZM83.2114 9.40692C81.4389 9.40692 80.0055 10.8023 80.0055 12.5368C80.0055 14.2713 81.4389 15.6672 83.2114 15.6672C85.0219 15.6672 86.4543 14.2338 86.4543 12.5368C86.4543 10.8023 85.0214 9.40692 83.2114 9.40692Z" fill="black"/>
<path fill-rule="evenodd" clip-rule="evenodd" d="M104.669 35.0886V17.6282C102.708 17.3266 100.672 17.1001 97.9936 17.1001C91.6958 17.1001 88.3774 21.3993 88.3774 27.0559C88.3774 32.2224 90.6405 35.1646 94.7882 35.1646C96.9378 35.1646 98.7108 34.1084 99.54 32.4114H99.578C99.465 33.2411 99.4275 34.0328 99.4275 34.9006V35.4662C99.4275 37.9549 97.9936 39.0867 94.9772 39.0867C93.4308 39.0867 91.2437 38.5581 89.5462 37.7669L89.3581 42.6692C90.8666 43.1589 92.8281 43.5365 94.7507 43.5365C102.595 43.5365 104.669 39.5394 104.669 35.0886ZM99.3895 25.661C99.3895 28.6398 98.1451 30.7519 96.3346 30.7519C94.7507 30.7519 93.9589 29.3945 93.9589 26.4902C93.9589 22.6437 95.5429 21.3238 97.579 21.3238C98.2961 21.3238 98.8613 21.4368 99.3895 21.5123V25.661Z" fill="black"/>
<path fill-rule="evenodd" clip-rule="evenodd" d="M112.966 34.7115V9.3689H107.686V34.7115H112.966Z" fill="black"/>
<path fill-rule="evenodd" clip-rule="evenodd" d="M130.465 34.7115C130.352 33.1656 130.352 31.5437 130.352 30.6384C130.352 28.3758 130.352 25.8491 130.352 23.2468C130.352 19.0611 128.655 17.1001 122.621 17.1001C120.584 17.1001 118.473 17.4397 116.662 18.0053V22.7572C118.208 21.9274 120.396 21.3238 121.942 21.3238C124.431 21.3238 125.034 22.0405 125.034 23.4734V24.077C119.755 24.077 115.305 25.8491 115.305 30.3748C115.305 33.1276 116.964 35.1266 120.321 35.1266C122.735 35.1266 124.771 33.9198 125.525 32.2224L125.563 32.2603C125.412 32.9766 125.412 33.9198 125.412 34.7115H130.465ZM125.034 27.8481C125.034 29.5076 123.827 31.1295 122.017 31.1295C120.961 31.1295 120.32 30.4883 120.32 29.5831C120.32 28.1497 121.753 27.2824 125.034 27.2824V27.8481Z" fill="black"/>
<path fill-rule="evenodd" clip-rule="evenodd" d="M149.057 17.4771H143.362L141.326 23.5868C140.911 24.9442 140.609 26.0755 140.307 27.848H140.232C139.817 25.9625 139.516 24.6806 139.063 23.3983L137.064 17.4771H131.256L137.328 34.7119H142.909L149.057 17.4771Z" fill="black"/>
<path fill-rule="evenodd" clip-rule="evenodd" d="M46.5922 0.393372V46.2897H0.62085V0.393372H46.5922Z" fill="#ED1C24"/>
<path fill-rule="evenodd" clip-rule="evenodd" d="M31.9602 23.4359C31.9222 28.0367 28.1886 31.7702 23.5878 31.7702C18.9866 31.7702 15.2535 28.0367 15.178 23.4359V15.026H36.1083V10.8398H11.0298V23.4359C11.0673 30.3748 16.6869 35.9188 23.5878 35.9188C30.4888 35.9188 36.1083 30.3748 36.1459 23.4359H31.9602Z" fill="white"/>
<path fill-rule="evenodd" clip-rule="evenodd" d="M36.1083 21.3237V17.1376H17.2896L17.3275 23.4358C17.3275 26.9053 20.1558 29.6581 23.5878 29.6581C27.0573 29.6581 29.8481 26.9053 29.8481 23.4358H25.6619C25.6619 24.6051 24.7191 25.5099 23.5503 25.5099C22.4185 25.5099 21.4757 24.6051 21.4757 23.4358V21.3237H36.1083Z" fill="white"/>
</g>
<defs>
<clipPath id="clip0_1_2823">
<rect width="148.436" height="46.1801" fill="white" transform="translate(0.62085 0.393372)"/>
</clipPath>
</defs>
</svg>
