<svg width="85" height="47" viewBox="0 0 85 47" fill="none" xmlns="http://www.w3.org/2000/svg">
<g clip-path="url(#clip0_1_2822)">
<path d="M0.843262 39.0273H84.0584V37.7574H0.843262V39.0273Z" fill="#ED1C24"/>
<path d="M59.1438 34.8921L55.5122 24.7493H53.9862L50.371 34.8921H52.3948L52.9987 33.0931H56.5323L57.1199 34.8921H59.1438ZM56.0182 31.4325H53.5455L54.8023 27.7449L56.0182 31.4325Z" fill="black"/>
<path d="M17.0425 31.9127C17.0425 31.0173 16.8058 30.2765 16.2836 29.7637C15.8674 29.3648 15.3043 29.1125 14.3984 28.9822L13.2396 28.8113C12.8397 28.7543 12.5215 28.5996 12.3256 28.4124C12.1216 28.217 12.0318 27.9403 12.0318 27.6879C12.0318 26.9878 12.5296 26.4099 13.5579 26.4099C14.2107 26.4099 14.9534 26.4913 15.5817 27.1099L16.7977 25.8726C15.9571 25.0342 14.9697 24.6923 13.615 24.6923C11.485 24.6923 10.1793 25.954 10.1793 27.7612C10.1793 28.6159 10.416 29.2671 10.8893 29.7474C11.33 30.187 11.9584 30.4556 12.7989 30.5859L13.9904 30.7568C14.4474 30.8301 14.6677 30.9278 14.8636 31.115C15.0758 31.3104 15.1655 31.6115 15.1655 31.9697C15.1655 32.7756 14.5616 33.2233 13.4191 33.2233C12.5051 33.2233 11.6646 33.0117 11.0362 32.3686L9.7876 33.6466C10.7587 34.656 11.8931 34.9816 13.3865 34.9816C15.4512 34.9816 17.0425 33.8746 17.0425 31.9127Z" fill="black"/>
<path d="M20.9922 24.8062H19.0826V34.8921H20.9922V24.8062Z" fill="black"/>
<path d="M47.3188 27.8914C47.3188 28.6729 46.7639 29.2264 45.9233 29.2264H44.1116V26.5645H45.9233C46.7639 26.5645 47.3188 27.1181 47.3188 27.8914ZM49.6446 34.8921L47.4412 30.5452C48.396 30.187 49.2366 29.316 49.2366 27.8914C49.2366 26.2064 48.0451 24.7981 46.0376 24.7981H42.1775V34.8839H44.1116V30.8708H45.4989L47.4249 34.8921H49.6446Z" fill="black"/>
<path d="M68.0552 34.8921V24.8062H66.1293V30.9847L62.2203 24.8062H60.4984V34.8921H62.4325V28.7054L66.3415 34.8921H68.0552Z" fill="black"/>
<path d="M83.8299 34.8921V33.1338H79.2436V30.6835H83.1526V28.9252H79.2436V26.5645H83.8299V24.7981H77.3095V34.8921H83.8299Z" fill="black"/>
<path d="M3.63436 32.6698C3.21816 32.1814 3.13655 31.6685 3.13655 29.8288C3.13655 27.9891 3.21816 27.4763 3.63436 26.9878C3.92815 26.6378 4.38515 26.418 4.88296 26.418C5.38076 26.418 5.83776 26.6378 6.13155 26.9878C6.54775 27.4763 6.62936 27.9891 6.62936 29.8288C6.62936 31.6685 6.54775 32.1814 6.13155 32.6698C5.83776 33.0198 5.38076 33.2396 4.88296 33.2396C4.38515 33.2315 3.92815 33.0117 3.63436 32.6698ZM7.5352 25.7749C6.84154 25.083 5.95201 24.6923 4.87479 24.6923C3.79757 24.6923 2.92437 25.0749 2.23071 25.7749C1.2351 26.768 1.25142 27.8914 1.25142 29.8369C1.25142 31.7825 1.2351 32.9059 2.23071 33.899C2.92437 34.599 3.79757 34.9816 4.87479 34.9816C5.95201 34.9816 6.84154 34.599 7.5352 33.899C8.53081 32.9059 8.49817 31.7825 8.49817 29.8369C8.49817 27.8914 8.52265 26.768 7.5352 25.7749Z" fill="black"/>
<path d="M30.5321 29.2427H26.7945V30.9033H28.6225C28.6062 32.3441 28.4266 32.3197 28.1328 32.6942C27.8799 33.0198 27.3821 33.1744 26.8761 33.207C26.3783 33.2396 25.8723 33.0442 25.5785 32.6942C25.1623 32.2057 25.1052 31.6603 25.1052 29.8206C25.1052 27.9809 25.1868 27.4681 25.6112 26.9797C25.9131 26.6296 26.362 26.4261 26.8598 26.4261C27.3657 26.4261 27.8391 26.6296 28.141 26.9797C28.3532 27.2239 28.4838 27.4844 28.5572 27.9158H30.4832C30.4015 27.0448 30.1404 26.4017 29.5528 25.7667C28.8755 25.0423 27.9451 24.6841 26.8516 24.6841C25.7581 24.6841 24.8685 25.0667 24.1667 25.7667C23.1629 26.7599 23.1711 27.8832 23.1711 29.8288C23.1711 31.7743 23.1548 32.8977 24.1667 33.8908C24.8685 34.5909 25.7581 34.9735 26.8516 34.9735C27.9451 34.9735 28.8592 34.599 29.5528 33.8908C30.2138 33.2151 30.4995 32.2139 30.524 30.8952H30.5321V29.2427Z" fill="black"/>
<path d="M39.811 29.8695V24.8062H37.9013V29.8532C37.9013 31.8802 37.8687 32.2058 37.428 32.6861C37.1179 33.0198 36.6446 33.2396 36.1468 33.2396C35.649 33.2396 35.192 33.0198 34.89 32.6779C34.4738 32.1895 34.4412 31.9941 34.4493 29.8532V24.8062H32.5397V29.9428C32.5397 32.2465 32.5724 32.9303 33.5027 33.8908C34.18 34.599 35.0532 34.9816 36.1305 34.9816C37.2158 34.9816 38.1298 34.6072 38.8235 33.9152C39.8273 32.9221 39.8599 31.8476 39.811 29.8695Z" fill="black"/>
<path d="M74.943 29.8695V24.8062H73.0334V29.8532C73.0334 31.8802 73.0578 32.3116 72.6172 32.7919C72.3071 33.1256 71.8745 33.2396 71.3767 33.2396C70.8789 33.2396 70.5851 32.9791 70.2016 32.6616L68.9367 33.9397C69.7446 34.6479 70.275 34.9491 71.3033 34.9491C72.7477 34.9491 73.3598 34.6153 74.0616 33.9234C75.0572 32.9384 74.9838 31.8476 74.943 29.8695Z" fill="black"/>
<path d="M17.6299 10.6584H15.655V20.7361H17.6299V10.6584Z" fill="black"/>
<path d="M56.8098 13.7436C56.8098 14.525 56.2386 15.0786 55.3735 15.0786H53.5129V12.4167H55.3735C56.2386 12.4086 56.8098 12.9621 56.8098 13.7436ZM59.1927 20.7361L56.9322 16.3892C57.9115 16.0391 58.7765 15.16 58.7765 13.7436C58.7765 12.0585 57.5524 10.6584 55.4959 10.6584H51.538V20.7361H53.5129V16.7148H54.9328L56.9077 20.7361H59.1927Z" fill="black"/>
<path d="M12.9947 10.6502H10.9382L9.36316 17.0078L7.51884 10.6502H6.04174L4.19741 17.0078L2.63054 10.6502H0.574036L3.27524 20.7361H4.91555L6.77621 14.6145L8.63686 20.7361H10.2853L12.9947 10.6502Z" fill="black"/>
<path d="M27.6759 20.7361V18.9778H22.9917V16.5275H26.9823V14.7774H22.9917V12.4085H27.6759V10.6502H21.0168V20.7361H27.6759Z" fill="black"/>
<path d="M38.5704 20.7361V10.6502H36.5955V16.8287L32.5967 10.6502H30.834V20.7361H32.8089V14.5494L36.8158 20.7361H38.5704Z" fill="black"/>
<path d="M48.5754 20.7361V18.9778H43.8912V16.5275H47.8818V14.7774H43.8912V12.4085H48.5754V10.6502H41.9163V20.7361H48.5754Z" fill="black"/>
<path d="M2.93251 46.5327H2.38574L0.85968 42.0881H1.58599L2.66321 45.3198L3.73226 42.0881H4.47489L2.93251 46.5327Z" fill="black"/>
<path d="M5.83781 42.0881H5.13599V46.5327H5.83781V42.0881Z" fill="black"/>
<path d="M7.07816 46.5327V42.0881H10.0487V42.6986H7.77998V43.9929H9.71408V44.5953H7.77998V45.9303H10.0487V46.5327H7.07816Z" fill="black"/>
<path d="M13.8925 46.5327L11.738 43.4068V46.5327H11.0362V42.0881H11.6809L13.8272 45.214V42.0881H14.5372V46.5327H13.8925Z" fill="black"/>
<path d="M18.6257 46.5327L16.4794 43.4068V46.5327H15.7694V42.0881H16.4141L18.5685 45.214V42.0881H19.2704V46.5327H18.6257Z" fill="black"/>
<path d="M21.9552 43.0975L21.2289 45.0674H22.657L21.9552 43.0975ZM23.1793 46.5327L22.861 45.6373H21.0249L20.7066 46.5327H19.9558L21.6614 42.0881H22.2327L23.9383 46.5327H23.1793Z" fill="black"/>
<path d="M26.9006 42.0881H26.1988V46.5327H26.9006V42.0881Z" fill="black"/>
<path d="M30.9892 46.5327L28.8429 43.4068V46.5327H28.133V42.0881H28.7858L30.9321 45.214V42.0881H31.6339V46.5327H30.9892Z" fill="black"/>
<path d="M34.1066 46.5734C33.4048 46.5734 32.907 46.4188 32.4581 45.9873L32.9315 45.5477C33.2742 45.8734 33.6414 45.971 34.1229 45.971C34.7268 45.971 35.0859 45.7187 35.0859 45.2873C35.0859 45.0919 35.0288 44.9291 34.9064 44.8233C34.7921 44.7174 34.6697 44.6767 34.4004 44.636L33.8536 44.5628C33.4782 44.5139 33.1763 44.3837 32.9723 44.2046C32.7438 44.0011 32.6295 43.7162 32.6295 43.358C32.6295 42.5847 33.2171 42.0555 34.1882 42.0555C34.8003 42.0555 35.2328 42.2021 35.6327 42.5602L35.1838 42.9835C34.8982 42.723 34.5636 42.6416 34.1719 42.6416C33.6251 42.6416 33.3232 42.9428 33.3232 43.3336C33.3232 43.4964 33.3721 43.6429 33.5027 43.7487C33.617 43.8464 33.8128 43.9197 34.025 43.9522L34.5554 44.0255C34.988 44.0906 35.2246 44.1883 35.4286 44.3593C35.6816 44.5709 35.804 44.8884 35.804 45.271C35.7796 46.085 35.0777 46.5734 34.1066 46.5734Z" fill="black"/>
<path d="M38.342 46.5734C37.3954 46.5734 36.6772 45.9547 36.6772 45.0349V42.0881H37.3791V45.0023C37.3791 45.5966 37.7545 45.9629 38.342 45.9629C38.9215 45.9629 39.305 45.5966 39.305 45.0023V42.0881H40.0068V45.0349C40.0068 45.9547 39.2887 46.5734 38.342 46.5734Z" fill="black"/>
<path d="M42.9202 42.6986H41.8756V44.0906H42.9202C43.3935 44.0906 43.7118 43.8382 43.7118 43.3987C43.7118 42.9591 43.3935 42.6986 42.9202 42.6986ZM43.7363 46.5327L42.757 44.6604H41.8756V46.5327H41.1738V42.0881H42.9773C43.8587 42.0881 44.4218 42.6335 44.4218 43.3905C44.4218 44.0255 44.0219 44.4325 43.4915 44.5709L44.5605 46.5408H43.7363V46.5327Z" fill="black"/>
<path d="M46.9191 43.0975L46.1928 45.0674H47.6209L46.9191 43.0975ZM48.1432 46.5327L47.8249 45.6373H45.9887L45.6705 46.5327H44.9197L46.6253 42.0881H47.1965L48.9021 46.5327H48.1432Z" fill="black"/>
<path d="M52.4276 46.5327L50.2813 43.4068V46.5327H49.5713V42.0881H50.216L52.3704 45.214V42.0881H53.0722V46.5327H52.4276Z" fill="black"/>
<path d="M55.8141 46.5735C55.3326 46.5735 54.9164 46.4025 54.59 46.1013C54.133 45.6617 54.1412 45.1733 54.1412 44.3186C54.1412 43.4639 54.133 42.9673 54.59 42.5359C54.9083 42.2265 55.3245 42.0637 55.8141 42.0637C56.3935 42.0637 56.7689 42.2672 57.1116 42.5928L56.6383 43.0487C56.3935 42.8208 56.1976 42.6742 55.8059 42.6742C55.5366 42.6742 55.2837 42.7719 55.1204 42.9429C54.8919 43.1789 54.843 43.4394 54.843 44.3267C54.843 45.2222 54.8919 45.4745 55.1204 45.7106C55.2837 45.8815 55.5366 45.9792 55.8059 45.9792C56.1895 45.9792 56.3935 45.8327 56.6383 45.6048L57.1116 46.0606C56.7607 46.3699 56.3935 46.5735 55.8141 46.5735Z" fill="black"/>
<path d="M58.0746 46.5327V42.0881H61.0451V42.6986H58.7846V43.9929H60.7187V44.5953H58.7846V45.9303H61.0451V46.5327H58.0746Z" fill="black"/>
<path d="M66.3905 46.0606C66.0641 46.3944 65.6315 46.5735 65.1256 46.5735C64.6441 46.5735 64.2197 46.4025 63.9015 46.1013C63.4445 45.6617 63.4526 45.1733 63.4526 44.3186C63.4526 43.4639 63.4445 42.9673 63.9015 42.5359C64.2197 42.2265 64.6278 42.0637 65.1256 42.0637C65.7621 42.0637 66.113 42.2509 66.5292 42.6498L66.0559 43.1057C65.7621 42.8208 65.5499 42.6661 65.1256 42.6661C64.8481 42.6661 64.5951 42.7719 64.4319 42.9429C64.2034 43.1789 64.1544 43.4313 64.1544 44.3186C64.1544 45.214 64.2034 45.4664 64.4319 45.7024C64.5951 45.8734 64.8481 45.9711 65.1256 45.9711C65.4357 45.9711 65.6887 45.8571 65.8682 45.6617C66.0396 45.4827 66.0967 45.2303 66.0967 44.9535V44.7093H65.1256V44.1314H66.8067V44.7989C66.8067 45.3768 66.7006 45.7513 66.3905 46.0606Z" fill="black"/>
<path d="M69.5812 42.6986H68.5366V44.0906H69.5812C70.0545 44.0906 70.3728 43.8382 70.3728 43.3987C70.3728 42.9591 70.0464 42.6986 69.5812 42.6986ZM70.3973 46.5327L69.418 44.6604H68.5366V46.5327H67.8267V42.0881H69.6302C70.5116 42.0881 71.0746 42.6335 71.0746 43.3905C71.0746 44.0255 70.6666 44.4325 70.1443 44.5709L71.2134 46.5408H70.3973V46.5327Z" fill="black"/>
<path d="M74.3228 42.9347C74.1596 42.7638 73.9066 42.658 73.6291 42.658C73.3598 42.658 73.0987 42.7638 72.9355 42.9347C72.707 43.1708 72.6662 43.4232 72.6662 44.3104C72.6662 45.2059 72.7151 45.4501 72.9355 45.6943C73.0987 45.8652 73.3517 45.9711 73.6291 45.9711C73.9066 45.9711 74.1596 45.8652 74.3228 45.6943C74.5513 45.4582 74.5921 45.2059 74.5921 44.3104C74.5921 43.4232 74.5513 43.1708 74.3228 42.9347ZM74.8532 46.1013C74.535 46.4107 74.1188 46.5735 73.621 46.5735C73.1232 46.5735 72.7233 46.4025 72.3969 46.1013C71.9398 45.6617 71.948 45.1733 71.948 44.3186C71.948 43.4639 71.9398 42.9673 72.3969 42.5359C72.7151 42.2265 73.1232 42.0637 73.621 42.0637C74.1188 42.0637 74.5268 42.2347 74.8532 42.5359C75.3102 42.9754 75.2939 43.4639 75.2939 44.3186C75.3021 45.1652 75.3102 45.6617 74.8532 46.1013Z" fill="black"/>
<path d="M77.9626 46.5734C77.0159 46.5734 76.2978 45.9547 76.2978 45.0349V42.0881H77.0077V45.0023C77.0077 45.5966 77.3831 45.9629 77.9707 45.9629C78.5501 45.9629 78.9337 45.5966 78.9337 45.0023V42.0881H79.6437V45.0349C79.6355 45.9547 78.9092 46.5734 77.9626 46.5734Z" fill="black"/>
<path d="M82.5162 42.6986H81.4961V44.1801H82.5162C83.0058 44.1801 83.3404 43.9115 83.3404 43.4394C83.3404 42.9672 83.0058 42.6986 82.5162 42.6986ZM82.557 44.7825H81.4961V46.5327H80.7861V42.0881H82.5488C83.4547 42.0881 84.0341 42.666 84.0341 43.4394C84.0504 44.2127 83.4628 44.7825 82.557 44.7825Z" fill="black"/>
<path d="M76.82 0.572449H69.8099V7.56499H76.82V0.572449Z" fill="white"/>
<path d="M76.82 7.56506H69.8099V14.5576H76.82V7.56506Z" fill="#ED1C24"/>
<path d="M69.8099 0.572449H62.7998V7.56499H69.8099V0.572449Z" fill="#ED1C24"/>
<path d="M83.83 0.572449H76.8199V7.56499H83.83V0.572449Z" fill="#ED1C24"/>
<path d="M69.8099 14.5576V7.56506H62.7998V11.1224C62.7998 12.376 62.963 13.5238 63.265 14.5576H69.8099Z" fill="white"/>
<path d="M69.8099 21.1431C70.422 21.3303 71.0585 21.4687 71.7032 21.5501H74.9431C75.5878 21.4687 76.2161 21.3303 76.82 21.1431V14.5576H69.8099V21.1431Z" fill="white"/>
<path d="M76.8199 14.5576H83.3648C83.6668 13.5238 83.83 12.376 83.83 11.1224V7.56506H76.8199V14.5576Z" fill="white"/>
<path d="M83.3648 14.5576H76.8199V21.1431C79.872 20.2069 82.3692 17.9846 83.3648 14.5576Z" fill="#ED1C24"/>
<path d="M69.8098 21.1431V14.5576H63.2649C64.2687 17.9846 66.7659 20.1988 69.8098 21.1431Z" fill="#ED1C24"/>
<path d="M62.9874 0.759686V11.1305C62.9874 18.2777 68.1776 21.4768 73.327 21.4768C78.4683 21.4768 83.6504 18.2777 83.6504 11.1305V0.759686H62.9874ZM73.327 21.8431C70.4381 21.8431 67.7859 20.8744 65.8681 19.1243C63.7463 17.1869 62.6201 14.4192 62.6201 11.1305V0.393372H84.0176V11.1223C84.0176 14.4192 82.8996 17.1787 80.786 19.1161C78.86 20.8744 76.2159 21.8431 73.327 21.8431Z" fill="#ED1C24"/>
</g>
<defs>
<clipPath id="clip0_1_2822">
<rect width="83.7014" height="46.1801" fill="white" transform="translate(0.574036 0.393372)"/>
</clipPath>
</defs>
</svg>
