<svg width="149" height="41" viewBox="0 0 149 41" fill="none" xmlns="http://www.w3.org/2000/svg">
<g clip-path="url(#clip0_1_2824)">
<path d="M110.861 9.90179H109.985V36.52H110.861V9.90179Z" fill="#00B2EC"/>
<path d="M122.215 33.5226L122.218 31.2618C123.636 31.2618 124.155 31.1906 124.403 32.9282H124.552V30.9942L120.692 30.9956V31.2618H121.36V36.2391H120.624V36.5007H124.602V34.4667H124.403C124.204 36.0048 123.815 36.2395 122.721 36.2395H122.215V33.8211H122.509C122.999 33.8329 123.278 34.1193 123.378 34.9628H123.559L123.557 32.4634C123.553 32.4681 123.379 32.4634 123.379 32.4634C123.379 32.4755 123.344 33.5379 122.487 33.5226H122.215Z" fill="#C21B17"/>
<path d="M120.637 33.6222H118.459V33.8687H119.206V35.6585C119.079 36.1135 118.41 36.303 118.21 36.303C116.819 36.303 116.919 34.2674 116.919 33.7231C116.919 33.2245 116.869 31.1416 118.21 31.1416C119.156 31.1416 119.653 32.0825 119.852 32.9276H120.003C120.003 32.5795 120.008 30.9229 120.005 30.9268C120.008 30.9141 119.357 31.3944 119.355 31.3863C119.369 31.3837 119.057 30.941 118.21 30.941C116.568 30.941 115.967 32.5793 115.971 33.7229C115.979 34.7683 116.461 36.55 118.21 36.55C118.76 36.55 119.148 36.2707 119.355 35.9532C119.357 35.9463 120.048 36.4978 120.05 36.5001V33.8683H120.637V33.6222H120.637Z" fill="#C21B17"/>
<path d="M146.086 34.4668C145.888 36.0049 145.498 36.2354 144.405 36.2354H144.338V31.2591H145.034V30.991H142.746V31.2591H143.442V36.2354H142.89L140.858 30.8428H140.558C140.565 30.8388 138.87 35.7349 138.867 35.7502C138.87 35.7349 138.739 36.1702 138.46 36.224C138.203 36.2368 138.221 36.1023 138.221 36.0543V35.112C138.221 34.8647 138.203 34.3026 137.945 34.044C137.657 33.7534 137.165 33.7325 137.176 33.7216C137.176 33.7216 138.426 33.4635 138.426 32.2756C138.426 31.4432 137.847 31.0292 136.879 30.9924H134.133V31.2607H134.836V36.237H134.133V36.5007H136.385V36.237H135.683V33.8438H136.62C138.245 33.9781 136.341 36.5035 138.472 36.5007H139.814V36.2356C139.739 36.2356 139.247 36.2491 139.216 35.9072C139.196 35.6591 139.541 34.7692 139.541 34.7692H141.369C141.368 34.7655 141.937 36.237 141.942 36.237H141.305V36.5007H146.286V34.467H146.086V34.4668ZM136.58 33.5644H135.687V31.2581H136.829C137.5 31.3595 137.528 32.1348 137.528 32.3809C137.528 32.9776 137.278 33.5644 136.58 33.5644ZM139.665 34.5143L140.459 32.1348L141.305 34.5143H139.665Z" fill="#C21B17"/>
<path d="M131.424 31.2582C132.842 31.2582 133.365 31.1907 133.612 32.9282H133.762V30.9938H128.133V31.2582H128.28C128.479 31.2582 128.95 31.2725 128.978 31.6879H128.977V34.8627L126.344 30.9938H124.91V31.2582H125.148C125.431 31.2582 125.827 31.2709 125.845 31.6879V35.7558C125.845 36.1528 125.251 36.3031 125.003 36.3031H125V36.5005H126.939V36.3031C126.692 36.3031 126.093 36.1528 126.093 35.7558L126.1 32.1745C127.142 33.6641 129.11 36.5033 129.128 36.5005H129.226V31.6879C129.254 31.2725 129.725 31.2582 129.923 31.2582H130.569V36.2391H129.833V36.5005H133.811V34.4668H133.612C133.413 36.0049 133.024 36.2396 131.93 36.2396H131.424V33.8211H131.717C132.208 33.8329 132.487 34.1194 132.587 34.9629H132.768L132.766 32.4635C132.763 32.4681 132.588 32.4635 132.588 32.4635C132.588 32.4757 132.553 33.5382 131.695 33.5226H131.423V31.2582H131.424Z" fill="#C21B17"/>
<path d="M148.788 31.2587V30.9906H146.542V31.2587H147.247L147.249 36.2325H146.542V36.5006H148.788V36.2325H148.082V31.2587H148.788Z" fill="#C21B17"/>
<path d="M142.858 27.5945L143.554 27.3318L143.564 27.3287C144.55 26.9196 144.691 26.6645 144.645 26.0084V23.3553C145.395 25.2621 146.105 26.6031 147.561 26.6026C147.759 26.6026 147.97 26.5778 148.198 26.5268L148.765 26.3983L148.375 25.9676C148.125 25.6923 148.004 25.479 147.865 25.2317C147.808 25.1301 147.748 25.0256 147.676 24.9101C147.336 24.3567 146.526 24.1698 145.869 24.4631C145.572 23.8722 145.272 23.1018 144.911 22.15L144.832 21.9686C144.771 21.8274 144.708 21.6845 144.644 21.5414V21.5173H144.634C144.41 21.015 144.172 20.5105 143.886 20.0381C143.628 19.6093 143.363 19.2391 143.081 18.9068C142.322 18.0155 141.317 17.4612 140.093 17.2588C139.249 17.1194 138.65 17.0899 137.892 17.0528C137.735 17.0454 137.571 17.0368 137.396 17.0273C137.053 17.0088 136.344 16.9513 135.659 16.8942C135.196 16.8566 134.723 16.8181 134.35 16.7901C134.374 16.6855 134.389 16.5767 134.389 16.464C134.389 16.3123 134.376 16.1778 134.349 16.0574H139.213C140.467 16.0574 141.375 15.5027 141.915 14.4113C143.162 14.4001 144.063 13.8345 144.596 12.7312H144.77C146.067 12.7312 146.995 12.1394 147.528 10.971L147.747 10.4904H131.264C130.182 10.4904 129.26 11.1971 128.915 12.2894L128.904 12.3275C128.624 11.5461 128.111 10.8831 127.454 10.4918C126.539 9.94843 125.499 9.76544 124.672 10.0036C124.398 10.0829 124.125 10.2066 123.904 10.3524C123.714 10.4779 123.447 10.6792 123.253 10.9267C123.042 11.1971 122.839 11.5239 122.689 11.8298C122.595 11.9082 122.521 11.9877 122.47 12.0652L122.273 12.4355L122.262 12.4564C122.026 12.9896 121.739 13.359 121.516 13.6204C121.293 13.8795 121.282 14.1253 121.312 14.286C121.345 14.4614 121.439 14.6054 121.539 14.7132L121.534 14.7237C121.468 14.8368 121.433 14.9665 121.433 15.098C121.433 15.5328 121.811 15.8622 122.277 15.8622C122.615 15.8622 122.892 15.704 123.184 15.5103C123.304 15.4319 123.618 15.223 123.721 15.2119C123.852 15.2119 123.97 15.3299 123.97 15.46C123.97 15.8165 123.511 16.0085 123.182 16.0324L122.512 16.1041C122.031 16.1493 121.802 16.4042 121.802 16.6331C121.802 16.8615 121.912 16.9907 121.989 17.0672L122.039 17.1185L122.208 17.2697L121.499 18.4128C120.992 17.9441 120.4 17.66 119.875 17.6438C119.535 17.6324 119.242 17.7354 119.026 17.939C118.963 17.9984 118.909 18.0659 118.862 18.1401H118.85C118.289 18.1401 117.838 18.4404 117.616 18.7779C117.375 19.1468 117.463 19.7846 117.767 20.2714L115.975 20.7369V29.3024H148.84V27.5945H142.858ZM147.097 25.2665C147.162 25.3713 147.218 25.4708 147.273 25.5657C147.338 25.6835 147.403 25.7981 147.48 25.9173C146.964 25.885 146.574 25.5996 146.212 25.0592C146.545 24.9423 146.948 25.0251 147.097 25.2665ZM139.983 17.9302C141.043 18.1046 141.911 18.5819 142.563 19.3472C142.702 19.5117 142.837 19.6861 142.968 19.8746C141.186 19.6404 140.566 19.3808 139.569 17.8683C139.702 17.8847 139.839 17.9058 139.983 17.9302ZM139.214 15.3772H135.869C136.155 15.1258 136.395 14.8028 136.589 14.4129H141.135C140.708 15.0674 140.088 15.3772 139.214 15.3772ZM141.877 13.7329H138.532C138.827 13.4738 139.074 13.1383 139.27 12.7315H143.822C143.394 13.4122 142.767 13.7329 141.877 13.7329ZM142.104 11.17H146.636C146.211 11.7688 145.607 12.0524 144.77 12.0524H141.425C141.691 11.8177 141.918 11.5236 142.104 11.17ZM123.792 11.3453C123.898 11.2084 124.072 11.0572 124.28 10.9199C124.442 10.8123 124.654 10.717 124.862 10.6569C125.19 10.5623 125.568 10.5563 125.958 10.631L124.756 11.3724C124.606 11.3571 124.459 11.3495 124.317 11.3495C124.113 11.3495 123.926 11.3657 123.754 11.3933C123.767 11.3773 123.779 11.3606 123.792 11.3453ZM122.388 16.6521C122.398 16.6048 122.436 16.5677 122.476 16.5686L123.061 16.5876C123.775 16.5628 124.502 16.2685 124.584 15.5252C124.584 15.0212 124.227 14.5321 123.723 14.5321C123.453 14.5321 123.149 14.7186 122.808 14.9442C122.587 15.0913 122.411 15.2072 122.278 15.2072C122.188 15.2072 122.116 15.1474 122.116 15.098C122.116 15.0899 122.117 15.0813 122.12 15.0732L122.494 14.5722L122.17 14.3554C122.101 14.3099 121.995 14.2255 121.983 14.162C121.977 14.132 122.02 14.0782 122.034 14.0625C122.168 13.9061 122.321 13.7155 122.477 13.4808C122.572 13.3472 122.627 13.2735 122.788 13.2735C122.945 13.2735 123.075 13.4003 123.075 13.5557C123.075 13.6589 123.188 13.7403 123.328 13.7403C123.469 13.7403 123.531 13.6404 123.618 13.5557C123.618 13.5557 123.952 13.2498 123.776 13.1053C123.574 12.9402 122.766 13.2769 122.991 12.5353L123.047 12.4293C123.133 12.3152 123.52 12.029 124.317 12.029C124.468 12.029 124.629 12.0399 124.792 12.0601L124.912 12.0756L126.606 11.0303C126.621 11.066 126.626 11.0916 126.626 11.0916L126.627 11.1018C126.716 11.6145 126.392 12.225 125.876 12.5218L125.669 12.6399L125.802 13.4043C125.367 13.5374 125.064 13.8862 125.064 14.3064C125.064 14.45 125.097 14.6216 125.14 14.8382C125.187 15.0785 125.241 15.3503 125.254 15.627C125.254 16.4227 124.157 16.9485 123.228 16.9183L123.204 16.9179C123.166 16.9165 122.575 16.8694 122.43 16.7557C122.402 16.7349 122.38 16.6885 122.388 16.6521ZM118.188 19.1494C118.322 18.9446 118.628 18.7681 119.012 18.8347L119.302 18.8855L119.393 18.6055C119.418 18.5304 119.451 18.475 119.496 18.4321C119.578 18.3555 119.7 18.3193 119.855 18.3228C120.265 18.3365 120.778 18.6218 121.195 19.0689C121.347 19.232 121.481 19.4203 121.601 19.6114C121.624 19.6508 121.651 19.6942 121.675 19.7322C121.709 19.7856 121.736 19.8292 121.742 19.8391C121.757 19.8653 121.963 20.1752 121.949 20.1947C122.09 19.9971 122.231 19.7992 122.372 19.6014C122.376 19.5958 122.37 19.5773 122.358 19.552C122.326 19.4841 122.251 19.3667 122.207 19.2964L122.175 19.2459C122.174 19.2449 122.172 19.2426 122.172 19.2419C122.167 19.2345 122.149 19.2051 122.124 19.1666C122.077 19.0928 122.009 18.9864 121.98 18.9284L122.867 17.5095C123.088 17.5552 123.277 17.5624 123.367 17.5624H123.389C124.641 17.5624 125.935 16.8411 125.935 15.6328V15.6029C125.919 15.274 125.858 14.9602 125.808 14.7079C125.776 14.5414 125.745 14.3851 125.745 14.3067C125.745 14.174 125.931 14.0267 126.198 14.0267H126.603L126.419 12.9785C126.989 12.5596 127.339 11.8766 127.321 11.224C127.935 11.6946 128.368 12.5111 128.447 13.3792C128.47 13.6311 128.421 13.9838 128.339 14.3547L128.295 14.5096L128.302 14.5119C128.157 15.1172 127.943 15.7402 127.83 16.0352L127.725 16.3077L127.98 16.4519C128.437 16.7108 128.718 16.8998 128.718 17.5009C128.718 18.1906 128.097 18.7192 127.497 18.831L126.677 18.985L127.371 19.4479C127.593 19.5963 127.725 19.8382 127.725 20.0945C127.725 20.5275 127.358 20.8798 126.904 20.8798H126.643L126.569 21.1196C126.314 21.9491 126.038 22.3543 125.148 22.4413C125.19 22.1894 125.219 21.9466 125.219 21.6045C125.219 21.5236 125.212 21.2979 125.209 21.2251L125.169 20.4521L124.625 21.0038C124.44 21.1917 124.113 21.3399 123.754 21.4108V20.7369L119.865 19.7276L118.481 20.087C118.173 19.7779 118.111 19.2679 118.188 19.1494ZM117.069 27.5945L119.866 26.8672L122.661 27.5945H117.069ZM123.072 26.9992L119.866 26.165L116.658 26.9992V21.2629L119.866 20.4308L123.072 21.2629V26.9992ZM124.565 25.8839C124.275 26.3004 124.24 26.8744 124.458 27.5945H123.754V22.1003C124.006 22.0618 124.277 21.9893 124.53 21.8749C124.516 22.1136 124.483 22.3033 124.438 22.5568C124.428 22.6154 124.417 22.6769 124.406 22.7418L124.338 23.1384H124.741C125.344 23.1384 125.793 23.0447 126.138 22.8666V25.1601C126.138 25.219 126.092 25.2665 126.037 25.2665H125.934C125.337 25.2665 124.837 25.4919 124.565 25.8839ZM131.954 26.0314C131.708 26.3141 131.469 26.8058 131.623 27.5945H127.458C127.906 27.5512 128.231 27.4461 128.456 27.2128C128.728 26.9287 128.753 26.5412 128.743 26.2645C128.753 26.2399 128.797 26.1467 129.002 26.0543L129.36 25.8908L129.145 25.5592C128.789 25.0126 128.944 23.817 129.083 23.1674H129.115C130.527 23.1674 131.441 22.8743 132.404 22.5644C132.655 22.4837 132.915 22.4004 133.188 22.3207L133.197 22.3172C133.203 22.3158 133.484 22.2267 133.867 22.1368L135.225 24.3748L135.237 24.3933C135.372 24.5863 135.39 24.7134 135.144 25.0007L134.463 25.7348L133.348 25.5284L133.338 25.526C132.833 25.4488 132.29 25.6473 131.954 26.0314ZM132.322 27.5945C132.199 27.1138 132.249 26.7292 132.469 26.4783C132.678 26.2378 133 26.1647 133.229 26.1974L134.522 26.4375L134.554 26.443H134.734L135.647 25.4576L135.656 25.4486C135.813 25.2672 136.287 24.7159 135.802 24.0135L134.581 22.0002C134.783 21.9721 134.986 21.9542 135.174 21.9542L135.182 21.9535C135.188 21.9542 135.801 21.9447 136.457 22.326C136.546 22.5173 136.669 22.7683 136.807 23.0473C137.063 23.567 137.382 24.2138 137.471 24.475C137.5 24.5571 137.587 24.8071 137.28 25.1232L134.939 27.5938H132.322V27.5945ZM140.3 27.5945H135.876L137.773 25.594C138.155 25.1979 138.277 24.7222 138.117 24.2553C138.024 23.9863 137.774 23.4694 137.514 22.9404C138.266 23.2896 139.406 23.6043 141.728 23.7915C142.008 23.8145 142.082 23.9098 142.138 24.1635L142.239 25.1659L141.026 25.4363C140.62 25.5172 140.3 25.7844 140.15 26.1712C139.983 26.5982 140.04 27.1008 140.3 27.5945ZM140.785 26.4182C140.852 26.2466 140.982 26.1378 141.161 26.1035L142.978 25.6981L142.813 24.0772L142.808 24.0427C142.763 23.8302 142.628 23.1836 141.784 23.1141C138.537 22.852 137.783 22.3705 136.994 21.8605C136.993 21.8585 136.991 21.8561 136.991 21.8534L136.986 21.8564L136.935 21.8223C136.092 21.2775 135.254 21.2731 135.172 21.2752C134.252 21.2759 133.088 21.64 132.993 21.6697C132.712 21.7522 132.449 21.8367 132.195 21.9183C131.178 22.2448 130.299 22.5285 128.824 22.4844L128.555 22.4763L128.485 22.7372C128.432 22.9371 128.019 24.5684 128.418 25.617C128.06 25.8983 128.06 26.2239 128.062 26.2675C128.077 26.6258 127.992 26.7137 127.964 26.7427C127.794 26.9196 127.228 26.9431 126.751 26.9431H126.746H126.572L126.471 27.0829C126.177 27.4874 125.543 27.5818 125.136 27.4793C124.957 26.9354 124.952 26.5198 125.125 26.2721C125.328 25.9792 125.759 25.9479 125.935 25.9479H126.037C126.469 25.9479 126.82 25.5949 126.82 25.1608V22.2402C126.951 22.0377 127.056 21.8037 127.149 21.5407C127.861 21.4271 128.407 20.8218 128.407 20.0949C128.407 19.8159 128.325 19.5467 128.177 19.3161C128.835 18.9991 129.398 18.3504 129.398 17.5014C129.398 16.6523 128.971 16.2627 128.566 16.0083C128.68 15.6817 128.868 15.1082 128.997 14.5314L129.567 12.4889C129.822 11.6876 130.488 11.1704 131.265 11.1704H141.31C140.884 11.7692 140.28 12.0529 139.444 12.0529H133.366L133.049 12.7319H138.496C138.067 13.4126 137.441 13.7334 136.551 13.7334H132.602L132.285 14.4136H135.808C135.381 15.0685 134.762 15.3779 133.889 15.3779H131.736L131.418 16.0581H133.675C133.696 16.0857 133.752 16.1889 133.752 16.4647C133.752 16.9012 133.385 17.2572 132.933 17.2572C132.778 17.2572 132.646 17.2205 132.413 17.1264C132.314 17.0841 132.214 17.0417 132.114 17L131.591 17.4701C131.688 17.5113 131.787 17.5529 131.885 17.5941V17.5946C132.338 17.7913 132.591 17.8935 132.933 17.8935C133.349 17.8935 133.724 17.7215 133.989 17.4469C134.376 17.4724 135 17.5236 135.604 17.5723C136.326 17.6317 137.008 17.6883 137.36 17.7066C137.536 17.7161 137.702 17.7247 137.86 17.7319C138.16 17.7472 138.434 17.7609 138.708 17.7804C140.078 20.0063 140.781 20.2988 143.437 20.6165C143.628 20.9595 143.799 21.3216 143.964 21.6864V26.0207L143.965 26.0455C143.979 26.2448 143.979 26.3122 143.952 26.3487C143.86 26.4695 143.45 26.6404 143.308 26.6993L141.07 27.543C140.774 27.1409 140.666 26.7209 140.785 26.4182Z" fill="#C21B17"/>
<path d="M122.362 22.1437L120.219 21.5878V22.2896L122.362 22.8462V22.1437Z" fill="#C21B17"/>
<path d="M117.369 22.8462L119.511 22.2892V21.5867L117.369 22.1437V22.8462Z" fill="#C21B17"/>
<path d="M117.369 24.2577L119.511 23.7018V22.9988L117.369 23.555V24.2577Z" fill="#C21B17"/>
<path d="M122.362 23.555L120.219 22.9991V23.7018L122.362 24.2575V23.555Z" fill="#C21B17"/>
<path d="M122.362 24.9676L120.219 24.4108V25.1135L122.362 25.6701V24.9676Z" fill="#C21B17"/>
<path d="M117.369 25.67L119.511 25.1134V24.4105L117.369 24.9675V25.67Z" fill="#C21B17"/>
<path d="M93.6445 34.0771C93.6176 33.973 93.5814 33.8779 93.5341 33.7904C93.4865 33.7035 93.4269 33.6279 93.3529 33.5646C93.2792 33.5005 93.1932 33.4514 93.0944 33.4154C92.9951 33.3811 92.8803 33.3628 92.7502 33.3628C92.5588 33.3628 92.3944 33.4013 92.2555 33.4783C92.1157 33.556 92.0034 33.6585 91.9157 33.7879C91.829 33.9171 91.765 34.0632 91.7225 34.2272C91.6808 34.3916 91.6597 34.5595 91.6597 34.73C91.6597 34.9007 91.681 35.0681 91.7225 35.2318C91.765 35.3965 91.829 35.5431 91.9157 35.6722C92.0034 35.8014 92.1157 35.9039 92.2555 35.9809C92.3944 36.0579 92.5588 36.0964 92.7502 36.0964C92.891 36.0964 93.015 36.0723 93.1222 36.0238C93.2296 35.9747 93.3214 35.9081 93.3984 35.8221C93.4754 35.737 93.5359 35.6372 93.5798 35.5231C93.6227 35.4102 93.6514 35.2877 93.6651 35.1572H94.2778C94.2644 35.3717 94.2185 35.5672 94.1398 35.7444C94.0605 35.9227 93.9541 36.076 93.8205 36.204C93.6862 36.3332 93.5292 36.4329 93.3481 36.5032C93.1674 36.5742 92.968 36.6087 92.7502 36.6087C92.4819 36.6087 92.2418 36.5596 92.0289 36.4605C91.816 36.3617 91.6367 36.2268 91.4892 36.0561C91.3413 35.8856 91.2288 35.6859 91.1495 35.4582C91.0708 35.2304 91.0317 34.9881 91.0317 34.7295C91.0317 34.4751 91.0708 34.2336 91.1495 34.0054C91.2288 33.7784 91.3413 33.5789 91.4892 33.4078C91.6367 33.2373 91.816 33.1014 92.0289 33.0005C92.2418 32.9003 92.4819 32.85 92.7502 32.85C92.9517 32.85 93.1403 32.8778 93.3177 32.9326C93.4958 32.9887 93.6519 33.0685 93.7878 33.1742C93.923 33.28 94.0334 33.4078 94.1169 33.5588C94.2006 33.7095 94.2521 33.8818 94.2725 34.0764H93.6445V34.0771ZM93.0162 32.5891H92.4587L91.9211 31.8708H92.3833L92.7349 32.3182L93.092 31.8708H93.5596L93.0162 32.5891Z" fill="#1F1E21"/>
<path d="M94.9634 32.9365H95.5914V35.9812H97.4155V36.5241H94.9634V32.9365Z" fill="#1F1E21"/>
<path d="M99.0884 32.9365H99.7568L101.139 36.5239H100.466L100.129 35.5741H98.6969L98.3599 36.5239H97.7117L99.0884 32.9365ZM98.8674 35.0973H99.9629L99.4254 33.5541H99.4105L98.8674 35.0973Z" fill="#1F1E21"/>
<path d="M101.601 32.9365H102.264L103.902 35.5795H103.912V32.9365H104.51V36.5241H103.847L102.214 33.8862H102.199V36.5241H101.601V32.9365Z" fill="#1F1E21"/>
<path d="M53.9511 10.8944C52.0165 10.8944 50.4352 11.358 49.3726 11.9849V29.1018C50.3538 29.7834 52.0434 30.1916 54.1422 30.1916C59.2667 30.1916 61.0924 25.8308 61.0924 20.4885C61.0924 15.0105 59.1032 10.8944 53.9511 10.8944ZM54.142 27.2216C53.6784 27.2216 53.27 27.1395 53.0515 27.0583V13.8931C53.2971 13.7837 53.6513 13.7018 54.0875 13.7018C56.4046 13.7018 57.3314 15.8007 57.3314 20.3797C57.3314 25.2586 56.4315 27.2216 54.142 27.2216Z" fill="#1F1E21"/>
<path d="M65.1668 9.01471H65.0884C64.0696 9.03558 63.246 9.87212 63.246 10.922C63.246 11.958 64.0907 12.8296 65.1267 12.8296C66.1898 12.8296 67.0618 11.958 67.0618 10.922C67.0618 9.87212 66.2111 9.03558 65.1668 9.01471ZM66.9257 15.2278H63.3824V29.9188H66.9257V15.2278Z" fill="#1F1E21"/>
<path d="M74.7736 14.949C72.2139 14.949 70.6628 15.3665 69.515 16.0458V29.9186H73.0312V17.8174C73.3652 17.6572 73.7587 17.5688 74.1694 17.5688C74.5953 17.5688 75.0401 17.6641 75.4566 17.8719L76.1111 14.9829C75.6359 14.9602 75.1915 14.949 74.7736 14.949Z" fill="#1F1E21"/>
<path d="M81.9447 14.956C78.4554 14.956 76.4386 18.1175 76.4386 22.5331C76.4386 27.2816 78.4686 30.1349 82.2652 30.1913H82.5289C84.416 30.1695 85.8105 29.7388 86.7141 29.1013L85.9244 26.6218C85.3516 26.9753 84.3429 27.3846 82.8438 27.3846C81.0995 27.3846 80.173 26.3215 79.9548 24.1952L86.7208 24.1679C87.3758 18.5953 85.6507 14.956 81.9447 14.956ZM79.7368 21.9064C79.7092 19.317 80.5541 17.5178 81.8621 17.5178C83.1711 17.5178 84.1792 18.9353 84.1792 21.4154L84.156 21.8201L79.7368 21.9064Z" fill="#1F1E21"/>
<path d="M94.0192 14.956C91.2385 14.956 88.9495 17.5454 88.9495 22.5328C88.9495 27.5126 90.9915 30.1544 93.9559 30.1915H94.1009C95.7104 30.1755 96.5632 29.6913 97.0991 29.102L96.363 26.7032C96.036 27.0302 95.5729 27.248 94.8096 27.248C93.3924 27.248 92.5199 25.4495 92.5199 22.4786C92.5199 19.5895 93.2829 17.7089 94.8639 17.7089C95.5998 17.7089 96.0903 17.9812 96.363 18.2537L97.0713 16.046C96.527 15.4467 95.5998 14.956 94.0192 14.956Z" fill="#1F1E21"/>
<path d="M102.932 10.9218L99.3891 12.0394V15.2285H98.08V17.8724H99.3891V25.8852C99.3891 28.4751 100.697 30.1101 103.095 30.1101C103.913 30.1101 104.648 29.8926 104.867 29.7293V27.194C104.676 27.248 104.458 27.3299 104.131 27.3299C103.395 27.3299 102.932 26.8663 102.932 25.5037V17.8722H104.867V15.2283H102.932V10.9218Z" fill="#1F1E21"/>
<path d="M0.403564 3.97183C0.403564 2.16796 1.8795 0.692017 3.68338 0.692017H36.4711C38.2754 0.692017 39.7514 2.16796 39.7514 3.97183V36.7605C39.7514 38.5641 38.2754 40.0403 36.4711 40.0403H3.68338C1.8795 40.0403 0.403564 38.5643 0.403564 36.7605V3.97183Z" fill="#00B2EC"/>
<path d="M15.4707 23.0201C14.9023 25.8087 12.8357 26.7624 10.7465 26.5268C9.64538 26.4027 8.77383 25.7995 8.77383 24.5053C8.77383 22.7029 10.8217 22.2214 13.2288 21.6569C15.6574 21.088 19.3429 20.3127 19.3429 16.1156C19.3429 12.3305 15.826 10.5407 13.3503 10.4559C9.46982 10.3241 7.36746 12.07 6.58195 12.8156L7.70212 15.6138C9.07393 14.6828 10.0545 13.998 12.3452 13.898C13.5871 13.844 15.6702 14.2218 15.5505 16.1787C15.4601 17.6887 12.3424 18.0345 10.1278 18.5485C7.71279 19.1088 4.94135 20.8654 4.94135 24.2961C4.94135 28.2126 7.97509 30.2992 10.8903 30.2992C13.0173 30.2992 14.7492 28.9631 15.4754 27.8719L15.5431 27.912L15.4186 28.5254V30.1454H19.075V23.0118H15.4707V23.0201Z" fill="white"/>
<path d="M24.6847 23.0201C25.2515 25.8087 27.3193 26.7624 29.408 26.5268C30.5087 26.4027 31.3816 25.7995 31.3816 24.5053C31.3816 22.7029 29.3328 22.2214 26.9257 21.6569C24.4982 21.088 20.8105 20.3127 20.8105 16.1156C20.8105 12.3305 24.3294 10.5407 26.8047 10.4559C30.6852 10.3241 32.7884 12.07 33.5723 12.8156L32.4533 15.6138C31.081 14.6828 30.1003 13.998 27.8089 13.898C26.569 13.844 24.4848 14.2218 24.6038 16.1787C24.6944 17.6887 27.8131 18.0345 30.0286 18.5485C32.4436 19.1088 35.2146 20.8654 35.2146 24.2961C35.2146 28.2126 32.1808 30.2992 29.2665 30.2992C27.1363 30.2992 25.4067 28.9631 24.6787 27.8719L24.6089 27.912L24.738 28.5254V30.1454H21.0788V23.0118H24.6847V23.0201Z" fill="white"/>
</g>
<defs>
<clipPath id="clip0_1_2824">
<rect width="148.436" height="39.5829" fill="white" transform="translate(0.403564 0.692017)"/>
</clipPath>
</defs>
</svg>
