<svg width="111" height="32" viewBox="0 0 111 32" fill="none" xmlns="http://www.w3.org/2000/svg">
<g clip-path="url(#clip0_1_2827)">
<path d="M106.065 6.4798L98.6407 24.5513L91.2169 6.4798L87.0695 7.29898L96.8981 29.7448H100.383L110.212 7.29898L106.065 6.4798Z" fill="#A7A9AC"/>
<path d="M85.2217 26.016C84.4213 26.3828 83.5571 26.5899 82.6775 26.6259C80.325 26.6259 79.1747 25.5456 79.1747 23.2278V10.3661H85.2565V6.51504H79.1747V0.398132L75.2014 2.00135V6.49746H71.2805V10.3485H75.2014V23.6456C75.2014 27.9675 77.5715 30.3376 81.8935 30.3376C83.3635 30.3442 84.8143 30.0037 86.128 29.3439L85.2217 26.016Z" fill="#A7A9AC"/>
<path d="M41.2195 6.4798L33.7953 24.5513L26.3715 6.4798L22.2241 7.29898L32.0527 29.7448H35.5379L45.3665 7.29898L41.2195 6.4798Z" fill="black"/>
<path d="M18.7738 23.7502C17.9068 24.725 16.8402 25.5018 15.6465 26.0281C14.4528 26.5543 13.1598 26.8176 11.8553 26.8001C7.81214 26.8001 4.79743 24.0294 4.23986 19.8816H22.1372C22.1372 19.8816 22.2071 18.7141 22.2071 18.4002C22.2071 11.0459 17.8504 6.09686 11.3501 6.09686C4.97198 6.11444 0.179504 11.3251 0.179504 18.226C0.179504 25.1429 5.1637 30.3548 11.7858 30.3548C17.2577 30.3548 19.8718 27.4795 21.0744 26.2768L18.7738 23.7502ZM11.263 9.56491C15.7068 9.56491 17.7094 13.12 18.1468 16.5705H4.23986C4.83259 12.4226 7.67233 9.56491 11.263 9.56491Z" fill="black"/>
<path d="M45.1931 14.4267L48.6959 8.36215L50.2991 9.96536L47.7038 17.9295L45.1931 14.4267Z" fill="#D1D3D4"/>
<path d="M45.1931 14.4268V21.4499L47.7026 17.9296L45.1931 14.4268Z" fill="#A7A9AC"/>
<path d="M50.2999 25.911L48.6967 27.5142L45.1931 21.45L47.7026 17.9297L50.2999 25.911Z" fill="#D1D3D4"/>
<path d="M50.2989 25.9111L48.6956 27.5143L54.7602 31.0171L58.263 28.5076L50.2989 25.9111Z" fill="#A7A9AC"/>
<path d="M61.766 31.0168H54.7605L58.2632 28.5074L61.766 31.0168Z" fill="#808285"/>
<path d="M61.766 4.8595H54.7605L58.2632 7.36896L61.766 4.8595Z" fill="#808285"/>
<path d="M54.7602 4.8595L48.6956 8.36229L50.2989 9.9655L58.263 7.37022L54.7602 4.8595Z" fill="#A7A9AC"/>
<path d="M66.2444 25.911L67.8477 27.5142L71.3513 21.45L68.8397 17.9297L66.2444 25.911Z" fill="#808285"/>
<path d="M66.2444 25.9111L67.8476 27.5143L61.7658 31.0179L58.263 28.5064L66.2444 25.9111Z" fill="#A7A9AC"/>
<path d="M71.3505 14.4268V21.4499L68.8411 17.9296L71.3505 14.4268Z" fill="#58595B"/>
<path d="M71.3513 14.4267L67.8477 8.36215L66.2444 9.96536L68.8397 17.9295L71.3513 14.4267Z" fill="#808285"/>
<path d="M61.766 4.8595L67.849 8.36229L66.2458 9.9655L58.2645 7.37022L61.766 4.8595Z" fill="#A7A9AC"/>
<path d="M68.8416 17.9297L66.2463 25.9127L58.265 28.508L50.2979 25.9127L47.7026 17.9314L50.2979 9.9643L58.2633 7.36902L66.2463 9.9643L68.8416 17.9297Z" fill="white"/>
<path d="M58.2588 7.36485L47.686 17.9376L58.2588 28.5104L68.8316 17.9376L58.2588 7.36485Z" fill="#BCBEC0"/>
<path d="M56.0323 26.2773L52.1637 24.0466L49.933 20.1775V15.6986L52.1637 11.8299L56.0323 9.59924H60.5113L64.3799 11.8299L66.6106 15.6986V20.1775L64.3799 24.0462L60.5113 26.2768L56.0323 26.2773Z" fill="#FFCB05"/>
<path d="M66.6106 17.9296L62.9513 13.2414L58.263 9.59964L53.5748 13.2414L49.933 17.9296L53.5748 22.6351L58.263 26.2768L62.9513 22.6351L66.6106 17.9296Z" fill="#A066AA"/>
<path d="M61.7837 14.4093L58.2634 12.9631L54.743 14.4093L53.2968 17.9297L54.743 21.4672L58.2634 22.9135L61.7837 21.4672L63.2488 17.9297L61.7837 14.4093Z" fill="black"/>
</g>
<defs>
<clipPath id="clip0_1_2827">
<rect width="110.09" height="30.9242" fill="white" transform="translate(0.179504 0.398132)"/>
</clipPath>
</defs>
</svg>
