<svg width="150" height="38" viewBox="0 0 150 38" fill="none" xmlns="http://www.w3.org/2000/svg">
<g clip-path="url(#clip0_1_2816)">
<path d="M14.3093 19.5704H9.24082L11.9384 10.7654L14.3093 19.5704ZM6.6134 29.2798L8.3415 23.494H15.1711L16.7893 29.2798H23.1172L16.8297 7.20747C16.4684 5.90416 15.679 5.30115 14.3093 5.30115H5.35762V7.3857H6.11065C7.04524 7.3857 7.55097 7.74996 7.55097 8.46623C7.55097 8.93557 7.44589 9.32916 7.07495 10.4045L0.781921 29.2795H6.6134V29.2798Z" fill="#003781"/>
<path d="M30.4046 29.2798V7.1384C30.4046 5.98547 29.7281 5.30151 28.61 5.30151H23.076V7.38607H23.4362C24.3696 7.38607 24.7636 7.78152 24.7636 8.72428V29.2795H30.4046V29.2798Z" fill="#003781"/>
<path d="M40.0005 29.2798V7.1384C40.0005 5.98547 39.3146 5.30151 38.2026 5.30151H32.6696V7.38607H33.022C33.961 7.38607 34.3561 7.78152 34.3561 8.72428V29.2795H40.0005V29.2798Z" fill="#003781"/>
<path d="M49.8424 7.48932C49.8424 5.88153 48.6528 4.90869 46.6083 4.90869C44.5965 4.90869 43.3675 5.88153 43.3675 7.48932C43.3675 9.11605 44.5965 10.0796 46.6083 10.0796C48.6528 10.0796 49.8424 9.11605 49.8424 7.48932ZM49.737 29.2799V13.1389C49.737 11.9889 49.0508 11.3083 47.9354 11.3083H42.4741V13.3535H42.7953C43.7299 13.3535 44.1242 13.7823 44.1242 14.7188V29.2799H49.737Z" fill="#003781"/>
<path d="M62.094 20.6476V24.1413C61.1557 25.1122 60.0105 25.6945 59.0418 25.6945C58.0296 25.6945 57.675 25.1969 57.675 23.8505C57.675 22.5201 57.9568 21.9152 58.9653 21.5231C59.7183 21.1964 60.69 20.9101 62.094 20.6476ZM54.5025 16.4521C56.375 15.5531 58.4246 15.0485 60.0395 15.0485C61.5541 15.0485 62.0936 15.588 62.0936 17.1602V17.5612C59.7941 17.9247 59.0756 18.0718 57.7786 18.358C57.0307 18.5344 56.3364 18.7475 55.6546 19.0375C53.3867 19.9469 52.3162 21.698 52.3162 24.3919C52.3162 27.8065 53.7877 29.4581 56.8421 29.4581C57.9564 29.4581 58.9649 29.245 59.8661 28.8885C60.6544 28.5387 61.1219 28.2443 62.2752 27.3449V27.5956C62.2752 28.7084 62.8466 29.2806 63.9646 29.2806H69.1044V27.3449H68.8508C67.882 27.3449 67.5237 26.9098 67.5237 25.7639V17.2033C67.5237 12.6402 65.9404 11.0513 61.3706 11.0513C59.8995 11.0513 58.4625 11.2388 57.0638 11.5608C55.6546 11.8805 54.9328 12.1694 53.2534 12.9985L54.5025 16.4521Z" fill="#003781"/>
<path d="M77.2904 29.2798V17.1286C78.2291 16.0845 79.1956 15.6144 80.3114 15.6144C81.5018 15.6144 81.7859 16.0848 81.7859 17.8924V29.2798H87.3931V17.0606C87.3931 14.216 87.1859 13.3174 86.2844 12.3527C85.5284 11.5199 84.3784 11.094 82.8991 11.094C80.7046 11.094 79.1603 11.7746 77.0851 13.7162V12.9988C77.0851 11.8797 76.5006 11.3082 75.3525 11.3082H70.0271V13.3534H70.3505C71.2851 13.3534 71.685 13.7823 71.685 14.7188V29.2798H77.2904Z" fill="#003781"/>
<path d="M104.033 25.5062H96.1961L103.675 15.0151V11.306H91.9591C90.6279 11.306 90.0175 11.9154 90.0175 13.2495V16.5152H92.1009V16.1947C92.1009 15.3693 92.5316 14.9735 93.425 14.9735H97.4567L89.9064 25.5804V29.2795H104.033V25.5062Z" fill="#003781"/>
<path d="M133.468 28.8213V8.50487C133.468 6.88631 132.893 6.34159 131.32 6.34159H126.565V8.60995H126.849C127.935 8.60995 128.146 8.8539 128.146 10.1613V28.8213H133.468ZM135.813 28.8213H141.095V12.9989C141.095 11.4108 140.482 10.8382 138.934 10.8382H135.814V28.8213H135.813ZM125.813 28.8213V10.8382H122.684C121.137 10.8382 120.529 11.4108 120.529 12.9989V28.8213H125.813ZM146.09 18.4954C146.09 27.4474 139.654 33.9562 130.811 33.9562C121.967 33.9562 115.53 27.4478 115.53 18.4954C115.53 9.54083 121.967 3.03244 130.811 3.03244C139.654 3.03244 146.09 9.5813 146.09 18.4954ZM149.218 18.4954C149.218 7.96832 141.343 0.0853271 130.811 0.0853271C120.274 0.0853271 112.401 7.96832 112.401 18.4954C112.401 29.0352 120.274 36.9003 130.811 36.9003C141.343 36.9003 149.218 29.0348 149.218 18.4954Z" fill="#003781"/>
</g>
<defs>
<clipPath id="clip0_1_2816">
<rect width="148.436" height="37.109" fill="white" transform="translate(0.781921 0.0853271)"/>
</clipPath>
</defs>
</svg>
