<svg width="149" height="24" viewBox="0 0 149 24" fill="none" xmlns="http://www.w3.org/2000/svg">
<g clip-path="url(#clip0_1_2826)">
<path d="M148.834 23.2265V12.0022C148.834 8.02266 146.55 5.56634 142.636 5.56634C140.013 5.56634 138.482 6.89146 137.286 8.34778V0.10907H132.114V23.2265H137.286V13.5564C137.286 11.2265 138.547 10.0287 140.522 10.0287C142.498 10.0287 143.656 11.2265 143.656 13.5564V23.2268L148.834 23.2265ZM118.092 14.5897V14.5247C118.092 11.9702 119.932 9.80154 122.519 9.80154C124.358 9.80154 125.514 10.5465 126.67 11.7116L129.838 8.47642C128.137 6.66874 125.993 5.56602 122.553 5.56602C116.965 5.56602 112.983 9.63898 112.983 14.5891V14.6524C112.983 19.6047 117.001 23.6111 122.485 23.6111C126.128 23.6111 128.171 22.287 129.941 20.4447L126.91 17.5321C125.65 18.6655 124.462 19.3769 122.722 19.3769C119.896 19.3769 118.092 17.2431 118.092 14.5891V14.5897ZM105.473 23.2262H110.478V13.1654C110.478 10.8412 109.866 8.92666 108.503 7.63642C107.211 6.4057 105.168 5.6969 102.339 5.6969C99.2428 5.6969 97.2672 6.24538 95.2579 7.0889L96.5514 10.8412C98.2228 10.2566 99.616 9.89978 101.592 9.89978C104.181 9.89978 105.507 11.0319 105.507 13.0697V13.3599C104.212 12.942 102.885 12.6521 101.047 12.6521C96.7222 12.6521 93.6903 14.3948 93.6903 18.1814V18.2454C93.6903 21.6694 96.5177 23.549 99.9577 23.549C102.478 23.549 104.212 22.6786 105.473 21.35V23.2262ZM105.575 17.111C105.575 18.8934 103.943 20.1558 101.525 20.1558C99.8535 20.1558 98.6969 19.3769 98.6969 18.0514V17.9881C98.6969 16.4329 100.058 15.5903 102.273 15.5903C103.534 15.5903 104.691 15.8502 105.575 16.2406V17.111ZM86.0342 23.2262H91.2091V11.9353C91.2091 7.76314 88.8965 5.56634 85.0478 5.56634C82.5612 5.56634 80.6557 6.53722 79.0554 8.31514C78.1002 6.56986 76.296 5.56634 73.9123 5.56634C71.2932 5.56634 69.7266 6.89146 68.5338 8.34778V5.88922H63.3589V23.2268H68.5338V13.5564C68.5338 11.2265 69.7266 10.0287 71.6664 10.0287C73.6068 10.0287 74.6957 11.2265 74.6957 13.5564V23.2268H79.8729V13.5564C79.8729 11.2265 81.066 10.0287 83.0035 10.0287C84.9452 10.0287 86.0342 11.2265 86.0342 13.5564V23.2262ZM60.501 16.2745C60.5363 15.8185 60.5687 15.3647 60.5687 14.9785C60.5687 10.0611 57.7765 5.56602 51.6813 5.56602C46.3704 5.56602 42.6602 9.63898 42.6602 14.5891V14.6556C42.6602 19.9593 46.7109 23.6111 52.1922 23.6111C55.4979 23.6111 57.9487 22.3865 59.6483 20.3791L56.6876 17.8898C55.2594 19.151 53.9961 19.6668 52.2612 19.6668C49.9476 19.6668 48.3099 18.503 47.8021 16.2748L60.501 16.2745ZM55.5284 13.1993H47.7344C48.1425 10.9667 49.5405 9.5113 51.6813 9.5113C53.8592 9.5113 55.2267 10.9993 55.5284 13.1996V13.1993ZM22.7488 5.56634C17.4383 5.56634 13.7255 9.6393 13.7255 14.5894V14.6559C13.7255 19.9596 17.7742 23.6114 23.2579 23.6114C26.5632 23.6114 29.0127 22.3868 30.7149 20.3794L27.7519 17.8902C26.3247 19.1513 25.0623 19.6671 23.329 19.6671C21.0116 19.6671 19.3777 18.5033 18.8655 16.2751H31.5663C31.6016 15.8188 31.633 15.365 31.633 14.9791C31.633 10.0614 28.8431 5.56634 22.7488 5.56634ZM22.7488 9.51194C24.9267 9.51194 26.2907 10.9996 26.5937 13.1999H18.7985C19.2081 10.967 20.6013 9.51162 22.7488 9.51162V9.51194ZM7.75331 10.0921H12.0419V5.88922H7.75267V1.45723H2.5768V5.88922H0.397583V10.0921H2.5768V18.309C2.5768 22.3186 4.72332 23.5167 7.88859 23.5167C9.62446 23.5167 10.8891 23.1318 11.9758 22.5164V18.5689C11.227 18.9561 10.372 19.1839 9.42219 19.1839C8.26494 19.1839 7.75299 18.6342 7.75299 17.5007L7.75331 10.0921ZM39.7562 0.10907H34.5777V23.2265H39.7558L39.7562 0.10907Z" fill="black"/>
</g>
<defs>
<clipPath id="clip0_1_2826">
<rect width="148.436" height="23.5024" fill="white" transform="translate(0.397583 0.10907)"/>
</clipPath>
</defs>
</svg>
