<svg width="47" height="47" viewBox="0 0 47 47" fill="none" xmlns="http://www.w3.org/2000/svg">
<g clip-path="url(#clip0_1_2831)">
<path d="M46.4829 0.00952148H0.387512V46.1049H46.4829V0.00952148Z" fill="#E20074"/>
<path d="M9.98383 28.3883V21.7447H16.6274V28.3883H9.98383Z" fill="white"/>
<path d="M30.2427 28.3883V21.7447H36.8864V28.3883H30.2427Z" fill="white"/>
<path d="M36.5581 6.65308H10.3122L9.98383 18.2295L11.7247 18.5305C12.0487 15.1193 12.944 12.588 14.4104 10.9365C15.9539 9.2078 18.0785 8.30491 20.8105 8.22737V32.4458C20.8105 34.5604 20.5151 35.9343 19.8976 36.5668C19.3732 37.1074 18.4854 37.4391 17.235 37.5626C16.8647 37.5937 16.2318 37.6089 15.3367 37.6089V39.4611H31.5335V37.6089C30.6384 37.6089 30.0056 37.5936 29.6351 37.5626C28.3848 37.4392 27.4971 37.1074 26.9727 36.5668C26.3551 35.9341 26.0565 34.5603 26.0565 32.4458V8.22737C28.7884 8.30491 30.9164 9.2078 32.4599 10.9365C33.9263 12.5881 34.8214 15.1194 35.1456 18.5305L36.8864 18.2295L36.5581 6.65308Z" fill="white"/>
</g>
<defs>
<clipPath id="clip0_1_2831">
<rect width="46.1801" height="46.1801" fill="white" transform="translate(0.387512 0.00952148)"/>
</clipPath>
</defs>
</svg>
