<svg width="47" height="47" viewBox="0 0 47 47" fill="none" xmlns="http://www.w3.org/2000/svg">
<path d="M23.5294 0.00952148C10.7783 0.00952148 0.440277 10.349 0.440277 23.0992C0.440277 35.8521 10.7783 46.1909 23.5294 46.1909C36.2811 46.1909 46.6204 35.8521 46.6204 23.0992C46.6204 10.349 36.2811 0.00952148 23.5294 0.00952148Z" fill="#FF6D6A"/>
<path d="M23.7613 16.1615C22.7406 16.1615 21.9134 16.9902 21.9134 18.0088C21.9134 19.0305 22.7406 19.8572 23.7613 19.8572C24.7809 19.8572 25.6084 19.0305 25.6084 18.0088C25.6083 16.9902 24.7809 16.1615 23.7613 16.1615ZM37.003 22.5302H33.7996V17.8318C33.7996 17.8191 33.8064 17.382 33.8064 17.3716C33.8064 16.686 33.2237 16.2975 32.6339 16.2975C31.9275 16.2975 31.4646 16.8078 31.4646 17.3716C31.4646 17.382 31.4699 17.8191 31.4699 17.8318V22.5302H28.2715V19.4745C27.653 21.3761 25.8705 22.7527 23.7613 22.7527C21.6846 22.7527 19.9213 21.4136 19.2803 19.5537C18.6413 21.4136 16.8788 22.7527 14.8004 22.7527C12.1806 22.7527 10.0571 20.6303 10.0571 18.0088C10.0571 17.9238 10.0677 17.8406 10.0702 17.7533C10.0677 17.7704 10.0591 17.7886 10.0571 17.8033V10.0666H13.2641V13.5264C13.7437 13.3606 14.2611 13.2673 14.8004 13.2673C16.8788 13.2673 18.6413 14.6063 19.2803 16.4685C19.9213 14.6063 21.6846 13.2673 23.7613 13.2673C25.8747 13.2673 27.6603 14.6489 28.2755 16.5568C28.3205 14.7307 30.254 13.2615 32.6339 13.2615C35.045 13.2615 36.9975 14.7665 36.9975 16.6229C36.9975 16.7089 36.9925 16.7972 36.9786 16.8802C36.9932 17.1093 37.0001 17.3398 37.0031 17.576V22.5302H37.003ZM37.003 35.913H33.7996V31.2123C33.7996 31.2017 33.8064 30.7656 33.8064 30.7506C33.8064 30.0645 33.2237 29.6768 32.6339 29.6768C31.9275 29.6768 31.4646 30.1889 31.4646 30.7506C31.4646 30.7656 31.4699 31.2017 31.4699 31.2123V35.913H28.2715V32.853C27.653 34.7587 25.8705 36.1337 23.7613 36.1337C21.6846 36.1337 19.9213 34.7944 19.2803 32.9335C18.6413 34.7945 16.8788 36.1337 14.8004 36.1337C12.1806 36.1337 10.0571 34.0094 10.0571 31.3916C10.0571 31.3041 10.0677 31.2209 10.0702 31.1336C10.0677 31.1543 10.0591 31.1679 10.0571 31.1866V23.4471H13.2641V26.9072C13.7437 26.7386 14.2611 26.6463 14.8004 26.6463C16.8788 26.6463 18.6413 27.9863 19.2803 29.8481C19.9213 27.9863 21.6846 26.6463 23.7613 26.6463C25.8747 26.6463 27.6603 28.0292 28.2755 29.9393C28.3205 28.1107 30.254 26.6425 32.6339 26.6425C35.045 26.6425 36.9975 28.1468 36.9975 30.0012C36.9975 30.0907 36.9925 30.1768 36.9786 30.261C36.9932 30.4883 37.0001 30.7186 37.0031 30.9575V35.913H37.003ZM14.677 29.5423C13.6559 29.5423 12.8309 30.3697 12.8309 31.3917C12.8309 32.4098 13.6559 33.2385 14.677 33.2385C15.6987 33.2385 16.5246 32.4098 16.5246 31.3917C16.5246 30.3697 15.6987 29.5423 14.677 29.5423ZM14.677 16.1615C13.6559 16.1615 12.8309 16.9902 12.8309 18.0088C12.8309 19.0305 13.6559 19.8572 14.677 19.8572C15.6987 19.8572 16.5246 19.0305 16.5246 18.0088C16.5246 16.9902 15.6987 16.1615 14.677 16.1615ZM23.7613 29.5423C22.7406 29.5423 21.9134 30.3697 21.9134 31.3917C21.9134 32.4098 22.7406 33.2385 23.7613 33.2385C24.7809 33.2385 25.6084 32.4098 25.6084 31.3917C25.6083 30.3697 24.7809 29.5423 23.7613 29.5423Z" fill="white"/>
</svg>
