<svg width="58" height="48" viewBox="0 0 58 48" fill="none" xmlns="http://www.w3.org/2000/svg">
<g clip-path="url(#clip0_1_2818)">
<path d="M11.1518 41.8765L11.1578 37.9588C13.6142 37.9588 14.5153 37.835 14.9429 40.8476H15.2025V37.495L8.51297 37.4978V37.9588H9.67083V46.5835H8.39441V47.0376H15.2893V43.513H14.9433C14.5997 46.178 13.9249 46.5843 12.03 46.5843H11.1518V42.3937H11.6614C12.511 42.4142 12.9945 42.9105 13.1685 44.3726H13.4816L13.4784 40.041C13.4724 40.049 13.1705 40.041 13.1705 40.041C13.1705 40.0627 13.1095 41.9042 11.6236 41.8765H11.1518Z" fill="#C5281C"/>
<path d="M8.4181 42.0493H4.6443V42.4769H5.9372V45.5787C5.71816 46.3664 4.55789 46.6952 4.21185 46.6952C1.80088 46.6952 1.97369 43.1677 1.97369 42.2237C1.97369 41.3604 1.88729 37.7506 4.21185 37.7506C5.85079 37.7506 6.71205 39.3815 7.05728 40.846H7.31851C7.31851 40.2427 7.32816 37.3716 7.32213 37.3788C7.32816 37.3559 6.20004 38.1882 6.19602 38.175C6.22134 38.1702 5.67998 37.4041 4.21185 37.4041C1.36723 37.4041 0.324712 40.2427 0.331947 42.2233C0.346415 44.0358 1.18115 47.1232 4.21185 47.1232C5.16555 47.1232 5.83632 46.6385 6.19602 46.0883C6.20004 46.0767 7.39688 47.0332 7.40131 47.0368V42.4761H8.4185V42.0493H8.4181Z" fill="#C5281C"/>
<path d="M52.5194 43.513C52.1762 46.178 51.5002 46.5774 49.6056 46.5774H49.4907V37.9548H50.6964V37.4898H46.7321V37.9548H47.9374V46.5774H46.9812L43.459 37.2325H42.9406C42.9518 37.2265 40.0148 45.711 40.0083 45.7363C40.0148 45.711 39.7869 46.4645 39.3042 46.5578C38.8589 46.5795 38.8907 46.3468 38.8907 46.2644V44.6311C38.8907 44.2022 38.8589 43.228 38.412 42.7807C37.9129 42.2772 37.0596 42.2398 37.0793 42.2213C37.0793 42.2213 39.2451 41.774 39.2451 39.7155C39.2451 38.2731 38.2416 37.5561 36.5653 37.4922H31.8052V37.9564H33.0226V46.5799H31.8052V47.038H35.7089V46.5799H34.4919V42.4335H36.1152C38.9321 42.6658 35.6313 47.042 39.3239 47.038H41.6501V46.5778C41.5207 46.5778 40.6683 46.6024 40.6148 46.0088C40.5798 45.5791 41.1759 44.0367 41.1759 44.0367H44.3444C44.3424 44.0306 45.3295 46.5799 45.3383 46.5799H44.2343V47.038H52.8654V43.5134H52.5194V43.513ZM36.0465 41.9492H34.4979V37.9531H36.4785C37.64 38.1288 37.6886 39.4719 37.6886 39.8987C37.6886 40.9328 37.2558 41.9492 36.0465 41.9492ZM41.3913 43.5958L42.7678 39.4719L44.2343 43.5958H41.3913Z" fill="#C5281C"/>
<path d="M27.1112 37.9528C29.5684 37.9528 30.4742 37.835 30.9027 40.8473H31.1623V37.4946H21.4079V37.9528H21.6631C22.0067 37.9528 22.8241 37.9781 22.8716 38.6975H22.8708V44.1991L18.308 37.4946H15.8231V37.9528H16.2355C16.725 37.9528 17.4126 37.9745 17.4432 38.6975V45.7464C17.4432 46.4344 16.4139 46.6952 15.9835 46.6952H15.9782V47.0377H19.3393V46.6952C18.9101 46.6952 17.8724 46.4344 17.8724 45.7464L17.8848 39.5407C19.6906 42.1221 23.101 47.0417 23.132 47.0377H23.3028V38.6975C23.3502 37.9785 24.1665 37.9528 24.5105 37.9528H25.6306V46.5835H24.3542V47.0377H31.2487V43.513H30.9031C30.559 46.178 29.8847 46.5843 27.9885 46.5843H27.1116V42.3937H27.62C28.47 42.4142 28.9543 42.9106 29.1271 44.3727H29.4414L29.4382 40.041C29.4317 40.0491 29.1299 40.041 29.1299 40.041C29.1299 40.0627 29.0688 41.9042 27.5826 41.8765H27.1116V37.9528H27.1112Z" fill="#C5281C"/>
<path d="M57.2016 37.9539V37.489H53.31V37.9539H54.5314L54.5358 46.5726H53.31V47.0376H57.2016V46.5726H55.9782V37.9539H57.2016Z" fill="#C5281C"/>
<path d="M46.9261 31.6048L48.1314 31.1495L48.1491 31.1434C49.8588 30.4349 50.1023 29.9928 50.0215 28.8554V24.2577C51.3225 27.5625 52.5535 29.8859 55.0762 29.8851C55.4194 29.8851 55.7851 29.8429 56.1794 29.7537L57.1632 29.5306L56.4868 28.7843C56.0544 28.3073 55.8442 27.9375 55.6027 27.5095C55.5038 27.3339 55.4001 27.1522 55.2763 26.9513C54.6859 25.9935 53.2821 25.6688 52.1444 26.178C51.6287 25.1536 51.1095 23.8181 50.4841 22.1691L50.3483 21.8556C50.2402 21.6101 50.1321 21.3621 50.0211 21.1137V21.0727H50.0035C49.6164 20.2022 49.2033 19.3281 48.7081 18.5094C48.2604 17.7659 47.8027 17.1253 47.3132 16.5494C45.9977 15.0041 44.2559 14.0439 42.1359 13.6931C40.671 13.4511 39.6345 13.4001 38.3203 13.3358C38.0482 13.3237 37.7637 13.3089 37.4607 13.2924C36.8663 13.2598 35.6381 13.1598 34.4505 13.0609C33.6495 12.9962 32.828 12.9295 32.1822 12.8809C32.2252 12.7 32.2505 12.5115 32.2505 12.3158C32.2505 12.0534 32.2272 11.8199 32.1814 11.6109H40.6103C42.7834 11.6109 44.3564 10.6499 45.2924 8.75861C47.453 8.73972 49.0144 7.75949 49.9375 5.84767H50.2386C52.488 5.84767 54.0964 4.82123 55.0187 2.79647L55.3993 1.96374H26.8361C24.9605 1.96374 23.3621 3.18832 22.7649 5.08206L22.7464 5.14757C22.2609 3.79358 21.3715 2.64415 20.2326 1.96656C18.6483 1.02451 16.8462 0.707817 15.4118 1.12097C14.9372 1.25841 14.4641 1.47222 14.0803 1.72542C13.7512 1.94244 13.289 2.29129 12.9534 2.72051C12.5885 3.18913 12.2356 3.7558 11.9764 4.2859C11.8124 4.42134 11.685 4.55959 11.5966 4.69423L11.2546 5.33445L11.2365 5.37062C10.8274 6.29498 10.3294 6.9348 9.94241 7.38734C9.55699 7.83666 9.5373 8.26267 9.58914 8.54118C9.64581 8.84542 9.80898 9.09459 9.98341 9.28188L9.97416 9.29956C9.86002 9.49569 9.80014 9.72075 9.80014 9.94862C9.80014 10.7022 10.4556 11.2729 11.2622 11.2729C11.849 11.2729 12.3277 10.9988 12.8353 10.6628C13.0414 10.527 13.5868 10.1648 13.7657 10.1452C13.9911 10.1452 14.1973 10.3505 14.1973 10.5752C14.1973 11.1929 13.4007 11.5257 12.8304 11.5671L11.671 11.6916C10.8358 11.7696 10.4392 12.2121 10.4392 12.6076C10.4392 13.0046 10.6305 13.2285 10.7631 13.3611L10.8495 13.4499L11.1437 13.7112L9.91348 15.6929C9.03613 14.8807 8.01009 14.3884 7.1002 14.3602C6.51142 14.3405 6.00302 14.519 5.62926 14.8719C5.52034 14.9743 5.4255 15.0917 5.34472 15.2203H5.32301C4.35042 15.2203 3.56914 15.7404 3.18613 16.3255C2.76896 16.9645 2.91967 18.0697 3.44776 18.9137L0.342712 19.7199V34.564H57.2947V31.6048H46.9261ZM54.2712 27.5694C54.3841 27.7518 54.481 27.9234 54.5762 28.0882C54.6904 28.2924 54.8029 28.4905 54.9363 28.6979C54.0417 28.6416 53.3657 28.1465 52.7384 27.2105C53.3155 27.0079 54.0148 27.1514 54.2712 27.5694ZM41.9446 14.8562C43.7809 15.1584 45.2852 15.9855 46.4145 17.3114C46.6557 17.5963 46.8892 17.8981 47.1174 18.2249C44.0289 17.8194 42.9534 17.3692 41.226 14.7481C41.4563 14.7778 41.6934 14.8136 41.9446 14.8562ZM40.6115 10.4321H34.815C35.3109 9.99605 35.7273 9.43661 36.0625 8.76102H43.9396C43.1997 9.89517 42.1255 10.4321 40.6115 10.4321ZM45.2261 7.58226H39.4296C39.9408 7.13294 40.3684 6.5522 40.7084 5.84727H48.5956C47.8549 7.02603 46.7686 7.58226 45.2261 7.58226ZM45.6196 3.1413H53.473C52.7359 4.17859 51.6894 4.66931 50.2394 4.66931H44.4416C44.9042 4.26299 45.2976 3.75379 45.6196 3.1413ZM13.885 3.44473C14.0695 3.20761 14.3709 2.94517 14.7314 2.70725C15.0131 2.52117 15.3809 2.35559 15.739 2.2515C16.3085 2.08753 16.9627 2.07708 17.6391 2.20729L15.5569 3.49175C15.2969 3.46523 15.0429 3.45116 14.7973 3.45116C14.4432 3.45116 14.1189 3.4797 13.8211 3.52752C13.8428 3.50019 13.8633 3.47126 13.885 3.44473ZM11.4515 12.6413C11.4688 12.5593 11.5351 12.4954 11.6047 12.4966L12.619 12.5296C13.8565 12.4866 15.1164 11.9766 15.2583 10.6889C15.2583 9.81559 14.6394 8.96759 13.7653 8.96759C13.2978 8.96759 12.7722 9.29112 12.1814 9.68136C11.7972 9.93656 11.4929 10.1379 11.2622 10.1379C11.1063 10.1379 10.9809 10.0338 10.9809 9.94862C10.9809 9.93456 10.9829 9.91969 10.9873 9.90562L11.636 9.03792L11.0758 8.66175C10.956 8.58338 10.7707 8.43588 10.7502 8.32617C10.7402 8.27432 10.8149 8.18108 10.839 8.15335C11.0705 7.88247 11.337 7.55211 11.6067 7.1458C11.7714 6.9143 11.8671 6.7865 12.1452 6.7865C12.4189 6.7865 12.6428 7.00634 12.6428 7.27521C12.6428 7.45405 12.8389 7.59512 13.0824 7.59512C13.326 7.59512 13.4345 7.4223 13.5848 7.27521C13.5848 7.27521 14.1639 6.74551 13.8577 6.49472C13.5084 6.20857 12.1082 6.79253 12.4977 5.50726L12.5945 5.3236C12.7436 5.12546 13.414 4.62992 14.7973 4.62992C15.0586 4.62992 15.3355 4.64841 15.6188 4.68378L15.8258 4.7103L18.7624 2.89896C18.7882 2.96045 18.7966 3.00506 18.7966 3.00506L18.7994 3.02274C18.9525 3.91174 18.3923 4.96953 17.4961 5.48355L17.138 5.68852L17.3695 7.01317C16.6151 7.24426 16.0898 7.84831 16.0898 8.57655C16.0898 8.82572 16.1481 9.12273 16.2216 9.49769C16.3028 9.91486 16.3953 10.3859 16.4202 10.8649C16.4202 12.2443 14.5188 13.1554 12.9092 13.1027L12.8678 13.1015C12.8015 13.0995 11.7771 13.0179 11.5259 12.821C11.4769 12.7844 11.4379 12.7032 11.4515 12.6413ZM4.17399 16.9694C4.40709 16.6141 4.93719 16.3082 5.60193 16.424L6.1051 16.5116L6.26265 16.0269C6.30565 15.8967 6.36272 15.801 6.44109 15.7263C6.58296 15.5933 6.79355 15.5306 7.06242 15.537C7.77297 15.5603 8.66237 16.0546 9.38498 16.8299C9.64782 17.112 9.88052 17.4384 10.0883 17.7695C10.1285 17.8387 10.1747 17.9134 10.2169 17.9793C10.2748 18.0714 10.3238 18.1469 10.3335 18.1646C10.3588 18.2096 10.7161 18.7465 10.6915 18.7803C10.9363 18.4383 11.1803 18.0951 11.4246 17.7522C11.4318 17.7426 11.421 17.7104 11.4005 17.6666C11.3454 17.5489 11.2156 17.3451 11.1385 17.2242L11.0826 17.1357C11.0814 17.1337 11.0794 17.1305 11.0786 17.1285C11.0705 17.116 11.0384 17.065 10.995 16.9979C10.9134 16.8709 10.7964 16.686 10.7446 16.5851L12.2831 14.1267C12.6669 14.2063 12.9936 14.2188 13.1495 14.2188H13.1877C15.3564 14.2188 17.5989 12.9685 17.5989 10.8746V10.8227C17.572 10.2533 17.4655 9.70909 17.3795 9.27223C17.3236 8.98367 17.2698 8.71239 17.2698 8.57695C17.2698 8.34747 17.5929 8.09226 18.0551 8.09226H18.7564L18.4381 6.27529C19.4264 5.54906 20.032 4.36588 20.0019 3.23575C21.0645 4.05079 21.8148 5.46547 21.9519 6.97017C21.9929 7.40663 21.9065 8.01791 21.7646 8.66054L21.6894 8.92941L21.7019 8.93343C21.4499 9.98238 21.0794 11.0611 20.8836 11.5727L20.7024 12.0453L21.1441 12.2953C21.9346 12.7434 22.4217 13.0714 22.4217 14.1131C22.4217 15.3083 21.3458 16.2238 20.3061 16.4179L18.8854 16.684L20.0875 17.4866C20.4729 17.7442 20.7024 18.163 20.7024 18.6075C20.7024 19.3578 20.065 19.9683 19.2797 19.9683H18.8263L18.6989 20.3843C18.2572 21.8218 17.7786 22.524 16.2369 22.6739C16.3089 22.2374 16.3579 21.8174 16.3579 21.2234C16.3579 21.0836 16.3458 20.6925 16.3402 20.5667L16.2715 19.2276L15.3294 20.1837C15.0095 20.5093 14.442 20.7665 13.8203 20.8886V19.7207L7.08131 17.9717L4.68319 18.5942C4.14827 18.0585 4.04056 17.1743 4.17399 16.9694ZM2.23605 31.6048L7.08131 30.3441L11.9254 31.6048H2.23605ZM12.6383 30.5723L7.08091 29.1259L1.52228 30.5723V20.631L7.08091 19.1886L12.6383 20.631V30.5723ZM15.2249 28.6396C14.7226 29.361 14.6619 30.3565 15.0397 31.6048H13.8199V22.0827C14.2564 22.0164 14.7266 21.8906 15.1643 21.6912C15.1393 22.1064 15.0827 22.4343 15.0051 22.8736C14.9878 22.9757 14.9689 23.0818 14.9492 23.1951L14.8327 23.8824H15.5312C16.5749 23.8824 17.3534 23.7192 17.9518 23.4101V27.3853C17.9518 27.4874 17.8726 27.5698 17.7758 27.5698H17.5977C16.5625 27.5702 15.6968 27.9596 15.2249 28.6396ZM28.0302 28.8944C27.6034 29.3843 27.1882 30.2368 27.4571 31.6044H20.2398C21.0151 31.5281 21.5781 31.3464 21.9684 30.9425C22.4402 30.4506 22.4824 29.7786 22.4667 29.2987C22.4824 29.2569 22.5604 29.0946 22.9144 28.935L23.5362 28.6513L23.1636 28.0774C22.5463 27.1297 22.8148 25.0579 23.0547 23.9326H23.1105C25.5573 23.9326 27.1416 23.4242 28.8102 22.8873C29.2455 22.7474 29.6956 22.6031 30.1695 22.4645L30.1835 22.4593C30.1936 22.4568 30.6807 22.3017 31.3458 22.1466L33.6989 26.0245L33.7198 26.0566C33.9541 26.3914 33.9843 26.6121 33.557 27.1096L32.3775 28.382L30.4448 28.0227L30.4271 28.0199C29.5534 27.8861 28.6125 28.2293 28.0302 28.8944ZM28.6664 31.6048C28.4538 30.7709 28.5402 30.1049 28.9208 29.6701C29.2845 29.2533 29.8423 29.1263 30.2386 29.1834L32.4796 29.5994L32.5358 29.609H32.8477L34.4304 27.9017L34.4456 27.8861C34.7165 27.5714 35.5384 26.6165 34.6984 25.3991L32.5824 21.9107C32.9325 21.8612 33.2842 21.8303 33.6097 21.8303L33.6246 21.8295C33.6346 21.8303 34.696 21.8142 35.8326 22.4757C35.9873 22.8065 36.2011 23.2409 36.439 23.7244C36.8831 24.6255 37.4374 25.746 37.5909 26.1993C37.6403 26.3416 37.7906 26.7744 37.2593 27.3226L33.203 31.6048H28.6664ZM42.494 31.6048H34.827L38.1133 28.1373C38.7769 27.4516 38.9883 26.6273 38.7094 25.8179C38.5494 25.3509 38.115 24.4555 37.664 23.5388C38.9682 24.144 40.9447 24.6894 44.9689 25.0133C45.4536 25.0539 45.581 25.2187 45.677 25.6588L45.8539 27.3954L43.7511 27.8644C43.047 28.0038 42.4932 28.4668 42.2328 29.138C41.9446 29.8779 42.0431 30.7492 42.494 31.6048ZM43.3336 29.5648C43.4489 29.2674 43.674 29.0789 43.9851 29.0194L47.1331 28.3169L46.8486 25.5088L46.8393 25.4482C46.7618 25.08 46.527 23.9595 45.0649 23.8398C39.4368 23.3852 38.1314 22.5505 36.7638 21.6671C36.7618 21.6635 36.7594 21.6587 36.7582 21.6551L36.7497 21.6591L36.6613 21.6008C35.2004 20.6559 33.7483 20.6479 33.6057 20.6523C32.0114 20.6531 29.9934 21.2841 29.8295 21.336C29.3428 21.4786 28.8874 21.6253 28.4469 21.7668C26.6846 22.3327 25.1618 22.8242 22.6046 22.7478L22.138 22.7338L22.0166 23.1855C21.925 23.5323 21.2096 26.3593 21.9 28.1758C21.2803 28.6633 21.2803 29.2276 21.2843 29.3032C21.3101 29.9245 21.163 30.0776 21.1147 30.1274C20.8193 30.4337 19.8391 30.4739 19.0132 30.4739H19.0032H18.7025L18.5257 30.717C18.0161 31.4175 16.9177 31.5811 16.2132 31.4027C15.9029 30.4606 15.8949 29.7404 16.1935 29.3108C16.5456 28.8036 17.2931 28.7489 17.5969 28.7489H17.775C18.5221 28.7489 19.131 28.1377 19.131 27.3857V22.3246C19.358 21.9734 19.5413 21.5679 19.7009 21.1117C20.9351 20.9144 21.8811 19.8662 21.8811 18.6071C21.8811 18.1232 21.7389 17.6562 21.4817 17.2567C22.6222 16.7073 23.5993 15.584 23.5993 14.1127C23.5993 12.6409 22.8594 11.9657 22.156 11.5245C22.3542 10.9594 22.6809 9.9655 22.9036 8.96558L23.8918 5.42608C24.3335 4.03793 25.4878 3.1417 26.8349 3.1417H44.2411C43.504 4.179 42.4578 4.66971 41.0074 4.66971H30.4765L29.9263 5.84767H39.3657C38.6238 7.02684 37.5386 7.58266 35.9962 7.58266H29.1519L28.6017 8.76142H34.7085C33.9686 9.89638 32.8955 10.4325 31.382 10.4325H27.6508L27.1002 11.6109H31.0118C31.0472 11.6591 31.1449 11.8383 31.1449 12.3158C31.1449 13.073 30.5095 13.6891 29.7262 13.6891C29.4577 13.6891 29.229 13.6264 28.8251 13.4628C28.6523 13.3897 28.4803 13.3165 28.3075 13.2438L27.3996 14.058C27.5692 14.13 27.7396 14.2019 27.9096 14.2738V14.2746C28.6953 14.6146 29.1326 14.7927 29.7266 14.7927C30.4472 14.7927 31.0966 14.4941 31.5572 14.0186C32.2272 14.0616 33.3083 14.1504 34.3556 14.2357C35.6059 14.3389 36.7879 14.4366 37.3992 14.4684C37.7042 14.4848 37.9904 14.4993 38.2649 14.5122C38.7837 14.5383 39.2596 14.562 39.7342 14.5958C42.109 18.4532 43.3263 18.9603 47.9281 19.5113C48.2596 20.1054 48.5574 20.7331 48.8424 21.3649V28.8759L48.8444 28.9189C48.8697 29.2642 48.8697 29.3807 48.8227 29.4438C48.6623 29.6532 47.9518 29.9494 47.7058 30.0515L43.8283 31.5136C43.3139 30.8171 43.1282 30.0897 43.3336 29.5648Z" fill="#C5281C"/>
<path d="M11.407 22.1578L7.69311 21.1937V22.411L11.407 23.3756V22.1578Z" fill="#C5281C"/>
<path d="M2.75378 23.3752L6.4677 22.4106V21.1929L2.75378 22.1578V23.3752Z" fill="#C5281C"/>
<path d="M2.75378 25.8215L6.4677 24.8578V23.64L2.75378 24.6038V25.8215Z" fill="#C5281C"/>
<path d="M11.407 24.6038L7.69311 23.64V24.8578L11.407 25.8215V24.6038Z" fill="#C5281C"/>
<path d="M11.407 27.0517L7.69311 26.0864V27.3041L11.407 28.2687V27.0517Z" fill="#C5281C"/>
<path d="M2.75378 28.2687L6.4677 27.3041V26.0864L2.75378 27.0517V28.2687Z" fill="#C5281C"/>
</g>
<defs>
<clipPath id="clip0_1_2818">
<rect width="57.3128" height="46.1801" fill="white" transform="translate(0.33194 0.943115)"/>
</clipPath>
</defs>
</svg>
