<svg width="149" height="44" viewBox="0 0 149 44" fill="none" xmlns="http://www.w3.org/2000/svg">
<g clip-path="url(#clip0_1_2811)">
<path d="M148.569 0.237H0.132568V43.5308H148.569V0.237Z" fill="#005CA8"/>
<path fill-rule="evenodd" clip-rule="evenodd" d="M36.7816 15.3598C31.2946 8.03645 20.0237 7.41918 15.7338 17.1417C14.4214 20.7505 14.9703 24.3776 16.6663 27.3133C19.452 31.7289 24.7472 34.7909 30.2658 33.3154C28.5397 32.546 27.0744 31.9207 25.8958 30.9691C23.7317 31.2652 21.2164 30.7266 19.3543 29.3701C16.8581 25.3858 16.9778 21.2708 19.6063 16.7773C24.1902 10.7443 31.1785 9.75596 36.7816 15.3598Z" fill="white"/>
<path fill-rule="evenodd" clip-rule="evenodd" d="M10.1771 30.8978C9.6759 31.8773 9.17474 32.693 8.67358 33.6725C13.6631 33.6725 18.5358 33.6725 23.5245 33.6725C21.841 33.0523 20.3038 32.2579 18.8076 30.8978C15.8918 30.8978 13.0929 30.8978 10.1771 30.8978Z" fill="white"/>
<path fill-rule="evenodd" clip-rule="evenodd" d="M26.2 12.7709C21.9563 16.0799 22.5692 22.7286 28.1708 27.4551C31.119 30.1181 36.5707 30.5208 46.6658 30.3915C47.2809 31.5532 47.8525 32.74 48.4676 33.9018C37.8816 34.048 28.3112 34.2515 23.1358 27.2956C20.2883 23.6964 19.4682 20.1523 20.6623 16.5531C22.6677 14.2715 24.3247 13.3228 26.2 12.7709Z" fill="white"/>
<path fill-rule="evenodd" clip-rule="evenodd" d="M33.76 13.7115C36.9286 18.1749 37.0175 23.2371 31.8876 28.6521C33.3896 29.1033 34.777 29.3112 36.3032 29.4369C40.9863 22.6147 39.0111 17.368 33.76 13.7115Z" fill="white"/>
<path fill-rule="evenodd" clip-rule="evenodd" d="M127.769 26.7453L130.601 19.9804L133.341 26.7453H127.769ZM121.227 33.3925H124.988L126.473 29.8455H134.597L136.034 33.3925H139.92L131.881 14.5074H129.474L121.227 33.3925ZM112.438 27.6329L114.745 25.3256L116.895 27.4757C117.484 26.4425 117.823 25.2366 117.823 23.95C117.823 20.1501 114.87 17.0506 111.249 17.0506C107.629 17.0506 104.676 20.1501 104.676 23.95C104.676 27.7498 107.63 30.8486 111.249 30.8486C112.493 30.8486 113.66 30.4826 114.654 29.8477L112.438 27.6329ZM111.263 13.9518C116.834 13.9518 121.087 18.4431 121.087 23.95C121.087 26.1919 120.624 28.2656 119.356 29.9359L120.971 31.5511L118.664 33.8577L116.989 32.183C115.359 33.2956 113.386 33.9473 111.263 33.9473C105.691 33.9473 101.147 29.456 101.147 23.95C101.148 18.4431 105.691 13.9518 111.263 13.9518ZM94.6893 14.5066H98.2789V33.3918H94.6893V14.5066ZM74.9723 14.5066H76.8527L87.1506 26.2992V14.5066H90.6109V33.3918H88.6894L78.4767 21.6845V33.3918H74.973V14.5066H74.9723ZM54.5292 14.5066H58.0755V24.9324C58.0755 27.3868 59.3284 30.551 62.7329 30.5296C66.1366 30.5091 67.6467 27.5786 67.6467 25.1882V14.5066H71.193V25.6158C71.193 29.5435 68.4697 33.8246 62.7329 33.8188C56.9953 33.8136 54.5285 29.1893 54.5285 25.2308V14.5066H54.5292Z" fill="white"/>
</g>
<defs>
<clipPath id="clip0_1_2811">
<rect width="148.436" height="43.2938" fill="white" transform="translate(0.132568 0.237)"/>
</clipPath>
</defs>
</svg>
