<svg width="52" height="52" viewBox="0 0 52 52" fill="none" xmlns="http://www.w3.org/2000/svg">
<path fill-rule="evenodd" clip-rule="evenodd" d="M26 12.7544C16.4667 3.1855 1.08333 11.7168 1.08333 24.9288C1.08333 35.6403 9.18056 47.0998 18.85 50.1481C20.1292 50.5514 21.4549 50.081 22.8169 49.5976C23.8582 49.2281 24.9207 48.8511 26 48.8511V12.7544Z" fill="#F4910F"/>
<path d="M33.4602 50.7269C43.6588 47.6791 50.9167 36.3372 50.9167 25.782C50.9167 19.094 47.0968 13.58 41.9875 10.9501C37.0944 8.43155 31 8.55599 26 12.7859C21 8.556 14.9056 8.43155 10.0125 10.9501C4.90324 13.58 1.08334 19.094 1.08334 25.782C1.08334 36.3372 8.34122 47.6791 18.5398 50.7269C20.0288 51.1719 21.4953 50.7435 22.675 50.3564C22.8475 50.2998 23.0151 50.2438 23.1783 50.1892C24.2353 49.8358 25.1116 49.5427 26 49.5427C26.8884 49.5427 27.7648 49.8358 28.8217 50.1892C28.9849 50.2438 29.1525 50.2998 29.325 50.3564C30.5047 50.7435 31.9713 51.1719 33.4602 50.7269Z" stroke="#6A0098" stroke-width="2.16667" stroke-linejoin="round"/>
<path fill-rule="evenodd" clip-rule="evenodd" d="M39.7224 21.6667H33.9446V27.4446L28.1667 27.4446L28.1667 33.2224H33.9446V39.0001H39.7224V33.2224H45.5V27.4446L39.7224 27.4446V21.6667Z" fill="#F4910F"/>
<path d="M22.4968 23.1991C22.0732 22.7133 21.5704 22.3279 21.0169 22.065C20.4634 21.8021 19.8702 21.6667 19.2711 21.6667C18.672 21.6667 18.0788 21.8021 17.5253 22.065C16.9718 22.3279 16.469 22.7133 16.0454 23.1991L15.1664 24.2069L14.2875 23.1991C13.432 22.2183 12.2717 21.6673 11.0618 21.6673C9.85193 21.6673 8.69162 22.2183 7.83612 23.1991C6.98062 24.18 6.5 25.5103 6.5 26.8974C6.5 28.2846 6.98062 29.6149 7.83612 30.5957L8.71509 31.6035L15.1664 39.0001L21.6178 31.6035L22.4968 30.5957C22.9205 30.1101 23.2566 29.5336 23.486 28.899C23.7153 28.2645 23.8333 27.5843 23.8333 26.8974C23.8333 26.2106 23.7153 25.5304 23.486 24.8958C23.2566 24.2613 22.9205 23.6847 22.4968 23.1991Z" fill="white"/>
</svg>
