<svg width="60" height="36" viewBox="0 0 60 36" fill="none" xmlns="http://www.w3.org/2000/svg">
<rect width="60" height="36" rx="4" fill="white"/>
<path fill-rule="evenodd" clip-rule="evenodd" d="M47.7895 29.0901H48.516V33.8251H47.7895V33.4173L47.5856 33.6212L47.3503 33.7791L47.0488 33.8737L46.7184 33.9053L46.3711 33.8737L46.0581 33.7791L45.7566 33.6212L45.5212 33.4173L45.3175 33.1503L45.1595 32.8514L45.0648 32.5042L45.0332 32.1422L45.0648 31.766L45.1595 31.4187L45.3175 31.1199L45.5212 30.8674L45.7566 30.649L46.0581 30.491L46.3711 30.3965L46.7184 30.3649L47.0488 30.3965L47.3503 30.491L47.5856 30.649L47.7895 30.8528V29.0901ZM25.8365 29.4201H26.5774V30.4424H27.792V31.1201H26.5774V32.6449L26.5917 32.8344L26.6406 32.9923L26.7353 33.1014L26.876 33.1818L27.0655 33.2134L27.2694 33.1962L27.4905 33.1187L27.7116 33.0239L27.9327 33.6528L27.7289 33.7617L27.5078 33.8423L27.2551 33.8881L27.0196 33.9053L26.7181 33.8881L26.4683 33.8249L26.2615 33.716L26.1036 33.5752L25.9772 33.4001L25.8997 33.1818L25.8509 32.9435L25.8365 32.6621V31.1199H25.1588V30.4422H25.8365V29.4201ZM13.15 30.3651L13.4487 30.3966L13.7014 30.474L13.9225 30.586L14.112 30.7583L14.2671 30.9619L14.4738 30.7267L14.6949 30.5544L14.9447 30.4424L15.1974 30.3792L15.4674 30.3651L15.7976 30.3966L16.0819 30.4912L16.3317 30.6491L16.5212 30.853L16.6648 31.0883L16.7596 31.3871L16.7912 31.7028V33.8249H16.0503V31.9528L16.0187 31.6856L15.9699 31.4645L15.8608 31.2924L15.7172 31.166L15.5305 31.0885L15.3094 31.0569L15.0711 31.0885L14.8672 31.1517L14.7093 31.278L14.5829 31.4647L14.5054 31.6858L14.4738 31.953V33.8251H13.733V31.953L13.7157 31.6858L13.6526 31.4647L13.5434 31.2926L13.4027 31.1662L13.2276 31.0887L12.9921 31.0571L12.7566 31.0887L12.5671 31.1519L12.3919 31.2782L12.2656 31.4649L12.1881 31.686L12.1708 31.9532V33.8253H11.4328V30.4426H12.1565V30.8678L12.3288 30.6639L12.5183 30.5232L12.725 30.4284L12.9433 30.3796L13.15 30.3651ZM19.1372 30.3651L19.4703 30.3966L19.7517 30.4912L20.0044 30.6491L20.1939 30.853V30.4422H20.9348V33.8249H20.1939V33.4171L20.0044 33.621L19.7517 33.7789L19.4703 33.8735L19.1372 33.9051L18.7926 33.8735L18.4595 33.7789L18.1781 33.621L17.9254 33.4171L17.7187 33.1501L17.578 32.8512L17.4688 32.504L17.4372 32.142L17.4688 31.7658L17.578 31.4185L17.7187 31.1197L17.9254 30.8672L18.1781 30.6488L18.4595 30.4908L18.7926 30.3963L19.1372 30.3651ZM23.189 30.3651L23.5824 30.3792L23.9442 30.4596L24.2773 30.5687L24.5759 30.7094L24.26 31.3096L24.0562 31.2148L23.8035 31.1201L23.5192 31.0427L23.2033 31.0253L22.9851 31.0427L22.7956 31.0885L22.6692 31.166L22.5888 31.278L22.5572 31.4187L22.5888 31.5276L22.6692 31.6224L22.7956 31.6712L22.9535 31.7172L23.1258 31.7488L23.4732 31.7976L23.8178 31.8751L24.1021 31.9699L24.3404 32.1278L24.5127 32.2999L24.6219 32.5354L24.6534 32.8024L24.6219 33.0697L24.5271 33.3049L24.3548 33.5117L24.1337 33.684L23.8494 33.8103L23.5048 33.8877L23.1086 33.9049L22.7151 33.8877L22.3217 33.7929L21.9743 33.6668L21.6441 33.4629L21.9915 32.8972L22.2126 33.0379L22.4625 33.1499L22.764 33.2272L23.1258 33.2588L23.3928 33.2272L23.6139 33.1815L23.7719 33.1011L23.8666 32.9919L23.8982 32.8512L23.8494 32.7077L23.7403 32.6129L23.568 32.5356L23.2981 32.4896L22.9535 32.4408L22.606 32.3633L22.3074 32.2513L22.0863 32.1106L21.9111 31.9212L21.8164 31.7028L21.7848 31.4503L21.8164 31.166L21.9111 30.9306L22.0691 30.7412L22.2758 30.586L22.5429 30.4596L22.8415 30.3966L23.189 30.3651ZM30.0749 30.3651L30.4712 30.4108L30.8014 30.5372L31.1001 30.7267L31.3528 30.9937L31.5251 31.3241L31.637 31.703L31.6828 32.1423L31.6686 32.4266H29.1618L29.2422 32.6939L29.3657 32.8976L29.5236 33.0555L29.7131 33.1646L29.9342 33.2276L30.1697 33.245L30.5169 33.1962L30.8474 33.0871L31.1489 32.8976L31.5107 33.4317L31.1948 33.6528L30.8476 33.8107L30.503 33.8881L30.1239 33.9053L29.7621 33.8737L29.429 33.7791L29.1304 33.6384L28.8777 33.4317L28.6738 33.1646L28.5159 32.8658L28.4211 32.5212L28.3895 32.1422L28.4383 31.7028L28.5475 31.324L28.737 30.9935L29.004 30.7265L29.3027 30.537L29.6674 30.4106L30.0749 30.3651ZM34.0635 30.3651L34.2214 30.3792L34.4108 30.3966L34.5831 30.4596L34.362 31.1517L34.1267 31.0885L33.8912 31.0569L33.6703 31.0885L33.4951 31.166L33.3544 31.2924L33.2597 31.4645L33.1965 31.6712L33.1821 31.9385V33.8249H32.4415V30.4422H33.1649V30.853L33.2912 30.6951L33.4492 30.5544L33.6213 30.4596L33.828 30.3792L34.0635 30.3651ZM36.6019 30.3651L36.964 30.3792L37.2626 30.4596L37.5469 30.586L37.831 30.7728L37.4665 31.3557L37.1849 31.1978L36.9008 31.0887L36.5849 31.0571L36.3006 31.0887L36.0653 31.1978L35.8615 31.3557L35.7035 31.5767L35.609 31.8267L35.56 32.1423L35.609 32.4412L35.7035 32.7082L35.8615 32.9121L36.0653 33.0701L36.3006 33.182L36.5849 33.2136L36.9008 33.182L37.1849 33.0873L37.4665 32.9121L37.831 33.5123L37.5469 33.6846L37.2626 33.8109L36.964 33.8882L36.6019 33.9055L36.2231 33.8739L35.8611 33.7793L35.5596 33.6214L35.2925 33.4003L35.0886 33.1505L34.9309 32.8516L34.8361 32.5044L34.8045 32.1423L34.8361 31.7662L34.9309 31.4359L35.0886 31.1201L35.2925 30.8676L35.5596 30.6491L35.8611 30.4912L36.2231 30.3966L36.6019 30.3651ZM39.8956 30.3651L40.2258 30.3966L40.5101 30.4912L40.7628 30.6491L40.9495 30.853V30.4422H41.6903V33.8249H40.9495V33.4171L40.7628 33.621L40.5101 33.7789L40.2258 33.8735L39.8956 33.9051L39.5483 33.8735L39.2179 33.7789L38.9336 33.621L38.6811 33.4171L38.4773 33.1501L38.3337 32.8512L38.2248 32.504L38.1932 32.142L38.2248 31.7658L38.3337 31.4185L38.4773 31.1197L38.6811 30.8672L38.9336 30.6488L39.2179 30.4908L39.5483 30.3963L39.8956 30.3651ZM44.2776 30.3651L44.4499 30.3792L44.6394 30.3966L44.8115 30.4596L44.5762 31.1517L44.3551 31.0885L44.1198 31.0569L43.8987 31.0885L43.7236 31.166L43.5829 31.2924L43.4739 31.4645L43.4251 31.6712L43.3935 31.9385V33.8249H42.6699V30.4422H43.3935V30.853L43.5197 30.6951L43.6604 30.5544L43.8356 30.4596L44.0394 30.3792L44.2776 30.3651ZM30.0606 31.0253L29.8251 31.0427L29.6183 31.1201L29.4461 31.2464L29.3197 31.4187L29.2249 31.608L29.1618 31.8435H30.9105L30.8474 31.5592L30.721 31.324L30.5487 31.1517L30.3278 31.0569L30.0606 31.0253ZM19.2176 31.0569L18.919 31.0885L18.6806 31.1976L18.4767 31.3728L18.3188 31.591L18.2241 31.8437L18.1925 32.1423L18.2241 32.4266L18.3188 32.6765L18.4767 32.8976L18.6806 33.0699L18.919 33.1818L19.2176 33.2134L19.5162 33.1818L19.7517 33.0699L19.9585 32.9119L20.1164 32.6937L20.2112 32.4264L20.2427 32.1422L20.2112 31.8435L20.1164 31.5763L19.9585 31.3726L19.7517 31.1974L19.5162 31.0883L19.2176 31.0569ZM39.9731 31.0569L39.6889 31.0885L39.439 31.1976L39.2323 31.3728L39.0743 31.591L38.9796 31.8437L38.948 32.1423L38.9796 32.4266L39.0743 32.6765L39.2323 32.8976L39.439 33.0699L39.6889 33.1818L39.9731 33.2134L40.2718 33.1818L40.5101 33.0699L40.714 32.9119L40.8717 32.6937L40.9665 32.4264L40.9981 32.1422L40.9665 31.8435L40.8717 31.5763L40.714 31.3726L40.5101 31.1974L40.2718 31.0883L39.9731 31.0569ZM46.8132 31.0569L46.5145 31.0885L46.2618 31.1976L46.0581 31.3728L45.9002 31.591L45.8198 31.8437L45.7882 32.1423L45.8198 32.4266L45.9002 32.6765L46.0581 32.8976L46.2618 33.0699L46.5145 33.1818L46.8132 33.2134L47.0974 33.1818L47.3501 33.0699L47.5395 32.9119L47.6974 32.6937L47.7893 32.4264L47.8209 32.1422L47.7893 31.8435L47.6974 31.5763L47.5395 31.3726L47.3501 31.1974L47.0974 31.0883L46.8132 31.0569ZM49.745 33.3369H49.8082L49.8857 33.3541L49.9345 33.3857L49.9803 33.4317L50.0293 33.4805L50.0607 33.5437L50.075 33.6068L50.0923 33.6671L50.075 33.7301L50.0607 33.7933L50.0293 33.8565L49.9803 33.9053L49.9345 33.9512L49.8857 33.9828L49.8082 34H49.745H49.6818L49.6187 33.9828L49.5555 33.9512L49.5096 33.9053L49.4607 33.8565L49.4291 33.7933L49.4148 33.7301L49.3976 33.6671L49.4148 33.6068L49.4291 33.5437L49.4607 33.4805L49.5096 33.4317L49.5555 33.3857L49.6187 33.3541L49.6818 33.3369H49.745ZM49.745 33.4173H49.6991L49.6503 33.4317L49.6043 33.4489L49.5555 33.4805L49.5239 33.5264L49.5096 33.5752L49.4923 33.6212L49.478 33.6671L49.4923 33.716L49.5096 33.7791L49.5239 33.8107L49.5555 33.8565L49.6043 33.8881L49.6503 33.9053L49.6991 33.9196L49.745 33.9369L49.791 33.9196L49.8541 33.9053L49.8857 33.8881L49.9345 33.8565L49.9661 33.8107L49.9803 33.7791L49.9977 33.716L50.0119 33.6671L49.9977 33.6212L49.9803 33.5752L49.9661 33.5264L49.9345 33.4805L49.8857 33.4489L49.8541 33.4317L49.791 33.4173H49.745ZM49.6187 33.5121H49.7622L49.8225 33.5264L49.8541 33.5437L49.8857 33.5752V33.6068V33.6528L49.8714 33.6844L49.8398 33.6987H49.791L49.9029 33.8249H49.8082L49.7134 33.716H49.6818V33.8249H49.6187V33.5121ZM49.6818 33.5752V33.6528H49.7622H49.791H49.8082L49.8225 33.6384V33.6068V33.5896H49.8082L49.791 33.5752H49.7622H49.6818Z" fill="black"/>
<path d="M47.7895 29.0901H48.516V33.8251H47.7895V33.4173L47.5856 33.6212L47.3503 33.7791L47.0488 33.8737L46.7184 33.9053L46.3711 33.8737L46.0581 33.7791L45.7566 33.6212L45.5212 33.4173L45.3175 33.1503L45.1595 32.8514L45.0648 32.5042L45.0332 32.1422L45.0648 31.766L45.1595 31.4187L45.3175 31.1199L45.5212 30.8674L45.7566 30.649L46.0581 30.491L46.3711 30.3965L46.7184 30.3649L47.0488 30.3965L47.3503 30.491L47.5856 30.649L47.7895 30.8528V29.0901ZM25.8365 29.4201H26.5774V30.4424H27.792V31.1201H26.5774V32.6449L26.5917 32.8344L26.6406 32.9923L26.7353 33.1014L26.876 33.1818L27.0655 33.2134L27.2694 33.1962L27.4905 33.1187L27.7116 33.0239L27.9327 33.6528L27.7289 33.7617L27.5078 33.8423L27.2551 33.8881L27.0196 33.9053L26.7181 33.8881L26.4683 33.8249L26.2615 33.716L26.1036 33.5752L25.9772 33.4001L25.8997 33.1818L25.8509 32.9435L25.8365 32.6621V31.1199H25.1588V30.4422H25.8365V29.4201ZM13.15 30.3651L13.4487 30.3966L13.7014 30.474L13.9225 30.586L14.112 30.7583L14.2671 30.9619L14.4738 30.7267L14.6949 30.5544L14.9447 30.4424L15.1974 30.3792L15.4674 30.3651L15.7976 30.3966L16.0819 30.4912L16.3317 30.6491L16.5212 30.853L16.6648 31.0883L16.7596 31.3871L16.7912 31.7028V33.8249H16.0503V31.9528L16.0187 31.6856L15.9699 31.4645L15.8608 31.2924L15.7172 31.166L15.5305 31.0885L15.3094 31.0569L15.0711 31.0885L14.8672 31.1517L14.7093 31.278L14.5829 31.4647L14.5054 31.6858L14.4738 31.953V33.8251H13.733V31.953L13.7157 31.6858L13.6526 31.4647L13.5434 31.2926L13.4027 31.1662L13.2276 31.0887L12.9921 31.0571L12.7566 31.0887L12.5671 31.1519L12.3919 31.2782L12.2656 31.4649L12.1881 31.686L12.1708 31.9532V33.8253H11.4328V30.4426H12.1565V30.8678L12.3288 30.6639L12.5183 30.5232L12.725 30.4284L12.9433 30.3796L13.15 30.3651ZM19.1372 30.3651L19.4703 30.3966L19.7517 30.4912L20.0044 30.6491L20.1939 30.853V30.4422H20.9348V33.8249H20.1939V33.4171L20.0044 33.621L19.7517 33.7789L19.4703 33.8735L19.1372 33.9051L18.7926 33.8735L18.4595 33.7789L18.1781 33.621L17.9254 33.4171L17.7187 33.1501L17.578 32.8512L17.4688 32.504L17.4372 32.142L17.4688 31.7658L17.578 31.4185L17.7187 31.1197L17.9254 30.8672L18.1781 30.6488L18.4595 30.4908L18.7926 30.3963L19.1372 30.3651ZM23.189 30.3651L23.5824 30.3792L23.9442 30.4596L24.2773 30.5687L24.5759 30.7094L24.26 31.3096L24.0562 31.2148L23.8035 31.1201L23.5192 31.0427L23.2033 31.0253L22.9851 31.0427L22.7956 31.0885L22.6692 31.166L22.5888 31.278L22.5572 31.4187L22.5888 31.5276L22.6692 31.6224L22.7956 31.6712L22.9535 31.7172L23.1258 31.7488L23.4732 31.7976L23.8178 31.8751L24.1021 31.9699L24.3404 32.1278L24.5127 32.2999L24.6219 32.5354L24.6534 32.8024L24.6219 33.0697L24.5271 33.3049L24.3548 33.5117L24.1337 33.684L23.8494 33.8103L23.5048 33.8877L23.1086 33.9049L22.7151 33.8877L22.3217 33.7929L21.9743 33.6668L21.6441 33.4629L21.9915 32.8972L22.2126 33.0379L22.4625 33.1499L22.764 33.2272L23.1258 33.2588L23.3928 33.2272L23.6139 33.1815L23.7719 33.1011L23.8666 32.9919L23.8982 32.8512L23.8494 32.7077L23.7403 32.6129L23.568 32.5356L23.2981 32.4896L22.9535 32.4408L22.606 32.3633L22.3074 32.2513L22.0863 32.1106L21.9111 31.9212L21.8164 31.7028L21.7848 31.4503L21.8164 31.166L21.9111 30.9306L22.0691 30.7412L22.2758 30.586L22.5429 30.4596L22.8415 30.3966L23.189 30.3651ZM30.0749 30.3651L30.4712 30.4108L30.8014 30.5372L31.1001 30.7267L31.3528 30.9937L31.5251 31.3241L31.637 31.703L31.6828 32.1423L31.6686 32.4266H29.1618L29.2422 32.6939L29.3657 32.8976L29.5236 33.0555L29.7131 33.1646L29.9342 33.2276L30.1697 33.245L30.5169 33.1962L30.8474 33.0871L31.1489 32.8976L31.5107 33.4317L31.1948 33.6528L30.8476 33.8107L30.503 33.8881L30.1239 33.9053L29.7621 33.8737L29.429 33.7791L29.1304 33.6384L28.8777 33.4317L28.6738 33.1646L28.5159 32.8658L28.4211 32.5212L28.3895 32.1422L28.4383 31.7028L28.5475 31.324L28.737 30.9935L29.004 30.7265L29.3027 30.537L29.6674 30.4106L30.0749 30.3651ZM34.0635 30.3651L34.2214 30.3792L34.4108 30.3966L34.5831 30.4596L34.362 31.1517L34.1267 31.0885L33.8912 31.0569L33.6703 31.0885L33.4951 31.166L33.3544 31.2924L33.2597 31.4645L33.1965 31.6712L33.1821 31.9385V33.8249H32.4415V30.4422H33.1649V30.853L33.2912 30.6951L33.4492 30.5544L33.6213 30.4596L33.828 30.3792L34.0635 30.3651ZM36.6019 30.3651L36.964 30.3792L37.2626 30.4596L37.5469 30.586L37.831 30.7728L37.4665 31.3557L37.1849 31.1978L36.9008 31.0887L36.5849 31.0571L36.3006 31.0887L36.0653 31.1978L35.8615 31.3557L35.7035 31.5767L35.609 31.8267L35.56 32.1423L35.609 32.4412L35.7035 32.7082L35.8615 32.9121L36.0653 33.0701L36.3006 33.182L36.5849 33.2136L36.9008 33.182L37.1849 33.0873L37.4665 32.9121L37.831 33.5123L37.5469 33.6846L37.2626 33.8109L36.964 33.8882L36.6019 33.9055L36.2231 33.8739L35.8611 33.7793L35.5596 33.6214L35.2925 33.4003L35.0886 33.1505L34.9309 32.8516L34.8361 32.5044L34.8045 32.1423L34.8361 31.7662L34.9309 31.4359L35.0886 31.1201L35.2925 30.8676L35.5596 30.6491L35.8611 30.4912L36.2231 30.3966L36.6019 30.3651ZM39.8956 30.3651L40.2258 30.3966L40.5101 30.4912L40.7628 30.6491L40.9495 30.853V30.4422H41.6903V33.8249H40.9495V33.4171L40.7628 33.621L40.5101 33.7789L40.2258 33.8735L39.8956 33.9051L39.5483 33.8735L39.2179 33.7789L38.9336 33.621L38.6811 33.4171L38.4773 33.1501L38.3337 32.8512L38.2248 32.504L38.1932 32.142L38.2248 31.7658L38.3337 31.4185L38.4773 31.1197L38.6811 30.8672L38.9336 30.6488L39.2179 30.4908L39.5483 30.3963L39.8956 30.3651ZM44.2776 30.3651L44.4499 30.3792L44.6394 30.3966L44.8115 30.4596L44.5762 31.1517L44.3551 31.0885L44.1198 31.0569L43.8987 31.0885L43.7236 31.166L43.5829 31.2924L43.4739 31.4645L43.4251 31.6712L43.3935 31.9385V33.8249H42.6699V30.4422H43.3935V30.853L43.5197 30.6951L43.6604 30.5544L43.8356 30.4596L44.0394 30.3792L44.2776 30.3651ZM30.0606 31.0253L29.8251 31.0427L29.6183 31.1201L29.4461 31.2464L29.3197 31.4187L29.2249 31.608L29.1618 31.8435H30.9105L30.8474 31.5592L30.721 31.324L30.5487 31.1517L30.3278 31.0569L30.0606 31.0253ZM19.2176 31.0569L18.919 31.0885L18.6806 31.1976L18.4767 31.3728L18.3188 31.591L18.2241 31.8437L18.1925 32.1423L18.2241 32.4266L18.3188 32.6765L18.4767 32.8976L18.6806 33.0699L18.919 33.1818L19.2176 33.2134L19.5162 33.1818L19.7517 33.0699L19.9585 32.9119L20.1164 32.6937L20.2112 32.4264L20.2427 32.1422L20.2112 31.8435L20.1164 31.5763L19.9585 31.3726L19.7517 31.1974L19.5162 31.0883L19.2176 31.0569ZM39.9731 31.0569L39.6889 31.0885L39.439 31.1976L39.2323 31.3728L39.0743 31.591L38.9796 31.8437L38.948 32.1423L38.9796 32.4266L39.0743 32.6765L39.2323 32.8976L39.439 33.0699L39.6889 33.1818L39.9731 33.2134L40.2718 33.1818L40.5101 33.0699L40.714 32.9119L40.8717 32.6937L40.9665 32.4264L40.9981 32.1422L40.9665 31.8435L40.8717 31.5763L40.714 31.3726L40.5101 31.1974L40.2718 31.0883L39.9731 31.0569ZM46.8132 31.0569L46.5145 31.0885L46.2618 31.1976L46.0581 31.3728L45.9002 31.591L45.8198 31.8437L45.7882 32.1423L45.8198 32.4266L45.9002 32.6765L46.0581 32.8976L46.2618 33.0699L46.5145 33.1818L46.8132 33.2134L47.0974 33.1818L47.3501 33.0699L47.5395 32.9119L47.6974 32.6937L47.7893 32.4264L47.8209 32.1422L47.7893 31.8435L47.6974 31.5763L47.5395 31.3726L47.3501 31.1974L47.0974 31.0883L46.8132 31.0569ZM49.745 33.3369H49.8082L49.8857 33.3541L49.9345 33.3857L49.9803 33.4317L50.0293 33.4805L50.0607 33.5437L50.075 33.6068L50.0923 33.6671L50.075 33.7301L50.0607 33.7933L50.0293 33.8565L49.9803 33.9053L49.9345 33.9512L49.8857 33.9828L49.8082 34H49.745H49.6818L49.6187 33.9828L49.5555 33.9512L49.5095 33.9053L49.4607 33.8565L49.4291 33.7933L49.4148 33.7301L49.3976 33.6671L49.4148 33.6068L49.4291 33.5437L49.4607 33.4805L49.5095 33.4317L49.5555 33.3857L49.6187 33.3541L49.6818 33.3369H49.745ZM49.745 33.4173H49.6991L49.6503 33.4317L49.6043 33.4489L49.5555 33.4805L49.5239 33.5264L49.5095 33.5752L49.4923 33.6212L49.478 33.6671L49.4923 33.716L49.5095 33.7791L49.5239 33.8107L49.5555 33.8565L49.6043 33.8881L49.6503 33.9053L49.6991 33.9196L49.745 33.9369L49.791 33.9196L49.8541 33.9053L49.8857 33.8881L49.9345 33.8565L49.9661 33.8107L49.9803 33.7791L49.9977 33.716L50.0119 33.6671L49.9977 33.6212L49.9803 33.5752L49.9661 33.5264L49.9345 33.4805L49.8857 33.4489L49.8541 33.4317L49.791 33.4173H49.745ZM49.6187 33.5121H49.7622L49.8225 33.5264L49.8541 33.5437L49.8857 33.5752V33.6068V33.6528L49.8714 33.6844L49.8398 33.6987H49.791L49.9029 33.8249H49.8082L49.7134 33.716H49.6818V33.8249H49.6187V33.5121ZM49.6818 33.5752V33.6528H49.7622H49.791H49.8082L49.8225 33.6384V33.6068V33.5896H49.8082L49.791 33.5752H49.7622H49.6818Z" stroke="black" stroke-width="0.213956" stroke-miterlimit="10" stroke-linecap="round" stroke-linejoin="round"/>
<path d="M35.4649 4.72241H24.3233V24.7168H35.4649V4.72241Z" fill="#FF4000"/>
<path d="M35.4649 4.72241H24.3233V24.7168H35.4649V4.72241Z" stroke="#FF4000" stroke-width="0.213956" stroke-miterlimit="10" stroke-linecap="round" stroke-linejoin="round"/>
<path fill-rule="evenodd" clip-rule="evenodd" d="M22.0244 2L23.127 2.04576L24.2154 2.18933L25.2549 2.40757L26.2628 2.72344L27.2391 3.11684L28.1695 3.57361L29.0683 4.10752L29.9039 4.72223L29.1171 5.38249L28.3906 6.10631L27.7301 6.89311L27.13 7.72586L26.593 8.60743L26.1364 9.53475L25.743 10.5111L25.4444 11.5192L25.2233 12.5558L25.0826 13.6267L25.0337 14.7121L25.0826 15.8119L25.2233 16.883L25.4444 17.9197L25.743 18.9278L26.1364 19.8869L26.593 20.8142L27.13 21.7132L27.7301 22.5457L28.3906 23.3182L29.1171 24.042L29.9039 24.7166L29.0683 25.3139L28.1695 25.8511L27.2391 26.322L26.2628 26.7152L25.2549 27.0138L24.2154 27.2495L23.127 27.3902L22.0244 27.439L20.9361 27.3902L19.865 27.2495L18.8082 27.0282L17.8003 26.7152L16.8384 26.322L15.908 25.8652L15.0092 25.3311L14.1764 24.734L13.3868 24.0563L12.6631 23.3327L11.9998 22.5629L11.4025 21.7132L10.8655 20.8314L10.3917 19.9039L10.0156 18.9278L9.69969 17.9197L9.47858 16.883L9.33788 15.8119L9.28906 14.7121L9.33788 13.6267L9.47858 12.5558L9.69969 11.5018L10.0156 10.494L10.3917 9.53475L10.8655 8.60743L11.4025 7.71132L11.9998 6.87589L12.6631 6.08889L13.3868 5.36545L14.1764 4.7048L15.0092 4.10752L15.908 3.57361L16.8384 3.0998L17.8003 2.72344L18.8082 2.40757L19.865 2.18933L20.9361 2.04576L22.0244 2Z" fill="#F70000"/>
<path d="M22.0244 2L23.127 2.04576L24.2154 2.18933L25.2549 2.40757L26.2628 2.72344L27.2391 3.11684L28.1695 3.57361L29.0683 4.10752L29.9039 4.72223L29.1171 5.38249L28.3906 6.10631L27.7301 6.89311L27.13 7.72586L26.593 8.60743L26.1364 9.53475L25.743 10.5111L25.4444 11.5192L25.2233 12.5558L25.0826 13.6267L25.0337 14.7121L25.0826 15.8119L25.2233 16.883L25.4444 17.9197L25.743 18.9278L26.1364 19.8869L26.593 20.8142L27.13 21.7132L27.7301 22.5457L28.3906 23.3182L29.1171 24.042L29.9039 24.7166L29.0683 25.3139L28.1695 25.8511L27.2391 26.322L26.2628 26.7152L25.2549 27.0138L24.2154 27.2495L23.127 27.3902L22.0244 27.439L20.9361 27.3902L19.865 27.2495L18.8082 27.0282L17.8003 26.7152L16.8384 26.322L15.908 25.8652L15.0092 25.3311L14.1764 24.734L13.3868 24.0563L12.6631 23.3327L11.9998 22.5629L11.4025 21.7132L10.8655 20.8314L10.3917 19.9039L10.0156 18.9278L9.69969 17.9197L9.47858 16.883L9.33788 15.8119L9.28906 14.7121L9.33788 13.6267L9.47858 12.5558L9.69969 11.5018L10.0156 10.494L10.3917 9.53475L10.8655 8.60743L11.4025 7.71132L11.9998 6.87588L12.6631 6.08889L13.3868 5.36545L14.1764 4.7048L15.0092 4.10752L15.908 3.57361L16.8384 3.0998L17.8003 2.72344L18.8082 2.40757L19.865 2.18933L20.9361 2.04576L22.0244 2Z" stroke="#F70000" stroke-width="0.213956" stroke-miterlimit="10" stroke-linecap="round" stroke-linejoin="round"/>
<path fill-rule="evenodd" clip-rule="evenodd" d="M49.5589 22.1064H49.6852L49.8259 22.4369L49.9837 22.1064H50.1101V22.5947H50.0153V22.2158L49.8748 22.546H49.78L49.6536 22.2158V22.5947H49.5589V22.1064ZM49.0391 22.1064H49.4641V22.184H49.292V22.5947H49.1972V22.184H49.0392V22.1064H49.0391Z" fill="black"/>
<path d="M49.5589 22.1064H49.6852L49.8259 22.4369L49.9837 22.1064H50.1101V22.5947H50.0153V22.2158L49.8748 22.546H49.78L49.6536 22.2158V22.5947H49.5589V22.1064V22.1064ZM49.0391 22.1064H49.4641V22.184H49.292V22.5947H49.1972V22.184H49.0392V22.1064H49.0391Z" stroke="black" stroke-width="0.213956" stroke-miterlimit="10" stroke-linecap="round" stroke-linejoin="round"/>
<path fill-rule="evenodd" clip-rule="evenodd" d="M37.7705 2L38.8732 2.04576L39.9443 2.18933L40.9838 2.40757L41.9945 2.72344L42.9709 3.0998L43.9012 3.57361L44.7828 4.10752L45.6184 4.7048L46.4052 5.36545L47.1317 6.08889L47.8094 6.87589L48.4096 7.71132L48.9437 8.60743L49.4003 9.53475L49.7937 10.494L50.0952 11.5018L50.3306 12.5558L50.457 13.6267L50.5029 14.7121L50.457 15.8119L50.3306 16.883L50.0952 17.9197L49.7937 18.9278L49.4003 19.9039L48.9437 20.8314L48.4096 21.7132L47.8094 22.5629L47.1317 23.3327L46.4052 24.0563L45.6184 24.734L44.7828 25.3311L43.9012 25.8652L42.9709 26.322L41.9945 26.7152L40.9838 27.0282L39.9443 27.2495L38.8732 27.3902L37.7705 27.439L36.6678 27.3902L35.5939 27.2495L34.5544 27.0138L33.5292 26.7152L32.5701 26.322L31.6225 25.8511L30.741 25.3139L29.9053 24.7166L30.6778 24.042L31.4014 23.3182L32.0647 22.5457L32.6792 21.7132L33.199 20.8142L33.6728 19.8869L34.049 18.9278L34.3648 17.9197L34.586 16.883L34.7123 15.8119L34.7582 14.7121L34.7123 13.6267L34.586 12.5558L34.3648 11.5192L34.049 10.5111L33.6728 9.53475L33.199 8.60743L32.6792 7.72586L32.0647 6.89311L31.4014 6.10631L30.6778 5.38249L29.9053 4.72223L30.741 4.10752L31.6225 3.57361L32.5701 3.11684L33.5292 2.72344L34.5544 2.40757L35.5939 2.18933L36.6678 2.04576L37.7705 2Z" fill="#FF8F00"/>
<path d="M37.7705 2L38.8732 2.04576L39.9443 2.18933L40.9838 2.40757L41.9945 2.72344L42.9709 3.0998L43.9012 3.57361L44.7828 4.10752L45.6184 4.7048L46.4052 5.36545L47.1317 6.08889L47.8094 6.87588L48.4096 7.71132L48.9437 8.60743L49.4003 9.53475L49.7937 10.494L50.0952 11.5018L50.3306 12.5558L50.457 13.6267L50.5029 14.7121L50.457 15.8119L50.3306 16.883L50.0952 17.9197L49.7937 18.9278L49.4003 19.9039L48.9437 20.8314L48.4096 21.7132L47.8094 22.5629L47.1317 23.3327L46.4052 24.0563L45.6184 24.734L44.7828 25.3311L43.9012 25.8652L42.9709 26.322L41.9945 26.7152L40.9838 27.0282L39.9443 27.2495L38.8732 27.3902L37.7705 27.439L36.6678 27.3902L35.5939 27.2495L34.5544 27.0138L33.5292 26.7152L32.5701 26.322L31.6225 25.8511L30.741 25.3139L29.9053 24.7166L30.6778 24.042L31.4014 23.3182L32.0647 22.5457L32.6792 21.7132L33.199 20.8142L33.6728 19.8869L34.049 18.9278L34.3648 17.9197L34.586 16.883L34.7123 15.8119L34.7582 14.7121L34.7123 13.6267L34.586 12.5558L34.3648 11.5192L34.049 10.5111L33.6728 9.53475L33.199 8.60743L32.6792 7.72586L32.0647 6.89311L31.4014 6.10631L30.6778 5.38249L29.9053 4.72223L30.741 4.10752L31.6225 3.57361L32.5701 3.11684L33.5292 2.72344L34.5544 2.40757L35.5939 2.18933L36.6678 2.04576L37.7705 2Z" stroke="#FF8F00" stroke-width="0.213956" stroke-miterlimit="10" stroke-linecap="round" stroke-linejoin="round"/>
</svg>
