<svg width="60" height="36" viewBox="0 0 60 36" fill="none" xmlns="http://www.w3.org/2000/svg">
<rect width="60" height="36" rx="4" fill="white"/>
<path d="M23.8364 10.7988L16.996 27.1174H12.5328L9.16833 14.094C8.96324 13.2922 8.78549 12.9982 8.16338 12.6603C7.14964 12.1095 5.47374 11.5929 4 11.2725L4.09962 10.7988H11.2837C12.1988 10.7988 13.0221 11.4073 13.2301 12.462L15.0076 21.9061L19.4005 10.7988H23.8364ZM41.3239 21.7899C41.3405 17.4829 35.3655 17.2456 35.4075 15.3216C35.4192 14.7347 35.9778 14.1135 37.1967 13.9534C37.8032 13.8743 39.4683 13.8137 41.361 14.6849L42.1013 11.2247C41.0866 10.8545 39.7779 10.5 38.1528 10.5C33.9816 10.5 31.0439 12.7189 31.0195 15.8959C30.9921 18.2437 33.1153 19.5543 34.716 20.3366C36.3607 21.1355 36.9115 21.6482 36.9057 22.3641C36.8939 23.4589 35.5931 23.9414 34.3801 23.9609C32.2569 23.9951 31.0253 23.3886 30.0429 22.9306L29.2782 26.506C30.2636 26.9592 32.084 27.3528 33.9738 27.3733C38.4058 27.3733 41.3073 25.1817 41.3239 21.7899ZM52.3403 27.1174H56.2449L52.8394 10.7988H49.2337C48.425 10.7988 47.7404 11.2696 47.4367 11.9962L41.1042 27.1174H45.5352L46.4161 24.6817H51.8315L52.3403 27.1174ZM47.63 21.3357L49.8528 15.2074L51.1313 21.3357H47.63ZM29.868 10.7988L26.3776 27.1174H22.1566L25.647 10.7988H29.868Z" fill="#10357F"/>
</svg>
