<svg width="71" height="71" viewBox="0 0 71 71" fill="none" xmlns="http://www.w3.org/2000/svg">
<g clip-path="url(#clip0_1_2701)">
<g clip-path="url(#clip1_1_2701)">
<path d="M27.5069 68.6704C30.0332 68.6704 32.0812 66.6189 32.0812 64.0881C32.0812 61.5574 30.0332 59.5059 27.5069 59.5059C24.9806 59.5059 22.9326 61.5574 22.9326 64.0881C22.9326 66.6189 24.9806 68.6704 27.5069 68.6704Z" stroke="#6A0098" stroke-width="2.92757" stroke-linecap="round" stroke-linejoin="round"/>
<path d="M58.0024 68.6704C60.5288 68.6704 62.5768 66.6189 62.5768 64.0881C62.5768 61.5574 60.5288 59.5059 58.0024 59.5059C55.4761 59.5059 53.4281 61.5574 53.4281 64.0881C53.4281 66.6189 55.4761 68.6704 58.0024 68.6704Z" stroke="#6A0098" stroke-width="2.92757" stroke-linecap="round" stroke-linejoin="round"/>
<path d="M1.58583 4.51855L13.784 6.04598L21.9568 45.423C22.2357 46.8295 22.9995 48.0929 24.1145 48.992C25.2295 49.8912 26.6248 50.3688 28.0559 50.3414H57.6975C59.1287 50.3688 60.5239 49.8912 61.639 48.992C62.754 48.0929 63.5178 46.8295 63.7966 45.423L68.6759 19.7928L15.3099 12.1557" stroke="#6A0098" stroke-width="2.92757" stroke-linecap="round" stroke-linejoin="round"/>
</g>
<path d="M28.6438 25.4564V9.38278L42.1173 3.59155L55.5908 9.38278V25.4564C55.5908 31.484 42.1173 39.5208 42.1173 39.5208C42.1173 39.5208 28.6438 31.484 28.6438 25.4564Z" fill="white"/>
<path fill-rule="evenodd" clip-rule="evenodd" d="M30.1414 9.38205V25.4557C30.1414 31.4833 43.6149 39.5201 43.6149 39.5201C43.6149 39.5201 43.6235 39.5149 43.6403 39.5048C39.718 36.6145 34.6325 32.1529 34.6325 28.4497V12.3761L48.1059 6.58488L57.0883 10.4457V9.38205L43.6149 3.59082L30.1414 9.38205Z" fill="#E9E9E9"/>
<path d="M28.6438 25.4564V9.38278L42.1173 3.59155L55.5908 9.38278V25.4564C55.5908 31.484 42.1173 39.5208 42.1173 39.5208C42.1173 39.5208 28.6438 31.484 28.6438 25.4564Z" stroke="#F4910F" stroke-width="2.92757" stroke-linejoin="round"/>
<path d="M36.1295 21.341L39.8041 24.549L49.603 17.0637" stroke="#6A0098" stroke-width="2.92757" stroke-linecap="round"/>
</g>
<defs>
<clipPath id="clip0_1_2701">
<rect width="70.1979" height="70.1979" fill="white"/>
</clipPath>
<clipPath id="clip1_1_2701">
<rect width="70.2616" height="68.7978" fill="white" transform="translate(0 1.46387)"/>
</clipPath>
</defs>
</svg>
