<svg width="53" height="54" viewBox="0 0 53 54" fill="none" xmlns="http://www.w3.org/2000/svg">
<path d="M32.0208 27.5001C32.0208 32.3553 29.7824 36.6878 26.2813 39.5218C23.6261 41.671 20.2446 42.9584 16.5625 42.9584C12.8804 42.9584 9.4989 41.671 6.84371 39.5218C3.34256 36.6878 1.10416 32.3553 1.10416 27.5001C1.10416 22.6448 3.34256 18.3124 6.84371 15.4784C9.4989 13.3291 12.8804 12.0417 16.5625 12.0417C20.2446 12.0417 23.6261 13.3291 26.2813 15.4784C29.7824 18.3124 32.0208 22.6448 32.0208 27.5001Z" fill="white"/>
<path d="M32.0208 27.5001H1.10416M32.0208 27.5001C32.0208 22.6448 29.7824 18.3124 26.2813 15.4784M32.0208 27.5001C32.0208 32.3553 29.7824 36.6878 26.2813 39.5218M16.5625 42.9584C20.2446 42.9584 23.6261 41.671 26.2813 39.5218M16.5625 42.9584C12.8804 42.9584 9.4989 41.671 6.8437 39.5218M16.5625 42.9584V27.5001V12.0417M16.5625 42.9584C14.4155 41.5419 12.5802 39.7275 11.1819 37.5674M16.5625 42.9584C18.7095 41.5419 20.5447 39.7275 21.9431 37.5674M1.10416 27.5001C1.10416 22.6448 3.34256 18.3124 6.8437 15.4784M1.10416 27.5001C1.10416 32.3553 3.34256 36.6878 6.8437 39.5218M16.5625 12.0417C12.8804 12.0417 9.4989 13.3291 6.8437 15.4784M16.5625 12.0417C20.2446 12.0417 23.6261 13.3291 26.2813 15.4784M16.5625 12.0417C18.7095 13.4583 20.5447 15.2727 21.9431 17.4327M16.5625 12.0417C14.4155 13.4583 12.5802 15.2727 11.1819 17.4327M6.8437 15.4784C8.18597 16.3056 9.64161 16.9666 11.1819 17.4327M26.2813 15.4784C24.939 16.3056 23.4834 16.9666 21.9431 17.4327M11.1819 17.4327C12.8849 17.948 14.6913 18.2251 16.5625 18.2251C18.4337 18.2251 20.2401 17.948 21.9431 17.4327M11.1819 17.4327C9.30482 20.3322 8.21499 23.7889 8.21499 27.5001C8.21499 31.2113 9.30482 34.6679 11.1819 37.5674M21.9431 17.4327C23.8202 20.3322 24.91 23.7889 24.91 27.5001C24.91 31.2113 23.8202 34.6679 21.9431 37.5674M26.2813 39.5218C24.939 38.6945 23.4834 38.0335 21.9431 37.5674M21.9431 37.5674C20.2401 37.0521 18.4337 36.7751 16.5625 36.7751C14.6913 36.7751 12.8849 37.0521 11.1819 37.5674M11.1819 37.5674C9.6416 38.0335 8.18597 38.6945 6.8437 39.5218" stroke="#6A0098" stroke-width="1.10417"/>
<path d="M12.2765 12.9366L9.93516 8.57252C9.71616 8.16827 9.58417 7.72264 9.54764 7.26418C9.51111 6.80572 9.57086 6.34454 9.72305 5.91017C9.87525 5.4758 10.1165 5.07781 10.4314 4.74171C10.7464 4.40561 11.128 4.13879 11.5518 3.95835C16.298 2.03842 21.4271 1.25659 26.5269 1.67568C31.2469 2.01971 35.8315 3.39776 39.9551 5.71196C44.4545 8.18541 48.3056 11.6837 51.1964 15.9236C51.4487 16.3063 51.6183 16.7374 51.6945 17.1895C51.7706 17.6416 51.7517 18.1048 51.6389 18.5495C51.5261 18.9942 51.3219 19.4107 51.0392 19.7725C50.7566 20.1343 50.4017 20.4335 49.9972 20.651L45.6244 22.997C44.9207 23.3834 44.1008 23.5014 43.3175 23.3288C42.5342 23.1562 41.8409 22.7048 41.3668 22.0589C40.433 20.7613 39.355 19.5736 38.1534 18.5185C37.678 18.1031 37.332 17.56 37.1564 16.9536C36.9808 16.3472 36.9829 15.703 37.1626 15.0972L38.0226 12.2566C33.9938 9.72788 29.3545 8.33341 24.5943 8.22032L23.7344 11.0609C23.5479 11.6647 23.1922 12.2026 22.7093 12.6111C22.2265 13.0196 21.6367 13.2814 21.01 13.3656C19.4234 13.5826 17.8661 13.9781 16.3679 14.5447C15.6063 14.8249 14.7687 14.8158 14.0144 14.5194C13.26 14.2229 12.6415 13.6596 12.2765 12.9366Z" fill="white" stroke="#6A0098" stroke-width="1.65625" stroke-linecap="round" stroke-linejoin="round"/>
<path d="M23.1875 31.2605H37.5417H51.8958V48.0879H47.1111H27.9722H23.1875V31.2605Z" fill="white"/>
<path d="M27.9722 48.0879H23.1875V31.2605H37.5417H51.8958V48.0879H47.1111M27.9722 48.0879L26.776 52.8958M27.9722 48.0879H47.1111M47.1111 48.0879L48.3073 52.8958" stroke="#6A0098" stroke-width="1.65625" stroke-linecap="round" stroke-linejoin="round"/>
<path d="M44.1667 31.2605L47.7552 25.2507" stroke="#F4910F" stroke-width="1.65625" stroke-linecap="round" stroke-linejoin="round"/>
<path d="M40.5781 25.2507L44.1667 31.2605" stroke="#F4910F" stroke-width="1.65625" stroke-linecap="round" stroke-linejoin="round"/>
</svg>
