<svg width="60" height="36" viewBox="0 0 60 36" fill="none" xmlns="http://www.w3.org/2000/svg">
<rect width="60" height="36" rx="4" fill="white"/>
<path d="M22.3943 33.9758V31.8672C22.3943 31.0729 21.8882 30.539 21.0727 30.5319C20.644 30.5245 20.2013 30.6583 19.8919 31.1292C19.66 30.7565 19.2946 30.5319 18.7815 30.5319C18.4228 30.5319 18.0716 30.6372 17.7974 31.031V30.6161H17.0664V33.9758H17.8045V32.1133C17.8045 31.5301 18.1279 31.2207 18.6266 31.2207C19.1116 31.2207 19.3576 31.5368 19.3576 32.1066V33.9762H20.0957V32.1136C20.0957 31.5304 20.4332 31.2211 20.9182 31.2211C21.4173 31.2211 21.6562 31.5371 21.6562 32.1069V33.9765H22.3943V33.9758ZM26.5132 32.2959V30.6161H25.7822V31.0236C25.5503 30.722 25.199 30.5319 24.7207 30.5319C23.7789 30.5319 23.0408 31.27 23.0408 32.2963C23.0408 33.3222 23.7789 34.0606 24.7207 34.0606C25.199 34.0606 25.5503 33.8709 25.7822 33.5686V33.9762H26.5132V32.2959ZM23.793 32.2959C23.793 31.7053 24.1798 31.2204 24.8122 31.2204C25.4165 31.2204 25.8245 31.6842 25.8245 32.2959C25.8245 32.9076 25.4165 33.3715 24.8122 33.3715C24.1798 33.3715 23.793 32.8862 23.793 32.2959ZM42.1552 30.5277C42.4146 30.5277 42.655 30.5728 42.8763 30.6632C43.0974 30.753 43.2881 30.8769 43.4493 31.0349C43.6109 31.1929 43.7376 31.3794 43.8287 31.5945C43.9199 31.8099 43.9656 32.0436 43.9656 32.2963C43.9656 32.549 43.9199 32.7827 43.8287 32.9977C43.7376 33.2128 43.6109 33.3997 43.4493 33.5573C43.2881 33.7154 43.0974 33.8393 42.8763 33.9294C42.655 34.0195 42.4146 34.0645 42.1552 34.0645C41.8954 34.0645 41.6551 34.0195 41.434 33.9294C41.213 33.8393 41.0222 33.7157 40.8621 33.5573C40.702 33.3997 40.5763 33.2128 40.4852 32.9977C40.394 32.7827 40.3482 32.549 40.3482 32.2963C40.3482 32.0436 40.394 31.8099 40.4852 31.5945C40.5767 31.3794 40.702 31.1929 40.8621 31.0349C41.0222 30.8772 41.213 30.753 41.434 30.6632C41.6551 30.5728 41.8954 30.5277 42.1552 30.5277ZM42.1552 31.2189C42.0053 31.2189 41.8659 31.2453 41.7374 31.2981C41.6089 31.3506 41.4977 31.4241 41.4045 31.5192C41.3105 31.6142 41.2369 31.7275 41.1834 31.8595C41.1296 31.9918 41.1028 32.1372 41.1028 32.2963C41.1028 32.4554 41.1296 32.6007 41.1834 32.7331C41.2369 32.865 41.3105 32.9784 41.4045 33.0734C41.4981 33.1681 41.6089 33.242 41.7374 33.2944C41.8655 33.3472 42.0053 33.3736 42.1552 33.3736C42.3048 33.3736 42.4441 33.3476 42.5726 33.2944C42.7014 33.242 42.8133 33.1681 42.9073 33.0734C43.0027 32.9784 43.0766 32.865 43.1308 32.7331C43.1843 32.6007 43.2114 32.4554 43.2114 32.2963C43.2114 32.1372 43.1843 31.9918 43.1308 31.8595C43.077 31.7275 43.0027 31.6142 42.9073 31.5192C42.813 31.4241 42.7014 31.3506 42.5726 31.2981C42.4441 31.2453 42.3048 31.2189 42.1552 31.2189ZM30.4914 32.2959C30.4843 31.2485 29.8375 30.5316 28.8956 30.5316C27.9119 30.5316 27.2228 31.2485 27.2228 32.2959C27.2228 33.3641 27.9397 34.0603 28.9449 34.0603C29.451 34.0603 29.9149 33.9339 30.3228 33.5894L29.9642 33.0481C29.6829 33.2733 29.3247 33.3993 28.9871 33.3993C28.5162 33.3993 28.0875 33.1818 27.9819 32.5771H30.4773C30.4844 32.4856 30.4914 32.3941 30.4914 32.2959ZM27.9886 32.0006C28.0661 31.5156 28.361 31.1855 28.8812 31.1855C29.3521 31.1855 29.6544 31.4804 29.7319 32.0006H27.9886ZM33.5696 31.4734C33.3658 31.3471 32.9512 31.1855 32.5222 31.1855C32.1216 31.1855 31.8827 31.333 31.8827 31.579C31.8827 31.8039 32.1361 31.8669 32.4518 31.9095L32.7963 31.9584C33.5274 32.064 33.9701 32.3734 33.9701 32.9636C33.9701 33.6031 33.4077 34.0599 32.4377 34.0599C31.8893 34.0599 31.3832 33.9195 30.9827 33.6242L31.3273 33.0547C31.5733 33.2444 31.9386 33.4063 32.4447 33.4063C32.9438 33.4063 33.2109 33.2589 33.2109 32.9988C33.2109 32.8091 33.0212 32.7035 32.6207 32.6472L32.2762 32.5983C31.5237 32.4923 31.1161 32.1551 31.1161 31.6071C31.1161 30.9395 31.6644 30.5316 32.5151 30.5316C33.0494 30.5316 33.5344 30.6509 33.886 30.8828L33.5696 31.4734ZM37.0821 31.2837H35.8872V32.8017C35.8872 33.1392 36.0065 33.3641 36.3722 33.3641C36.5619 33.3641 36.8009 33.3008 37.0188 33.1744L37.2299 33.7998C36.9976 33.9617 36.6323 34.0599 36.3159 34.0599C35.4515 34.0599 35.1492 33.5961 35.1492 32.8158V31.2834H34.4674V30.6157H35.1492V29.5964H35.8872L35.8876 30.6157H37.0825V31.2837H37.0821ZM39.6123 30.5316C39.7598 30.5316 39.9709 30.5597 40.1325 30.6231L39.9076 31.3119C39.7531 31.2485 39.5982 31.2274 39.4504 31.2274C38.9728 31.2274 38.7335 31.5368 38.7335 32.0922V33.9758H38.0028V30.6161H38.7268V31.0236C38.9161 30.7283 39.1903 30.5316 39.6123 30.5316ZM44.6731 33.4845C44.7202 33.4845 44.7642 33.4933 44.8054 33.5105C44.8466 33.5281 44.8828 33.5521 44.9138 33.5823C44.9444 33.6126 44.9687 33.6485 44.9867 33.689C45.0043 33.7298 45.0134 33.7727 45.0134 33.8188C45.0134 33.8646 45.0043 33.9079 44.9867 33.9484C44.9687 33.9885 44.9444 34.024 44.9138 34.0547C44.8828 34.0849 44.8469 34.1092 44.8054 34.1265C44.7642 34.1444 44.7202 34.1532 44.6731 34.1532C44.6249 34.1532 44.5798 34.1444 44.5383 34.1265C44.4964 34.1092 44.4601 34.0849 44.4295 34.0547C44.3989 34.024 44.3743 33.9885 44.357 33.9484C44.3391 33.9079 44.3303 33.8646 44.3303 33.8188C44.3303 33.7727 44.3391 33.7298 44.357 33.689C44.3743 33.6485 44.3989 33.6126 44.4295 33.5823C44.4601 33.5521 44.496 33.5281 44.5383 33.5105C44.5798 33.4933 44.6249 33.4845 44.6731 33.4845ZM44.6731 34.0796C44.7093 34.0796 44.7428 34.0722 44.7737 34.0589C44.8051 34.0451 44.8322 34.0265 44.8557 34.0033C44.879 33.9797 44.8976 33.9519 44.911 33.9206C44.9244 33.8892 44.9307 33.8547 44.9307 33.8188C44.9307 33.7829 44.9244 33.7492 44.911 33.7171C44.8976 33.6855 44.879 33.658 44.8557 33.6344C44.8322 33.6112 44.8047 33.5929 44.7737 33.5795C44.7428 33.5665 44.709 33.5591 44.6731 33.5591C44.6365 33.5591 44.6023 33.5665 44.5703 33.5795C44.5383 33.5929 44.5105 33.6112 44.4872 33.6344C44.4637 33.658 44.4454 33.6858 44.432 33.7171C44.4186 33.7492 44.4116 33.7829 44.4116 33.8188C44.4116 33.8547 44.4186 33.8889 44.432 33.9206C44.4454 33.9522 44.4637 33.9797 44.4872 34.0033C44.5105 34.0265 44.5386 34.0451 44.5703 34.0589C44.602 34.0726 44.6361 34.0796 44.6731 34.0796ZM44.6924 33.6622C44.7322 33.6622 44.7632 33.671 44.7846 33.689C44.8065 33.7069 44.8174 33.7308 44.8174 33.7615C44.8174 33.7872 44.8089 33.8083 44.7917 33.8252C44.7741 33.8421 44.7498 33.8519 44.7181 33.8558L44.8198 33.973H44.7399L44.6456 33.8569H44.6153V33.973H44.5492V33.6622H44.6924ZM44.6153 33.7206V33.8034H44.6917C44.7093 33.8034 44.723 33.7998 44.7336 33.7932C44.7438 33.7865 44.7491 33.7759 44.7491 33.7615C44.7491 33.7477 44.7438 33.7379 44.7336 33.7305C44.723 33.7238 44.7093 33.7206 44.6917 33.7206H44.6153Z" fill="black"/>
<path d="M36.043 4.9729H24.9564V24.8957H36.043V4.9729Z" fill="#7873B6"/>
<path d="M25.6602 14.9343C25.6602 10.8928 27.5527 7.293 30.4996 4.97291C28.3443 3.27649 25.6251 2.26392 22.6693 2.26392C15.6725 2.26392 10 7.93673 10 14.9343C10 21.9322 15.6725 27.605 22.6693 27.605C25.6251 27.605 28.3443 26.5925 30.4996 24.896C27.5527 22.576 25.6602 18.9762 25.6602 14.9343Z" fill="#EA1D25"/>
<path d="M49.7893 22.7864V22.3785H49.954V22.295H49.5352V22.3785H49.6999V22.7864H49.7893ZM50.6024 22.7864V22.2947H50.4739L50.3264 22.6329L50.1786 22.2947H50.0501V22.7864H50.1406V22.4151L50.2796 22.7347H50.3736L50.5123 22.4144V22.7864H50.6024Z" fill="#17A0DB"/>
<path d="M51 14.9343C51 21.9322 45.3279 27.605 38.3307 27.605C35.3746 27.605 32.6554 26.5925 30.5004 24.896C33.4473 22.576 35.3398 18.9765 35.3398 14.9343C35.3398 10.8928 33.4473 7.293 30.5004 4.97291C32.6554 3.27649 35.3746 2.26392 38.3307 2.26392C45.3279 2.26392 51 7.93673 51 14.9343Z" fill="#17A0DB"/>
</svg>
