<svg width="71" height="71" viewBox="0 0 71 71" fill="none" xmlns="http://www.w3.org/2000/svg">
<path d="M11.7103 40.9859V39.5221C11.7103 38.7137 11.0549 38.0583 10.2465 38.0583H2.92759C2.11916 38.0583 1.46381 38.7137 1.46381 39.5221V61.4789C1.46381 62.2873 2.11916 62.9427 2.92759 62.9427H10.2465C11.0549 62.9427 11.7103 62.2873 11.7103 61.4789V59.2832M11.7103 40.9859H24.5388C24.766 40.9859 24.9902 41.0388 25.1934 41.1405L34.8218 45.9546C35.025 46.0563 35.2491 46.1092 35.4764 46.1092H45.2324C45.3288 46.1092 45.4234 46.1181 45.5166 46.1429C46.1856 46.3212 49.0368 47.2703 49.0368 50.5005C49.0368 54.16 45.3773 54.8919 45.3773 54.8919M11.7103 40.9859V59.2832M45.3773 54.8919H29.2757M45.3773 54.8919L64.3986 48.3076C64.4039 48.3058 64.4087 48.3041 64.414 48.3024C64.5552 48.2584 66.652 47.6477 68.066 49.7686C69.2611 51.5613 68.0168 53.354 67.5198 53.9517C67.4016 54.0938 67.2469 54.1976 67.0772 54.2709L35.3877 67.955C35.218 68.0283 35.0595 68.1321 34.8872 68.1991C34.4508 68.3691 33.327 68.5834 30.7395 68.0659C27.08 67.334 19.0292 60.747 16.1016 60.0151C13.1741 59.2832 11.7103 59.2832 11.7103 59.2832" stroke="#6A0098" stroke-width="2.19568" stroke-linecap="round"/>
<path d="M39.5222 13.1741L58.5513 13.1741" stroke="#F4910F" stroke-width="2.92757" stroke-linecap="round"/>
<path d="M39.5222 19.0293H58.5513" stroke="#F4910F" stroke-width="2.92757" stroke-linecap="round"/>
<path d="M39.5222 24.8843H58.5513" stroke="#F4910F" stroke-width="2.92757" stroke-linecap="round"/>
<path d="M39.5222 30.7395H48.3049" stroke="#F4910F" stroke-width="2.92757" stroke-linecap="round"/>
<path fill-rule="evenodd" clip-rule="evenodd" d="M56.5996 31.8373V34.033V36.8458L61.6081 31.8373H58.7953H56.5996ZM65.7483 31.8373V29.6416V6.58703V4.39136H63.5526H34.3989H32.2032V6.58703V38.7903V40.986H34.3989H54.404H56.5996V40.9859L56.5997 40.986L65.7483 31.8373V31.8373ZM54.404 31.8373V38.7903H34.3989V6.58703H63.5526V29.6416H56.5996H54.404V31.8373Z" fill="#6A0098"/>
</svg>
