<svg width="71" height="71" viewBox="0 0 71 71" fill="none" xmlns="http://www.w3.org/2000/svg">
<path fill-rule="evenodd" clip-rule="evenodd" d="M31.3583 7.1001C25.4408 7.1001 20.0463 10.4897 17.4788 15.8212L10.9652 29.3471H17.8526L21.0716 22.3444C24.5253 14.8311 32.0128 9.99992 40.2726 9.94122C37.7161 8.12769 34.6165 7.1001 31.3583 7.1001Z" fill="#E9E9E9"/>
<path d="M16.4319 13.544C18.0057 10.4948 21.15 8.57926 24.5813 8.57926H46.4181C49.8494 8.57926 52.9937 10.4948 54.5675 13.544L61.4717 26.9209H9.52771L16.4319 13.544Z" stroke="#6A0098" stroke-width="2.95833"/>
<path d="M10.6503 19.8206H13.1003L11.9592 21.9887L10.0908 25.5387L9.6749 26.329H8.78188H5.90237C3.74098 26.329 2.18016 24.2607 2.77301 22.1822C3.17168 20.7845 4.44891 19.8206 5.90237 19.8206H10.6503Z" stroke="#6A0098" stroke-width="2.95833"/>
<path d="M60.3497 19.8206H57.8997L59.0408 21.9887L60.9092 25.5387L61.3251 26.329H62.2181H65.0976C67.259 26.329 68.8198 24.2607 68.227 22.1822C67.8283 20.7845 66.5511 19.8206 65.0976 19.8206H60.3497Z" stroke="#6A0098" stroke-width="2.95833"/>
<path d="M13.3655 47.6291C10.9443 47.6291 8.86681 45.9039 8.42194 43.524L6.43122 32.874C5.85284 29.7797 8.22694 26.9207 11.3748 26.9207H59.6246C62.7724 26.9207 65.1466 29.7797 64.5682 32.874L62.5775 43.524C62.1326 45.9039 60.0551 47.6291 57.6339 47.6291H13.3655Z" stroke="#6A0098" stroke-width="2.95833"/>
<path d="M31.9501 35.5L31.9501 39.05" stroke="#6A0098" stroke-width="2.95833" stroke-linecap="round"/>
<path d="M39.0499 35.5L39.0499 39.05" stroke="#6A0098" stroke-width="2.95833" stroke-linecap="round"/>
<circle cx="19.525" cy="37.275" r="3.25417" stroke="#F4910F" stroke-width="2.95833"/>
<circle cx="51.4751" cy="37.275" r="3.25417" stroke="#F4910F" stroke-width="2.95833"/>
<path d="M14.2001 48.221H12.721V49.7002V53.2502C12.721 56.0277 14.9726 58.2794 17.7501 58.2794C20.5277 58.2794 22.7793 56.0277 22.7793 53.2502V49.7002V48.221H21.3001H14.2001Z" stroke="#6A0098" stroke-width="2.95833"/>
<path d="M49.7001 48.221H48.221V49.7002V53.2502C48.221 56.0277 50.4726 58.2794 53.2501 58.2794C56.0277 58.2794 58.2793 56.0277 58.2793 53.2502V49.7002V48.221H56.8001H49.7001Z" stroke="#6A0098" stroke-width="2.95833"/>
</svg>
