<svg width="60" height="36" viewBox="0 0 60 36" fill="none" xmlns="http://www.w3.org/2000/svg">
<rect width="60" height="36" rx="4" fill="white"/>
<path d="M53.1224 31.6972C53.1224 33.3755 51.7304 34.7357 50.0134 34.7357H10.3704C8.65358 34.7357 7.26172 33.3755 7.26172 31.6972V4.30115C7.26172 2.62267 8.65358 1.26245 10.3704 1.26245H50.0134C51.7304 1.26245 53.1224 2.62267 53.1224 4.30115V31.6972Z" fill="white"/>
<path d="M7.52682 4.30228V31.6984C7.52992 33.226 8.79591 34.4726 10.3723 34.4729H50.0149C51.5909 34.4726 52.8576 33.226 52.8604 31.6984V4.30228C52.8576 2.77408 51.5909 1.52717 50.0149 1.52717H10.3723C8.79591 1.52717 7.52992 2.77408 7.52682 4.30228ZM10.3723 35.0001C8.51428 34.997 7.00069 33.5268 7 31.6984V4.30228C7.00069 2.47353 8.51428 1.00292 10.3723 1H50.0149C51.8731 1.00292 53.3865 2.47353 53.3875 4.30228V31.6984C53.3865 33.5268 51.8729 34.9972 50.0149 35.0001H10.3723Z" fill="#0069AA"/>
<path d="M12.2964 25.4338C12.2964 26.0765 12.756 26.1514 13.1649 26.1514C14.9685 26.1514 15.5603 24.7911 15.5603 23.5472C15.5603 21.9862 14.5588 20.8595 12.9479 20.8595C12.6049 20.8595 12.447 20.8841 12.2964 20.8928V25.4338ZM11.4781 21.5185C11.4781 20.7678 11.0861 20.8172 10.7109 20.8093V20.5923C11.0362 20.6081 11.3698 20.6081 11.696 20.6081C12.0464 20.6081 12.5222 20.5923 13.1403 20.5923C15.3019 20.5923 16.4794 22.0357 16.4794 23.5139C16.4794 24.3411 15.995 26.419 13.0397 26.419C12.6145 26.419 12.2216 26.4025 11.8294 26.4025C11.4541 26.4025 11.0861 26.4102 10.7109 26.419V26.2018C11.2113 26.1513 11.4541 26.1348 11.4781 25.5674V21.5185Z" fill="black"/>
<path d="M17.6623 21.3183C17.4448 21.3183 17.2532 21.118 17.2532 20.901C17.2532 20.6919 17.4539 20.4995 17.6623 20.4995C17.8789 20.4995 18.0715 20.6752 18.0715 20.901C18.0715 21.1268 17.8874 21.3183 17.6623 21.3183ZM16.7692 26.2019H16.9274C17.1611 26.2019 17.3282 26.2019 17.3282 25.9258V23.6639C17.3282 23.2968 17.2032 23.2463 16.8939 23.08V22.9467C17.2863 22.8288 17.7541 22.6713 17.7871 22.6462C17.8459 22.6128 17.8953 22.6039 17.9377 22.6039C17.9787 22.6039 17.9958 22.6541 17.9958 22.7215V25.9261C17.9958 26.2022 18.1798 26.2022 18.4138 26.2022H18.5552V26.4194C18.2713 26.4194 17.9787 26.4029 17.6791 26.4029C17.3786 26.4029 17.0779 26.4106 16.7692 26.4194V26.2019Z" fill="black"/>
<path d="M19.3478 23.7144C19.3478 23.4059 19.2557 23.3227 18.8639 23.1638V23.0053C19.2223 22.8883 19.5643 22.7795 19.9655 22.6039C19.9908 22.6039 20.015 22.6206 20.015 22.6872V23.23C20.4917 22.8883 20.9008 22.6038 21.461 22.6038C22.1696 22.6038 22.42 23.1215 22.42 23.7727V25.9261C22.42 26.2023 22.6041 26.2023 22.8377 26.2023H22.9883V26.4195C22.6951 26.4195 22.4033 26.4029 22.1031 26.4029C21.8023 26.4029 21.5016 26.4107 21.201 26.4195V26.2023H21.3516C21.5855 26.2023 21.7518 26.2023 21.7518 25.9261V23.765C21.7518 23.2885 21.461 23.055 20.9845 23.055C20.7171 23.055 20.2913 23.2716 20.015 23.456V25.9261C20.015 26.2023 20.1995 26.2023 20.4334 26.2023H20.5833V26.4195C20.2913 26.4195 19.999 26.4029 19.6979 26.4029C19.398 26.4029 19.0971 26.4107 18.7969 26.4195V26.2023H18.9475C19.181 26.2023 19.3478 26.2023 19.3478 25.9261V23.7144Z" fill="black"/>
<path d="M25.1024 23.848C25.3106 23.848 25.3351 23.7393 25.3351 23.6389C25.3351 23.2136 25.0764 22.8712 24.6087 22.8712C24.0999 22.8712 23.7493 23.2463 23.649 23.848H25.1024ZM23.6243 24.1155C23.6071 24.1908 23.6071 24.3155 23.6243 24.5996C23.6733 25.3925 24.1836 26.0433 24.8508 26.0433C25.3106 26.0433 25.67 25.7928 25.9783 25.4845L26.0948 25.6014C25.7106 26.1107 25.235 26.5449 24.5509 26.5449C23.2233 26.5449 22.9561 25.2585 22.9561 24.7246C22.9561 23.0879 24.0579 22.6035 24.6417 22.6035C25.3187 22.6035 26.0454 23.0293 26.0533 23.9143C26.0533 23.9652 26.0533 24.0146 26.0454 24.065L25.9699 24.1153H23.6243V24.1155Z" fill="black"/>
<path d="M26.2452 26.2024H26.4708C26.7037 26.2024 26.8708 26.2024 26.8708 25.9262V23.5807C26.8708 23.3225 26.5622 23.2716 26.4368 23.2047V23.0798C27.0462 22.8209 27.3803 22.6035 27.4567 22.6035C27.5055 22.6035 27.5306 22.6286 27.5306 22.7125V23.464H27.5481C27.7562 23.1383 28.1075 22.6035 28.6165 22.6035C28.8251 22.6035 29.092 22.745 29.092 23.046C29.092 23.2714 28.9341 23.4726 28.7006 23.4726C28.4408 23.4726 28.4408 23.2712 28.1484 23.2712C28.0066 23.2712 27.539 23.4638 27.539 23.9651V25.9257C27.539 26.2019 27.7058 26.2019 27.9397 26.2019H28.4069V26.419C27.9478 26.4103 27.5982 26.4025 27.239 26.4025C26.8964 26.4025 26.5456 26.4103 26.2452 26.419V26.2024Z" fill="black"/>
<path d="M29.4581 25.259C29.5672 25.8099 29.9004 26.2781 30.5109 26.2781C31.0027 26.2781 31.1863 25.9772 31.1863 25.6854C31.1863 24.6998 29.3668 25.0172 29.3668 23.6734C29.3668 23.2051 29.7427 22.6045 30.661 22.6045C30.9279 22.6045 31.2867 22.6798 31.6119 22.847L31.6705 23.6978H31.4786C31.3954 23.1721 31.1034 22.8717 30.5685 22.8717C30.2345 22.8717 29.9178 23.0634 29.9178 23.4225C29.9178 24.3999 31.8542 24.0988 31.8542 25.4096C31.8542 25.9602 31.4123 26.5454 30.4182 26.5454C30.0846 26.5454 29.6917 26.4281 29.4002 26.2613L29.3079 25.3011L29.4581 25.259Z" fill="black"/>
<path d="M39.3923 22.1029H39.184C39.0252 21.127 38.3323 20.7343 37.3979 20.7343C36.4368 20.7343 35.0432 21.3765 35.0432 23.3801C35.0432 25.067 36.2458 26.2776 37.531 26.2776C38.3568 26.2776 39.0427 25.7097 39.2095 24.8328L39.4014 24.8827L39.2095 26.1019C38.8589 26.3194 37.9153 26.545 37.3637 26.545C35.4112 26.545 34.1758 25.2841 34.1758 23.4059C34.1758 21.6942 35.7035 20.4666 37.3396 20.4666C38.0155 20.4666 38.6665 20.6844 39.3092 20.9098L39.3923 22.1029Z" fill="black"/>
<path d="M39.6953 26.2021H39.8533C40.0879 26.2021 40.2545 26.2021 40.2545 25.9259V21.2772C40.2545 20.7342 40.1295 20.7175 39.8119 20.6255V20.4919C40.1456 20.3836 40.4966 20.2337 40.6723 20.1328C40.7629 20.0834 40.8305 20.0408 40.855 20.0408C40.9061 20.0408 40.9226 20.0915 40.9226 20.1585V25.9259C40.9226 26.2021 41.1064 26.2021 41.3401 26.2021H41.4813V26.4192C41.1982 26.4192 40.9061 26.4027 40.6054 26.4027C40.305 26.4027 40.0048 26.4105 39.6955 26.4192V26.2021H39.6953Z" fill="black"/>
<path d="M45.0537 25.9603C45.0537 26.1111 45.145 26.119 45.2865 26.119C45.3875 26.119 45.5121 26.1111 45.6213 26.1111V26.2868C45.2621 26.3197 44.5772 26.4952 44.4185 26.5454L44.3769 26.52V25.8437C43.8765 26.2526 43.492 26.5454 42.8982 26.5454C42.4477 26.5454 41.9803 26.2526 41.9803 25.5522V23.4143C41.9803 23.1968 41.9473 22.988 41.4805 22.9471V22.7879C41.7812 22.7796 42.4477 22.7297 42.5566 22.7297C42.6493 22.7297 42.6493 22.7879 42.6493 22.9718V25.1254C42.6493 25.3761 42.6492 26.0935 43.3754 26.0935C43.6588 26.0935 44.0345 25.8769 44.385 25.5852V23.3388C44.385 23.172 43.9845 23.0802 43.6844 22.9971V22.8472C44.435 22.7961 44.9031 22.7297 44.9865 22.7297C45.0539 22.7297 45.0539 22.7879 45.0539 22.88V25.9603H45.0537Z" fill="black"/>
<path d="M46.7119 25.4752C46.7119 25.7924 47.0127 26.327 47.5718 26.327C48.4649 26.327 48.8404 25.4503 48.8404 24.707C48.8404 23.8057 48.1566 23.0546 47.5056 23.0546C47.1956 23.0546 46.9372 23.2551 46.7119 23.4473V25.4752ZM46.7119 23.2044C47.0457 22.9214 47.4967 22.6035 47.9558 22.6035C48.9243 22.6035 49.5086 23.4473 49.5086 24.3571C49.5086 25.4503 48.707 26.5445 47.5127 26.5445C46.8956 26.5445 46.5699 26.3435 46.3524 26.2517L46.1028 26.4437L45.9277 26.3523C46.0024 25.8598 46.0445 25.3755 46.0445 24.866V21.2769C46.0445 20.734 45.9188 20.7173 45.6016 20.6253V20.4917C45.9358 20.3834 46.2861 20.2334 46.4613 20.1325C46.5534 20.0832 46.62 20.0405 46.6454 20.0405C46.6951 20.0405 46.7119 20.0914 46.7119 20.1583V23.2044Z" fill="black"/>
<path d="M10.7 31.2735H10.7638C10.9272 31.2735 11.0998 31.2512 11.0998 31.0145V28.6347C11.0998 28.3979 10.9272 28.3754 10.7638 28.3754H10.7V28.239C10.8771 28.239 11.1497 28.2569 11.3729 28.2569C11.5999 28.2569 11.8721 28.239 12.0856 28.239V28.3754H12.0215C11.8588 28.3754 11.6858 28.3979 11.6858 28.6347V31.0145C11.6858 31.2512 11.8588 31.2735 12.0215 31.2735H12.0856V31.41C11.8678 31.41 11.5945 31.3923 11.3682 31.3923C11.1452 31.3923 10.8771 31.41 10.7 31.41V31.2735Z" fill="black"/>
<path d="M12.0655 31.3903L12.0656 31.2935H12.0218C11.8593 31.2935 11.6662 31.2651 11.6652 31.0142V28.6344C11.6662 28.3831 11.8593 28.3551 12.0218 28.3551H12.0655V28.2583C11.8559 28.2585 11.5926 28.2764 11.3723 28.2764C11.1565 28.2764 10.8953 28.2593 10.7194 28.2583V28.3551H10.7629C10.9249 28.3551 11.1183 28.3831 11.1183 28.6344V31.0142C11.1183 31.2651 10.9249 31.2935 10.7629 31.2935H10.7194V31.3903C10.8953 31.3888 11.1519 31.3721 11.3673 31.3721C11.5886 31.3719 11.8512 31.3891 12.0655 31.3903ZM12.0851 31.429C11.8653 31.429 11.5935 31.4111 11.3673 31.4111C11.145 31.4111 10.8778 31.429 10.6995 31.429H10.6797V31.4097V31.2734V31.2536H10.6995H10.7629C10.9278 31.2496 11.0778 31.2362 11.0791 31.0142V28.6344C11.0778 28.412 10.9278 28.3976 10.7629 28.3947H10.6797V28.3749V28.2188H10.6995C10.8778 28.2188 11.1502 28.2366 11.3723 28.2366C11.5983 28.2366 11.8703 28.2188 12.0851 28.2188H12.1054V28.239V28.3947H12.0851H12.0218C11.8567 28.3976 11.7059 28.412 11.7051 28.6344V31.0142C11.7059 31.2362 11.8567 31.2495 12.0218 31.2536H12.1054V31.2734V31.429H12.0851Z" fill="black"/>
<path d="M15.2063 30.5147L15.2154 30.5056V28.8027C15.2154 28.4299 14.9561 28.3754 14.8199 28.3754H14.7199V28.239C14.9338 28.239 15.1427 28.2571 15.3558 28.2571C15.542 28.2571 15.7292 28.239 15.9146 28.239V28.3754H15.8472C15.6558 28.3754 15.4422 28.4117 15.4422 28.9523V31.0192C15.4422 31.1784 15.4467 31.3375 15.4691 31.4783H15.2964L12.9573 28.8703V30.7425C12.9573 31.138 13.034 31.2737 13.3839 31.2737H13.4613V31.4102C13.266 31.4102 13.0708 31.3923 12.8755 31.3923C12.6715 31.3923 12.4623 31.4102 12.2576 31.4102V31.2737H12.3213C12.6347 31.2737 12.73 31.0601 12.73 30.6976V28.7836C12.73 28.5294 12.5205 28.3754 12.317 28.3754H12.2576V28.239C12.4299 28.239 12.6074 28.2571 12.7795 28.2571C12.9162 28.2571 13.0481 28.239 13.1843 28.239L15.2063 30.5147Z" fill="black"/>
<path d="M15.1955 30.5055V30.5037L15.1918 30.5008L15.1955 30.5055ZM15.2063 30.5146L15.2206 30.5015L15.2063 30.5146ZM15.2964 31.4577H15.4467C15.4264 31.3209 15.4228 31.1701 15.4228 31.0189V28.952C15.4228 28.4067 15.6513 28.3553 15.847 28.355H15.8948V28.2582C15.7158 28.2595 15.5364 28.2761 15.3557 28.2761C15.1477 28.2761 14.9454 28.2595 14.7401 28.2582L14.7396 28.355H14.8199C14.9595 28.3553 15.2348 28.4172 15.2348 28.8024L15.2288 30.5196L15.2199 30.5285L15.2044 30.5431L13.1841 28.2583C13.0491 28.2583 12.9177 28.2762 12.7791 28.2762C12.6127 28.2762 12.4421 28.2597 12.2774 28.2583L12.2765 28.3552H12.3169C12.53 28.3555 12.7492 28.518 12.7492 28.784V30.6972C12.7492 31.0607 12.6479 31.293 12.3212 31.2942L12.2774 31.293V31.3903C12.4741 31.3888 12.6768 31.3721 12.8753 31.3721C13.0648 31.3721 13.2539 31.389 13.4413 31.3903V31.294H13.3839C13.0264 31.2928 12.9379 31.1371 12.9375 30.7421V28.8189L15.2964 31.4577ZM15.4689 31.4973L15.2818 31.4909L12.9764 28.9216V30.7424C12.9819 31.1374 13.0419 31.2495 13.3839 31.254H13.4812V31.2736V31.4294H13.4611C13.2646 31.4294 13.0691 31.4113 12.8753 31.4113C12.6718 31.4113 12.4631 31.4294 12.2573 31.4294H12.2373V31.4101V31.254H12.2573H12.3212C12.6215 31.2523 12.7073 31.0593 12.7105 30.6975V28.7844C12.7097 28.5424 12.5112 28.3952 12.3169 28.3952H12.2373V28.3746V28.2195H12.2573C12.4309 28.2195 12.6087 28.2372 12.7791 28.2372C12.9146 28.2372 13.0458 28.2195 13.1991 28.2265L15.1955 30.4736V28.8028C15.1932 28.4418 14.9521 28.398 14.8199 28.3952H14.6997V28.3746V28.2195H14.7198C14.9344 28.2195 15.1435 28.2372 15.3557 28.2372C15.5406 28.2372 15.7268 28.2195 15.9146 28.2195H15.9345V28.2391V28.3952H15.9146H15.847C15.6594 28.4 15.467 28.4165 15.4615 28.9524V31.0193C15.4615 31.1783 15.4665 31.3369 15.4883 31.4748L15.4924 31.4975H15.4689V31.4973Z" fill="black"/>
<path d="M16.5937 28.4661C16.2525 28.4661 16.2395 28.5483 16.1712 28.8793H16.0349C16.0527 28.7523 16.0754 28.625 16.0895 28.4935C16.1078 28.3657 16.1167 28.239 16.1167 28.1076H16.2257C16.2622 28.244 16.3758 28.239 16.499 28.239H18.842C18.9653 28.239 19.0786 28.2345 19.0881 28.0981L19.1964 28.1167C19.1789 28.239 19.1603 28.3617 19.1471 28.4847C19.1383 28.6073 19.1383 28.7297 19.1383 28.8523L19.0016 28.9029C18.9923 28.7347 18.97 28.4663 18.6656 28.4663H17.9205V30.8831C17.9205 31.2336 18.0796 31.2736 18.2973 31.2736H18.3839V31.4102C18.2068 31.4102 17.8885 31.3925 17.6437 31.3925C17.3708 31.3925 17.0525 31.4102 16.8752 31.4102V31.2736H16.9619C17.2122 31.2736 17.3388 31.2513 17.3388 30.8924V28.4661H16.5937Z" fill="black"/>
<path d="M18.3845 31.4294C18.2055 31.4294 17.8879 31.4115 17.6438 31.4115C17.3713 31.4115 17.0537 31.4294 16.8754 31.4294H16.8561V31.4101V31.254H16.8754H16.962C17.2124 31.2481 17.313 31.2449 17.3188 30.8923V28.4857H16.5939V28.4662V28.4459H17.3582V30.8925C17.3582 31.2572 17.2112 31.294 16.962 31.2945H16.8948V31.3905C17.074 31.3893 17.3801 31.3726 17.6438 31.3726C17.8805 31.3726 18.1838 31.3895 18.3638 31.3905V31.2945H18.2974C18.0779 31.294 17.9009 31.2402 17.9009 30.8831V28.4459H18.6658C18.9705 28.4471 19.0107 28.7061 19.0204 28.8753L19.1185 28.839C19.1185 28.7202 19.119 28.6014 19.1273 28.482C19.1405 28.3646 19.1571 28.2492 19.1742 28.1328L19.1051 28.1215C19.084 28.2537 18.956 28.2607 18.842 28.2592H16.4991H16.4754C16.3686 28.2594 16.252 28.254 16.2113 28.1271H16.1363C16.1355 28.2527 16.1269 28.3746 16.1097 28.4958C16.0961 28.6206 16.0754 28.7405 16.0588 28.861H16.1557C16.2156 28.5439 16.2544 28.4416 16.5939 28.4461V28.4664V28.4858C16.2575 28.4924 16.2648 28.5486 16.1906 28.8842L16.1874 28.8997H16.1714H16.0123L16.0149 28.8762C16.0333 28.7494 16.0564 28.6218 16.0696 28.49C16.0885 28.3641 16.0973 28.2379 16.0973 28.1077V28.0876H16.1167H16.2414L16.2448 28.1018C16.2756 28.2164 16.3595 28.2172 16.4754 28.2193H16.4991H18.842C18.9686 28.2172 19.0608 28.2157 19.0685 28.0967L19.0702 28.0752L19.0907 28.0793L19.2191 28.0996L19.2159 28.1196C19.1978 28.2415 19.1801 28.3639 19.1665 28.4857C19.1579 28.6072 19.1579 28.7295 19.1579 28.8523V28.866L19.1447 28.8712L18.9841 28.9302L18.9829 28.9038C18.9705 28.7329 18.9528 28.4857 18.6658 28.4857H17.9405V30.8829C17.9451 31.2254 18.081 31.2495 18.2974 31.2538H18.4039V31.2734V31.4292H18.3845V31.4294Z" fill="black"/>
<path d="M19.3398 31.2735H19.4038C19.567 31.2735 19.74 31.2512 19.74 31.0145V28.6347C19.74 28.3979 19.567 28.3754 19.4038 28.3754H19.3398V28.239C19.6162 28.239 20.0897 28.2569 20.4705 28.2569C20.8529 28.2569 21.3246 28.239 21.6336 28.239C21.6256 28.4342 21.6299 28.7348 21.6432 28.9342L21.5063 28.9703C21.4845 28.6749 21.4301 28.4393 20.9528 28.4393H20.3221V29.6288H20.8617C21.1342 29.6288 21.1937 29.4749 21.2205 29.2293H21.3567C21.3478 29.4068 21.343 29.584 21.343 29.761C21.343 29.934 21.3478 30.1065 21.3567 30.2788L21.2205 30.3059C21.1937 30.0337 21.1799 29.8566 20.8663 29.8566H20.3221V30.9145C20.3221 31.2102 20.5846 31.2102 20.8754 31.2102C21.4207 31.2102 21.6612 31.1736 21.7978 30.6564L21.9245 30.6877C21.8654 30.9289 21.8112 31.169 21.7706 31.41C21.4795 31.41 20.9571 31.3923 20.549 31.3923C20.1393 31.3923 19.5992 31.41 19.3398 31.41V31.2735Z" fill="black"/>
<path d="M21.7562 31.39C21.7959 31.1604 21.8477 30.931 21.9034 30.7021L21.814 30.6798C21.678 31.1877 21.4144 31.2331 20.8782 31.2297C20.5919 31.2297 20.3058 31.2297 20.3042 30.9142V29.8363H20.8691C21.1863 29.8331 21.2183 30.0243 21.241 30.2827L21.339 30.2628C21.3303 30.0951 21.3258 29.9271 21.3258 29.7607C21.3258 29.5901 21.3303 29.4199 21.339 29.2484H21.241C21.2154 29.4857 21.1413 29.6513 20.8644 29.6486H20.3042V28.4187H20.9556C21.4281 28.4151 21.5064 28.6596 21.527 28.9454L21.6248 28.9188C21.6169 28.7907 21.6116 28.6259 21.6116 28.4743C21.6116 28.3966 21.6136 28.323 21.6162 28.2586C21.3076 28.2598 20.8469 28.2764 20.4734 28.2764C20.1001 28.2764 19.6406 28.2598 19.3626 28.2586V28.3551H19.4066C19.5682 28.3555 19.7615 28.3835 19.7625 28.6347V31.0146C19.7615 31.2655 19.5682 31.293 19.4066 31.2943H19.3626V31.3903C19.627 31.3894 20.1522 31.3724 20.5513 31.3724C20.9523 31.3719 21.4634 31.3891 21.7562 31.39ZM21.7731 31.429C21.4816 31.429 20.9588 31.4102 20.5513 31.4102C20.1421 31.4102 19.6021 31.429 19.3426 31.429H19.3235V31.4097V31.2732V31.2536H19.3426H19.4066C19.571 31.2508 19.7206 31.2362 19.7227 31.0142V28.6344C19.7206 28.4124 19.571 28.3976 19.4066 28.3947H19.3235V28.3749V28.2188H19.3426C19.6202 28.2188 20.0927 28.2366 20.4734 28.2366C20.8553 28.2366 21.327 28.2188 21.6363 28.2188H21.6565L21.6558 28.2397C21.6529 28.3078 21.651 28.3885 21.651 28.4739C21.651 28.6311 21.6558 28.8031 21.6647 28.9324L21.6656 28.9485L21.6503 28.9533L21.4905 28.995L21.4898 28.9714C21.463 28.6767 21.4235 28.4622 20.9556 28.4579H20.3434L20.3431 29.6083H20.8644C21.1263 29.6056 21.1731 29.4718 21.2041 29.2268L21.2051 29.2087H21.2231H21.3798L21.3794 29.2293C21.3707 29.4068 21.3653 29.5837 21.3653 29.7605C21.3653 29.9323 21.3707 30.1048 21.3794 30.2774L21.3798 30.2939L21.3633 30.2975L21.2051 30.3292L21.2041 30.3078C21.1726 30.0305 21.1705 29.8785 20.8691 29.8752H20.3434V30.914C20.3441 31.19 20.5821 31.1888 20.8782 31.19C21.4252 31.1867 21.6443 31.16 21.7811 30.6504L21.7858 30.632L21.8049 30.6352L21.9505 30.6731L21.9464 30.6916C21.8874 30.932 21.8332 31.1724 21.7921 31.4127L21.7887 31.4288H21.7731V31.429Z" fill="black"/>
<path d="M23.1231 29.7734H23.3451C23.7999 29.7734 24.0447 29.6013 24.0447 29.0649C24.0447 28.661 23.7858 28.4022 23.381 28.4022C23.2446 28.4022 23.1865 28.4162 23.1231 28.4205V29.7734ZM22.5417 28.7197C22.5417 28.3885 22.3597 28.3749 22.2187 28.3749H22.1367V28.2385C22.2822 28.2385 22.5639 28.2566 22.8412 28.2566C23.1133 28.2566 23.3316 28.2385 23.5724 28.2385C24.144 28.2385 24.6538 28.3928 24.6538 29.0383C24.6538 29.4467 24.3811 29.6964 24.0224 29.8379L24.7988 31.0003C24.9264 31.1924 25.0165 31.2464 25.2397 31.273V31.4096C25.0894 31.4096 24.9441 31.3918 24.7946 31.3918C24.6538 31.3918 24.5078 31.4096 24.3677 31.4096C24.0176 30.951 23.7175 30.4604 23.4224 29.9371H23.1231V30.9099C23.1231 31.2596 23.2862 31.2729 23.4945 31.2729H23.5768V31.4094C23.3174 31.4094 23.055 31.3917 22.7955 31.3917C22.5774 31.3917 22.3639 31.4094 22.1367 31.4094V31.2729H22.2187C22.3874 31.2729 22.5417 31.196 22.5417 31.028V28.7197Z" fill="black"/>
<path d="M23.3414 29.7545C23.7911 29.75 24.0177 29.5939 24.0222 29.0663C24.0194 28.6693 23.773 28.4234 23.3773 28.4215C23.2547 28.4215 23.1968 28.4327 23.1388 28.4385V29.7545H23.3414ZM23.1192 29.7932H23.0991V28.4022L23.1165 28.4008C23.1787 28.3959 23.2399 28.3831 23.3773 28.3831C23.7911 28.3831 24.0605 28.6521 24.0608 29.0663C24.0596 29.6085 23.7996 29.793 23.3414 29.7932H23.1192ZM23.1192 29.9177H23.4296L23.4353 29.9282C23.731 30.4499 24.0296 30.9405 24.364 31.3903C24.5023 31.3903 24.6483 31.3721 24.7898 31.3721C24.9347 31.3721 25.075 31.3881 25.216 31.39V31.2902C25.0032 31.2643 24.9031 31.1999 24.7791 31.0117L23.9883 29.8291L24.0106 29.82C24.3664 29.6799 24.63 29.4371 24.6302 29.0378C24.63 28.4076 24.1398 28.2612 23.5687 28.2585C23.3295 28.2585 23.1111 28.2765 22.8376 28.2765C22.5707 28.2765 22.3011 28.2595 22.1525 28.2585V28.3549H22.2151C22.3561 28.3553 22.5568 28.3788 22.5568 28.7198V31.0285C22.5568 31.2109 22.386 31.2937 22.2151 31.2942H22.1525V31.3901C22.3709 31.3893 22.5783 31.3722 22.7916 31.3722C23.0453 31.3722 23.3018 31.3894 23.5531 31.3901V31.2942H23.4908C23.284 31.2937 23.0991 31.2682 23.0991 30.9097V29.9178H23.1192V29.9177ZM25.236 31.429C25.0836 31.429 24.9392 31.4111 24.7898 31.4111C24.6513 31.4111 24.506 31.429 24.3478 31.4216C23.9993 30.9642 23.7006 30.4765 23.4072 29.9579H23.1388V30.9095C23.1438 31.2514 23.2809 31.2488 23.4908 31.2536H23.5928V31.2732V31.429H23.5727C23.313 31.429 23.0491 31.4111 22.7916 31.4111C22.5746 31.4111 22.3612 31.429 22.1331 31.429H22.1133V31.4097V31.2536H22.1331H22.2151C22.3784 31.2524 22.5165 31.1812 22.5172 31.0283V28.7197C22.5138 28.3976 22.3561 28.3993 22.2151 28.3947H22.1133V28.3751V28.2188H22.1331C22.2801 28.2188 22.5605 28.2366 22.8376 28.2366C23.1087 28.2366 23.3266 28.2188 23.5687 28.2188C24.1415 28.2201 24.6685 28.3778 24.6699 29.0378C24.6699 29.4479 24.3989 29.7039 24.0486 29.8468L24.8114 30.9896C24.9385 31.1781 25.0176 31.2252 25.2386 31.2536L25.2551 31.2562V31.2734V31.4292H25.236V31.429Z" fill="black"/>
<path d="M28.3235 30.5147L28.3314 30.5056V28.8027C28.3314 28.4299 28.0733 28.3754 27.937 28.3754H27.8374V28.239C28.051 28.239 28.2592 28.2571 28.4733 28.2571C28.66 28.2571 28.8449 28.239 29.0325 28.239V28.3754H28.9641C28.7732 28.3754 28.5598 28.4117 28.5598 28.9523V31.0192C28.5598 31.1784 28.5643 31.3375 28.5866 31.4783H28.4147L26.0754 28.8703V30.7425C26.0754 31.138 26.1521 31.2737 26.5017 31.2737H26.579V31.4102C26.3839 31.4102 26.1882 31.3923 25.993 31.3923C25.7879 31.3923 25.5793 31.4102 25.375 31.4102V31.2737H25.4381C25.7518 31.2737 25.8477 31.0601 25.8477 30.6976V28.7836C25.8477 28.5294 25.6384 28.3754 25.4342 28.3754H25.375V28.239C25.547 28.239 25.7254 28.2571 25.8977 28.2571C26.0327 28.2571 26.1651 28.239 26.3017 28.239L28.3235 30.5147Z" fill="black"/>
<path d="M28.3095 30.5055V30.5043L28.3062 30.5008L28.3095 30.5055ZM28.3203 30.5146L28.3351 30.5015L28.3203 30.5146ZM28.412 31.4578H28.5607C28.541 31.3217 28.5368 31.1701 28.5368 31.0189V28.952C28.5372 28.4067 28.7669 28.3562 28.9614 28.355H29.0092V28.2582C28.8304 28.2595 28.6508 28.2761 28.4706 28.2761C28.2619 28.2761 28.0595 28.2595 27.854 28.2582V28.355H27.9343C28.0743 28.3562 28.3494 28.4172 28.3494 28.8024L28.3429 30.5196L28.3346 30.5285L28.3203 30.5435L26.2992 28.2583C26.164 28.2583 26.0323 28.2762 25.8951 28.2762C25.7266 28.2762 25.5568 28.2597 25.3918 28.2583V28.3552H25.4317C25.6454 28.3564 25.864 28.5173 25.864 28.7833V30.6962C25.864 31.0607 25.7613 31.293 25.4356 31.2942L25.3918 31.2937V31.3903C25.588 31.389 25.7904 31.3723 25.9897 31.3723C26.1802 31.3723 26.369 31.3891 26.5568 31.3903V31.2942H26.4992C26.1417 31.2937 26.0526 31.1377 26.0516 30.7419V28.8198L28.412 31.4578ZM28.584 31.4973L28.3972 31.4909L26.0915 28.9218V30.7421C26.0968 31.1379 26.1566 31.2495 26.4992 31.254H26.5955V31.2736V31.4294H26.5757C26.3793 31.4294 26.1843 31.4106 25.9897 31.4106C25.7869 31.4106 25.577 31.4294 25.3723 31.4294H25.3521V31.4101V31.254H25.3723H25.4356C25.7357 31.2528 25.8217 31.0593 25.8246 30.6965V28.7837C25.8241 28.5416 25.626 28.3952 25.4317 28.3952H25.3521V28.3754V28.2195H25.3723C25.5458 28.2195 25.7236 28.2372 25.8951 28.2372C26.0285 28.2372 26.1601 28.2195 26.3126 28.2253L28.3095 30.4738V28.8029C28.3083 28.442 28.0664 28.3975 27.9343 28.3954H27.8145V28.3756V28.2197H27.8342C28.0488 28.2197 28.2583 28.2374 28.4706 28.2374C28.6557 28.2374 28.8417 28.2197 29.029 28.2197H29.0491V28.2398V28.3954H29.029H28.9614C28.774 28.3999 28.5809 28.4167 28.5764 28.9525V31.0194C28.5764 31.1785 28.5803 31.336 28.6036 31.4753L28.6058 31.4976H28.584V31.4973Z" fill="black"/>
<path d="M30.4248 28.7479H30.4154L29.9932 30.0338H30.842L30.4248 28.7479ZM29.7616 30.7606C29.7159 30.9147 29.661 31.0339 29.661 31.1145C29.661 31.2516 29.8524 31.2739 30.0018 31.2739H30.0526V31.4103C29.8701 31.4003 29.6847 31.3926 29.502 31.3926C29.3384 31.3926 29.1758 31.4003 29.0117 31.4103V31.2739H29.0394C29.2162 31.2739 29.3666 31.1692 29.434 30.9782L30.1609 28.8937C30.2202 28.7254 30.3021 28.4982 30.3298 28.3299C30.4742 28.2802 30.6566 28.1899 30.7426 28.1345C30.7567 28.1301 30.7651 28.1252 30.7791 28.1252C30.7927 28.1252 30.8011 28.1252 30.8111 28.1395C30.8245 28.1755 30.8377 28.2164 30.8518 28.2527L31.688 30.6289C31.7424 30.7875 31.7965 30.9553 31.8547 31.0923C31.91 31.2198 32.0055 31.2738 32.1559 31.2738H32.1831V31.4101C31.9785 31.4001 31.7735 31.3924 31.5563 31.3924C31.3336 31.3924 31.1058 31.4001 30.8742 31.4101V31.2738H30.9242C31.0281 31.2738 31.2064 31.2557 31.2064 31.1419C31.2064 31.0832 31.1655 30.9604 31.1147 30.8146L30.9378 30.2879H29.9067L29.7616 30.7606Z" fill="black"/>
<path d="M30.4053 28.7538L30.4158 28.7504L30.4053 28.7538ZM30.0201 30.0137H30.8156L30.4203 28.7963L30.0201 30.0137ZM29.966 30.0531L30.4007 28.7277H30.4158H30.4253V28.7478L30.4206 28.7492L30.4253 28.7478V28.7277H30.439L30.8706 30.0531H29.966ZM30.8945 31.389C31.1193 31.3811 31.3399 31.3722 31.5569 31.3722C31.7677 31.3722 31.9656 31.3811 32.163 31.389V31.2938H32.1563C32.0005 31.295 31.8934 31.2336 31.8375 31.0996C31.7784 30.9624 31.7232 30.7939 31.6695 30.6347L30.8331 28.2589C30.8194 28.2227 30.8065 28.1819 30.7946 28.1496C30.7902 28.1451 30.791 28.1451 30.7876 28.1451H30.779C30.7697 28.1451 30.7644 28.1479 30.7527 28.1508C30.6653 28.2075 30.4832 28.2971 30.3481 28.3325C30.3204 28.5047 30.2383 28.7318 30.1794 28.9L29.4527 30.9846C29.3834 31.1822 29.2238 31.2945 29.0393 31.2939H29.0317V31.3892C29.1877 31.3813 29.3449 31.3724 29.5025 31.3724C29.6783 31.3724 29.8575 31.3813 30.0311 31.3892V31.2939H30.0019C29.8537 31.2919 29.647 31.2759 29.6417 31.1148C29.642 31.0248 29.6977 30.9086 29.7423 30.7549L29.7617 30.7605L29.7423 30.7544L29.8919 30.2689H30.9513L31.1332 30.8085C31.1843 30.9547 31.2255 31.0757 31.2255 31.1419C31.2188 31.2812 31.0276 31.2914 30.9246 31.2939H30.8944V31.389H30.8945ZM32.182 31.4293C31.9778 31.4205 31.7731 31.4105 31.5567 31.4105C31.3341 31.4105 31.1076 31.4207 30.8756 31.4293L30.8546 31.4305V31.41V31.253H30.8746H30.9246C31.0299 31.253 31.186 31.2293 31.1862 31.1419C31.1874 31.0902 31.1464 30.9659 31.0966 30.8212L30.9236 30.3074H29.9214L29.7801 30.7667C29.7343 30.9208 29.6793 31.041 29.68 31.1148C29.6816 31.2259 29.8513 31.2532 30.0019 31.2532H30.0717V31.2738V31.4307L30.0513 31.4294C29.8695 31.4207 29.6841 31.4107 29.5025 31.4107C29.3402 31.4107 29.176 31.4209 29.0133 31.4294L28.9922 31.4307V31.4102V31.2532H29.0118H29.0393C29.2082 31.2529 29.3493 31.1564 29.4149 30.9719L30.1424 28.8866C30.2012 28.7184 30.2837 28.4925 30.3226 28.3109C30.4652 28.2625 30.6481 28.1711 30.7353 28.116C30.7479 28.1116 30.7604 28.1055 30.7788 28.1055C30.7898 28.1049 30.8144 28.1081 30.8292 28.1315C30.8419 28.1688 30.8564 28.2096 30.8701 28.2462L31.7065 30.6221C31.7602 30.7812 31.8143 30.9488 31.8738 31.0836C31.9266 31.2047 32.0098 31.2525 32.156 31.2529H32.2019V31.2735V31.4303L32.182 31.4293Z" fill="black"/>
<path d="M32.3838 28.4659C32.0431 28.4659 32.029 28.5481 31.9609 28.8791H31.8242C31.8421 28.752 31.8653 28.6248 31.8794 28.4932C31.8973 28.3655 31.9059 28.2387 31.9059 28.1074H32.0158C32.0514 28.2437 32.165 28.2387 32.2878 28.2387H34.6323C34.7543 28.2387 34.8678 28.2343 34.8769 28.0979L34.9856 28.1165C34.9686 28.2387 34.9507 28.3615 34.9364 28.4845C34.9263 28.6071 34.9263 28.7295 34.9263 28.8521L34.7906 28.9027C34.7825 28.7345 34.7597 28.4661 34.4548 28.4661H33.7099V30.8829C33.7099 31.2333 33.8691 31.2734 34.0866 31.2734H34.1735V31.4099C33.9962 31.4099 33.6786 31.3922 33.4327 31.3922C33.1607 31.3922 32.8417 31.4099 32.6647 31.4099V31.2734H32.7512C33.0016 31.2734 33.1282 31.251 33.1282 30.8922V28.4659H32.3838Z" fill="black"/>
<path d="M34.1734 31.4294C33.9949 31.4294 33.6765 31.4115 33.4323 31.4115C33.161 31.4115 32.8428 31.4294 32.6649 31.4294H32.6447V31.4101V31.254H32.6649H32.751C33.0017 31.2481 33.1021 31.2449 33.1082 30.8923L33.1078 28.4857H32.3835V28.4662V28.4459H33.1477V30.8925C33.1477 31.2572 33.0007 31.2932 32.7508 31.294H32.6839V31.3908C32.8636 31.3893 33.1687 31.3726 33.4321 31.3726C33.6696 31.3726 33.9734 31.3895 34.153 31.3908V31.294H34.0861C33.8673 31.2932 33.6902 31.2406 33.6899 30.8831V28.4459H34.4542C34.7593 28.4471 34.7992 28.7061 34.8079 28.8753L34.9066 28.839C34.9066 28.7202 34.9073 28.6014 34.9166 28.4826C34.9288 28.3655 34.946 28.2494 34.9627 28.1333L34.8941 28.1215C34.8733 28.2537 34.745 28.2611 34.632 28.2592H32.2876H32.2644C32.1572 28.2602 32.0413 28.254 32.0001 28.1268H31.9258C31.9248 28.2525 31.9156 28.3746 31.8979 28.4958C31.8856 28.6212 31.8637 28.7414 31.8464 28.861H31.9438C32.0037 28.5439 32.0429 28.4411 32.3834 28.4461V28.4664V28.4858C32.0465 28.4915 32.0539 28.5486 31.9796 28.8842L31.9763 28.8997H31.9604H31.8008L31.8037 28.8772C31.8226 28.7494 31.845 28.622 31.8582 28.491C31.8766 28.3641 31.8852 28.2379 31.8852 28.1077V28.0876H31.9052H32.0295L32.0333 28.1018C32.0651 28.2164 32.1478 28.2172 32.264 28.2193H32.2872H34.6317C34.7574 28.2172 34.8492 28.2157 34.8571 28.097L34.858 28.0752L34.8791 28.0793L35.0081 28.0996L35.0048 28.1196C34.9861 28.2415 34.9689 28.3639 34.9553 28.4857C34.9458 28.6072 34.9458 28.7297 34.9458 28.8523V28.866L34.9326 28.8712L34.7718 28.9302L34.771 28.9038C34.7593 28.7329 34.7412 28.4857 34.4541 28.4857H33.7286V30.8829C33.7332 31.2254 33.8692 31.2495 34.0857 31.2538H34.1916V31.2734V31.4292H34.1734V31.4294Z" fill="black"/>
<path d="M35.1526 31.2735H35.2162C35.3799 31.2735 35.5519 31.2512 35.5519 31.0145V28.6347C35.5519 28.3979 35.3799 28.3754 35.2162 28.3754H35.1526V28.239C35.3299 28.239 35.6019 28.2569 35.8242 28.2569C36.0517 28.2569 36.3246 28.239 36.5385 28.239V28.3754H36.4747C36.3105 28.3754 36.1377 28.3979 36.1377 28.6347V31.0145C36.1377 31.2512 36.3105 31.2735 36.4747 31.2735H36.5385V31.41C36.3202 31.41 36.0474 31.3923 35.8204 31.3923C35.5974 31.3923 35.3297 31.41 35.1524 31.41V31.2735H35.1526Z" fill="black"/>
<path d="M36.517 31.39V31.2935H36.474C36.311 31.2935 36.1182 31.2651 36.1182 31.0142V28.6344C36.1182 28.3831 36.311 28.3551 36.474 28.3548H36.517V28.2583C36.3074 28.2595 36.0445 28.276 35.8233 28.276C35.6077 28.276 35.3475 28.2595 35.1715 28.2583V28.3548H35.2155C35.3768 28.3551 35.5704 28.3831 35.5709 28.6344V31.0142C35.5704 31.2651 35.3768 31.2935 35.2155 31.2935H35.1715V31.39C35.3465 31.3879 35.6034 31.3721 35.8197 31.3721C36.04 31.3719 36.3028 31.3887 36.517 31.39ZM36.5376 31.429C36.3181 31.429 36.0464 31.4102 35.8196 31.4102C35.5972 31.4102 35.329 31.429 35.1515 31.429H35.1321V31.4097V31.2732V31.2536H35.1515H35.2153C35.379 31.2508 35.53 31.2364 35.531 31.0142V28.6344C35.53 28.4124 35.379 28.3976 35.2153 28.3947H35.1321V28.3749V28.2188H35.1515C35.329 28.2188 35.6022 28.2366 35.8232 28.2366C36.0496 28.2366 36.3222 28.2188 36.5375 28.2188H36.5562V28.2385V28.3947H36.5375H36.4738C36.3074 28.3976 36.1581 28.4124 36.1564 28.6344V31.0142C36.1581 31.2364 36.3074 31.2508 36.4738 31.2536H36.5562V31.2732V31.429H36.5376Z" fill="black"/>
<path d="M38.4168 31.2781C39.2984 31.2781 39.4521 30.5007 39.4521 29.8383C39.4521 29.1746 39.0941 28.3707 38.3396 28.3707C37.5448 28.3707 37.3084 29.0795 37.3084 29.6877C37.3084 30.5009 37.681 31.2781 38.4168 31.2781ZM38.348 28.1709C39.3166 28.1709 40.0884 28.771 40.0884 29.7386C40.0884 30.7836 39.3388 31.4781 38.3716 31.4781C37.4079 31.4781 36.6725 30.8238 36.6725 29.8471C36.6725 28.9027 37.4036 28.1709 38.348 28.1709Z" fill="black"/>
<path d="M37.2882 29.6875C37.2897 29.0763 37.5282 28.3503 38.3392 28.3503C39.1106 28.3521 39.4703 29.1707 39.4718 29.8381C39.4703 30.5007 39.3145 31.2965 38.4167 31.2965V31.2779V31.2581C39.2804 31.2573 39.4306 30.5007 39.4319 29.8381C39.4319 29.18 39.0774 28.3914 38.3392 28.3902C37.5599 28.3911 37.3296 29.0824 37.3275 29.6875C37.3279 30.4967 37.6972 31.2567 38.4167 31.2581V31.2779V31.2965C37.6629 31.2959 37.2897 30.5053 37.2882 29.6875ZM36.6521 29.8469C36.654 28.8913 37.3936 28.1524 38.3478 28.1509V28.1707V28.1904C37.4139 28.1904 36.6915 28.9123 36.6904 29.8469C36.6923 30.8126 37.4173 31.4571 38.3715 31.4574C39.3288 31.4571 40.0677 30.7727 40.069 29.7377C40.0682 28.7821 39.3083 28.1913 38.3476 28.1904V28.1707V28.1509C39.3231 28.1519 40.106 28.7581 40.1075 29.7379C40.1065 30.7938 39.3478 31.4956 38.3713 31.4971C37.3999 31.4954 36.654 30.8344 36.6521 29.8469Z" fill="black"/>
<path d="M43.1516 30.5147L43.1611 30.5056V28.8027C43.1611 28.4299 42.9013 28.3754 42.7651 28.3754H42.6662V28.239C42.8791 28.239 43.0885 28.2571 43.3013 28.2571C43.4882 28.2571 43.6742 28.239 43.8608 28.239V28.3754H43.7925C43.6022 28.3754 43.3877 28.4117 43.3877 28.9523V31.0192C43.3877 31.1784 43.3924 31.3375 43.4154 31.4783H43.2426L40.9028 28.8703V30.7425C40.9028 31.138 40.9802 31.2737 41.3293 31.2737H41.4072V31.4102C41.2116 31.4102 41.0166 31.3923 40.8213 31.3923C40.6169 31.3923 40.4078 31.4102 40.2031 31.4102V31.2737H40.2669C40.5809 31.2737 40.6757 31.0601 40.6757 30.6976V28.7836C40.6757 28.5294 40.4674 28.3754 40.2619 28.3754H40.2031V28.239C40.3758 28.239 40.5527 28.2571 40.7257 28.2571C40.8617 28.2571 40.9927 28.239 41.1296 28.239L43.1516 30.5147Z" fill="black"/>
<path d="M43.1398 30.5055V30.5043L43.1362 30.5008L43.1398 30.5055ZM43.1503 30.5146L43.1647 30.5015L43.1503 30.5146ZM43.2414 31.4577H43.3903C43.3711 31.3209 43.3666 31.1701 43.3666 31.0189V28.952C43.3666 28.4057 43.596 28.3562 43.791 28.355H43.8402V28.2582C43.6598 28.2595 43.4811 28.2761 43.2994 28.2761C43.0925 28.2761 42.8894 28.2595 42.6838 28.2582V28.355H42.7637C42.9039 28.3562 43.1781 28.4181 43.1781 28.8024L43.1735 30.5196L43.1647 30.5285L43.1503 30.5435L41.1284 28.2585C40.9941 28.2585 40.8617 28.2764 40.7242 28.2764C40.5567 28.2764 40.3861 28.2599 40.2209 28.2585V28.3553H40.2606C40.4741 28.3565 40.6937 28.5175 40.6937 28.7835V30.6974C40.6937 31.0609 40.5923 31.2932 40.2654 31.2944L40.2209 31.2939V31.3905C40.4179 31.3891 40.6201 31.3725 40.8198 31.3725C41.0094 31.3725 41.1976 31.3893 41.3859 31.3905V31.2944H41.3272C40.9708 31.2939 40.8813 31.1379 40.8813 30.7424V28.8193L43.2414 31.4577ZM43.4142 31.4973L43.2263 31.4909L40.9209 28.9218V30.7424C40.9262 31.1379 40.9864 31.249 41.3274 31.2531H41.4252V31.2738V31.4294H41.406C41.2093 31.4294 41.0143 31.4113 40.8199 31.4113C40.6162 31.4113 40.4074 31.4294 40.2012 31.4294H40.1827V31.4101V31.2531H40.2012H40.2654C40.5648 31.2523 40.6511 31.0593 40.6547 30.6975V28.7837C40.6545 28.5416 40.4561 28.3952 40.2607 28.3952H40.1827V28.3754V28.2195H40.2012C40.3754 28.2195 40.5526 28.2372 40.7242 28.2372C40.859 28.2372 40.9895 28.2195 41.1434 28.2265L43.1395 30.4736V28.8028C43.1379 28.4418 42.896 28.398 42.7634 28.3952H42.6439V28.3754V28.2195H42.6645C42.8779 28.2195 43.0875 28.2372 43.299 28.2372C43.4849 28.2372 43.6703 28.2195 43.8593 28.2195H43.8782V28.2391V28.3952H43.8593H43.7907C43.6034 28.4 43.4103 28.4172 43.4063 28.9524V31.0193C43.4063 31.1783 43.4099 31.3369 43.4318 31.4751L43.4357 31.4975H43.4142V31.4973Z" fill="black"/>
<path d="M45.253 28.7481H45.2439L44.8204 30.034H45.671L45.253 28.7481ZM44.5886 30.7609C44.544 30.915 44.4892 31.0341 44.4892 31.1148C44.4892 31.2518 44.6806 31.2742 44.8295 31.2742H44.8802V31.4105C44.6983 31.4006 44.5119 31.3928 44.3299 31.3928C44.1664 31.3928 44.0032 31.4006 43.8402 31.4105V31.2742H43.866C44.044 31.2742 44.1944 31.1694 44.261 30.9784L44.9892 28.894C45.0479 28.7256 45.13 28.4985 45.1564 28.3301C45.3023 28.2804 45.4834 28.1901 45.5711 28.1348C45.5837 28.1303 45.593 28.1255 45.6071 28.1255C45.6201 28.1255 45.6289 28.1255 45.638 28.1398C45.6519 28.1757 45.6655 28.2166 45.6793 28.2529L46.515 30.6292C46.5691 30.7877 46.624 30.9555 46.6833 31.0926C46.7377 31.22 46.8331 31.274 46.9829 31.274H47.0107V31.4104C46.8059 31.4004 46.6013 31.3926 46.3831 31.3926C46.1611 31.3926 45.9336 31.4004 45.7016 31.4104V31.274H45.752C45.8559 31.274 46.034 31.2559 46.034 31.1421C46.034 31.0835 45.9933 30.9607 45.9425 30.8149L45.7656 30.2882H44.7345L44.5886 30.7609Z" fill="black"/>
<path d="M45.2336 28.7537L45.2426 28.7502L45.2336 28.7537ZM44.8477 30.0136H45.6424L45.2472 28.7968L44.8477 30.0136ZM44.7929 30.0528L45.2291 28.7275H45.2426H45.2527V28.7477L45.2475 28.749L45.2527 28.7477V28.7275H45.2665L45.696 30.0528H44.7929ZM45.7209 31.3892C45.9459 31.381 46.1668 31.3721 46.3835 31.3721C46.5946 31.3721 46.7922 31.381 46.9905 31.3889L46.99 31.2936H46.9822C46.8283 31.2942 46.7212 31.2335 46.6645 31.0995C46.6046 30.9623 46.5506 30.7938 46.4961 30.6352L45.6602 28.2588C45.6468 28.2225 45.6324 28.1818 45.6217 28.1503C45.6179 28.145 45.6181 28.145 45.6155 28.145H45.6066C45.5966 28.145 45.5916 28.1481 45.581 28.1513C45.4921 28.2067 45.3103 28.2978 45.1762 28.3324C45.148 28.5045 45.0654 28.7313 45.0072 28.8998L44.2796 30.9845C44.2107 31.182 44.0518 31.2943 43.8661 31.2938H43.8593V31.3891C44.0157 31.3812 44.1718 31.3722 44.3298 31.3722C44.5057 31.3722 44.6854 31.3812 44.86 31.3891V31.2938H44.8292C44.6815 31.2917 44.4744 31.2761 44.4688 31.1143C44.4698 31.0247 44.5257 30.9088 44.5702 30.7547L44.5883 30.7604L44.5702 30.7542L44.7196 30.2688H45.7784L45.961 30.8084C46.011 30.9545 46.0525 31.0756 46.0525 31.1418C46.0459 31.2811 45.8549 31.2912 45.7517 31.2938H45.7209V31.3892ZM47.0089 31.4291C46.8043 31.4211 46.6002 31.4113 46.3835 31.4113C46.1618 31.4113 45.9342 31.4212 45.7027 31.4291L45.6826 31.4303V31.4099V31.2537H45.702H45.7517C45.8571 31.2537 46.0136 31.2292 46.0138 31.1418C46.0152 31.09 45.9741 30.9662 45.923 30.8211L45.7507 30.3073H44.7478L44.6075 30.7666C44.5618 30.922 44.5081 31.0409 44.5087 31.1143C44.5087 31.2255 44.6791 31.2539 44.8292 31.2539H44.8986V31.2735V31.4305L44.8782 31.4293C44.6968 31.4212 44.5107 31.4114 44.3298 31.4114C44.1671 31.4114 44.004 31.4214 43.8401 31.4293L43.8203 31.4305V31.4101V31.2539H43.8401H43.8659C44.0351 31.2531 44.177 31.1561 44.2433 30.9717L44.97 28.8864C45.0283 28.7183 45.1102 28.4923 45.1502 28.3114C45.2929 28.2619 45.4754 28.1709 45.5636 28.1159C45.5753 28.1114 45.5882 28.1059 45.6068 28.1059C45.6183 28.1047 45.6422 28.108 45.6561 28.1324C45.6699 28.1682 45.6833 28.2094 45.6981 28.2461L46.5334 30.622C46.5879 30.781 46.6423 30.9487 46.7013 31.0842C46.7549 31.2044 46.8369 31.2524 46.9822 31.2534H47.0292V31.273V31.43L47.0089 31.4291Z" fill="black"/>
<path d="M48.155 30.9643C48.155 31.1471 48.2812 31.2007 48.427 31.2196C48.6129 31.2332 48.8175 31.2332 49.0271 31.21C49.2175 31.1871 49.3812 31.0786 49.4627 30.9641C49.5349 30.8645 49.5759 30.7373 49.6035 30.6376H49.7351C49.685 30.8965 49.6216 31.1512 49.5669 31.4098C49.1681 31.4098 48.7671 31.3921 48.3679 31.3921C47.9677 31.3921 47.5683 31.4098 47.1686 31.4098V31.2733H47.2314C47.3953 31.2733 47.5731 31.2509 47.5731 30.9691V28.6346C47.5731 28.3978 47.3953 28.3751 47.2314 28.3751H47.1686V28.2388C47.4089 28.2388 47.6455 28.2568 47.8862 28.2568C48.1182 28.2568 48.3448 28.2388 48.5771 28.2388V28.3751H48.463C48.2903 28.3751 48.1548 28.3799 48.1548 28.6207V30.9643H48.155Z" fill="black"/>
<path d="M49.55 31.3903C49.6026 31.1433 49.6619 30.9024 49.7111 30.6572H49.6174C49.5895 30.7559 49.5491 30.8778 49.4777 30.9767C49.3928 31.0945 49.2246 31.2054 49.0276 31.23C48.9087 31.2419 48.7906 31.2481 48.6794 31.2481C48.5913 31.2481 48.5064 31.2443 48.4238 31.2383C48.2761 31.2219 48.1332 31.1586 48.1334 30.9642V28.6206C48.1334 28.368 48.2933 28.3549 48.4627 28.3549H48.5562V28.2584C48.3325 28.2596 48.1116 28.2765 47.8856 28.2765C47.6509 28.2765 47.4206 28.2595 47.188 28.2584V28.3549H47.2313C47.3933 28.3549 47.5917 28.3833 47.5917 28.6336V30.9691C47.5917 31.2632 47.3943 31.2936 47.2313 31.2936H47.188V31.3901C47.5804 31.3892 47.9731 31.3722 48.3676 31.3722C48.7624 31.3722 49.1567 31.3894 49.55 31.3903ZM49.5665 31.4293C49.1658 31.4293 48.7658 31.4114 48.3673 31.4114C47.9676 31.4114 47.5678 31.4293 47.1672 31.4293H47.1484V31.41V31.2539H47.1672H47.231C47.3952 31.25 47.5512 31.2384 47.553 30.9695V28.634C47.5512 28.4129 47.3959 28.3981 47.231 28.3951H47.1484V28.3754V28.2192H47.1672C47.4091 28.2192 47.6456 28.2371 47.8853 28.2371C48.1165 28.2371 48.3427 28.2192 48.5767 28.2192H48.5949V28.239V28.3951H48.5767H48.4625C48.2864 28.3996 48.1769 28.3915 48.1731 28.6209V30.9645C48.1741 31.1344 48.2852 31.18 48.4274 31.2001C48.5074 31.2056 48.592 31.2087 48.6794 31.2087C48.7904 31.2087 48.9058 31.2037 49.0233 31.191C49.2083 31.169 49.3675 31.062 49.4461 30.9537C49.5163 30.8565 49.5562 30.732 49.5835 30.6331L49.5871 30.6182H49.6026H49.7584L49.7544 30.6421C49.703 30.9019 49.6406 31.1552 49.5856 31.4142L49.5819 31.4295H49.5665V31.4293Z" fill="black"/>
<path d="M49.6046 28.5892H49.661C49.7228 28.5892 49.7513 28.5426 49.7513 28.4671C49.7513 28.3911 49.7073 28.3639 49.658 28.3639H49.6045V28.5892H49.6046ZM49.4435 28.8413V28.8182C49.502 28.8098 49.513 28.8114 49.513 28.7756V28.421C49.513 28.3713 49.508 28.3538 49.4452 28.3567V28.3321H49.6901C49.7742 28.3321 49.8517 28.3724 49.8517 28.4594C49.8517 28.5304 49.805 28.5832 49.7386 28.6036L49.8174 28.7134C49.854 28.7629 49.8958 28.8098 49.9226 28.8262V28.8413H49.8296C49.7849 28.8413 49.7453 28.7474 49.6576 28.6215H49.6045V28.7801C49.6045 28.8114 49.6155 28.8098 49.6743 28.8182V28.8415H49.4435V28.8413ZM49.6813 28.9771C49.8959 28.9771 50.0598 28.7947 50.0598 28.589C50.0598 28.383 49.8978 28.1992 49.6813 28.1992C49.466 28.1992 49.3023 28.3829 49.3023 28.589C49.3023 28.7949 49.466 28.9771 49.6813 28.9771ZM49.6813 28.1096C49.9554 28.1096 50.1599 28.3201 50.1599 28.589C50.1599 28.8578 49.9554 29.0659 49.6813 29.0659C49.4079 29.0659 49.2031 28.8578 49.2031 28.589C49.2031 28.3201 49.4079 28.1096 49.6813 28.1096Z" fill="black"/>
<path d="M21.309 12.2026C21.309 7.95382 24.7533 4.50952 29.002 4.50952C33.2508 4.50952 36.6951 7.95382 36.6951 12.2026C36.6951 16.4514 33.2509 19.8959 29.002 19.8959C24.7533 19.8959 21.309 16.4514 21.309 12.2026Z" fill="white"/>
<path d="M29.01 20.0327C24.6013 20.0537 20.9727 16.4818 20.9727 12.1339C20.9727 7.38238 24.6013 4.09558 29.01 4.09644H31.0762C35.4328 4.09558 39.4089 7.38083 39.4089 12.1339C39.4089 16.4804 35.4328 20.0327 31.0762 20.0327H29.01ZM29.0279 4.75548C24.999 4.75703 21.7349 8.02182 21.7342 12.0507C21.7349 16.0793 24.999 19.3434 29.0279 19.3442C33.0568 19.3434 36.3216 16.0793 36.3226 12.0507C36.3216 8.02182 33.0568 4.75703 29.0279 4.75548ZM27.3719 16.3645V7.73589C25.6383 8.40353 24.4087 10.0813 24.4041 12.0507C24.4087 14.0198 25.6383 15.6976 27.3719 16.3645ZM33.6519 12.0507C33.6488 10.0808 32.4173 8.40061 30.6823 7.73503V16.3662C32.4173 15.7 33.6488 14.0213 33.6519 12.0507Z" fill="#0069AA"/>
</svg>
