<svg width="112" height="141" viewBox="0 0 112 141" fill="none" xmlns="http://www.w3.org/2000/svg">
<g clip-path="url(#clip0_1_2668)">
<path d="M49.6775 140.551L49.7071 140.439C49.6514 140.5 49.6288 140.547 49.6775 140.551ZM59.1422 140.095C59.2144 140.151 59.3187 140.206 59.4648 140.257L59.1422 140.095ZM41.8248 140.803L41.6291 141.059C41.9352 141.058 41.8004 140.929 41.8248 140.803ZM30.649 139.92C30.6386 139.912 30.6264 139.907 30.6151 139.896C30.4569 140.001 30.5264 139.985 30.649 139.92ZM68.0279 140.327C68.0357 140.324 68.0392 140.318 68.0461 140.315C68.0381 140.312 68.0302 140.309 68.0226 140.305L68.0279 140.327Z" fill="#F4910F"/>
<path d="M59.4882 140.137C59.4603 140.091 59.4434 140.039 59.4387 139.985C59.3935 140.031 59.3926 140.086 59.4882 140.137ZM41.8604 140.756C41.8543 140.753 41.8482 140.754 41.8421 140.752C41.8335 140.768 41.8274 140.785 41.8239 140.802L41.8604 140.756ZM77.9272 140.3C77.8443 140.274 77.7708 140.224 77.716 140.155C77.7099 140.223 77.7603 140.282 77.9272 140.3ZM72.0647 140.272C71.7664 140.419 71.6099 140.336 71.7473 140.725C72.2411 140.867 71.8647 140.36 72.3107 140.537C72.4263 140.398 71.9455 140.393 72.0647 140.272ZM72.0647 140.272C72.1125 140.249 72.1629 140.221 72.2168 140.183C72.1614 140.203 72.1099 140.233 72.0647 140.272ZM52.3702 141.186L52.3945 141.095C52.3458 140.997 52.271 140.99 52.1224 140.974L52.3702 141.186ZM48.0621 140.905L48.136 140.912L47.9978 140.572L48.0621 140.905ZM44.4461 141.338C44.5939 141.353 44.7669 141.277 44.9156 141.292C44.5939 141.353 44.4061 140.914 44.4461 141.338Z" fill="#F4910F"/>
<path d="M40.3146 49.744C36.7933 49.744 36.7881 55.2921 40.3146 55.2921C43.8349 55.2921 43.841 49.744 40.3146 49.744ZM72.3594 49.744C68.8382 49.744 68.8329 55.2921 72.3594 55.2921C75.8797 55.2921 75.8858 49.744 72.3594 49.744ZM56.2591 69.433C57.0425 69.4136 57.1833 68.302 56.4417 68.0623C54.9828 67.5915 50.7999 66.6043 53.8821 64.5592C54.8463 63.9193 55.7236 63.8893 56.4348 62.7936C57.8206 60.6578 57.3086 56.5447 55.954 54.5622C55.7053 54.1991 55.0584 54.2969 55.0776 54.8029C55.1889 57.7418 56.8591 61.5436 53.4909 63.1189C52.2389 63.7042 51.3399 63.7835 51.1147 65.3711C50.7052 68.2623 53.9421 69.4894 56.2591 69.433ZM65.5352 75.1441C62.7547 75.5884 60.1907 76.8146 57.3607 77.1345C53.8012 77.5365 50.4357 76.9142 47.3848 74.9493C46.6432 74.4716 46.0233 75.6193 46.7075 76.1235C52.0493 80.054 60.5333 80.1008 65.9586 76.164C66.4785 75.7859 66.1568 75.0445 65.5352 75.1441ZM58.9927 81.7253C58.0832 81.3983 57.0086 81.862 56.0635 81.9113C55.0767 81.9625 54.076 81.6866 53.11 81.8734C52.6249 81.9669 52.6545 82.6024 52.9849 82.8431C53.863 83.4822 55.2219 83.4724 56.2661 83.4451C57.2381 83.4196 58.5623 83.4046 59.2178 82.5901C59.4674 82.2789 59.3752 81.8637 58.9927 81.7253ZM8.56534 65.1815C8.29755 68.0755 10.006 70.526 10.7163 73.2013C12.2952 79.1461 10.7563 84.5902 6.78037 89.1395C6.16481 89.8438 7.1438 90.8611 7.80718 90.1815C10.9354 86.9781 12.803 82.8933 12.9255 78.3466C12.9864 76.09 12.4882 73.9576 11.7562 71.8421C10.6207 68.5612 10.4346 63.4045 12.4578 60.2814C12.4708 60.2611 12.4926 60.2408 12.5065 60.2205C12.3168 59.8583 12.1523 59.483 12.0144 59.0975C10.1738 60.6313 8.80008 62.6499 8.56534 65.1815ZM11.0589 92.2371C13.3446 92.974 15.7425 93.0031 17.9918 92.0696C18.2595 91.9585 20.2141 90.6363 20.5618 90.5746C20.3697 90.7694 20.4288 92.5333 20.4097 92.4143C21.0235 96.2593 26.354 96.1421 29.4927 95.5718C29.2614 98.3018 32.4227 99.5129 34.2398 97.787C35.9578 99.6372 38.507 101.128 41.0484 100.235C41.6448 100.025 41.5578 99.1224 40.8971 99.1039C38.5122 99.0369 36.176 98.8553 34.7423 96.5908C34.5432 96.2761 34.0911 96.1826 33.8199 96.47C33.1765 97.3788 30.609 98.1986 30.5377 95.2685C30.6664 95.0825 30.6212 94.7626 30.363 94.722C28.8597 94.4875 18.583 94.871 21.9016 90.4151C22.1303 90.1074 21.8155 89.7063 21.4939 89.6949C20.4784 89.6587 19.9419 89.8923 19.0125 90.2978C16.3059 91.479 14.2314 91.9312 11.3101 91.3062C10.7137 91.1793 10.472 92.0476 11.0589 92.2371ZM107.624 88.8848C99.6353 87.5723 101.154 76.5483 101.527 70.7252C101.799 66.4879 102.101 63.6257 99.9083 59.9331C99.6414 59.4845 99.0085 59.8767 99.2241 60.3386C102.395 67.1155 99.2076 75.138 100.26 82.4032C100.887 86.7278 102.93 89.8659 107.473 90.0157C108.098 90.0369 108.264 88.9906 107.624 88.8848ZM104.387 91.4358C102.962 90.4724 101.571 90.1471 100.506 88.6388C99.6049 87.3624 98.9685 85.729 97.8252 84.6642C97.4931 84.3548 96.9244 84.6545 97.0522 85.1199C97.3339 86.1425 97.9973 87.0337 98.5285 87.9442C99.0093 88.7684 99.4745 89.6182 100.095 90.3463C100.225 90.4979 100.367 90.6487 100.517 90.7941C98.1121 90.5631 95.9759 89.9673 93.7214 88.4017C93.378 88.1629 92.7685 88.474 92.8276 88.9218C93.7058 95.5753 87.1763 95.5198 82.8309 95.6247C82.8578 95.5339 82.8952 95.4589 82.9204 95.3646C82.9943 95.0799 82.6161 94.9301 82.4622 95.1689C82.1171 95.7022 81.7684 96.3801 81.305 96.8067C79.6053 98.3723 79.2288 97.5613 77.7847 96.8781C77.483 96.7353 77.3786 96.5326 76.9839 96.5088C76.6796 96.4903 76.5631 96.7371 76.3379 96.8728C75.7745 97.2113 75.3981 98.0734 74.819 98.5107C73.5183 99.4917 72.3324 99.9316 70.6014 99.0757C69.8458 98.7019 69.1877 99.8003 69.9345 100.232C71.2987 101.02 72.7358 101.137 74.2069 100.513C74.9451 100.2 75.7449 99.6469 76.2927 99.0334C76.4466 98.8606 76.7031 98.4119 76.9135 98.3123C76.952 98.2968 76.9869 98.2734 77.0161 98.2436C77.0987 98.2841 77.2204 98.3352 77.4073 98.3996C79.6826 99.192 81.5424 98.56 82.5118 96.4912C82.5318 96.5009 82.5474 96.5149 82.57 96.522C87.4093 98.069 93.9692 95.5418 94.0727 90.0043C96.4184 91.3054 99.0232 92.0291 101.645 91.65C102.47 92.1304 103.407 92.3676 104.311 92.0229C104.569 91.9251 104.623 91.5962 104.387 91.4358ZM12.8595 89.1166C14.7609 88.8002 16.6972 86.9446 17.9109 85.4999C19.1551 84.019 19.8854 82.3829 19.9567 80.4313C19.9854 79.6494 18.6986 79.4405 18.5821 80.2427C18.3074 82.1246 17.3588 83.7448 16.0094 85.0494C14.8131 86.2068 13.1629 86.8944 12.2474 88.311C11.9631 88.7499 12.4317 89.1872 12.8595 89.1166Z" fill="#323232"/>
<path d="M91.007 122.981C90.9941 123.035 90.9677 123.085 90.9305 123.126H91.1192C91.1566 123.022 91.1531 122.951 91.007 122.981ZM92.5129 122.978C92.5138 122.971 92.5225 122.966 92.5242 122.959L92.4729 122.915C92.4755 122.95 92.4877 122.975 92.5129 122.978ZM90.8888 122.967C90.8627 122.938 90.7601 122.998 90.721 123.014L90.8723 122.834C90.5158 123.077 90.7992 122.523 90.408 122.9C90.7106 122.598 90.315 122.859 90.3741 122.696C90.6436 122.525 90.6149 122.897 90.8662 122.596C90.8992 122.47 90.7462 122.594 90.7784 122.47C90.7201 122.493 90.6966 122.493 90.7836 122.449L90.7784 122.47C90.8592 122.44 90.9347 122.396 91.0018 122.341C91.0061 122.057 90.6488 122.364 90.5062 122.382L90.7045 122.421C90.4541 122.722 90.5993 122.424 90.3723 122.637C90.4288 122.414 90.188 122.613 90.2089 122.466C90.2228 122.48 90.2471 122.45 90.261 122.464C90.1002 122.352 90.4419 121.808 90.3863 121.751C90.3558 121.663 90.1115 121.744 90.0532 121.91C89.9376 121.958 90.3315 121.977 89.9359 122.313C90.2002 121.776 89.6211 122.348 89.669 121.877C89.8785 121.776 89.8159 121.573 89.9863 121.506C89.8654 121.471 89.8098 121.539 89.669 121.642L89.7507 121.472C89.3847 121.71 89.5064 121.742 89.1916 121.78C89.3386 121.71 89.2742 121.511 89.3986 121.441C89.3542 121.393 89.2716 121.401 89.169 121.462L89.1916 121.446C88.9482 121.383 89.1734 121.144 88.8821 121.183L88.8343 121.285C88.4352 121.363 88.2683 120.993 87.9544 120.94L87.9849 121.072C87.9918 121.008 87.7266 121.104 87.7536 120.91C87.7745 120.912 87.8275 120.889 87.8327 120.911C87.9023 120.808 87.9788 120.637 87.9405 120.571L87.811 120.711L87.8718 120.574C87.7884 120.51 87.7414 120.815 87.658 120.751C87.9171 120.27 87.3302 120.429 87.5267 119.982C87.2467 120.264 87.6571 120.145 87.3919 120.393C87.3989 120.326 87.4293 120.256 87.391 120.191L87.278 120.398C87.0937 120.105 87.1041 119.871 86.8433 119.75L86.8807 119.715C86.8476 119.582 86.7798 119.585 86.6303 119.73C86.6738 119.626 86.7642 119.62 86.7859 119.517C86.3086 119.921 86.7329 118.95 86.412 119.241C86.5346 119.065 86.6094 118.866 86.6824 118.674C86.5596 118.593 86.4364 118.512 86.313 118.432C66.1533 120.447 45.8041 118.313 25.588 118.287C23.3118 119.759 21.0747 121.293 19.0255 123.128H90.6958L90.8888 122.967ZM96.8862 127.221L96.8253 127.15H96.8244L96.7279 127.332C96.7844 127.299 96.8357 127.26 96.8862 127.221ZM96.6905 127.584C96.7097 127.514 96.694 127.485 96.661 127.478C96.6236 127.57 96.6192 127.622 96.6905 127.584Z" fill="#F4910F"/>
<path d="M100.069 131.174C99.9601 131.222 99.8589 131.286 99.7692 131.365C99.6919 131.286 99.8197 131.181 99.6875 131.163C99.5284 131.474 99.711 131.108 99.4354 131.301C99.3467 131.25 99.5441 131.175 99.5788 131.092C99.5001 131.114 99.4252 131.148 99.3571 131.193C99.3271 131.228 99.3051 131.268 99.2928 131.312C99.2797 131.268 99.311 131.228 99.3571 131.193C99.4597 131.066 99.6605 130.973 99.8457 130.865C99.7875 130.787 99.7336 130.707 99.6745 130.628C99.3936 130.86 99.118 131.104 98.9937 131.244C98.8355 131.36 99.105 131.042 99.0972 130.995C99.2728 130.7 98.7954 131.003 98.8337 130.845L99.0163 130.794C99.0711 130.728 98.8989 130.679 98.7937 130.734C98.8763 130.661 99.2841 130.433 99.3562 130.313C99.2823 130.135 98.7016 130.392 98.4547 130.614L98.8972 130.605C98.6894 130.788 98.5573 130.632 98.3086 130.853L98.2225 130.598C98.2495 130.617 98.3729 130.641 98.4651 130.514C98.3834 130.441 98.466 130.44 98.5173 130.301C98.6711 130.243 98.9259 130.13 99.1919 130.007L99.0659 129.847C98.8259 129.984 98.6068 130.119 98.5059 130.181C98.4972 130.084 98.7911 129.842 98.9641 129.719C98.9422 129.691 98.9204 129.664 98.8989 129.636C98.6668 129.716 98.2947 129.989 98.2486 129.838L98.1982 129.979C98.1269 129.98 98.1086 129.773 98.0382 129.859C98.1321 129.726 98.3868 129.453 98.4903 129.421L97.9617 129.655C98.0217 129.636 98.366 129.309 98.4364 129.261C98.4042 129.195 97.9504 129.534 97.9208 129.618C98.0886 129.287 97.9712 129.437 98.199 129.083C98.1486 129.074 97.8278 129.422 97.8078 129.48C97.6548 129.496 97.6652 129.415 97.6756 129.348L97.6652 129.351L97.6774 129.338C97.6887 129.264 97.6904 129.214 97.4531 129.348L98.1034 128.885L97.6782 129.338L97.6765 129.348C97.8191 129.334 98.066 129.111 98.306 128.882C98.2738 128.842 98.2443 128.802 98.2112 128.762L97.5165 129.151L97.9756 128.776C97.6469 129.04 97.3539 128.807 97.2722 128.634L97.2931 128.652C97.4235 128.58 97.4009 128.385 97.2505 128.44C97.3192 128.389 97.3113 128.418 97.3322 128.435C97.4783 128.128 96.7636 128.76 96.9488 128.412C96.9957 128.522 97.134 128.42 97.2496 128.302C97.0775 128.339 97.0505 128.068 96.7253 128.446C96.7601 128.331 96.6784 128.336 96.8618 128.165L96.4975 128.207C96.5445 128.184 96.6592 128.092 96.6384 128.02C96.6775 128.157 97.0922 127.926 96.9053 128.201C97.0948 128.021 97.1896 127.887 97.3531 127.767L97.2992 127.704C97.0227 127.714 96.6471 127.912 96.3437 128.031L96.3532 127.719L96.248 127.811L96.4715 127.534C96.3967 127.571 96.335 127.609 96.3541 127.582C96.3832 127.549 96.4172 127.521 96.4549 127.498C96.4204 127.496 96.3859 127.504 96.3558 127.521C96.4802 127.384 96.6575 127.259 96.8218 127.153V127.152C96.8122 127.14 96.8024 127.129 96.7923 127.117C96.5697 127.205 96.3263 127.319 96.2341 127.533L96.2897 127.297C95.9394 127.443 96.0072 127.41 95.6985 127.471C95.7768 127.376 95.8837 127.335 95.9228 127.248C95.5551 127.441 96.015 126.692 95.7533 126.923C95.6185 126.91 95.5116 127.111 95.396 127.135C95.4255 127.109 95.4829 127.057 95.4733 127.04L95.2421 127.167C95.2812 127.079 95.4151 127.092 95.4264 126.949C95.2073 126.976 95.0665 126.997 95.0369 126.866H94.903C94.7969 126.969 94.7178 127.216 94.6622 127.11C94.7222 127.03 94.7882 126.945 94.836 126.866H94.4283C94.4232 126.889 94.4135 126.91 94.3996 126.928L94.3431 126.98L94.3926 126.865H94.244C94.2187 126.922 94.1979 126.97 94.1831 126.996C94.1958 126.953 94.2025 126.909 94.2031 126.865H15.293C13.9745 128.341 12.7389 129.89 11.5918 131.506H100.305C100.228 131.394 100.149 131.284 100.069 131.174ZM98.0269 130.307C98.2547 130.065 98.2269 130.142 98.3721 130.119C98.2747 130.162 98.3512 130.259 98.2416 130.314C98.2825 130.129 98.0173 130.482 98.0269 130.307ZM9.1548 135.246C8.25485 136.754 7.42141 138.303 6.65692 139.887H10.4842C10.8363 140.065 11.2449 140.333 11.6553 139.91C11.8066 140.024 11.5266 140.089 11.6075 140.218C11.7814 139.98 11.99 139.931 12.3787 140.037L12.3343 140.096C13.4246 140.038 13.8924 140.274 15.1174 140.43L15.027 140.155C15.2904 140.191 15.3461 140.277 15.4687 140.347C15.7643 139.939 14.7809 140.302 14.9966 139.887H15.0305C15.4139 140.398 16.865 139.883 17.0971 140.507C17.5023 140.511 16.9789 140.189 17.3832 140.192L17.491 140.364L17.5936 140.143C17.8588 140.18 17.9926 140.395 18.0031 140.541C17.9387 140.523 17.8196 140.581 17.7509 140.594C18.0952 140.796 18.7221 140.525 18.8403 140.59L18.4508 140.484C19.5559 140.323 20.9053 140.549 21.9738 140.2L21.8929 140.07C22.7084 139.83 22.5459 140.213 23.4414 140.102L23.4092 140.133C23.5883 140.004 23.8274 139.938 24.0726 139.953C23.8466 140.104 24.4977 140.248 24.2013 140.416C24.9768 140.191 24.729 140.205 25.0499 139.887H25.3194L25.3576 139.947C25.3811 139.925 25.3967 139.907 25.4159 139.887H25.9923C26.048 139.969 26.0784 140.057 25.8941 140.166C26.8322 140.637 27.2878 139.691 27.7182 140.379C28.1494 139.783 26.9061 140.049 27.1478 139.921C27.1365 139.91 27.1356 139.898 27.1287 139.887H28.2285C28.4172 140.085 28.6624 140.292 29.0623 140.286C28.9875 140.283 28.9823 140.328 28.9076 140.326C29.1893 140.477 29.4605 140.12 29.8065 140.367C30.0004 140.006 30.256 140.387 30.3117 139.928L29.6196 140.035C29.717 140.005 29.8126 139.949 29.9118 139.887H30.7107C30.6909 139.898 30.6709 139.909 30.6508 139.92C30.8394 140.056 31.0142 139.83 31.2107 139.969C31.155 140.429 30.3699 140.069 29.95 140.42C30.1526 140.614 30.7447 140.088 30.5334 140.585C30.8368 139.952 31.2759 140.665 31.7871 140.181L31.7532 140.456C31.8341 140.413 32.0019 140.283 32.1505 140.29L31.881 140.647C32.294 140.343 32.6783 140.914 33.0748 140.748C32.2444 140.757 32.8887 140.416 32.5374 140.215C33.5286 139.859 33.166 140.857 34.1789 140.802C33.9955 140.776 33.7294 140.617 33.9329 140.51C34.1511 140.566 34.4398 140.672 34.5737 140.817C35.3336 140.76 34.4571 140.534 34.7806 140.364C35.0388 140.7 35.1536 140.228 35.4866 140.12L35.4892 140.401C36.3543 140.58 35.7187 139.817 36.4977 140.035L36.1682 140.423L36.5742 140.322L36.4908 140.64C36.9324 140.404 37.0707 140.465 37.5037 140.555C37.4028 140.358 37.5602 140.047 37.9436 140.038C38.2053 140.204 37.7975 140.304 38.3409 140.264C38.2183 140.438 38.0836 140.659 37.8471 140.401C37.8227 140.492 37.7262 140.577 37.701 140.667C37.9827 140.858 38.4087 140.71 38.6052 140.707C38.5296 140.697 38.4392 140.682 38.3922 140.642L39.1799 140.254C39.3043 140.359 39.206 140.444 39.1078 140.527C39.2669 140.496 39.3773 140.367 39.612 140.343C39.5512 140.571 39.566 140.805 39.2338 140.913L39.9842 140.661C40.0346 140.759 40.3693 140.933 40.2719 141.016C40.6884 141.15 41.2927 140.574 41.8447 140.75C41.8734 140.706 41.9308 140.664 42.0482 140.631C42.5664 140.683 43.0263 140.962 43.6401 140.65L43.9888 141.057C44.4704 140.965 43.5167 140.543 44.3183 140.39C44.886 140.259 44.5305 140.737 44.7287 140.851C45.0112 140.646 45.5016 140.227 46.0224 140.559C45.8503 140.636 45.7146 140.576 45.5538 140.606L45.9511 140.832C45.4721 141.204 45.1252 141.077 45.4981 141.394C45.5547 140.606 47.0423 141.314 47.097 140.526L47.3587 140.691C47.284 140.683 47.2718 140.73 47.1979 140.722C47.7074 141.1 47.5761 140.153 48.2325 140.265C48.4612 140.325 48.6211 140.439 48.4646 140.533L48.9741 140.338C49.1228 140.354 49.0863 140.49 48.9385 140.475L49.7158 140.413L49.7097 140.436C49.821 140.312 50.0722 140.121 50.1948 140.04C50.3922 140.154 50.0957 140.124 50.1461 140.222L50.5765 140.031C50.7521 140.236 50.3957 140.433 50.0983 140.404C50.5 141.19 50.4556 140.207 51.3225 140.666L50.9165 140.765C51.1782 141.212 51.4955 141.05 51.9546 141.329C51.8459 141.183 51.0347 140.627 51.5016 140.43C51.6329 140.49 51.8068 140.518 52.0589 140.359C52.0615 140.639 52.3075 140.571 52.6153 140.555L52.5945 140.926C52.9275 140.818 52.9014 140.63 53.097 140.463C53.4683 140.499 53.5448 140.787 53.6317 141.029C54.2255 141.088 53.2213 140.568 53.9247 140.498C54.4185 140.64 54.7655 140.489 55.3567 140.267C55.7027 140.395 55.2967 140.494 55.4201 140.6L55.7271 140.304C55.8018 140.311 55.7775 140.401 55.7653 140.447C56.0235 140.333 55.787 140.076 56.1922 139.976C56.2061 139.925 56.2287 139.897 56.2591 139.884H56.2844C56.5191 139.844 57.1016 140.503 57.5277 140.109C57.6511 140.215 57.4677 140.336 57.5059 140.48C58.1719 140.185 58.1084 140.249 58.6136 139.884H58.7344L59.1457 140.092C59.0605 140.025 59.0239 139.955 59.0205 139.884H59.4465C59.4439 139.917 59.4378 139.95 59.443 139.982C59.5002 139.933 59.5687 139.899 59.6421 139.884H59.6491C59.6091 139.944 59.5839 139.998 59.603 140.034C59.6247 140.073 59.6908 139.991 59.7943 139.896L59.9386 140.31L59.9734 140.146L60.8011 140.405C61.0254 140.247 61.2436 140.064 61.4732 139.884H62.773C62.7799 139.94 62.7877 139.994 62.786 140.059C62.5295 139.679 62.0583 140.221 61.5705 140.144C61.8244 140.184 61.7688 140.356 61.7044 140.415L62.5739 140.069C62.5547 140.363 62.7582 140.289 62.9851 140.411C62.8295 139.884 63.4859 139.992 63.8737 139.884H63.9841C63.9902 140.066 63.8945 140.237 63.492 140.192C63.8189 140.493 63.9885 140.065 64.2136 139.884H64.4484C64.4162 139.889 64.3919 139.907 64.371 139.956C64.4361 139.916 64.5096 139.891 64.5857 139.884H64.7892C64.9918 139.907 65.1596 139.992 65.0778 140.09L64.9726 140.095C65.5073 140.148 66.4646 140.12 66.9341 139.885H67.1662C67.144 140.025 67.1123 140.164 67.0715 140.3L67.3836 139.885H67.7183L67.4679 140.512C67.7088 140.199 67.8453 140.237 68.0278 140.304L67.92 139.885H68.3452C68.3148 140.075 68.2374 140.236 68.0513 140.312C68.2174 140.372 68.4234 140.443 68.7747 140.293C68.7077 140.258 68.6286 140.056 68.6008 139.884H68.879C69.0486 140.043 69.0729 139.993 69.4676 140.296C69.3816 140.25 69.3876 140.059 69.4485 139.884H69.7389C69.7389 140.061 69.7345 140.248 69.6798 140.287L70.0936 139.884H70.2849C70.2997 140.055 70.3779 140.259 70.4701 140.372C70.4005 140.244 71.0491 140.384 71.2274 140.319L70.9439 140.168C71.2491 140.207 71.4282 140.065 71.5838 139.884H72.3541C72.3785 140.036 72.4472 140.163 72.5976 140.196L72.7584 139.884H73.3862C73.2571 140.022 73.121 140.153 72.9784 140.277C73.261 140.429 73.0575 140.503 73.481 140.485C73.6305 140.664 73.2497 140.757 73.1254 140.767L74.1122 140.883C74.0687 140.492 74.8668 140.491 74.8286 140.167L73.7574 140.572C73.7357 140.378 73.8896 140.103 74.1348 139.884H75.0929C75.0407 140.078 74.9486 140.283 74.9573 140.357C75.0477 140.223 75.6206 140.101 75.685 140.196L75.3885 140.405C75.778 140.551 76.0232 139.887 76.4909 140.26C76.6526 140.285 76.9726 140.763 77.0004 140.532C76.9169 140.39 76.857 140.151 76.817 139.885H77.6951C77.6647 139.983 77.6612 140.074 77.7203 140.153C77.729 140.053 77.8559 139.935 77.9229 139.885H77.9524C78.0872 139.983 77.882 140.201 78.2368 140.155C78.2933 139.791 78.8706 140.118 78.5106 139.885H82.3188C82.3101 139.922 82.3188 139.969 82.377 140.044C82.3849 139.982 82.4327 139.931 82.4996 139.885H83.4099C83.2708 139.968 83.143 140.044 83.4925 140.029C83.5151 139.977 83.6377 139.93 83.6968 139.885H105.306C104.534 138.3 103.691 136.751 102.78 135.244H9.1548V135.246ZM51.0599 140.503C51.1912 140.182 51.2921 140.335 51.4885 140.428C51.3729 140.486 51.1434 140.668 51.0599 140.503Z" fill="#F4910F"/>
<path d="M104.283 134.632C104.297 134.605 104.311 134.584 104.344 134.586C104.309 134.564 104.28 134.571 104.249 134.576L103.98 134.139C103.991 134.131 103.995 134.12 104.009 134.112C104 134.116 103.986 134.127 103.976 134.132C103.726 133.734 103.471 133.338 103.211 132.946L103.303 132.905L103.2 132.929C103.163 132.874 103.13 132.817 103.092 132.763L103.149 132.733L103.077 132.74C103.043 132.688 103.009 132.634 102.973 132.582L102.982 132.572L102.971 132.579C102.937 132.529 102.901 132.48 102.867 132.429C102.901 132.404 102.932 132.382 102.946 132.399L102.843 132.349C102.861 132.367 102.859 132.386 102.851 132.406L102.73 132.233C102.748 132.206 102.77 132.174 102.802 132.134C102.765 132.159 102.734 132.187 102.709 132.202L102.667 132.143C102.679 132.133 102.679 132.124 102.647 132.114L102.615 132.067L102.546 131.968C102.568 131.957 102.581 131.952 102.564 131.969C102.668 131.921 102.603 131.915 102.518 131.928L102.372 131.719C102.406 131.611 102.394 131.519 102.298 131.516C102.301 131.484 102.253 131.481 102.208 131.483C102.071 131.288 101.938 131.09 101.798 130.897C101.796 130.892 101.798 130.883 101.795 130.878L101.791 130.888L101.772 130.863C101.778 130.87 101.791 130.869 101.795 130.879C101.838 130.784 101.849 130.703 101.694 130.743L101.69 130.755C101.644 130.691 101.595 130.63 101.549 130.567L101.617 130.503C101.512 130.474 101.617 130.181 101.435 130.271C101.791 129.885 101.275 129.864 101.257 129.687L101.056 129.837C101.028 129.787 100.979 129.754 100.916 129.727C100.639 129.367 100.357 129.01 100.072 128.657C100.167 128.496 100.28 128.32 100.137 128.453L100.013 128.583C99.3869 127.808 98.7401 127.05 98.0729 126.31C98.0851 126.308 98.097 126.304 98.1086 126.3C98.0955 126.289 98.0746 126.298 98.059 126.293C95.2762 123.22 92.1471 120.488 88.736 118.155C89.2768 118.091 89.8185 118.04 90.3584 117.97C91.1548 117.867 91.2139 116.653 90.3584 116.663C89.0612 116.679 87.7623 116.689 86.4616 116.696C86.0634 116.452 85.666 116.207 85.26 115.975C77.0804 111.28 70.0545 103.87 67.5661 94.7069C68.7828 93.94 69.9433 93.0851 71.0386 92.1489C72.8442 90.6048 74.5309 88.9234 76.084 87.1191H74.3573C70.1823 91.902 64.8996 96.1799 58.5379 96.8842C50.8069 97.7402 44.506 93.4517 39.379 88.0579C30.9733 79.2148 26.7313 67.6311 26.7174 55.4331C26.713 51.8683 26.7156 48.3036 26.7174 44.738C28.2172 45.1849 29.8039 45.3621 31.3689 45.2616C35.2796 49.468 40.9657 49.7263 46.0519 47.5482C49.6879 45.9906 52.6257 43.4245 55.3731 40.6082C58.8031 37.0919 63.545 29.5913 68.9042 28.9038C68.9023 28.9815 68.9235 29.0579 68.9651 29.1233C72.102 34.0843 72.4715 40.3693 77.995 43.7877C79.9365 44.9892 82.5952 45.6159 85.1731 45.5366C85.054 45.6247 84.9757 45.7314 84.9757 45.8619V65.0008C83.895 70.9032 81.8475 76.5086 78.5115 81.6574L80.2521 81.4881C82.9902 77.158 85.0109 72.4027 86.2338 67.4107C88.1779 67.424 90.1045 67.4293 91.9729 66.7479C93.8396 66.0665 95.4585 64.8218 96.5192 63.1911C97.167 62.2012 97.589 61.0774 97.7547 59.9014C98.0355 57.8916 97.8443 55.7531 97.8399 53.7292C97.8449 52.3988 97.5667 51.0831 97.0244 49.8717C96.8168 49.4134 96.5671 48.976 96.2784 48.5654C98.2807 37.166 98.9032 26.0037 91.2165 16.5373C86.3025 10.4859 77.9272 4.59405 70.8265 9.53745C68.526 -5.28392 44.1105 1.7962 35.5961 6.33411C27.7964 10.4912 20.1644 17.3783 16.3902 25.5947C12.982 33.015 14.7705 40.2283 16.2015 47.6715C15.6483 48.2044 15.1655 48.8076 14.7652 49.4663C14.0992 50.5593 13.6645 51.7952 13.568 53.1209C13.4272 55.0505 13.5376 57.0259 13.5445 58.959C13.5489 60.2839 13.8332 61.5515 14.3549 62.6983C14.9965 64.1265 16.0327 65.3356 17.3379 66.1793C19.6767 67.6919 22.2928 67.5439 24.9403 67.5421C24.9889 67.5421 25.035 67.5421 25.0872 67.5377C25.4863 67.5192 26.1722 67.3737 26.3348 66.9938C26.3392 66.9832 26.3357 66.9771 26.3392 66.9674C28.1702 75.0824 31.9818 82.5909 37.8783 88.7842C39.8554 90.861 41.9864 92.8021 44.32 94.3782C43.8155 96.5199 43.0653 98.5944 42.0847 100.559C39.1973 106.344 34.5962 111.23 29.2457 114.74C28.1963 115.428 27.1538 116.098 26.1209 116.768C24.8768 116.824 23.6335 116.885 22.3919 116.957C21.5512 117.005 21.5364 118.303 22.3919 118.293C22.8623 118.288 23.3335 118.292 23.8039 118.289C20.8522 120.267 18.0222 122.357 15.4347 125.006C11.1632 129.381 7.71672 134.457 5.06754 139.988C4.72151 140.711 6.33343 140.55 6.576 140.044C6.60122 139.991 6.62904 139.941 6.65512 139.888C7.41909 138.304 8.25256 136.755 9.15303 135.247C9.91704 133.968 10.7312 132.72 11.5935 131.507C12.7399 129.891 13.9756 128.341 15.2947 126.866C16.3685 125.662 17.4989 124.511 18.682 123.417C18.7925 123.316 18.9107 123.227 19.022 123.127C21.0713 121.293 23.3092 119.758 25.5845 118.286C45.8006 118.312 66.1498 120.446 86.3094 118.431L86.6789 118.674C86.6059 118.865 86.5311 119.064 86.4085 119.241C86.7285 118.949 86.3051 119.92 86.7824 119.516C86.7615 119.62 86.6703 119.625 86.6268 119.729C86.7763 119.585 86.845 119.581 86.8772 119.714L86.8398 119.749C87.1006 119.87 87.0902 120.104 87.2745 120.397L87.3875 120.19C87.4258 120.255 87.3962 120.325 87.3884 120.392C87.6536 120.144 87.2432 120.263 87.5232 119.981C87.3276 120.428 87.9144 120.269 87.6545 120.751C87.7388 120.814 87.7849 120.51 87.8683 120.573L87.8075 120.71L87.937 120.571C87.9753 120.637 87.8988 120.807 87.8292 120.91C87.824 120.888 87.771 120.911 87.7501 120.909C87.7231 121.103 87.9892 121.007 87.9814 121.071L87.9509 120.939C88.2648 120.993 88.4317 121.363 88.8308 121.285L88.8786 121.182C89.1699 121.144 88.9447 121.383 89.1881 121.445L89.1655 121.461C89.2681 121.4 89.3516 121.392 89.3951 121.441C89.2707 121.51 89.3351 121.71 89.1881 121.779C89.5029 121.741 89.3811 121.709 89.7472 121.472L89.6655 121.641C89.8054 121.539 89.8619 121.472 89.9828 121.505C89.8124 121.572 89.875 121.775 89.6655 121.876C89.6185 122.348 90.1967 121.775 89.9324 122.313C90.328 121.976 89.9341 121.957 90.0497 121.909C90.1071 121.743 90.3523 121.662 90.3828 121.75C90.4384 121.807 90.0967 122.351 90.2575 122.463C90.2436 122.449 90.2193 122.479 90.2054 122.465C90.1845 122.613 90.4262 122.414 90.3688 122.636C90.5957 122.423 90.4506 122.722 90.701 122.42L90.5027 122.381C90.6453 122.363 91.0035 122.056 90.9983 122.341C90.9312 122.396 90.8557 122.439 90.7749 122.469C90.7427 122.592 90.8957 122.469 90.8627 122.596C90.6114 122.896 90.6401 122.524 90.3706 122.695C90.3115 122.858 90.7071 122.597 90.4045 122.9C90.7957 122.522 90.5123 123.075 90.8688 122.834L90.7175 123.013C90.7566 122.997 90.8583 122.938 90.8853 122.967L90.6905 123.125L90.6445 123.163C90.8879 123.026 90.6645 123.473 90.8323 123.426C90.7079 123.332 90.8348 123.241 90.9279 123.125C90.9651 123.084 90.9915 123.034 91.0044 122.98C91.1505 122.952 91.1539 123.021 91.1166 123.125C91.0505 123.308 90.8531 123.596 91.0444 123.659C90.9922 123.659 91.0148 123.453 91.1313 123.407C91.1501 123.512 91.1383 123.62 91.0974 123.718C91.2809 123.803 91.2243 123.509 91.38 123.449C91.2539 123.715 91.5278 123.419 91.653 123.402L91.5043 123.589C91.5834 123.851 91.8617 123.238 91.9043 123.511L91.6304 123.715H91.766L91.5782 123.912C91.793 123.829 91.7904 123.89 91.8269 124.023C91.9129 123.875 92.1112 123.696 92.192 123.756C92.1547 123.91 92.0199 123.906 92.1486 123.972C92.0294 124.067 91.8851 124.19 91.9773 123.979L91.8051 124.13C91.7582 124.304 91.9208 124.278 91.9616 124.31C91.9549 124.298 91.9507 124.285 91.9495 124.272C91.9483 124.258 91.9501 124.244 91.9547 124.232L92.3207 124.109C92.2885 124.199 92.2225 124.238 92.159 124.277C92.2068 124.284 92.299 124.217 92.3581 124.241C92.2225 124.381 92.0982 124.537 91.9747 124.552L92.2599 124.513C92.2155 124.586 92.1877 124.756 92.1225 124.795C92.1303 124.952 92.5642 124.678 92.5763 124.886C92.6059 124.86 92.6428 124.845 92.6815 124.842C92.7554 124.963 92.6911 125.222 92.985 125.124L92.8276 125.446C92.9737 125.467 93.0197 125.034 93.2632 125.07C93.4449 125.084 93.1102 125.332 93.0858 125.439C93.2536 125.355 93.5823 125.172 93.4962 125.477C93.4206 125.496 93.4284 125.434 93.3806 125.425L93.3301 125.64C93.0302 125.796 93.0371 125.654 92.9302 125.923C93.3814 125.426 93.2675 126.138 93.7214 125.644L93.6779 125.795C93.6675 125.778 93.6396 125.805 93.6292 125.787C93.5136 126.117 94.0231 125.489 94.0857 125.676C94.0952 125.755 94.0613 125.855 93.9779 125.888L94.1865 125.854C94.2065 125.89 94.1213 125.97 94.1022 125.935L94.2874 126.031L94.2735 126.044C94.3648 125.985 94.5221 125.908 94.5926 125.878C94.5656 125.984 94.5256 125.913 94.4795 125.984L94.6717 125.939C94.5882 126.099 94.4065 126.161 94.3656 126.091C93.9927 126.657 94.5473 126.028 94.45 126.47L94.3152 126.462C94.1552 126.716 94.2091 126.747 94.2083 126.865C94.2081 126.91 94.2014 126.954 94.1883 126.996C94.203 126.97 94.2248 126.921 94.2491 126.865C94.3317 126.679 94.4639 126.385 94.6195 126.352C94.6099 126.413 94.6282 126.46 94.7664 126.406C94.6056 126.582 94.6899 126.584 94.756 126.629L94.5369 126.857C94.6595 126.85 94.7647 126.728 94.8977 126.659C94.9221 126.706 94.8916 126.781 94.8403 126.865C94.7861 126.949 94.7281 127.03 94.6664 127.109C94.7212 127.215 94.8012 126.968 94.9073 126.865C94.9447 126.828 94.9855 126.809 95.0299 126.831C95.0307 126.846 95.0386 126.852 95.0412 126.865C95.0707 126.996 95.2116 126.975 95.4307 126.947C95.4194 127.089 95.2855 127.077 95.2464 127.165L95.4776 127.038C95.4872 127.056 95.429 127.108 95.4003 127.133C95.5159 127.11 95.6228 126.909 95.7576 126.921C96.0202 126.69 95.5594 127.439 95.9271 127.246C95.8871 127.334 95.7811 127.374 95.7028 127.469C96.0115 127.408 95.9437 127.441 96.294 127.296L96.2384 127.532C96.3306 127.318 96.574 127.203 96.7966 127.116L96.8261 127.15V127.151H96.827C96.8479 127.174 96.8679 127.199 96.8879 127.222C96.8372 127.262 96.7843 127.299 96.7296 127.334L96.8261 127.151C96.6564 127.254 96.4999 127.378 96.3601 127.52C96.3902 127.502 96.4247 127.494 96.4592 127.497C96.4217 127.519 96.3877 127.548 96.3584 127.58C96.3393 127.608 96.401 127.57 96.4758 127.533L96.2523 127.81L96.3575 127.717L96.348 128.029C96.6514 127.912 97.027 127.713 97.3035 127.703L97.3574 127.765C97.1939 127.885 97.0991 128.019 96.9096 128.199C97.0965 127.924 96.6818 128.156 96.6427 128.018C96.6636 128.091 96.5488 128.182 96.5018 128.205L96.8661 128.164C96.6827 128.335 96.7644 128.33 96.7296 128.444C97.0548 128.068 97.0817 128.338 97.2539 128.301C97.1374 128.42 97 128.521 96.9531 128.411C96.7679 128.758 97.4826 128.126 97.3365 128.434C97.3148 128.416 97.3235 128.388 97.2548 128.438C97.4061 128.383 97.4278 128.578 97.2974 128.65L97.2765 128.633C97.3582 128.806 97.6512 129.039 97.9799 128.775L97.5208 129.149L98.2155 128.761C98.2477 128.799 98.2772 128.841 98.3103 128.881C98.0712 129.11 97.8234 129.334 97.6808 129.346C97.6704 129.413 97.6599 129.494 97.813 129.478C97.8321 129.422 98.1529 129.073 98.2042 129.081C97.9773 129.435 98.0947 129.284 97.926 129.617C97.9555 129.532 98.4094 129.193 98.4416 129.26C98.3711 129.307 98.0277 129.634 97.9668 129.654L98.4955 129.419C98.392 129.452 98.1372 129.724 98.0433 129.857C98.1138 129.772 98.132 129.978 98.2033 129.977L98.2537 129.836C98.2998 129.988 98.672 129.714 98.9041 129.634L98.9693 129.717C98.7963 129.84 98.5024 130.083 98.5111 130.179C98.612 130.117 98.8302 129.982 99.071 129.846L99.1971 130.005C98.9311 130.128 98.6763 130.241 98.5224 130.3C98.4711 130.438 98.3885 130.439 98.4702 130.512C98.3781 130.639 98.2555 130.615 98.2277 130.597L98.3137 130.852C98.5615 130.631 98.6946 130.787 98.9024 130.604L98.4598 130.613C98.7067 130.391 99.2875 130.133 99.3614 130.311C99.2893 130.43 98.8824 130.659 98.7989 130.733C98.9041 130.677 99.0762 130.726 99.0215 130.792L98.8389 130.844C98.8006 131.001 99.278 130.698 99.1023 130.993C99.111 131.04 98.8406 131.358 98.9988 131.242C99.1232 131.103 99.3997 130.858 99.6796 130.627C99.7379 130.704 99.7927 130.785 99.8509 130.864C99.6657 130.971 99.4649 131.065 99.3623 131.192C99.4304 131.146 99.5052 131.112 99.584 131.09C99.5492 131.173 99.3519 131.248 99.4405 131.299C99.7162 131.107 99.5336 131.472 99.6927 131.162C99.8248 131.179 99.697 131.284 99.7744 131.364C99.8344 131.301 99.9509 131.233 100.074 131.172C100.155 131.283 100.234 131.394 100.314 131.505C100.369 131.581 100.426 131.657 100.479 131.734C100.44 131.799 100.4 131.884 100.288 131.927C100.352 131.913 100.459 131.865 100.499 131.906C100.326 132.161 100.388 131.833 100.153 132.101C100.314 131.994 100.46 132.057 100.6 132.056C100.624 132.036 100.646 132.015 100.666 131.991C100.738 132.094 100.804 132.199 100.875 132.302L100.623 132.469L100.748 132.446C100.774 132.393 100.819 132.361 100.876 132.302C101.541 133.262 102.177 134.243 102.781 135.244C103.692 136.751 104.534 138.3 105.307 139.885C105.363 140.001 105.425 140.115 105.481 140.232C105.76 140.814 107.339 140.302 107.096 139.794C106.243 138.027 105.305 136.305 104.283 134.632ZM95.8219 58.5756C95.8219 61.0755 95.1307 63.415 93.2058 65.103C92.9065 65.3611 92.5806 65.5857 92.2338 65.7729C91.5156 66.1714 90.7635 66.3838 89.9828 66.4834C89.0229 66.6059 88.0222 66.5795 86.9963 66.5716V47.9651V45.9862C88.3839 45.972 89.7802 46.0232 91.0652 46.5653C93.7918 47.7156 95.6463 50.428 95.8089 53.4074C95.9019 55.1219 95.8219 56.8593 95.8219 58.5756ZM24.3908 64.6103V66.4534C22.9562 66.4755 21.506 66.4499 20.1784 65.8796C17.404 64.6896 15.6434 61.8962 15.5677 58.87C15.4686 54.8892 14.927 50.0199 18.4986 47.3437C20.2618 46.0223 22.325 46.1104 24.3908 46.1369V64.6103ZM21.6886 39.9145C21.0852 39.4596 20.5687 40.3843 20.9521 40.8814C22.0494 42.305 23.4726 43.3787 25.0602 44.113V45.0297C23.0379 45.0148 21.0295 44.9865 19.1098 45.772C18.6841 45.9496 18.272 46.1591 17.877 46.3987C16.5232 36.013 14.8913 26.6339 23.6057 17.2946C28.4858 12.0647 34.5223 7.75067 41.2057 5.24988C47.5978 2.8584 69.1572 -2.73905 69.8414 11.333C69.878 12.0867 71.0291 12.0946 71.0039 11.333C70.9995 11.1902 70.9787 11.0624 70.97 10.9232C81.3467 2.75968 93.3849 19.1236 95.3246 27.7649C96.7696 34.2006 95.6028 40.6443 94.9942 47.1383C94.7397 46.9173 94.4714 46.7132 94.1909 46.5274C92.2451 45.2448 90.088 45.1611 87.8875 45.1664C89.1516 44.8455 90.3184 44.3219 91.2652 43.5594C91.8669 43.0746 91.1009 42.209 90.481 42.529C85.6452 45.0253 79.4296 43.7481 75.8397 39.7523C72.8914 36.4696 72.1637 32.2878 69.7414 28.8086C70.2266 28.6781 70.1814 27.8909 69.6128 27.8566C64.4066 27.5383 60.8671 32.7171 57.5598 36.2448C50.9503 43.295 42.6898 50.3055 33.1634 45.0253C36.8498 44.2778 42.4159 41.8696 43.8314 38.0792C44.1261 37.2885 42.8759 36.9465 42.5829 37.7301C41.3335 41.0771 35.2344 43.3858 32.1696 43.7066C27.9311 44.15 24.9446 42.3694 21.6886 39.9145ZM28.0624 116.69C30.3055 115.247 32.5252 113.769 34.5675 112.011C39.0321 108.17 42.7559 103.281 44.8738 97.719C45.1407 97.0182 45.452 96.1746 45.7467 95.2746C48.229 96.7326 50.9338 97.7569 53.9238 98.0813C58.3153 98.5573 62.3782 97.5692 66.0594 95.5893C68.3703 103.592 74.1156 110.437 81.0111 114.998C81.8892 115.579 82.7639 116.142 83.6368 116.702C65.17 116.711 46.4675 115.963 28.0624 116.69ZM92.5129 122.978C92.4876 122.975 92.4755 122.95 92.4729 122.916L92.5242 122.96C92.5224 122.967 92.5137 122.972 92.5129 122.978ZM94.6195 126.347C94.5639 126.364 94.416 126.438 94.4943 126.319C94.703 126.141 94.6352 126.255 94.6195 126.347ZM96.6905 127.584C96.6192 127.623 96.6236 127.571 96.6609 127.478C96.694 127.484 96.7096 127.514 96.6905 127.584ZM100.39 131.882C100.431 131.852 100.478 131.829 100.521 131.803L100.579 131.883C100.516 131.878 100.453 131.877 100.39 131.882Z" fill="#323232"/>
<path d="M94.7118 79.9629C97.6339 74.6625 92.8138 66.998 92.6069 66.6736L91.6461 67.3038C91.6931 67.3761 96.3002 74.7101 93.711 79.3988C92.4712 81.6439 89.7395 82.9644 85.6253 83.3496L85.6392 84.5114C90.222 84.0945 93.2711 82.5739 94.7118 79.9629Z" fill="#323232"/>
<path d="M18.4986 47.3436C14.927 50.0198 15.4686 54.8891 15.5677 58.8699C15.6434 61.8961 17.404 64.6895 20.1784 65.8795C21.5069 66.4489 22.9562 66.4754 24.3908 66.4533V64.6102V46.1359C22.325 46.1095 20.2627 46.0213 18.4986 47.3436ZM13.5698 53.1208C13.6663 51.7951 14.101 50.5592 14.767 49.4662C12.729 51.3182 11.5031 53.6947 11.5031 56.2871C11.5031 57.2612 11.6909 58.2 12.0152 59.0965C12.1535 59.4799 12.3152 59.8545 12.5073 60.2195C12.9976 61.1351 13.621 61.9707 14.3566 62.6982C13.8241 61.5255 13.5477 60.25 13.5463 58.9589C13.5394 57.0258 13.4289 55.0513 13.5698 53.1208ZM91.0653 46.5652C89.7802 46.0231 88.3839 45.9719 86.9963 45.9861V66.5715C88.0214 66.5794 89.023 66.6058 89.9828 66.4833C90.7484 66.2993 91.5005 66.0619 92.2338 65.7728C92.5809 65.5861 92.9068 65.3614 93.2058 65.1029C95.1308 63.414 95.822 61.0754 95.822 58.5755C95.822 56.8584 95.902 55.1218 95.8081 53.4073C95.6455 50.4279 93.7918 47.7155 91.0653 46.5652ZM97.7556 59.9013C97.5903 61.0774 97.1683 62.2013 96.5201 63.191C98.6146 61.3266 99.8831 58.9201 99.8831 56.2871C99.8831 53.8771 98.812 51.6602 97.0253 49.8708C97.5676 51.0821 97.8458 52.3979 97.8408 53.7282C97.8451 55.7529 98.0364 57.8915 97.7556 59.9013ZM72.3594 82.2567L73.9826 87.1181H85.6704L85.6391 84.5115L85.6252 83.3497L85.5974 80.968L80.253 81.488L78.5132 81.6573L72.3594 82.2567Z" fill="#F4910F"/>
<path d="M104.032 133.748L103.755 133.777L103.853 133.776L104.032 133.748ZM104.004 133.407C103.951 133.358 103.816 133.364 103.695 133.369C103.774 133.389 103.786 133.449 103.716 133.57C103.862 133.541 103.906 133.409 104.004 133.407ZM94.2014 126.109L94.2718 126.043C94.2248 126.072 94.1944 126.098 94.2014 126.109ZM92.5451 124.916L92.366 125.05C92.4268 125.101 92.4712 124.994 92.5451 124.916ZM90.7784 122.471L90.7836 122.45C90.6975 122.494 90.7201 122.494 90.7784 122.471ZM97.6669 129.353L97.6774 129.35L97.68 129.34L97.6669 129.353ZM97.4557 129.35C97.693 129.216 97.6913 129.267 97.68 129.34L98.1051 128.887L97.4557 129.35ZM92.5781 124.891L92.5764 124.886L92.5451 124.916L92.5781 124.891ZM99.358 131.194C99.311 131.229 99.2797 131.269 99.2937 131.313C99.3058 131.269 99.3278 131.229 99.358 131.194ZM100.32 132.332C100.395 132.294 100.511 132.345 100.515 132.221C100.44 132.26 100.233 132.228 100.32 132.332ZM98.2416 130.314C98.3512 130.259 98.2747 130.162 98.3721 130.119C98.2269 130.142 98.2547 130.065 98.0269 130.308C98.0173 130.482 98.2825 130.129 98.2416 130.314ZM94.397 126.865L94.3474 126.98L94.4039 126.928C94.4178 126.91 94.4276 126.889 94.4326 126.866C94.4376 126.845 94.4345 126.823 94.4239 126.804L94.397 126.865ZM93.7023 126.069L93.8684 125.829L93.6919 126.052L93.7023 126.069ZM92.7625 125.705C92.7824 125.74 92.8572 125.72 92.8772 125.756C92.7824 125.739 92.9902 125.423 92.7625 125.705Z" fill="#323232"/>
</g>
<defs>
<clipPath id="clip0_1_2668">
<rect width="112" height="141" fill="white"/>
</clipPath>
</defs>
</svg>
