<svg width="425" height="337" viewBox="0 0 425 337" fill="none" xmlns="http://www.w3.org/2000/svg">
<path d="M288.391 334.803L288.45 334.533C288.337 334.681 288.292 334.79 288.391 334.803ZM307.185 333.713C307.328 333.847 307.535 333.978 307.824 334.1L307.185 333.713ZM272.793 335.402L272.403 336.014C273.012 336.01 272.746 335.701 272.793 335.402ZM250.601 333.296C250.581 333.277 250.556 333.265 250.534 333.24C250.218 333.488 250.357 333.45 250.601 333.296ZM324.83 334.266C324.845 334.26 324.853 334.245 324.865 334.239C324.849 334.232 324.833 334.224 324.818 334.216L324.83 334.266V334.266Z" fill="#F4910F"/>
<path d="M307.871 333.812C307.815 333.699 307.782 333.576 307.773 333.45C307.684 333.561 307.682 333.692 307.871 333.812ZM272.864 335.289C272.852 335.282 272.84 335.284 272.827 335.28C272.809 335.318 272.796 335.36 272.791 335.402L272.864 335.289V335.289ZM344.489 334.201C344.318 334.133 344.172 334.012 344.069 333.856C344.059 334.02 344.157 334.157 344.489 334.201ZM332.847 334.136C332.255 334.487 331.945 334.289 332.216 335.217C333.198 335.556 332.449 334.346 333.335 334.769C333.565 334.435 332.611 334.424 332.847 334.136ZM332.847 334.136C332.954 334.074 333.054 334.003 333.148 333.923C333.035 333.973 332.933 334.045 332.847 334.136V334.136ZM293.243 335.812L293.736 336.317L293.785 336.101C293.686 335.865 293.539 335.848 293.243 335.812ZM285.181 335.644L285.329 335.663L285.052 334.849L285.181 335.644ZM278.001 336.681C278.294 336.715 278.638 336.534 278.932 336.57C278.294 336.715 277.921 335.667 278.001 336.681Z" fill="#F4910F"/>
<path d="M361.274 63.8778C361.413 63.8504 361.069 63.4886 361.032 63.4108C360.911 63.5959 361.356 63.9767 361.274 63.8778ZM356.625 65.7038L356.541 65.6575C356.484 65.6935 356.422 65.7205 356.357 65.7375C356.589 65.9731 356.31 66.072 356.625 65.7038V65.7038ZM356.541 65.6554C356.71 65.5397 356.275 65.4955 356.541 65.6554V65.6554ZM355.803 66.2634L355.887 65.8931C355.736 65.7606 355.502 65.8385 355.504 65.6786C355.348 65.9436 355.498 66.0762 355.803 66.2634ZM355.959 66.7241C355.896 66.6694 355.846 66.6631 355.9 66.8945L355.959 66.7241ZM356.031 66.5811C356.14 66.7978 356.066 66.5726 356.086 66.3665L355.959 66.7262C356.066 66.8167 356.213 67.0418 356.031 66.5811ZM356.304 66.3896C356.535 66.4675 356.775 66.4675 356.687 66.8377C357.089 66.4927 356.699 66.0446 356.304 66.3896ZM354.095 66.7052C354.171 66.8629 354.415 67.0628 354.548 67.2458L354.622 66.9765C354.468 66.9218 354.241 66.9197 354.095 66.7052V66.7052Z" fill="#323232"/>
<path d="M354.548 67.244L354.436 67.6458C354.694 67.5469 354.663 67.4018 354.548 67.244ZM353.033 67.1472L352.99 66.7328L353.011 67.3744L353.033 67.1472ZM352.354 67.488C352.309 67.1493 351.92 67.0568 351.942 66.8275C351.78 66.9558 351.756 67.2713 351.729 67.5574C351.819 67.3681 352.004 67.3345 352.354 67.488V67.488ZM353.443 67.4375L353.802 67.8204L353.919 67.7826C353.841 67.6984 353.66 67.4775 353.443 67.4375ZM353.812 67.8309L353.8 67.8204C353.714 67.843 353.629 67.8669 353.544 67.892L353.812 67.8309ZM354.538 67.8036L354.397 68.2496C354.52 68.2454 354.639 68.2306 354.751 68.2075C354.68 68.0981 354.53 67.9635 354.538 67.8036V67.8036ZM354.397 68.2496L354.263 68.258L354.325 68.4431L354.397 68.2496ZM352.393 68.1865C352.365 68.4263 352.229 68.4978 352.084 68.5925C352.285 68.6125 352.488 68.5859 352.678 68.5146C352.629 68.3695 352.57 68.0981 352.393 68.1865ZM350.488 69.2194L350.554 69.2888L350.521 69.211L350.488 69.2194ZM352.951 68.3169C352.875 68.4015 352.782 68.4683 352.678 68.5125C352.701 68.5778 352.721 68.6198 352.752 68.5819C352.931 68.6135 352.951 68.4789 352.951 68.3169V68.3169ZM351.325 68.3611C351.437 68.4228 351.554 68.4728 351.676 68.5104C351.538 68.401 351.29 68.239 351.325 68.3611ZM352.978 67.9866L352.986 67.9593C352.892 67.8856 352.922 67.9277 352.978 67.9866Z" fill="#323232"/>
<path d="M352.978 67.9865C352.945 68.0749 352.952 68.2011 352.952 68.3168C353.014 68.252 353.061 68.1736 353.089 68.0875L352.978 67.9865V67.9865ZM351.147 69.1036L351.246 69.0047C351.069 68.99 350.885 68.868 350.54 68.6239C350.438 68.9016 350.47 69.0699 350.524 69.2109L351.161 69.0278L351.147 69.1036ZM350.323 69.0215L350.155 68.5314L350.202 69.2992L350.323 69.0215ZM349.72 69.3266L349.546 68.9122L349.499 69.2235L349.72 69.3266ZM333.432 73.5803C333.132 73.21 332.773 72.6189 332.886 73.1091L333.038 73.5761C333.181 73.4625 333.311 73.494 333.432 73.5803V73.5803ZM321.787 77.3354L321.859 77.4827L322.013 77.0178L321.787 77.3354ZM343.138 71.668C342.967 71.5639 342.771 71.5114 342.572 71.5165C342.89 71.7206 343.214 72.0698 343.138 71.668ZM342.031 71.668L342.166 71.7501C342.277 71.6344 342.394 71.5334 342.572 71.5165C342.339 71.3651 342.109 71.2936 342.031 71.668V71.668ZM276.652 66.5833C276.623 66.5349 276.547 66.5076 276.387 66.5181C276.461 66.5139 276.557 66.5518 276.652 66.5833ZM347.266 70.0608L347.401 70.0587C347.387 69.9766 347.35 69.9345 347.266 70.0608ZM347.157 70.1975C347.118 70.1765 347.095 70.1386 347.095 70.1386L346.921 70.2375C346.995 70.2032 347.076 70.1895 347.157 70.1975V70.1975ZM348.143 69.6085C348.272 69.5285 348.371 69.6169 348.477 69.6695C348.418 69.5559 348.285 69.4086 348.371 69.3644L348.143 69.6085ZM346.796 70.6435C346.944 70.7256 346.63 70.0818 346.761 70.2396C346.646 69.6674 346.361 71.079 346.796 70.6435ZM275.686 65.5567L275.54 65.2349L275.52 65.6514L275.686 65.5567ZM274.773 66.11L275.079 65.4347L274.595 65.9564C274.669 65.9522 274.812 65.9438 274.773 66.11Z" fill="#323232"/>
<path d="M241.013 274.159C249.305 284.471 257.812 295.16 264.368 306.543C264.618 301.099 269.434 295.095 272.899 291.569C275.893 288.521 279.834 285.413 284.053 283.789L249.844 269.078C249.844 269.076 246.42 270.864 241.013 274.159V274.159ZM315.292 280.768C313.282 281.743 311.267 282.681 309.245 283.587C313.655 285.148 317.787 288.397 320.901 291.567C324.069 294.792 328.363 300.089 329.267 305.136C335.9 293.87 344.393 283.276 352.615 273.048C350.655 271.922 348.681 270.822 346.694 269.749L315.292 280.768ZM301.66 298.511C303.094 294.287 304.311 289.989 305.306 285.634L305.23 285.592L300.609 301.288C300.976 300.369 301.341 299.445 301.66 298.511V298.511Z" fill="#F4910F"/>
<path d="M327.487 308.187L327.583 308.021C326.222 306.112 325.519 303.815 324.362 301.743C322.876 299.082 321.141 296.633 319.044 294.443C315.468 290.707 311.469 288.837 307.241 286.664C305.56 295.51 303.409 305.751 298.377 313.046C298.232 313.259 298.018 313.413 297.773 313.48C297.528 313.547 297.268 313.523 297.039 313.412L296.651 314.731L296.222 313.503C296.064 313.494 295.909 313.448 295.77 313.37C295.631 313.291 295.511 313.181 295.419 313.048C290.387 305.755 288.236 295.512 286.555 286.668C282.329 288.843 278.31 290.73 274.753 294.447C272.501 296.799 270.654 299.458 269.104 302.34C267.984 304.423 267.379 306.659 265.899 308.496C265.815 308.599 265.707 308.678 265.585 308.725C265.985 309.865 264.501 311.052 263.635 310.027C254.585 299.309 246.734 287.236 238.467 275.737C222.424 285.784 193.464 306.508 178.767 332.987H209.316C209.322 333.065 209.34 333.141 209.334 333.219C209.407 333.114 209.508 333.033 209.625 332.987H210.085C210.874 333.261 211.875 334.519 212.877 333.278C213.177 333.549 212.621 333.705 212.781 334.012C213.126 333.444 213.542 333.326 214.313 333.581L214.227 333.722C216.392 333.583 217.321 334.144 219.755 334.517L219.574 333.86C220.097 333.947 220.208 334.153 220.452 334.319C221.052 333.324 218.984 334.262 219.529 333.166C220.222 334.5 223.216 333.185 223.685 334.702C224.489 334.71 223.449 333.942 224.253 333.951L224.466 334.361L224.669 333.833C225.196 333.919 225.463 334.435 225.481 334.782C225.354 334.74 225.118 334.879 224.981 334.908C225.664 335.392 226.908 334.744 227.144 334.9L226.371 334.647C228.567 334.262 231.247 334.803 233.367 333.968L233.205 333.658C234.825 333.086 234.503 333.999 236.281 333.734L236.217 333.808C236.586 333.495 237.059 333.341 237.536 333.379C237.087 333.741 238.38 334.083 237.792 334.485C239.469 333.898 238.756 333.978 239.695 332.987H239.892L240.088 333.366C240.216 333.217 240.308 333.095 240.402 332.987H241.218C241.345 333.248 241.669 333.52 241.155 333.888C243.018 335.011 243.921 332.754 244.776 334.397C245.631 332.975 243.164 333.608 243.642 333.303C243.603 333.262 243.578 333.21 243.567 333.154C243.557 333.098 243.563 333.04 243.584 332.987H245.606C246.004 333.513 246.516 334.191 247.443 334.174C247.294 334.168 247.283 334.275 247.136 334.269C247.695 334.63 248.235 333.778 248.922 334.367C249.307 333.507 249.813 334.416 249.924 333.32L248.55 333.574C248.842 333.467 249.125 333.221 249.434 332.987H251.029C250.894 333.103 250.75 333.208 250.599 333.301C250.974 333.625 251.321 333.086 251.71 333.419C251.599 334.515 250.041 333.656 249.207 334.494C249.608 334.956 250.785 333.701 250.365 334.887C250.968 333.377 251.841 335.078 252.854 333.924L252.787 334.58C252.947 334.477 253.279 334.168 253.574 334.184L253.039 335.036C253.859 334.311 254.622 335.674 255.409 335.276C253.761 335.295 255.04 334.485 254.341 334.006C256.309 333.156 255.589 335.537 257.601 335.407C257.238 335.344 256.707 334.965 257.111 334.708C257.544 334.843 258.116 335.095 258.382 335.442C259.891 335.306 258.15 334.765 258.792 334.361C259.305 335.163 259.532 334.035 260.195 333.778L260.199 334.447C261.917 334.877 260.654 333.055 262.202 333.574L261.548 334.5L262.356 334.26L262.19 335.02C263.067 334.456 263.34 334.601 264.201 334.816C264 334.346 264.314 333.604 265.075 333.583C265.593 333.978 264.784 334.218 265.864 334.121C265.62 334.538 265.354 335.064 264.884 334.449C264.837 334.666 264.644 334.868 264.595 335.083C265.155 335.539 265.999 335.186 266.391 335.179C266.241 335.154 266.061 335.118 265.969 335.024L267.533 334.098C267.779 334.349 267.584 334.55 267.39 334.748C267.707 334.675 267.925 334.367 268.392 334.311C268.271 334.853 268.3 335.413 267.642 335.67L269.132 335.068C269.233 335.304 269.897 335.718 269.705 335.916C270.531 336.236 271.732 334.862 272.827 335.283C272.885 335.177 272.997 335.076 273.231 334.999C274.261 335.121 275.173 335.787 276.393 335.043L277.086 336.015C278.042 335.794 276.149 334.788 277.74 334.422C278.868 334.111 278.16 335.251 278.556 335.522C279.116 335.032 280.09 334.033 281.125 334.826C280.783 335.009 280.514 334.866 280.194 334.938L280.984 335.478C280.032 336.366 279.343 336.061 280.084 336.818C280.194 334.938 283.149 336.627 283.26 334.746L283.781 335.142C283.631 335.125 283.608 335.234 283.461 335.215C284.472 336.116 284.211 333.856 285.515 334.123C285.968 334.266 286.286 334.54 285.977 334.763L286.987 334.298C287.283 334.336 287.209 334.662 286.918 334.626L288.462 334.477L288.449 334.532C288.669 334.237 289.169 333.78 289.411 333.587C289.803 333.858 289.214 333.787 289.315 334.02L290.17 333.566C290.518 334.054 289.809 334.525 289.218 334.456C290.016 336.332 289.928 333.985 291.65 335.081L290.842 335.318C291.363 336.385 291.992 335.998 292.905 336.663C292.69 336.315 291.078 334.988 292.007 334.519C292.267 334.66 292.614 334.727 293.112 334.348C293.116 335.017 293.604 334.853 294.217 334.816L294.176 335.701C294.836 335.445 294.785 334.994 295.173 334.597C295.909 334.683 296.063 335.369 296.235 335.947C297.414 336.088 295.421 334.847 296.817 334.681C297.799 335.02 298.486 334.658 299.661 334.128C300.348 334.435 299.54 334.67 299.788 334.923L300.397 334.216C300.547 334.233 300.498 334.449 300.473 334.559C300.986 334.285 300.516 333.673 301.322 333.433C301.539 332.457 302.976 334.858 303.975 333.751C304.221 334.003 303.856 334.294 303.932 334.637C305.302 333.909 305.105 334.109 306.231 333.13L307.188 333.711C306.942 333.48 306.901 333.231 306.973 332.981H307.807C307.772 333.134 307.761 333.292 307.777 333.448C307.888 333.329 308.031 333.245 308.189 333.208C308.107 333.356 308.055 333.486 308.092 333.574C308.135 333.667 308.267 333.471 308.472 333.246L308.757 334.233L308.826 333.842L310.471 334.46C310.998 334.016 311.502 333.48 312.056 332.983H314.367C314.395 333.179 314.42 333.389 314.412 333.635C313.901 332.727 312.966 334.02 311.998 333.837C312.503 333.932 312.392 334.342 312.265 334.483L313.991 333.658C313.952 334.361 314.358 334.184 314.809 334.475C314.469 333.088 316.095 333.551 316.798 333.126C316.841 333.591 316.673 334.069 315.816 333.955C316.761 335.001 317.038 332.327 317.965 333.215C317.756 333.225 317.643 333.154 317.561 333.391C318.049 332.977 319.244 333.305 318.964 333.711L318.754 333.72C319.948 333.86 322.203 333.762 322.947 332.985H323.144C323.085 333.425 322.98 334.048 322.923 334.21L323.69 332.985H324.286L323.71 334.715C324.188 333.968 324.461 334.058 324.824 334.218L324.559 332.985H325.486C325.453 333.549 325.303 334.025 324.869 334.239C325.199 334.382 325.609 334.55 326.306 334.193C326.146 334.092 325.941 333.41 325.939 332.983H326.318C326.854 333.656 326.767 333.358 327.682 334.199C327.479 334.069 327.536 333.45 327.727 332.983H328.221C328.219 333.459 328.231 334.069 328.102 334.178L329.123 332.983H329.289C329.253 333.414 329.453 334.058 329.671 334.382C329.533 334.077 330.821 334.409 331.176 334.256L330.612 333.894C331.323 334.006 331.692 333.518 332.045 332.983H333.394C333.411 333.44 333.536 333.869 333.897 333.961C333.985 333.757 334.132 333.404 334.319 332.983H335.644C335.335 333.392 335.004 333.784 334.653 334.155C335.215 334.517 334.809 334.694 335.652 334.651C335.949 335.079 335.193 335.299 334.947 335.325L336.907 335.6C336.821 334.668 338.406 334.666 338.33 333.892L336.201 334.858C336.152 334.321 336.577 333.53 337.206 332.983H338.896C338.822 333.499 338.565 334.138 338.584 334.346C338.764 334.027 339.902 333.734 340.029 333.961L339.441 334.46C340.214 334.809 340.702 333.227 341.631 334.115C341.951 334.174 342.588 335.314 342.644 334.763C342.457 334.384 342.326 333.717 342.248 332.985H344.1C343.981 333.307 343.917 333.61 344.075 333.858C344.093 333.604 344.387 333.29 344.508 333.189C344.844 333.406 344.368 333.978 345.1 333.863C345.221 332.92 346.589 333.943 345.447 333.065C345.577 333.012 345.716 332.985 345.857 332.985H345.9C346.24 333.008 346.431 333.248 347.048 333.217C347.021 333.143 347.008 333.064 347.011 332.985H352.847C352.842 332.992 352.847 332.996 352.842 333.002L352.859 332.985H353.548C353.292 333.038 353.015 333.114 353.322 333.6C353.349 333.332 353.611 333.145 353.942 332.985H355.649C355.457 333.231 354.559 333.614 355.537 333.564C355.613 333.349 356.295 333.164 355.842 332.985H357.714L357.712 333.065L357.806 332.985H410.106C410.106 332.985 406.219 304.665 355.159 274.54C346.665 286.291 338.654 298.699 329.38 309.682C328.455 310.77 326.837 309.365 327.487 308.187V308.187ZM291.133 334.685C291.394 333.919 291.595 334.285 291.984 334.506C291.755 334.647 291.299 335.078 291.133 334.685Z" fill="#F4910F"/>
<path d="M424.583 334.155C412.504 309.931 393.74 290.358 370.392 277.468C366.478 275.294 362.795 272.709 359.402 269.754C360.044 269.737 360.438 268.957 359.966 268.338C358.075 265.852 355.039 264.051 352.008 262.643C352.158 262.656 352.273 262.719 352.422 262.732C342.595 251.231 337.208 236.696 335.63 220.731C339.316 216.879 342.839 212.836 346.199 208.786H343.263C339.103 213.469 334.787 217.859 330.76 221.92C322.154 230.595 317.748 233.865 304.892 235.739C291.972 237.624 276.672 235.585 267.308 226.668C258.817 218.583 250.745 209.931 243.607 200.561C236.464 191.182 228.762 180.012 228.367 167.677C227.864 151.99 228.196 136.225 228.309 120.508C240.523 103.64 242.746 84.6418 241.596 63.3648C241.589 63.0842 241.498 62.8125 241.335 62.587C241.172 62.3614 240.945 62.193 240.685 62.1047C240.763 61.8837 240.778 61.6448 240.728 61.4155C240.679 61.1862 240.567 60.9759 240.407 60.8088C235.904 55.8188 231.94 50.3996 227.809 45.0899C227.081 44.1537 225.416 44.9258 225.492 46.0744C226.109 55.3455 217.192 59.7338 214.182 66.8591C212.115 71.7544 213.85 77.4639 213.714 82.7085C213.481 91.8302 211.791 100.485 213.054 108.935C211.756 109.198 210.471 109.571 209.201 110.097C204.956 111.853 201.366 114.95 198.951 118.941C197.389 121.547 196.368 124.49 196.14 127.646C195.808 132.253 196.071 136.967 196.085 141.583C196.095 144.745 196.766 147.77 197.996 150.507C199.511 153.917 201.955 156.805 205.033 158.823C210.542 162.435 216.714 162.086 222.951 162.079C223.072 162.079 223.187 162.082 223.316 162.069C223.815 162.046 224.487 161.934 225.08 161.703C225.1 163.607 225.108 165.509 225.143 167.412C225.338 178.32 230.841 188.008 236.847 196.7C243.23 205.938 250.695 214.42 258.583 222.368C258.596 223.861 258.585 225.239 258.446 226.302C257.064 236.843 253.894 247.219 248.364 256.267C247.228 258.127 245.98 259.793 244.69 261.392C240.843 262.944 236.341 265.048 233.837 268.338C233.441 268.858 233.659 269.497 234.122 269.697C234.159 269.788 234.177 269.878 234.243 269.964C234.473 270.269 234.696 270.585 234.926 270.89C230.45 274.409 225.582 277.498 220.413 280.628C199.201 293.471 182.226 312.365 171.021 334.815C170.028 336.804 173.981 336.778 174.75 335.238C182.97 318.77 194.27 304.183 208.416 292.655C217.335 285.387 227.819 280.455 236.876 273.538C237.409 274.268 237.942 274.994 238.471 275.731C246.74 287.229 254.589 299.301 263.64 310.021C264.503 311.043 265.987 309.859 265.59 308.719C265.712 308.672 265.82 308.593 265.903 308.49C267.384 306.653 267.989 304.417 269.108 302.334C270.658 299.452 272.504 296.793 274.757 294.441C278.314 290.724 282.333 288.837 286.559 286.661C288.241 295.508 290.391 305.748 295.423 313.042C295.628 313.341 295.928 313.473 296.227 313.496C296.465 313.517 296.703 313.456 296.903 313.322C296.949 313.351 296.994 313.383 297.043 313.406C297.474 313.606 298.046 313.528 298.382 313.04C303.414 305.746 305.564 295.503 307.246 286.657C311.474 288.83 315.472 290.701 319.048 294.437C321.143 296.627 322.88 299.078 324.367 301.737C325.523 303.809 326.226 306.106 327.588 308.014L327.492 308.18C326.842 309.361 328.457 310.766 329.38 309.674C338.654 298.69 346.665 286.283 355.16 274.531C355.695 273.791 356.24 273.065 356.782 272.329C365.49 279.014 375.44 283.899 384.415 290.825C399.885 302.763 412.204 318.253 421.003 335.897C421.765 337.441 425.503 336 424.583 334.155ZM221.662 155.072V159.458C218.279 159.513 214.856 159.452 211.725 158.093C205.183 155.253 201.032 148.593 200.854 141.371C200.62 131.874 199.343 120.251 207.768 113.871C211.926 110.722 216.792 110.93 221.662 110.993V155.072ZM224.981 108.338C222.129 108.338 219.279 108.252 216.472 108.479C213.522 92.7369 215.734 73.0419 222.441 61.2611C223.628 59.1763 225.451 53.4311 226.987 52.1184C227.333 51.8218 227.579 51.5924 227.782 51.3905C227.936 51.441 228.164 51.4725 228.512 51.4662C230.017 51.4389 237.456 61.5746 238.573 62.6937C238.694 62.8136 238.822 62.8831 238.951 62.9462C238.916 63.0766 238.875 63.2049 238.877 63.3648C239.072 74.3694 239.654 86.0366 236.585 96.7255C234.411 104.293 230.622 110.85 226.423 117.254V115.343V109.015C226.423 108.445 225.318 108.338 224.981 108.338ZM284.052 283.788C279.832 285.412 275.893 288.519 272.897 291.567C269.432 295.095 264.618 301.097 264.366 306.542C257.81 295.158 249.303 284.471 241.011 274.157C239.521 272.304 238.04 270.459 236.578 268.628C237.786 267.829 238.949 266.924 240.175 266.184C241.877 265.171 243.648 264.286 245.475 263.537C258.354 270.105 271.337 277.651 284.552 283.59C284.386 283.649 284.22 283.723 284.052 283.788ZM304.888 285.41L305.23 285.595L305.306 285.637C304.311 289.991 303.094 294.29 301.66 298.514C301.341 299.448 300.976 300.369 300.609 301.293C299.323 304.526 297.9 307.724 296.901 311.037C295.618 306.777 293.588 302.725 292.14 298.514C290.707 294.29 289.491 289.992 288.497 285.637L288.915 285.41C290.004 285.435 290.808 283.731 289.873 282.948C278.399 273.358 262.448 267.602 248.78 261.526C255.584 252.278 259.83 241.24 261.815 229.84C262.032 228.597 262.188 227.343 262.346 226.091C262.701 226.436 263.051 226.788 263.408 227.131C270.939 234.38 280.174 237.357 290.57 238.24C301.712 239.187 316.561 237.78 325.566 230.248C327.745 228.417 329.857 226.504 331.898 224.514C333.393 237.182 337.288 249.626 344.604 260.047C344.91 260.483 345.234 260.887 345.56 261.291C331.777 267.455 315.556 273.233 303.934 282.948C302.993 283.731 303.799 285.433 304.888 285.41ZM352.617 273.048C344.395 283.277 335.902 293.871 329.269 305.136C328.365 300.089 324.071 294.794 320.904 291.567C317.789 288.397 313.657 285.149 309.247 283.588C311.267 282.679 313.282 281.743 315.294 280.769C326.429 275.369 337.413 269.1 348.324 263.537C350.146 264.299 351.924 265.157 353.624 266.184C354.616 266.783 355.568 267.49 356.534 268.163C355.24 269.783 353.934 271.412 352.617 273.048ZM367.411 170.961C367.745 168.235 367.891 165.452 367.946 162.652C372.139 162.677 376.273 162.753 380.273 161.507C380.435 161.764 391.233 179.174 385.141 190.358C382.219 195.724 375.799 198.863 366.07 199.789L366.103 202.57C376.911 201.573 384.101 197.946 387.497 191.71C393.865 180.02 384.657 163.539 382.836 160.493C387.045 158.468 390.488 155.08 392.635 150.85C394 148.183 394.776 145.24 394.905 142.231C395.079 137.807 394.948 133.339 394.917 128.91C394.894 125.816 394.239 122.761 392.996 119.942C391.386 116.277 388.807 113.099 385.295 110.926C384.333 110.343 383.322 109.85 382.274 109.453C383.685 100.84 381.942 92.0153 381.704 82.7127C381.596 78.4758 383.17 72.5749 381.987 68.5589C380.62 63.9181 377.536 61.6924 374.819 59.0817C379.979 54.4386 384.716 49.3237 388.973 43.8003C390.054 42.3971 388.299 40.4365 387.005 41.7807C377.692 51.4557 367.528 60.508 356.398 67.2799L356.445 66.9222L356.361 67.303C356.048 67.4923 355.732 67.6753 355.418 67.8626C355.41 67.81 355.396 67.7658 355.4 67.7006C355.398 67.7595 355.387 67.8226 355.379 67.8857C354.374 68.4811 353.362 69.0596 352.342 69.615C352.328 69.4909 352.291 69.3562 352.349 69.2237C351.816 69.5645 352.388 68.9144 351.832 68.8345C351.897 68.7353 351.984 68.6532 352.086 68.5947C351.948 68.5829 351.811 68.5561 351.678 68.5147L351.707 68.5358L351.709 68.5337L351.711 68.54C351.764 68.5841 351.791 68.6157 351.746 68.5947L351.738 68.6094L351.799 68.784C351.582 68.7609 351.713 68.683 351.738 68.6094L351.709 68.54L351.705 68.5358L351.246 69.007C351.401 69.0196 351.551 68.946 351.799 68.7861C351.914 69.1879 351.809 69.4698 352.027 69.7896L351.28 70.1914C351.06 69.8733 350.816 69.5724 350.552 69.291C350.632 69.4719 350.714 69.6339 350.53 69.9936C350.647 70.0904 350.905 70.1619 351.112 70.2755C350.784 70.448 350.454 70.6142 350.124 70.7825C350.075 70.6879 350.048 70.7552 350.007 70.8435C349.958 70.8684 349.91 70.8936 349.861 70.9193C349.661 70.4018 349.535 70.65 349.41 70.9214C349.441 70.9842 349.483 71.0406 349.533 71.0876C349.435 71.1381 349.337 71.1906 349.236 71.239L348.908 71.0308C349.072 70.589 349.127 69.7664 349.597 69.819C349.129 69.2616 349.544 69.9263 348.933 69.2994C349.591 70.1198 347.961 69.6402 348.773 70.4522C348.11 69.7075 348.133 70.2797 347.454 69.6886C347.559 69.8947 347.758 70.042 347.399 70.0631L347.411 70.2776L347.383 70.2692L347.411 70.2881C347.411 70.326 347.413 70.3323 347.421 70.2945C347.536 70.3576 347.645 70.4438 347.721 70.5511C347.772 71.0897 347.272 71.3021 347.19 71.5862C346.95 71.5399 347.169 71.319 346.966 71.1233L346.856 71.5735C346.632 71.1107 346.011 70.9319 346.357 70.528L345.935 70.6205C345.584 70.4207 345.211 70.4059 345.084 70.6626C344.85 70.6121 344.795 71.3253 344.822 70.9045L344.284 71.3779L344.235 71.2601C343.579 71.3737 343.189 72.4192 342.162 71.7523C341.988 71.9332 341.812 72.1436 341.408 72.1079L341.205 71.7082C340.973 71.9312 340.253 71.5167 340.266 71.9879C339.646 70.9655 338.861 72.0826 338.295 71.9396L338.422 72.4949C338.07 72.5223 337.783 72.7369 337.407 73.0335L337.555 73.5194C337.278 73.9865 336.511 73.3364 335.939 73.4879C335.937 73.2922 336.097 73.3154 336.228 73.4122C335.289 72.4192 334.918 74.4788 334.112 73.7761C333.987 73.9844 333.86 73.9423 333.727 73.8371L333.762 73.8035L333.696 73.8077L333.427 73.5826C333.493 73.6728 333.572 73.7517 333.661 73.8161C333.489 73.8705 333.333 73.9673 333.206 74.098L333.036 73.5783L332.997 73.6015C332.786 73.4353 332.896 73.8792 333.062 74.2642C332.98 74.3735 332.917 74.4967 332.876 74.6281C332.585 73.7887 332.443 75.0131 332.093 74.1085C332.039 74.5671 331.213 74.5229 331.25 75.478C331.225 75.3539 331.162 75.3013 331.262 75.2845C331.037 75.194 330.813 75.1035 330.663 75.3875L330.483 74.7144L330.147 75.6674C329.815 75.2761 329.673 75.0425 329.88 74.4956C329.32 75.3581 329.384 74.8448 328.91 75.6905L328.89 75.2466C328.691 75.2802 328.429 75.8988 328.269 75.5453C327.735 74.7417 326.017 75.6232 324.816 74.9289C325.111 76.2311 324.248 74.3483 324.252 75.3602C324.17 75.053 324.002 74.8785 324.176 74.6113C323.6 74.9163 323.278 74.1253 322.899 74.9815C322.823 74.6723 323.011 74.5292 322.946 74.3462C322.901 74.4135 322.767 74.6155 322.702 74.4325C322.636 74.2494 322.78 74.1737 322.868 74.0391C322.275 74.0938 322.234 75.0468 322.208 75.9387C321.89 75.518 321.74 75.579 321.523 76.1659C321.412 75.8735 321.23 75.5706 321.605 75.4633C321.389 75.4212 320.311 75.0446 320.286 75.7599C320.221 75.579 319.989 75.7094 319.934 75.7915C319.456 75.7515 319.415 75.6884 318.945 75.7578L319.075 75.8735C318.872 76.7381 318.679 76.0691 318.298 76.1764L318.31 76.0881C317.461 75.4654 317.922 76.4078 317.094 75.6463L317.116 76.187C316.983 77.3356 316.386 75.4591 315.87 75.8693L316.032 76.187C315.732 76.5656 315.365 74.5713 315.111 74.4114C315.06 74.3084 315.214 74.2558 315.3 74.1884C314.646 73.4648 315.162 74.8848 314.625 75.0152C314.555 74.6302 314.818 74.0601 314.473 73.9676C314.328 73.652 313.352 75.1351 312.932 74.3778C313.009 74.6765 313.092 74.9731 312.825 75.1772C312.435 75.2571 311.923 74.0138 311.486 74.9121C311.451 74.8398 311.436 74.759 311.443 74.6786C311.131 74.9016 310.465 75.0152 310.233 75.4801C310.205 73.6057 308.326 76.1575 308.564 74.4598L307.672 74.443L307.721 74.2726C307.178 74.0917 306.918 74.4745 306.653 74.8574C306.54 74.727 306.661 74.5797 306.688 74.4935C305.921 74.0517 305.835 74.1148 304.992 74.8743L305.019 74.3168C304.769 74.6134 303.994 73.3238 303.075 73.8013C303.099 73.7133 303.147 73.6338 303.213 73.5721C302.175 74.0538 301.404 71.685 300.633 73.6099L299.926 73.9928C300.664 74.2831 299.612 74.8322 299.854 75.2172C299.518 75.2782 299.202 74.4808 299.602 74.4451L299.637 74.5545C300.016 73.5468 298.761 74.0201 298.954 73.3217C297.418 73.1429 296.133 72.1731 294.749 71.8407L294.681 72.6696L294.205 72.5139C294.131 72.3014 294.215 71.8554 294.554 71.9648C294.502 71.4746 293.861 72.2109 293.799 72.3813C293.213 71.908 294.341 71.5167 294.135 71.4515L293.836 71.4473L293.871 71.5546C293.545 71.826 293.422 72.1646 293.014 72.0321C292.799 71.8133 293.028 71.5146 292.934 71.4599C292.952 71.4031 292.926 71.3695 292.782 71.401L292.194 71.1906L292.241 71.8743C291.872 72.1184 291.677 71.6913 291.736 72.4739C291.669 71.2748 289.59 71.4746 289.448 71.0707C288.915 71.4199 288.544 71.3127 288.099 71.1339C288.169 71.2937 287.992 72.0048 287.619 71.8134C288.279 70.4207 287.107 71.0013 287.168 69.8779C287.201 70.6458 285.993 69.7033 286.075 70.8035C285.79 70.5869 286.256 70.265 286.135 69.8527C285.144 70.164 284.56 68.9691 283.531 68.8597C283.438 69.0406 283.486 69.373 283.166 69.5855L283.041 68.5042C282.817 68.5316 282.421 69.5098 282.35 68.7524C282.333 68.9249 282.307 69.1837 282.155 69.1984C280.689 67.6816 277.991 68.6073 276.959 66.2343C277.031 66.6803 276.848 66.6508 276.656 66.5877C276.721 66.695 276.533 66.9222 276.408 67.1389L276.235 67.0569L275.916 66.2974C275.52 66.7939 275.214 66.3142 274.894 66.4257C266.619 62.597 258.188 59.433 248.026 59.6223C248.001 59.5718 247.993 59.5213 247.958 59.4709C244.848 54.9689 240.689 50.9424 237.31 46.5814C234.099 42.4413 230.604 38.6988 226.277 35.8314C237.191 10.0546 271.169 23.043 290.914 17.6659C321.634 9.29939 349.004 -11.8829 377.144 21.9111C377.827 22.7316 379.113 21.6734 378.586 20.7709C359.447 -11.965 326.14 1.81017 297.964 11.4999C274.374 19.6118 235.43 5.93765 223.944 35.4969C223.828 35.6366 223.741 35.7987 223.687 35.9735C223.633 36.1484 223.614 36.3325 223.63 36.5151C223.63 36.6703 223.67 36.8228 223.744 36.958C223.818 37.0932 223.925 37.2065 224.054 37.2872C224.102 37.3293 224.128 37.3798 224.186 37.4197C229.021 40.6468 232.556 45.1845 236.103 49.7727C238.967 53.4795 242.014 58.4758 246.146 60.8362C246.154 61.4147 246.529 61.989 247.271 62.0184C257.076 62.416 265.817 65.2266 274.255 68.6473C274.197 68.9187 274.099 69.1797 273.966 69.4214C274.788 68.704 274.314 71.1212 275.569 70.1136C275.608 70.366 275.294 70.3849 275.255 70.6416C275.624 70.2818 275.856 70.265 276.121 70.589L276.03 70.6773C277.082 70.9445 277.306 71.5483 278.327 72.2131L278.464 71.6913C278.679 71.8407 278.661 72.0132 278.72 72.1773C279.336 71.5251 278.052 71.8975 278.677 71.1633C278.552 72.2783 280.385 71.7671 280.113 72.9893C280.488 73.1261 280.248 72.3771 280.621 72.5139L280.59 72.8589L280.855 72.4907C281.074 72.6422 281.035 73.0735 280.935 73.3406C280.888 73.2881 280.732 73.3554 280.658 73.3554C280.826 73.8392 281.626 73.5216 281.687 73.6772L281.398 73.3722C282.559 73.4017 283.674 74.2053 284.925 73.875L284.937 73.6141C285.868 73.4037 285.448 74.0769 286.377 74.1001L286.325 74.1485C286.434 74.0673 286.556 74.0087 286.686 73.976L287.008 74.1148C286.932 74.3483 287.226 74.6765 286.895 74.8743C287.539 74.7165 287.588 74.6512 287.759 74.4367L288.685 74.8301C288.677 74.8343 288.679 74.8406 288.671 74.8448C288.936 75.3286 289.274 75.2887 289.573 75.2066L290.256 75.4906C290.264 75.5601 290.281 75.6105 290.281 75.7052C290.33 75.6421 290.348 75.5958 290.381 75.5411C291.236 75.8966 292.093 76.2438 292.952 76.5846C292.932 76.6308 292.92 76.6645 292.887 76.7255C292.922 76.6666 292.946 76.6393 292.977 76.5951C293.385 76.7571 293.795 76.9211 294.205 77.0789L294.162 77.1357C294.191 77.1126 294.213 77.1084 294.238 77.0916L294.773 77.2956C294.913 77.487 295.048 77.6911 295.271 77.5838C295.023 77.5333 294.935 77.4492 294.911 77.3482L295.932 77.729C296.03 77.8552 296.169 77.9499 296.411 77.9499C296.356 77.9625 296.288 77.9099 296.227 77.8405L296.686 78.013L296.698 78.0382L296.744 78.034C306.489 81.5683 316.725 83.794 328.595 81.9995C338.123 80.5606 347.173 77.3251 355.57 72.7768C356.005 87.425 354.299 104.663 364.399 115.888V165.016C364.399 175.945 360.017 186.074 353.837 195.316L356.929 195.011C362.031 187.667 366.353 179.566 367.411 170.961ZM292.821 71.6324L292.874 71.7902C292.612 71.8912 292.715 71.7692 292.821 71.6324ZM312.339 78.9365L312.175 78.926C312.263 78.8166 312.351 78.7072 312.409 78.6462C312.558 78.844 312.374 78.8229 312.339 78.9365ZM312.396 78.9407L312.788 78.6525C312.823 78.7539 312.823 78.8641 312.79 78.966L312.396 78.9407ZM318.138 79.1237C318.153 79.0598 318.182 79.0002 318.223 78.9492C318.264 78.8983 318.315 78.8573 318.373 78.8292C318.443 78.3811 318.697 78.8082 318.997 79.0985C318.71 79.1069 318.425 79.1195 318.138 79.1237ZM320.475 79.0564C320.563 78.9449 320.668 78.8019 320.834 78.5684L321.287 79.0059C321.016 79.0207 320.748 79.0438 320.475 79.0564ZM322.091 77.9225L321.859 77.4828C321.713 77.9183 321.574 78.4022 321.611 78.8208C321.655 78.7341 321.727 78.6652 321.814 78.6252C321.775 78.743 321.75 78.8503 321.771 78.9218C321.793 78.9975 321.857 78.8376 321.957 78.6546L322.017 78.9512L321.64 78.9786C321.629 78.926 321.615 78.8755 321.611 78.8208C321.587 78.8711 321.581 78.9285 321.595 78.9828L321.307 79.0038C320.986 78.4758 321.414 77.851 321.785 77.3356L321.48 76.7424L322.087 76.3531C322.163 76.4709 322.107 76.7171 322.011 77.0158L322.119 76.8433C322.347 77.1063 322.245 77.5207 322.091 77.9225ZM322.302 78.2549C322.409 78.2107 322.53 78.2276 322.669 78.3664C322.589 78.5452 322.456 78.459 322.302 78.2549ZM324.738 78.6988C324.681 78.6841 324.62 78.6915 324.568 78.7198C324.207 78.7598 323.848 78.8082 323.487 78.8418C323.879 78.1918 324.291 77.5333 324.924 77.2977C324.756 77.8005 324.873 78.1539 324.926 78.6757C324.864 78.6843 324.801 78.692 324.738 78.6988ZM325.987 78.5494C326.036 78.523 326.08 78.4882 326.118 78.4464C326.122 78.4758 326.12 78.5032 326.122 78.5326L325.987 78.5494ZM326.345 78.5053C326.434 78.3391 326.54 78.2633 326.696 78.459L326.345 78.5053ZM329.191 78.0467C329.234 77.9421 329.256 77.8298 329.255 77.7164C329.261 77.7542 329.267 77.8805 329.271 78.034L329.191 78.0467ZM329.95 77.9015L329.874 77.6091L329.847 77.9225C329.747 77.9415 329.649 77.9667 329.548 77.9856L330.116 75.7704C330.112 76.248 330.331 77.0811 330.417 77.8026C330.26 77.8342 330.106 77.872 329.95 77.9015ZM330.67 77.75C330.676 77.7248 330.67 77.6743 330.682 77.6659L330.727 77.7374C330.708 77.7418 330.689 77.746 330.67 77.75ZM331.629 77.5481C331.662 77.4723 331.701 77.4197 331.752 77.4219C331.75 77.4387 331.758 77.4913 331.76 77.5186L331.629 77.5481ZM333.844 77.0179C333.93 76.755 334.047 76.5488 334.274 76.5299C334.264 76.6552 334.264 76.7812 334.276 76.9064L333.844 77.0179ZM335.644 76.5404C335.388 76.614 335.131 76.6856 334.873 76.755C334.967 75.8357 335.127 74.809 335.429 74.4556L335.626 74.7964L336.015 74.302C335.936 75.0552 335.812 75.8027 335.644 76.5404ZM338.986 75.4991L338.748 74.6323L338.908 75.5243C338.74 75.5811 338.574 75.6421 338.406 75.6968C338.223 75.0005 338.096 74.363 338.096 74.0811C338.162 74.1295 339.099 74.7438 339.39 75.1267C339.433 75.1877 339.439 75.2655 339.466 75.3328L338.986 75.4991ZM341.133 74.748C341.174 74.6323 341.215 74.5145 341.266 74.4556C341.278 74.525 341.315 74.5944 341.348 74.6639L341.133 74.748ZM345.742 71.0034V71.0308C345.433 70.8961 345.545 70.9529 345.742 71.0034ZM343.76 73.7235C343.839 73.3238 343.983 72.9557 344.209 72.6906C344.649 72.3245 344.647 73.2081 344.692 73.0566C345.744 72.9388 344.934 71.2643 345.992 71.6871C346.241 71.9132 346.411 72.2158 346.478 72.5496C345.576 72.9577 344.672 73.349 343.76 73.7235ZM348.631 71.5357L348.611 71.5441C348.371 71.6598 348.129 71.7692 347.889 71.8849C348.035 71.4704 348.186 71.0076 348.658 71.0812L348.867 71.4242C348.789 71.462 348.709 71.4957 348.631 71.5357ZM390.078 128.969C390.24 138.629 391.661 150.549 382.393 156.475C378.42 159.016 373.849 158.941 369.342 158.869V115.846V111.542C372.892 111.481 376.482 111.466 379.789 112.901C386.043 115.615 389.963 122.092 390.078 128.969ZM357.823 71.5146C363.113 68.4425 368.12 64.8839 372.783 60.8825C372.879 61.076 372.951 61.2148 372.98 61.2632C379.836 72.434 381.795 92.7264 378.914 108.435C375.102 107.637 371.137 107.774 367.101 107.774C366.193 107.774 364.786 108.502 364.549 109.535C357.938 98.2255 360.044 85.0773 357.823 71.5146Z" fill="#323232"/>
<path d="M259.213 119.593C250.909 119.593 250.896 132.833 259.213 132.833C267.515 132.833 267.529 119.593 259.213 119.593ZM334.785 119.593C326.481 119.593 326.468 132.833 334.785 132.833C343.087 132.833 343.101 119.593 334.785 119.593ZM287.761 146.602C285.122 148.081 283.797 148.765 283.178 152.158C281.671 160.402 288.61 168.161 296.165 169.005C298.464 169.261 298.486 165.918 296.67 165.18C292.751 163.587 282.514 156.942 288.837 150.608C289.501 149.941 291.65 149.619 292.571 149.137C294.853 147.944 296.616 146.552 297.82 144.21C301.039 137.947 299.774 126.968 296.139 121.265C295.464 120.209 293.686 120.554 293.721 121.936C293.824 125.822 294.9 129.389 295.042 133.304C295.306 140.581 293.814 143.211 287.761 146.602V146.602ZM274.292 185.689C286.889 195.07 306.897 195.181 319.692 185.786C320.918 184.885 320.157 183.118 318.693 183.354C312.136 184.414 306.089 187.341 299.415 188.104C291.021 189.063 283.084 187.578 275.889 182.889C274.138 181.747 272.676 184.486 274.292 185.689ZM295.513 199.769C293.186 199.891 290.826 199.233 288.548 199.679C287.404 199.902 287.474 201.419 288.253 201.993C290.324 203.518 293.529 203.495 295.991 203.43C298.283 203.369 301.406 203.333 302.952 201.389C303.541 200.649 303.323 199.656 302.421 199.327C300.276 198.545 297.742 199.654 295.513 199.769V199.769ZM364.788 22.2557C364.151 21.4206 362.691 22.3252 363.044 23.2971C364.331 26.846 367.651 28.1314 371.059 28.9477C376.386 30.2225 382.924 31.2155 388.227 29.6061C389.016 29.3663 389.123 28.0304 388.227 27.8537C380.855 26.4043 370.027 29.1096 364.788 22.2557ZM368.783 37.5056C367.798 37.6234 367.403 39.1402 368.53 39.4179C375.371 41.1029 386.014 39.1654 391.21 34.0639C392.131 33.1593 391.187 31.4363 389.949 31.8403C386.613 32.9258 383.628 34.8528 380.228 35.8647C376.441 36.9944 372.656 37.0407 368.783 37.5056V37.5056Z" fill="#323232"/>
<path d="M196.14 127.648C196.368 124.492 197.389 121.547 198.951 118.942C194.153 123.36 191.269 129.028 191.269 135.21C191.269 140.958 193.791 146.242 197.996 150.511C196.74 147.712 196.088 144.668 196.085 141.587C196.069 136.969 195.808 132.255 196.14 127.648V127.648ZM207.768 113.873C199.343 120.253 200.62 131.874 200.854 141.372C201.033 148.594 205.183 155.255 211.726 158.095C214.856 159.454 218.279 159.513 221.662 159.46V155.074V110.997C216.79 110.929 211.926 110.723 207.768 113.873V113.873ZM394.905 142.228C394.775 145.238 394 148.18 392.635 150.847C397.046 146.524 399.697 141.107 399.697 135.208C399.697 129.476 397.187 124.202 392.998 119.94C394.218 122.717 394.899 125.763 394.919 128.908C394.948 133.336 395.079 137.804 394.905 142.228V142.228ZM369.343 111.54V158.867C373.849 158.938 378.42 159.014 382.393 156.473C391.663 150.547 390.24 138.629 390.078 128.967C389.964 122.088 386.043 115.61 379.789 112.896C376.482 111.466 372.892 111.479 369.343 111.54V111.54ZM366.177 208.788L366.103 202.569L366.07 199.788L366.004 194.108L356.923 195.004L353.831 195.307L334.785 197.186L338.613 208.788H346.202H366.177Z" fill="#F4910F"/>
<path d="M172.165 273.3C172.081 272.955 171.644 273.145 171.744 273.136C171.709 273.34 172.095 273.269 172.165 273.3ZM171.035 269.798L170.651 269.295L170.879 269.737L171.035 269.798ZM170.61 268.369L171.137 268.626C171.055 267.938 170.707 267.044 170.891 266.56C170.235 266.859 170.994 267.711 170.76 268.277L170.61 268.369V268.369ZM172.298 265.193C172.294 265.084 172.299 264.976 172.314 264.869C172.06 264.972 172.097 264.503 172.234 265.264C172.263 265.226 172.279 265.216 172.298 265.193ZM172.298 265.193C172.316 265.527 172.513 264.974 172.298 265.193V265.193ZM172.679 263.752C172.556 263.299 172.404 263.392 172.156 263.648L172.384 264.09C172.534 263.998 172.569 263.604 172.679 263.752ZM171.679 263.228L171.775 263.457C171.839 263.417 171.861 263.356 171.679 263.228ZM171.847 263.68C171.652 263.64 171.839 263.737 171.976 263.943L171.773 263.459C171.668 263.52 171.455 263.526 171.847 263.68ZM171.878 264.216C171.734 264.463 171.644 264.782 171.418 264.338C171.504 265.182 171.966 265.058 171.878 264.216ZM172.503 260.903C172.363 260.876 172.13 261.05 171.951 261.082L172.111 261.408C172.208 261.242 172.296 260.924 172.503 260.903V260.903ZM171.951 261.082L171.713 260.594C171.685 261.029 171.798 261.109 171.951 261.082ZM170.951 263.148L171.453 263.949L170.945 262.994L170.951 263.148ZM172.359 258.827L172.523 259.043L172.847 259.319L172.359 258.827ZM173.087 257.748C173.04 257.413 172.81 257.125 172.605 256.868C172.72 257.142 172.69 257.434 172.47 257.811C172.737 258.015 172.923 257.531 173.087 257.748ZM172.183 259.384L171.789 259.576L171.783 259.767C171.869 259.729 172.089 259.656 172.183 259.384ZM171.777 259.58L171.789 259.574L171.812 259.159C171.803 259.3 171.792 259.44 171.777 259.58Z" fill="#323232"/>
<path d="M171.31 261.874C171.101 261.598 170.873 261.064 170.559 261.529V260.384C170.707 260.214 170.844 260.102 170.871 260.138C170.756 260.176 170.66 260.218 170.559 260.258V258.272C170.604 258.278 170.65 258.282 170.689 258.297L170.559 257.738V254.346C170.947 254.262 171.359 254.1 171.665 253.903C171.507 253.888 171.359 253.886 171.146 253.375C170.992 253.513 170.795 254.113 170.559 254.174V253.322C170.598 253.284 170.637 253.25 170.672 253.192C170.631 253.217 170.596 253.217 170.559 253.223V251.622L170.611 251.866C170.609 251.845 170.607 251.826 170.611 251.805C171.131 251.908 170.961 251.538 170.789 251.17C170.639 251.185 170.584 251.252 170.557 251.34V250.774L170.857 250.389C171.14 250.905 171.736 251.54 171.556 252.178C172.114 251.889 171.492 252.03 172.144 251.578C171.334 251.969 172.183 249.945 171.33 250.575C172.087 250.112 171.652 249.769 172.298 249.163C172.112 249.182 171.941 249.377 172.036 248.841C171.977 248.808 171.922 248.769 171.872 248.723C171.876 248.706 171.88 248.702 171.886 248.687L171.863 248.717C171.835 248.694 171.829 248.692 171.855 248.727C171.789 248.845 171.691 248.94 171.572 249.001C171.146 248.734 171.162 247.882 170.941 247.594C171.031 247.276 171.154 247.726 171.353 247.554L171.023 247.122C171.435 247.08 171.71 246.279 171.952 247.03L171.972 246.357C172.204 245.959 172.298 245.414 172.126 245.077C172.216 244.76 171.671 244.274 171.993 244.552L171.738 243.493L171.841 243.483C171.896 242.439 171.162 241.333 171.911 240.142C171.808 239.791 171.681 239.427 171.8 238.84L172.157 238.726C172.034 238.276 172.517 237.374 172.146 237.178C173.108 236.694 172.362 234.99 172.534 234.197L172.068 234.166C172.095 233.619 171.964 233.095 171.779 232.417L171.367 232.457C171.031 231.872 171.665 230.955 171.624 230.032C171.781 230.095 171.738 230.328 171.644 230.495C172.577 229.392 170.974 228.164 171.654 227.162C171.505 226.912 171.556 226.731 171.66 226.556C171.662 226.578 171.669 226.599 171.681 226.617C171.686 226.583 171.688 226.549 171.687 226.514C171.759 226.405 171.841 226.291 171.906 226.167C171.818 226.252 171.744 226.35 171.685 226.458C171.667 226.194 171.613 225.935 171.523 225.688L171.966 225.568C171.96 225.545 171.962 225.526 171.954 225.502C172.118 225.223 171.745 225.275 171.41 225.425C171.343 225.284 171.253 225.156 171.144 225.046C171.859 224.819 170.906 224.295 171.667 223.986C171.295 223.792 171.39 222.547 170.609 222.391C170.711 222.381 170.76 222.296 170.766 222.452C170.857 222.134 170.945 221.815 170.725 221.529L171.289 221.394L170.557 220.717V220.67C170.887 220.271 171.088 220.108 171.511 220.519C170.846 219.503 171.263 219.694 170.604 218.829L170.967 218.872C170.955 218.562 170.467 218.068 170.769 217.883C171.462 217.195 170.873 214.468 171.519 212.699C170.447 213.04 172.001 211.877 171.17 211.805C171.425 211.702 171.568 211.456 171.786 211.744C171.539 210.84 172.191 210.387 171.492 209.76C171.747 209.657 171.863 209.954 172.013 209.863C171.958 209.79 171.794 209.575 171.945 209.483C172.097 209.39 172.157 209.615 172.267 209.758C172.226 208.835 171.447 208.74 170.715 208.671C171.056 208.212 171.01 207.979 170.555 207.65V207.617C170.789 207.455 171.027 207.215 171.111 207.772C171.146 207.45 171.466 205.801 170.879 205.767C171.029 205.667 170.924 205.317 170.857 205.231C170.894 204.507 170.947 204.444 170.894 203.733L170.797 203.931C170.711 203.899 170.63 203.853 170.557 203.794V202.997C170.567 202.926 170.567 202.855 170.557 202.784V202.765L170.629 202.782C171.144 201.47 170.387 202.214 170.974 200.918L170.557 200.984V200.022C170.73 199.715 170.873 199.381 170.732 199.088L170.557 199.275V198.989C170.887 198.592 171.802 198.108 171.892 197.801C171.974 197.71 172.023 197.944 172.085 198.07C172.647 196.991 171.509 197.929 171.375 197.123C171.687 196.976 172.167 197.317 172.226 196.774C172.479 196.505 171.22 195.198 171.818 194.462C171.578 194.624 171.339 194.786 171.158 194.412C171.074 193.837 172.068 192.863 171.312 192.344C171.378 192.27 171.441 192.243 171.5 192.241C171.306 191.801 171.181 190.816 170.771 190.551C172.294 190.15 170.037 187.825 171.441 187.838L171.369 186.489L171.513 186.525C171.607 185.662 171.271 185.357 170.937 185.054C171.033 184.855 171.164 185.002 171.236 185.019C171.523 183.761 171.462 183.634 170.764 182.578L171.22 182.469C170.955 182.183 171.937 180.649 171.41 179.414C171.494 179.43 171.567 179.479 171.615 179.551C171.084 178.16 172.885 176.227 171.228 175.714L170.822 174.797C170.777 175.198 170.678 175.297 170.559 175.285V174.563C171.08 174.422 170.705 173.095 171.23 173.124C171.191 170.789 171.677 168.515 171.718 166.329L171.045 166.58L171.086 165.818C171.242 165.618 171.613 165.551 171.585 166.094C171.966 165.807 171.267 165.181 171.121 165.164C171.396 164.099 171.904 165.582 171.921 165.254L171.872 164.81L171.794 164.909C171.519 164.549 171.228 164.516 171.263 163.862C171.398 163.449 171.679 163.651 171.703 163.487C171.753 163.487 171.775 163.432 171.724 163.237L171.783 162.275L171.252 162.658C170.992 162.231 171.283 161.754 170.68 162.197C171.609 161.55 171.021 158.615 171.31 158.215C170.924 157.618 170.933 157.029 170.982 156.299C170.92 156.398 170.723 156.461 170.561 156.41V155.968C171.47 155.985 170.947 154.773 171.771 154.302C171.183 154.755 171.63 152.514 170.795 153.225C170.896 152.701 171.257 153.194 171.548 152.796C171.074 151.546 171.863 150.042 171.706 148.498C171.544 148.473 171.298 148.732 171.056 148.399L171.865 147.585C171.788 147.28 170.935 147.301 171.496 146.746C171.361 146.824 171.156 146.941 171.105 146.737C171.898 143.714 170.475 140.552 171.96 137.485C171.646 137.9 171.615 137.624 171.605 137.306C171.529 137.513 171.207 137.3 170.986 137.34L171.597 136.055C170.99 135.819 171.558 134.675 170.978 134.54L171.082 134.948C170.984 134.87 170.864 134.828 170.74 134.828L170.561 146.514V139.566V120.624C170.561 120.376 169.973 120.289 169.86 120.289H64.8997C64.1657 120.289 61.6498 120.559 61.6908 121.699L63.1938 164.301L67.0814 162.595L65.6501 122.033H145.352C151.792 122.033 159.94 120.643 166.268 122.033C166.452 122.073 166.586 122.088 166.698 122.092C166.628 122.297 166.611 122.518 166.649 122.732C166.869 124.676 166.649 126.786 166.649 128.738V273.303H157.668L111.175 168.157L103.548 150.907C103.084 149.861 101.606 150.042 100.772 150.431L5.18768 194.923C4.77555 195.114 3.74212 195.832 4.05378 196.473L30.1494 250.232L62.349 316.564L70.5855 333.53C71.0838 334.559 72.4944 334.41 73.3617 334.006L164.014 291.809C164.835 291.485 165.452 290.903 165.163 290.251L158.439 275.045H167.353C167.381 275.045 167.422 275.039 167.457 275.034C168.599 275.06 170.563 274.513 170.563 273.635V261.59C170.807 261.728 170.996 261.463 171.31 261.874V261.874ZM171.714 245.826L171.693 245.808C171.866 245.435 171.796 245.568 171.714 245.826ZM171.539 163.392L171.423 163.542C171.295 163.201 171.41 163.298 171.539 163.392ZM170.559 228.433C170.706 228.574 170.827 228.741 170.914 228.927L170.611 229.112L170.953 229.853C170.846 229.79 170.693 229.683 170.557 229.592L170.559 228.433V228.433ZM170.559 232.958C170.674 232.979 170.769 233.006 170.836 233.04C170.818 233.072 170.701 233.278 170.559 233.513V232.958ZM170.559 242.299C170.615 242.418 170.684 242.526 170.728 242.654C170.824 243.073 170.695 243.161 170.559 243.163V242.299ZM170.559 244.167C170.914 244.714 171.517 244.884 171.123 245.791C171.052 245.87 170.964 245.931 170.867 245.969C170.769 246.007 170.663 246.02 170.559 246.009V244.167ZM170.559 249.689V249.628V248.46C170.816 248.904 171.082 249.396 170.894 249.992L170.559 250.072V249.689ZM160.875 290.467L73.7923 331.002L16.1984 212.354L8.36785 196.223L100.286 153.438L153.625 274.065C156.04 279.534 158.458 285.002 160.875 290.467V290.467Z" fill="#323232"/>
<path d="M171.564 260.607L171.291 260.052L171.201 260.569C171.303 260.559 171.455 260.466 171.564 260.607V260.607ZM171.166 259.797L171.291 260.052L171.324 259.86L171.166 259.797ZM171.937 257.319C171.767 257.096 171.752 256.85 171.726 256.574C171.647 256.865 171.607 257.165 171.607 257.466C171.728 257.508 171.949 257.637 171.937 257.319ZM171.734 253.856C171.713 253.871 171.685 253.884 171.662 253.9L171.73 253.911L171.734 253.856Z" fill="#323232"/>
<path d="M171.673 257.998C171.631 257.824 171.609 257.645 171.607 257.466C171.552 257.447 171.515 257.443 171.533 257.514C171.455 257.737 171.552 257.872 171.673 257.998V257.998ZM171.909 256.058C172.034 255.945 172.226 255.715 172.126 255.673C172.042 255.794 171.969 255.923 171.909 256.058V256.058ZM171.913 258.292L171.931 258.326C172.013 258.255 171.972 258.263 171.913 258.292ZM171.913 258.292C171.855 258.177 171.759 258.088 171.673 257.998C171.701 258.127 171.745 258.251 171.804 258.368C171.837 258.338 171.873 258.313 171.913 258.292V258.292ZM171.624 254.874L171.669 255.084C171.732 254.844 171.878 254.674 172.165 254.359C171.989 254.007 171.853 253.936 171.732 253.91L171.679 254.945L171.624 254.874Z" fill="#323232"/>
<path d="M171.668 256.029C171.273 255.865 171.105 255.358 170.676 255.667C170.703 256.283 171.006 256.1 171.176 256.469C171.08 255.471 171.396 256.755 171.623 256.035C171.691 256.231 171.709 256.408 171.726 256.574C171.773 256.395 171.834 256.222 171.908 256.058L171.884 256.081V256.086H171.88C171.83 256.128 171.8 256.142 171.828 256.094C171.824 256.09 171.822 256.079 171.82 256.073C171.768 256.065 171.717 256.051 171.668 256.029C171.752 255.741 171.773 255.985 171.818 256.075C171.839 256.079 171.857 256.086 171.878 256.088L171.882 256.084L171.666 255.086C171.613 255.295 171.623 255.56 171.668 256.029V256.029ZM171.931 253.761L172.349 253.873L171.761 253.391L171.931 253.761ZM171.884 252.682L172.247 252.722L172.029 252.436L171.884 252.682ZM171.904 226.16C172.245 225.805 172.772 225.409 172.364 225.451L171.966 225.559C171.997 225.658 172.007 225.763 171.997 225.866C171.986 225.97 171.955 226.07 171.904 226.16V226.16ZM171.763 241.621C171.892 241.384 171.974 241.124 172.005 240.855C171.775 241.225 171.431 241.522 171.763 241.621ZM171.744 192.44C171.673 192.291 171.59 192.225 171.502 192.23C171.57 192.385 171.646 192.471 171.744 192.44ZM172.007 239.969C171.966 240.024 171.945 240.076 171.912 240.131C171.991 240.363 172.023 240.61 172.007 240.855C172.177 240.583 172.281 240.27 172.007 239.969ZM171.572 136.877C171.597 136.978 171.597 137.142 171.603 137.295C171.629 137.222 171.627 137.093 171.572 136.877ZM172.068 248.338C172.093 248.567 172.111 248.373 172.068 248.338V248.338ZM172.074 248.634C172.056 248.714 172.046 248.775 172.035 248.834C172.101 248.864 172.144 248.838 172.074 248.634ZM172.005 248.388C172.031 248.344 172.054 248.325 172.068 248.338C172.058 248.231 172.052 248.125 172.048 248.018C172.052 248.143 172.038 248.268 172.005 248.388V248.388ZM172.148 250.212C172.169 250.452 172.072 250.538 172.001 250.658C172.105 250.648 172.255 250.553 172.261 250.709L172.148 250.212ZM170.623 251.941C170.643 252.047 170.646 252.156 170.631 252.263C170.84 252.305 170.676 252.133 170.623 251.941ZM171.765 247.583C171.668 247.747 172.24 247.688 172.089 247.78C172.562 247.965 171.517 246.68 171.765 247.583ZM172.079 135.185L172.275 134.725L171.96 135.021L172.079 135.185ZM171.984 134.19L171.445 133.91C171.472 134.016 171.523 134.218 171.388 134.297L171.984 134.19V134.19Z" fill="#323232"/>
<path d="M133.779 129.449H158.37V148.292H133.779V129.449Z" fill="#F4910F"/>
<path d="M100.284 153.439L8.36595 196.224L16.1965 212.356L73.7904 331.003L160.873 290.469L153.621 274.068L100.284 153.439V153.439ZM80.2267 191.182L72.6401 174.022L95.0347 163.598L102.623 180.758L80.2267 191.182Z" fill="white"/>
<path d="M5.18364 194.912L100.768 150.42C101.602 150.031 103.082 149.85 103.544 150.896L111.171 168.146L157.664 273.292H166.645V226.611V153.814V128.727C166.645 126.773 166.865 124.665 166.645 122.721C166.608 122.507 166.625 122.287 166.694 122.081C166.549 122.075 166.405 122.055 166.264 122.022C159.934 120.632 151.786 122.022 145.348 122.022H65.6461L67.0773 162.584L63.1897 164.29L61.6868 121.688C61.6458 120.55 64.1637 120.278 64.8957 120.278H169.856C169.969 120.278 170.557 120.363 170.557 120.613V146.503L170.736 134.817L171 117.523L60.0403 115.061L62.833 164.444L0.272903 191.906L30.1412 250.221L4.04565 196.462C3.73809 195.821 4.77151 195.105 5.18364 194.912V194.912ZM133.779 129.449H158.37V148.291H133.779V129.449Z" fill="white"/>
<path d="M72.6323 174.058L95.0269 163.636L102.613 180.796L80.2186 191.218L72.6323 174.058Z" fill="#F4910F"/>
</svg>
