<svg width="220" height="60" viewBox="0 0 220 60" fill="none" xmlns="http://www.w3.org/2000/svg">
<g clip-path="url(#clip0_1_2554)">
<path fill-rule="evenodd" clip-rule="evenodd" d="M96.959 26.165H87.225V16.005H78.996V44.007H87.225V33.951H96.959V44.007H105.189V16.005H96.959V26.165ZM116.514 16.005L106.493 44.008H115.821L116.798 40.734H126.575L127.554 44.008H136.882L126.861 16.004L116.514 16.005ZM118.998 33.343L121.686 24.317L124.375 33.343H118.998ZM156.109 29.271L146.656 16.004H138.183V44.006H146.413V29.816L156.433 44.006H164.337V16.005H156.108V29.271H156.109ZM209.98 16.004H199.63L189.609 44.008H198.939L199.916 40.734H209.693L210.672 44.008H220L209.98 16.004ZM202.117 33.343L204.805 24.317L207.493 33.343H202.117ZM178.154 26.538V23.394H191.48L194.095 16.004H169.923V44.005H178.153V33.927H187.751L190.366 26.538H178.154ZM0 60H12V0H0V60ZM51 60H63V0H51V60Z" fill="#999999"/>
<path fill-rule="evenodd" clip-rule="evenodd" d="M24 23H38V37H24V23Z" fill="#CC1417"/>
</g>
<defs>
<clipPath id="clip0_1_2554">
<rect width="220" height="60" fill="white"/>
</clipPath>
</defs>
</svg>
